%TF.GenerationSoftware,KiCad,Pcbnew,10.0.2*%
%TF.CreationDate,2026-06-20T16:16:12+06:00*%
%TF.ProjectId,Psensor,5073656e-736f-4722-9e6b-696361645f70,rev?*%
%TF.SameCoordinates,Original*%
%TF.FileFunction,Legend,Top*%
%TF.FilePolarity,Positive*%
%FSLAX46Y46*%
G04 Gerber Fmt 4.6, Leading zero omitted, Abs format (unit mm)*
G04 Created by KiCad (PCBNEW 10.0.2) date 2026-06-20 16:16:12*
%MOMM*%
%LPD*%
G01*
G04 APERTURE LIST*
%ADD10C,0.125000*%
%ADD11C,0.150000*%
%ADD12C,0.100000*%
%ADD13C,0.120000*%
G04 APERTURE END LIST*
D10*
X162284809Y-73226666D02*
X162641952Y-73226666D01*
X162641952Y-73226666D02*
X162713380Y-73250475D01*
X162713380Y-73250475D02*
X162761000Y-73298094D01*
X162761000Y-73298094D02*
X162784809Y-73369523D01*
X162784809Y-73369523D02*
X162784809Y-73417142D01*
X162284809Y-72750476D02*
X162284809Y-72988571D01*
X162284809Y-72988571D02*
X162522904Y-73012380D01*
X162522904Y-73012380D02*
X162499095Y-72988571D01*
X162499095Y-72988571D02*
X162475285Y-72940952D01*
X162475285Y-72940952D02*
X162475285Y-72821904D01*
X162475285Y-72821904D02*
X162499095Y-72774285D01*
X162499095Y-72774285D02*
X162522904Y-72750476D01*
X162522904Y-72750476D02*
X162570523Y-72726666D01*
X162570523Y-72726666D02*
X162689571Y-72726666D01*
X162689571Y-72726666D02*
X162737190Y-72750476D01*
X162737190Y-72750476D02*
X162761000Y-72774285D01*
X162761000Y-72774285D02*
X162784809Y-72821904D01*
X162784809Y-72821904D02*
X162784809Y-72940952D01*
X162784809Y-72940952D02*
X162761000Y-72988571D01*
X162761000Y-72988571D02*
X162737190Y-73012380D01*
D11*
X172228095Y-75754819D02*
X172228095Y-76564342D01*
X172228095Y-76564342D02*
X172275714Y-76659580D01*
X172275714Y-76659580D02*
X172323333Y-76707200D01*
X172323333Y-76707200D02*
X172418571Y-76754819D01*
X172418571Y-76754819D02*
X172609047Y-76754819D01*
X172609047Y-76754819D02*
X172704285Y-76707200D01*
X172704285Y-76707200D02*
X172751904Y-76659580D01*
X172751904Y-76659580D02*
X172799523Y-76564342D01*
X172799523Y-76564342D02*
X172799523Y-75754819D01*
X173799523Y-76754819D02*
X173228095Y-76754819D01*
X173513809Y-76754819D02*
X173513809Y-75754819D01*
X173513809Y-75754819D02*
X173418571Y-75897676D01*
X173418571Y-75897676D02*
X173323333Y-75992914D01*
X173323333Y-75992914D02*
X173228095Y-76040533D01*
X169826666Y-85514819D02*
X169826666Y-86229104D01*
X169826666Y-86229104D02*
X169779047Y-86371961D01*
X169779047Y-86371961D02*
X169683809Y-86467200D01*
X169683809Y-86467200D02*
X169540952Y-86514819D01*
X169540952Y-86514819D02*
X169445714Y-86514819D01*
X170731428Y-85848152D02*
X170731428Y-86514819D01*
X170493333Y-85467200D02*
X170255238Y-86181485D01*
X170255238Y-86181485D02*
X170874285Y-86181485D01*
X169014819Y-81656666D02*
X168538628Y-81989999D01*
X169014819Y-82228094D02*
X168014819Y-82228094D01*
X168014819Y-82228094D02*
X168014819Y-81847142D01*
X168014819Y-81847142D02*
X168062438Y-81751904D01*
X168062438Y-81751904D02*
X168110057Y-81704285D01*
X168110057Y-81704285D02*
X168205295Y-81656666D01*
X168205295Y-81656666D02*
X168348152Y-81656666D01*
X168348152Y-81656666D02*
X168443390Y-81704285D01*
X168443390Y-81704285D02*
X168491009Y-81751904D01*
X168491009Y-81751904D02*
X168538628Y-81847142D01*
X168538628Y-81847142D02*
X168538628Y-82228094D01*
X168443390Y-81085237D02*
X168395771Y-81180475D01*
X168395771Y-81180475D02*
X168348152Y-81228094D01*
X168348152Y-81228094D02*
X168252914Y-81275713D01*
X168252914Y-81275713D02*
X168205295Y-81275713D01*
X168205295Y-81275713D02*
X168110057Y-81228094D01*
X168110057Y-81228094D02*
X168062438Y-81180475D01*
X168062438Y-81180475D02*
X168014819Y-81085237D01*
X168014819Y-81085237D02*
X168014819Y-80894761D01*
X168014819Y-80894761D02*
X168062438Y-80799523D01*
X168062438Y-80799523D02*
X168110057Y-80751904D01*
X168110057Y-80751904D02*
X168205295Y-80704285D01*
X168205295Y-80704285D02*
X168252914Y-80704285D01*
X168252914Y-80704285D02*
X168348152Y-80751904D01*
X168348152Y-80751904D02*
X168395771Y-80799523D01*
X168395771Y-80799523D02*
X168443390Y-80894761D01*
X168443390Y-80894761D02*
X168443390Y-81085237D01*
X168443390Y-81085237D02*
X168491009Y-81180475D01*
X168491009Y-81180475D02*
X168538628Y-81228094D01*
X168538628Y-81228094D02*
X168633866Y-81275713D01*
X168633866Y-81275713D02*
X168824342Y-81275713D01*
X168824342Y-81275713D02*
X168919580Y-81228094D01*
X168919580Y-81228094D02*
X168967200Y-81180475D01*
X168967200Y-81180475D02*
X169014819Y-81085237D01*
X169014819Y-81085237D02*
X169014819Y-80894761D01*
X169014819Y-80894761D02*
X168967200Y-80799523D01*
X168967200Y-80799523D02*
X168919580Y-80751904D01*
X168919580Y-80751904D02*
X168824342Y-80704285D01*
X168824342Y-80704285D02*
X168633866Y-80704285D01*
X168633866Y-80704285D02*
X168538628Y-80751904D01*
X168538628Y-80751904D02*
X168491009Y-80799523D01*
X168491009Y-80799523D02*
X168443390Y-80894761D01*
X171794819Y-72826666D02*
X171318628Y-73159999D01*
X171794819Y-73398094D02*
X170794819Y-73398094D01*
X170794819Y-73398094D02*
X170794819Y-73017142D01*
X170794819Y-73017142D02*
X170842438Y-72921904D01*
X170842438Y-72921904D02*
X170890057Y-72874285D01*
X170890057Y-72874285D02*
X170985295Y-72826666D01*
X170985295Y-72826666D02*
X171128152Y-72826666D01*
X171128152Y-72826666D02*
X171223390Y-72874285D01*
X171223390Y-72874285D02*
X171271009Y-72921904D01*
X171271009Y-72921904D02*
X171318628Y-73017142D01*
X171318628Y-73017142D02*
X171318628Y-73398094D01*
X170794819Y-72493332D02*
X170794819Y-71826666D01*
X170794819Y-71826666D02*
X171794819Y-72255237D01*
D12*
X169956666Y-81118490D02*
X169932857Y-81142300D01*
X169932857Y-81142300D02*
X169861428Y-81166109D01*
X169861428Y-81166109D02*
X169813809Y-81166109D01*
X169813809Y-81166109D02*
X169742381Y-81142300D01*
X169742381Y-81142300D02*
X169694762Y-81094680D01*
X169694762Y-81094680D02*
X169670952Y-81047061D01*
X169670952Y-81047061D02*
X169647143Y-80951823D01*
X169647143Y-80951823D02*
X169647143Y-80880395D01*
X169647143Y-80880395D02*
X169670952Y-80785157D01*
X169670952Y-80785157D02*
X169694762Y-80737538D01*
X169694762Y-80737538D02*
X169742381Y-80689919D01*
X169742381Y-80689919D02*
X169813809Y-80666109D01*
X169813809Y-80666109D02*
X169861428Y-80666109D01*
X169861428Y-80666109D02*
X169932857Y-80689919D01*
X169932857Y-80689919D02*
X169956666Y-80713728D01*
X170147143Y-80713728D02*
X170170952Y-80689919D01*
X170170952Y-80689919D02*
X170218571Y-80666109D01*
X170218571Y-80666109D02*
X170337619Y-80666109D01*
X170337619Y-80666109D02*
X170385238Y-80689919D01*
X170385238Y-80689919D02*
X170409047Y-80713728D01*
X170409047Y-80713728D02*
X170432857Y-80761347D01*
X170432857Y-80761347D02*
X170432857Y-80808966D01*
X170432857Y-80808966D02*
X170409047Y-80880395D01*
X170409047Y-80880395D02*
X170123333Y-81166109D01*
X170123333Y-81166109D02*
X170432857Y-81166109D01*
D11*
X166894819Y-72936666D02*
X166418628Y-73269999D01*
X166894819Y-73508094D02*
X165894819Y-73508094D01*
X165894819Y-73508094D02*
X165894819Y-73127142D01*
X165894819Y-73127142D02*
X165942438Y-73031904D01*
X165942438Y-73031904D02*
X165990057Y-72984285D01*
X165990057Y-72984285D02*
X166085295Y-72936666D01*
X166085295Y-72936666D02*
X166228152Y-72936666D01*
X166228152Y-72936666D02*
X166323390Y-72984285D01*
X166323390Y-72984285D02*
X166371009Y-73031904D01*
X166371009Y-73031904D02*
X166418628Y-73127142D01*
X166418628Y-73127142D02*
X166418628Y-73508094D01*
X165894819Y-72079523D02*
X165894819Y-72269999D01*
X165894819Y-72269999D02*
X165942438Y-72365237D01*
X165942438Y-72365237D02*
X165990057Y-72412856D01*
X165990057Y-72412856D02*
X166132914Y-72508094D01*
X166132914Y-72508094D02*
X166323390Y-72555713D01*
X166323390Y-72555713D02*
X166704342Y-72555713D01*
X166704342Y-72555713D02*
X166799580Y-72508094D01*
X166799580Y-72508094D02*
X166847200Y-72460475D01*
X166847200Y-72460475D02*
X166894819Y-72365237D01*
X166894819Y-72365237D02*
X166894819Y-72174761D01*
X166894819Y-72174761D02*
X166847200Y-72079523D01*
X166847200Y-72079523D02*
X166799580Y-72031904D01*
X166799580Y-72031904D02*
X166704342Y-71984285D01*
X166704342Y-71984285D02*
X166466247Y-71984285D01*
X166466247Y-71984285D02*
X166371009Y-72031904D01*
X166371009Y-72031904D02*
X166323390Y-72079523D01*
X166323390Y-72079523D02*
X166275771Y-72174761D01*
X166275771Y-72174761D02*
X166275771Y-72365237D01*
X166275771Y-72365237D02*
X166323390Y-72460475D01*
X166323390Y-72460475D02*
X166371009Y-72508094D01*
X166371009Y-72508094D02*
X166466247Y-72555713D01*
X166074819Y-81716666D02*
X165598628Y-82049999D01*
X166074819Y-82288094D02*
X165074819Y-82288094D01*
X165074819Y-82288094D02*
X165074819Y-81907142D01*
X165074819Y-81907142D02*
X165122438Y-81811904D01*
X165122438Y-81811904D02*
X165170057Y-81764285D01*
X165170057Y-81764285D02*
X165265295Y-81716666D01*
X165265295Y-81716666D02*
X165408152Y-81716666D01*
X165408152Y-81716666D02*
X165503390Y-81764285D01*
X165503390Y-81764285D02*
X165551009Y-81811904D01*
X165551009Y-81811904D02*
X165598628Y-81907142D01*
X165598628Y-81907142D02*
X165598628Y-82288094D01*
X165074819Y-80811904D02*
X165074819Y-81288094D01*
X165074819Y-81288094D02*
X165551009Y-81335713D01*
X165551009Y-81335713D02*
X165503390Y-81288094D01*
X165503390Y-81288094D02*
X165455771Y-81192856D01*
X165455771Y-81192856D02*
X165455771Y-80954761D01*
X165455771Y-80954761D02*
X165503390Y-80859523D01*
X165503390Y-80859523D02*
X165551009Y-80811904D01*
X165551009Y-80811904D02*
X165646247Y-80764285D01*
X165646247Y-80764285D02*
X165884342Y-80764285D01*
X165884342Y-80764285D02*
X165979580Y-80811904D01*
X165979580Y-80811904D02*
X166027200Y-80859523D01*
X166027200Y-80859523D02*
X166074819Y-80954761D01*
X166074819Y-80954761D02*
X166074819Y-81192856D01*
X166074819Y-81192856D02*
X166027200Y-81288094D01*
X166027200Y-81288094D02*
X165979580Y-81335713D01*
D12*
X170596666Y-79388490D02*
X170572857Y-79412300D01*
X170572857Y-79412300D02*
X170501428Y-79436109D01*
X170501428Y-79436109D02*
X170453809Y-79436109D01*
X170453809Y-79436109D02*
X170382381Y-79412300D01*
X170382381Y-79412300D02*
X170334762Y-79364680D01*
X170334762Y-79364680D02*
X170310952Y-79317061D01*
X170310952Y-79317061D02*
X170287143Y-79221823D01*
X170287143Y-79221823D02*
X170287143Y-79150395D01*
X170287143Y-79150395D02*
X170310952Y-79055157D01*
X170310952Y-79055157D02*
X170334762Y-79007538D01*
X170334762Y-79007538D02*
X170382381Y-78959919D01*
X170382381Y-78959919D02*
X170453809Y-78936109D01*
X170453809Y-78936109D02*
X170501428Y-78936109D01*
X170501428Y-78936109D02*
X170572857Y-78959919D01*
X170572857Y-78959919D02*
X170596666Y-78983728D01*
X170763333Y-78936109D02*
X171072857Y-78936109D01*
X171072857Y-78936109D02*
X170906190Y-79126585D01*
X170906190Y-79126585D02*
X170977619Y-79126585D01*
X170977619Y-79126585D02*
X171025238Y-79150395D01*
X171025238Y-79150395D02*
X171049047Y-79174204D01*
X171049047Y-79174204D02*
X171072857Y-79221823D01*
X171072857Y-79221823D02*
X171072857Y-79340871D01*
X171072857Y-79340871D02*
X171049047Y-79388490D01*
X171049047Y-79388490D02*
X171025238Y-79412300D01*
X171025238Y-79412300D02*
X170977619Y-79436109D01*
X170977619Y-79436109D02*
X170834762Y-79436109D01*
X170834762Y-79436109D02*
X170787143Y-79412300D01*
X170787143Y-79412300D02*
X170763333Y-79388490D01*
%TO.C,J5*%
D13*
X160680000Y-74500000D02*
X161890000Y-74500000D01*
X160680000Y-86220000D02*
X160680000Y-74500000D01*
X161890000Y-74500000D02*
X161890000Y-74000000D01*
X161890000Y-86220000D02*
X160680000Y-86220000D01*
X161890000Y-86720000D02*
X161890000Y-86220000D01*
X162000000Y-87020000D02*
X164500000Y-87020000D01*
X162700000Y-74000000D02*
X162700000Y-75000000D01*
X162700000Y-75000000D02*
X164200000Y-75000000D01*
X162700000Y-85720000D02*
X164200000Y-85720000D01*
X162700000Y-86720000D02*
X162700000Y-85720000D01*
X164500000Y-87020000D02*
X164500000Y-84520000D01*
X160180000Y-74000000D02*
X164200000Y-74000000D01*
X164200000Y-86720000D01*
X160180000Y-86720000D01*
X160180000Y-74000000D01*
%TO.C,U1*%
X166680000Y-75030000D02*
X166680000Y-77730000D01*
X166680000Y-77730000D02*
X171480000Y-77730000D01*
X171780000Y-75030000D02*
X166680000Y-75030000D01*
X171780000Y-77430000D02*
X171780000Y-75030000D01*
X171780000Y-77730000D02*
X172060000Y-77730000D01*
X171780000Y-78010000D01*
X171780000Y-77730000D01*
G36*
X171780000Y-78010000D02*
G01*
X171780000Y-77730000D01*
X172060000Y-77730000D01*
X171780000Y-78010000D01*
G37*
%TO.C,J4*%
X165730000Y-84570000D02*
X165730000Y-87070000D01*
X165730000Y-87070000D02*
X168230000Y-87070000D01*
X166030000Y-84460000D02*
X166530000Y-84460000D01*
X166030000Y-85270000D02*
X167030000Y-85270000D01*
X166530000Y-83250000D02*
X173250000Y-83250000D01*
X166530000Y-84460000D02*
X166530000Y-83250000D01*
X167030000Y-85270000D02*
X167030000Y-86770000D01*
X172750000Y-85270000D02*
X172750000Y-86770000D01*
X173250000Y-83250000D02*
X173250000Y-84460000D01*
X173250000Y-84460000D02*
X173750000Y-84460000D01*
X173750000Y-85270000D02*
X172750000Y-85270000D01*
X166030000Y-82750000D02*
X173750000Y-82750000D01*
X173750000Y-86770000D01*
X166030000Y-86770000D01*
X166030000Y-82750000D01*
%TO.C,R8*%
X168150000Y-79506359D02*
X168150000Y-79813641D01*
X168910000Y-79506359D02*
X168910000Y-79813641D01*
%TO.C,R7*%
X169670000Y-72943641D02*
X169670000Y-72636359D01*
X170430000Y-72943641D02*
X170430000Y-72636359D01*
%TO.C,C2*%
X172541252Y-80295000D02*
X172018748Y-80295000D01*
X172541252Y-81765000D02*
X172018748Y-81765000D01*
%TO.C,R6*%
X167320000Y-72963641D02*
X167320000Y-72656359D01*
X168080000Y-72963641D02*
X168080000Y-72656359D01*
%TO.C,R5*%
X165310000Y-79556359D02*
X165310000Y-79863641D01*
X166070000Y-79556359D02*
X166070000Y-79863641D01*
%TO.C,C3*%
X172307836Y-78910000D02*
X172092164Y-78910000D01*
X172307836Y-79630000D02*
X172092164Y-79630000D01*
%TD*%
M02*
