%TF.GenerationSoftware,KiCad,Pcbnew,10.0.2*%
%TF.CreationDate,2026-06-20T13:40:25+06:00*%
%TF.ProjectId,ki,6b692e6b-6963-4616-945f-706362585858,rev?*%
%TF.SameCoordinates,Original*%
%TF.FileFunction,Copper,L2,Bot*%
%TF.FilePolarity,Positive*%
%FSLAX46Y46*%
G04 Gerber Fmt 4.6, Leading zero omitted, Abs format (unit mm)*
G04 Created by KiCad (PCBNEW 10.0.2) date 2026-06-20 13:40:25*
%MOMM*%
%LPD*%
G01*
G04 APERTURE LIST*
G04 Aperture macros list*
%AMRoundRect*
0 Rectangle with rounded corners*
0 $1 Rounding radius*
0 $2 $3 $4 $5 $6 $7 $8 $9 X,Y pos of 4 corners*
0 Add a 4 corners polygon primitive as box body*
4,1,4,$2,$3,$4,$5,$6,$7,$8,$9,$2,$3,0*
0 Add four circle primitives for the rounded corners*
1,1,$1+$1,$2,$3*
1,1,$1+$1,$4,$5*
1,1,$1+$1,$6,$7*
1,1,$1+$1,$8,$9*
0 Add four rect primitives between the rounded corners*
20,1,$1+$1,$2,$3,$4,$5,0*
20,1,$1+$1,$4,$5,$6,$7,0*
20,1,$1+$1,$6,$7,$8,$9,0*
20,1,$1+$1,$8,$9,$2,$3,0*%
G04 Aperture macros list end*
%TA.AperFunction,ComponentPad*%
%ADD10RoundRect,0.250000X0.725000X-0.600000X0.725000X0.600000X-0.725000X0.600000X-0.725000X-0.600000X0*%
%TD*%
%TA.AperFunction,ComponentPad*%
%ADD11O,1.950000X1.700000*%
%TD*%
%TA.AperFunction,ComponentPad*%
%ADD12RoundRect,0.250000X0.600000X0.750000X-0.600000X0.750000X-0.600000X-0.750000X0.600000X-0.750000X0*%
%TD*%
%TA.AperFunction,ComponentPad*%
%ADD13O,1.700000X2.000000*%
%TD*%
%TA.AperFunction,ComponentPad*%
%ADD14RoundRect,0.250000X-0.600000X-0.750000X0.600000X-0.750000X0.600000X0.750000X-0.600000X0.750000X0*%
%TD*%
%TA.AperFunction,ComponentPad*%
%ADD15R,1.600000X1.600000*%
%TD*%
%TA.AperFunction,ComponentPad*%
%ADD16O,1.600000X1.600000*%
%TD*%
%TA.AperFunction,ViaPad*%
%ADD17C,0.800000*%
%TD*%
%TA.AperFunction,ViaPad*%
%ADD18C,0.600000*%
%TD*%
%TA.AperFunction,Conductor*%
%ADD19C,0.600000*%
%TD*%
%TA.AperFunction,Conductor*%
%ADD20C,0.250000*%
%TD*%
G04 APERTURE END LIST*
D10*
%TO.P,J4,1,Pin_1_1*%
%TO.N,/D4*%
X134500000Y-64000000D03*
D11*
%TO.P,J4,2,Pin_2_2*%
%TO.N,/D2*%
X134500000Y-61500000D03*
%TO.P,J4,3,Pin_3_3*%
%TO.N,/A4*%
X134500000Y-59000000D03*
%TO.P,J4,4,Pin_4_4*%
%TO.N,/A5*%
X134500000Y-56500000D03*
%TD*%
D12*
%TO.P,J1,1,Pin_1_1*%
%TO.N,Net-(J1-Pin_1)*%
X165000000Y-85800000D03*
D13*
%TO.P,J1,2,Pin_2_2*%
%TO.N,GND*%
X162500000Y-85800000D03*
%TD*%
D14*
%TO.P,J3,1,Pin_1_1*%
%TO.N,3V3*%
X134250000Y-50700000D03*
D13*
%TO.P,J3,2,Pin_2_2*%
%TO.N,GND*%
X136750000Y-50700000D03*
%TD*%
D12*
%TO.P,J2,1,Pin_1_1*%
%TO.N,/VO10*%
X137250000Y-86500000D03*
D13*
%TO.P,J2,2,Pin_2_2*%
%TO.N,GND*%
X134750000Y-86500000D03*
%TD*%
D15*
%TO.P,A1,1,D1/TX_1*%
%TO.N,unconnected-(A1-D1{slash}TX-Pad1)*%
X142390000Y-49950000D03*
D16*
%TO.P,A1,2,D0/RX_2*%
%TO.N,unconnected-(A1-D0{slash}RX-Pad2)*%
X142390000Y-52490000D03*
%TO.P,A1,3,~{RESET}_3*%
%TO.N,unconnected-(A1-~{RESET}-Pad3)*%
X142390000Y-55030000D03*
%TO.P,A1,4,GND_4*%
%TO.N,GND*%
X142390000Y-57570000D03*
%TO.P,A1,5,D2_5*%
%TO.N,/D2*%
X142390000Y-60110000D03*
%TO.P,A1,6,D3_6*%
%TO.N,unconnected-(A1-D3-Pad6)*%
X142390000Y-62650000D03*
%TO.P,A1,7,D4_7*%
%TO.N,/D4*%
X142390000Y-65190000D03*
%TO.P,A1,8,D5_8*%
%TO.N,unconnected-(A1-D5-Pad8)*%
X142390000Y-67730000D03*
%TO.P,A1,9,D6_9*%
%TO.N,unconnected-(A1-D6-Pad9)*%
X142390000Y-70270000D03*
%TO.P,A1,10,D7_10*%
%TO.N,unconnected-(A1-D7-Pad10)*%
X142390000Y-72810000D03*
%TO.P,A1,11,D8_11*%
%TO.N,unconnected-(A1-D8-Pad11)*%
X142390000Y-75350000D03*
%TO.P,A1,12,D9_12*%
%TO.N,/D9*%
X142390000Y-77890000D03*
%TO.P,A1,13,D10/CS_13*%
%TO.N,unconnected-(A1-D10{slash}CS-Pad13)*%
X142390000Y-80430000D03*
%TO.P,A1,14,D11/COPI_14*%
%TO.N,unconnected-(A1-D11{slash}COPI-Pad14)*%
X142390000Y-82970000D03*
%TO.P,A1,15,D12/CIPO_15*%
%TO.N,unconnected-(A1-D12{slash}CIPO-Pad15)*%
X142390000Y-85510000D03*
%TO.P,A1,16,D13/SCK_16*%
%TO.N,unconnected-(A1-D13{slash}SCK-Pad16)*%
X157630000Y-85510000D03*
%TO.P,A1,17,3V3_17*%
%TO.N,3V3*%
X157630000Y-82970000D03*
%TO.P,A1,18,REF_18*%
%TO.N,unconnected-(A1-REF-Pad18)*%
X157630000Y-80430000D03*
%TO.P,A1,19,A0_19*%
%TO.N,unconnected-(A1-A0-Pad19)*%
X157630000Y-77890000D03*
%TO.P,A1,20,A1_20*%
%TO.N,unconnected-(A1-A1-Pad20)*%
X157630000Y-75350000D03*
%TO.P,A1,21,A2_21*%
%TO.N,unconnected-(A1-A2-Pad21)*%
X157630000Y-72810000D03*
%TO.P,A1,22,A3_22*%
%TO.N,unconnected-(A1-A3-Pad22)*%
X157630000Y-70270000D03*
%TO.P,A1,23,SDA/A4_23*%
%TO.N,/A4*%
X157630000Y-67730000D03*
%TO.P,A1,24,SCL/A5_24*%
%TO.N,/A5*%
X157630000Y-65190000D03*
%TO.P,A1,25,A6_25*%
%TO.N,unconnected-(A1-A6-Pad25)*%
X157630000Y-62650000D03*
%TO.P,A1,26,A7_26*%
%TO.N,unconnected-(A1-A7-Pad26)*%
X157630000Y-60110000D03*
%TO.P,A1,27,VUSB/5V_27*%
%TO.N,V5DD*%
X157630000Y-57570000D03*
%TO.P,A1,28,REC_28*%
%TO.N,unconnected-(A1-REC-Pad28)*%
X157630000Y-55030000D03*
%TO.P,A1,29,GND_29*%
%TO.N,GND*%
X157630000Y-52490000D03*
%TO.P,A1,30,VIN_30*%
%TO.N,V5DD*%
X157630000Y-49950000D03*
%TD*%
D17*
%TO.N,GND*%
X164850000Y-52340000D03*
X148100000Y-64550000D03*
X167090000Y-57560000D03*
%TO.N,VCC11*%
X160090000Y-46610000D03*
%TO.N,3V3*%
X143690000Y-47660000D03*
%TO.N,VCC11*%
X133500000Y-70000000D03*
%TO.N,GND*%
X148220000Y-75890000D03*
X151360000Y-77080000D03*
X149660000Y-59030000D03*
X149760000Y-80560000D03*
X148220000Y-77080000D03*
X164140000Y-71110000D03*
X151360000Y-74800000D03*
X149760000Y-74800000D03*
X148220000Y-74800000D03*
X151360000Y-80560000D03*
X149660000Y-60120000D03*
X148220000Y-78280000D03*
X151360000Y-79370000D03*
X148220000Y-79370000D03*
X151360000Y-75890000D03*
X149660000Y-61310000D03*
X148220000Y-80560000D03*
X138000000Y-73000000D03*
X151260000Y-60120000D03*
X149760000Y-78280000D03*
X138790000Y-57570000D03*
X149760000Y-79370000D03*
X151260000Y-61310000D03*
X160500000Y-89000000D03*
X149760000Y-75890000D03*
X149760000Y-77080000D03*
X151360000Y-78280000D03*
X148120000Y-59030000D03*
X148120000Y-61310000D03*
X148120000Y-60120000D03*
X151260000Y-59030000D03*
%TO.N,/VO10*%
X140000000Y-71500000D03*
D18*
%TO.N,/D9*%
X132500000Y-73000000D03*
%TD*%
%TO.N,GND*%
D19*
X159000000Y-90500000D02*
X160500000Y-89000000D01*
X146730000Y-86230000D02*
X151000000Y-90500000D01*
X146730000Y-64500000D02*
X146730000Y-86230000D01*
X151000000Y-90500000D02*
X159000000Y-90500000D01*
X148050000Y-64500000D02*
X146730000Y-64500000D01*
X148100000Y-64550000D02*
X148050000Y-64500000D01*
X167060000Y-57560000D02*
X167090000Y-57560000D01*
X167000000Y-57500000D02*
X167060000Y-57560000D01*
%TO.N,VCC11*%
X160110000Y-46610000D02*
X160090000Y-46610000D01*
X160120000Y-46600000D02*
X160110000Y-46610000D01*
X140000000Y-64500000D02*
X140000000Y-47500000D01*
X138000000Y-66500000D02*
X140000000Y-64500000D01*
X140900000Y-46600000D02*
X160120000Y-46600000D01*
X134000000Y-66500000D02*
X138000000Y-66500000D01*
X133000000Y-67500000D02*
X134000000Y-66500000D01*
X140000000Y-47500000D02*
X140900000Y-46600000D01*
X133500000Y-70000000D02*
X133000000Y-69500000D01*
X133000000Y-69500000D02*
X133000000Y-67500000D01*
%TO.N,3V3*%
X160860000Y-47660000D02*
X143690000Y-47660000D01*
X161500000Y-81500000D02*
X161500000Y-48300000D01*
X161500000Y-48300000D02*
X160860000Y-47660000D01*
X157630000Y-82970000D02*
X160030000Y-82970000D01*
X160030000Y-82970000D02*
X161500000Y-81500000D01*
%TO.N,GND*%
X162500000Y-71000000D02*
X167000000Y-66500000D01*
X162500000Y-85800000D02*
X162500000Y-71000000D01*
X142460000Y-57500000D02*
X142390000Y-57570000D01*
X167000000Y-66500000D02*
X167000000Y-57500000D01*
X138000000Y-73000000D02*
X134750000Y-76250000D01*
%TO.N,/VO10*%
X137250000Y-86500000D02*
X139500000Y-86500000D01*
X139500000Y-86500000D02*
X140000000Y-86000000D01*
X140000000Y-86000000D02*
X140000000Y-71500000D01*
%TO.N,V5DD*%
X155500000Y-50500000D02*
X155500000Y-57000000D01*
X156070000Y-57570000D02*
X157630000Y-57570000D01*
X157630000Y-49950000D02*
X156050000Y-49950000D01*
X156050000Y-49950000D02*
X155500000Y-50500000D01*
X155500000Y-57000000D02*
X156070000Y-57570000D01*
%TO.N,/D9*%
D20*
X135000000Y-70500000D02*
X140500000Y-70500000D01*
X132500000Y-73000000D02*
X135000000Y-70500000D01*
X141000000Y-71000000D02*
X141000000Y-76500000D01*
X140500000Y-70500000D02*
X141000000Y-71000000D01*
X141000000Y-76500000D02*
X142390000Y-77890000D01*
%TD*%
%TA.AperFunction,Conductor*%
%TO.N,GND*%
G36*
X166623564Y-45049960D02*
G01*
X166669576Y-45102540D01*
X166681031Y-45153566D01*
X166682161Y-45288865D01*
X166663037Y-45356067D01*
X166610617Y-45402261D01*
X166541544Y-45412782D01*
X166501872Y-45400387D01*
X166463563Y-45380868D01*
X166387234Y-45356067D01*
X166282782Y-45322128D01*
X166282780Y-45322127D01*
X166282778Y-45322127D01*
X166095046Y-45292393D01*
X166095041Y-45292393D01*
X165904959Y-45292393D01*
X165904954Y-45292393D01*
X165717221Y-45322127D01*
X165536437Y-45380868D01*
X165367075Y-45467162D01*
X165321878Y-45500000D01*
X165213297Y-45578889D01*
X165213295Y-45578891D01*
X165213294Y-45578891D01*
X165078891Y-45713294D01*
X165078891Y-45713295D01*
X165078889Y-45713297D01*
X165030906Y-45779339D01*
X164967162Y-45867075D01*
X164880868Y-46036437D01*
X164822127Y-46217221D01*
X164792393Y-46404953D01*
X164792393Y-46595046D01*
X164809434Y-46702637D01*
X164822128Y-46782782D01*
X164880867Y-46963560D01*
X164967162Y-47132924D01*
X165078889Y-47286703D01*
X165213297Y-47421111D01*
X165367076Y-47532838D01*
X165536440Y-47619133D01*
X165717218Y-47677872D01*
X165787620Y-47689022D01*
X165904954Y-47707607D01*
X165904959Y-47707607D01*
X166095046Y-47707607D01*
X166199341Y-47691087D01*
X166282782Y-47677872D01*
X166463560Y-47619133D01*
X166521989Y-47589361D01*
X166590657Y-47576465D01*
X166655397Y-47602740D01*
X166695655Y-47659846D01*
X166702280Y-47698811D01*
X166913674Y-73018327D01*
X166894549Y-73085528D01*
X166842129Y-73131722D01*
X166773056Y-73142243D01*
X166748561Y-73135634D01*
X166748489Y-73135873D01*
X166742658Y-73134103D01*
X166568694Y-73099500D01*
X166568691Y-73099500D01*
X166391309Y-73099500D01*
X166391306Y-73099500D01*
X166217341Y-73134103D01*
X166217332Y-73134106D01*
X166053459Y-73201983D01*
X166053446Y-73201990D01*
X165905965Y-73300535D01*
X165905961Y-73300538D01*
X165780538Y-73425961D01*
X165780535Y-73425965D01*
X165681990Y-73573446D01*
X165681983Y-73573459D01*
X165614106Y-73737332D01*
X165614103Y-73737341D01*
X165579500Y-73911304D01*
X165579500Y-74088695D01*
X165614103Y-74262658D01*
X165614106Y-74262667D01*
X165681983Y-74426540D01*
X165681990Y-74426553D01*
X165780535Y-74574034D01*
X165780538Y-74574038D01*
X165905961Y-74699461D01*
X165905965Y-74699464D01*
X166053446Y-74798009D01*
X166053459Y-74798016D01*
X166120436Y-74825758D01*
X166217334Y-74865894D01*
X166217336Y-74865894D01*
X166217341Y-74865896D01*
X166391304Y-74900499D01*
X166391307Y-74900500D01*
X166391309Y-74900500D01*
X166568693Y-74900500D01*
X166568694Y-74900499D01*
X166656056Y-74883122D01*
X166742658Y-74865896D01*
X166742661Y-74865894D01*
X166742666Y-74865894D01*
X166758542Y-74859317D01*
X166828010Y-74851848D01*
X166890490Y-74883122D01*
X166926143Y-74943210D01*
X166929991Y-74972843D01*
X166938807Y-76028738D01*
X166919683Y-76095939D01*
X166867262Y-76142133D01*
X166798189Y-76152654D01*
X166767365Y-76144336D01*
X166742666Y-76134106D01*
X166742659Y-76134104D01*
X166742658Y-76134104D01*
X166742658Y-76134103D01*
X166568694Y-76099500D01*
X166568691Y-76099500D01*
X166391309Y-76099500D01*
X166391306Y-76099500D01*
X166217341Y-76134103D01*
X166217332Y-76134106D01*
X166053459Y-76201983D01*
X166053446Y-76201990D01*
X165905965Y-76300535D01*
X165905961Y-76300538D01*
X165780538Y-76425961D01*
X165780535Y-76425965D01*
X165681990Y-76573446D01*
X165681983Y-76573459D01*
X165614106Y-76737332D01*
X165614103Y-76737341D01*
X165579500Y-76911304D01*
X165579500Y-77088695D01*
X165614103Y-77262658D01*
X165614106Y-77262667D01*
X165681983Y-77426540D01*
X165681990Y-77426553D01*
X165780535Y-77574034D01*
X165780538Y-77574038D01*
X165905961Y-77699461D01*
X165905965Y-77699464D01*
X166053446Y-77798009D01*
X166053459Y-77798016D01*
X166158463Y-77841509D01*
X166217334Y-77865894D01*
X166217336Y-77865894D01*
X166217341Y-77865896D01*
X166391304Y-77900499D01*
X166391307Y-77900500D01*
X166391309Y-77900500D01*
X166568693Y-77900500D01*
X166568694Y-77900499D01*
X166626682Y-77888964D01*
X166742658Y-77865896D01*
X166742660Y-77865895D01*
X166742666Y-77865894D01*
X166783506Y-77848977D01*
X166852972Y-77841509D01*
X166915452Y-77872784D01*
X166951104Y-77932873D01*
X166954952Y-77962504D01*
X167060060Y-90551853D01*
X167040935Y-90619054D01*
X166988515Y-90665248D01*
X166919442Y-90675769D01*
X166855646Y-90647276D01*
X166848383Y-90640569D01*
X166786705Y-90578891D01*
X166786703Y-90578889D01*
X166632924Y-90467162D01*
X166463560Y-90380867D01*
X166282782Y-90322128D01*
X166282780Y-90322127D01*
X166282778Y-90322127D01*
X166095046Y-90292393D01*
X166095041Y-90292393D01*
X165904959Y-90292393D01*
X165904954Y-90292393D01*
X165717221Y-90322127D01*
X165536437Y-90380868D01*
X165367075Y-90467162D01*
X165279339Y-90530906D01*
X165213297Y-90578889D01*
X165213295Y-90578891D01*
X165213294Y-90578891D01*
X165078891Y-90713294D01*
X165078891Y-90713295D01*
X165078889Y-90713297D01*
X165030906Y-90779339D01*
X164967162Y-90867075D01*
X164880868Y-91036437D01*
X164822127Y-91217221D01*
X164792393Y-91404953D01*
X164792393Y-91595046D01*
X164804548Y-91671787D01*
X164822128Y-91782782D01*
X164880867Y-91963560D01*
X164967162Y-92132924D01*
X165078889Y-92286703D01*
X165213297Y-92421111D01*
X165367076Y-92532838D01*
X165536440Y-92619133D01*
X165717218Y-92677872D01*
X165773364Y-92686764D01*
X165854198Y-92699568D01*
X165917333Y-92729497D01*
X165954264Y-92788809D01*
X165953266Y-92858671D01*
X165914656Y-92916904D01*
X165850692Y-92945018D01*
X165835402Y-92946040D01*
X132174134Y-93109397D01*
X132107000Y-93090038D01*
X132060989Y-93037456D01*
X132049533Y-92985866D01*
X132048813Y-92794287D01*
X132068245Y-92727177D01*
X132120877Y-92681224D01*
X132189998Y-92671021D01*
X132211129Y-92675893D01*
X132217218Y-92677872D01*
X132270858Y-92686367D01*
X132404954Y-92707607D01*
X132404959Y-92707607D01*
X132595046Y-92707607D01*
X132699341Y-92691087D01*
X132782782Y-92677872D01*
X132963560Y-92619133D01*
X133132924Y-92532838D01*
X133286703Y-92421111D01*
X133421111Y-92286703D01*
X133532838Y-92132924D01*
X133619133Y-91963560D01*
X133677872Y-91782782D01*
X133695452Y-91671787D01*
X133707607Y-91595046D01*
X133707607Y-91404953D01*
X133677872Y-91217221D01*
X133677872Y-91217218D01*
X133619133Y-91036440D01*
X133532838Y-90867076D01*
X133421111Y-90713297D01*
X133286703Y-90578889D01*
X133132924Y-90467162D01*
X132963560Y-90380867D01*
X132782782Y-90322128D01*
X132782780Y-90322127D01*
X132782778Y-90322127D01*
X132595046Y-90292393D01*
X132595041Y-90292393D01*
X132404959Y-90292393D01*
X132404954Y-90292393D01*
X132217216Y-90322128D01*
X132217208Y-90322130D01*
X132201415Y-90327261D01*
X132131574Y-90329254D01*
X132071742Y-90293172D01*
X132040916Y-90230470D01*
X132039103Y-90209807D01*
X131976724Y-73606520D01*
X131996155Y-73539411D01*
X132048787Y-73493458D01*
X132117908Y-73483255D01*
X132162721Y-73498670D01*
X132268216Y-73559577D01*
X132420943Y-73600500D01*
X132420945Y-73600500D01*
X132579055Y-73600500D01*
X132579057Y-73600500D01*
X132731784Y-73559577D01*
X132868716Y-73480520D01*
X132980520Y-73368716D01*
X133059577Y-73231784D01*
X133100500Y-73079057D01*
X133100500Y-72920943D01*
X133100500Y-72912815D01*
X133103680Y-72912815D01*
X133112112Y-72858579D01*
X133136626Y-72823699D01*
X135098508Y-70861819D01*
X135159831Y-70828334D01*
X135186189Y-70825500D01*
X139455192Y-70825500D01*
X139522231Y-70845185D01*
X139567986Y-70897989D01*
X139577930Y-70967147D01*
X139548905Y-71030703D01*
X139542873Y-71037181D01*
X139494726Y-71085327D01*
X139494723Y-71085331D01*
X139423538Y-71191866D01*
X139423533Y-71191875D01*
X139374499Y-71310255D01*
X139374497Y-71310261D01*
X139349500Y-71435928D01*
X139349500Y-71435931D01*
X139349500Y-71564069D01*
X139349500Y-71564071D01*
X139349499Y-71564071D01*
X139374497Y-71689738D01*
X139374499Y-71689744D01*
X139423533Y-71808124D01*
X139423538Y-71808133D01*
X139478602Y-71890541D01*
X139499480Y-71957218D01*
X139499500Y-71959432D01*
X139499500Y-85741324D01*
X139490855Y-85770764D01*
X139484332Y-85800751D01*
X139480577Y-85805766D01*
X139479815Y-85808363D01*
X139463181Y-85829005D01*
X139329005Y-85963181D01*
X139267682Y-85996666D01*
X139241324Y-85999500D01*
X138424500Y-85999500D01*
X138357461Y-85979815D01*
X138311706Y-85927011D01*
X138300500Y-85875500D01*
X138300500Y-85695730D01*
X138297646Y-85665300D01*
X138297646Y-85665298D01*
X138264006Y-85569163D01*
X138252793Y-85537118D01*
X138172150Y-85427850D01*
X138062882Y-85347207D01*
X138062880Y-85347206D01*
X137934700Y-85302353D01*
X137904270Y-85299500D01*
X137904266Y-85299500D01*
X136595734Y-85299500D01*
X136595730Y-85299500D01*
X136565300Y-85302353D01*
X136565298Y-85302353D01*
X136437119Y-85347206D01*
X136437117Y-85347207D01*
X136327850Y-85427850D01*
X136247207Y-85537117D01*
X136247206Y-85537119D01*
X136202353Y-85665298D01*
X136202353Y-85665300D01*
X136199500Y-85695730D01*
X136199500Y-85704676D01*
X136179815Y-85771715D01*
X136127011Y-85817470D01*
X136057853Y-85827414D01*
X135994297Y-85798389D01*
X135965015Y-85760971D01*
X135904620Y-85642442D01*
X135779727Y-85470540D01*
X135779723Y-85470535D01*
X135629464Y-85320276D01*
X135629459Y-85320272D01*
X135457557Y-85195379D01*
X135268215Y-85098903D01*
X135066124Y-85033241D01*
X135000000Y-85022768D01*
X135000000Y-86066988D01*
X134942993Y-86034075D01*
X134815826Y-86000000D01*
X134684174Y-86000000D01*
X134557007Y-86034075D01*
X134500000Y-86066988D01*
X134500000Y-85022768D01*
X134499999Y-85022768D01*
X134433875Y-85033241D01*
X134231784Y-85098903D01*
X134042442Y-85195379D01*
X133870540Y-85320272D01*
X133870535Y-85320276D01*
X133720276Y-85470535D01*
X133720272Y-85470540D01*
X133595379Y-85642442D01*
X133498904Y-85831782D01*
X133433242Y-86033869D01*
X133433242Y-86033872D01*
X133400000Y-86243753D01*
X133400000Y-86250000D01*
X134316988Y-86250000D01*
X134284075Y-86307007D01*
X134250000Y-86434174D01*
X134250000Y-86565826D01*
X134284075Y-86692993D01*
X134316988Y-86750000D01*
X133400000Y-86750000D01*
X133400000Y-86756246D01*
X133433242Y-86966127D01*
X133433242Y-86966130D01*
X133498904Y-87168217D01*
X133595379Y-87357557D01*
X133720272Y-87529459D01*
X133720276Y-87529464D01*
X133870535Y-87679723D01*
X133870540Y-87679727D01*
X134042442Y-87804620D01*
X134231782Y-87901095D01*
X134433871Y-87966757D01*
X134500000Y-87977231D01*
X134500000Y-86933012D01*
X134557007Y-86965925D01*
X134684174Y-87000000D01*
X134815826Y-87000000D01*
X134942993Y-86965925D01*
X135000000Y-86933012D01*
X135000000Y-87977230D01*
X135066126Y-87966757D01*
X135066129Y-87966757D01*
X135268217Y-87901095D01*
X135457557Y-87804620D01*
X135629459Y-87679727D01*
X135629464Y-87679723D01*
X135779723Y-87529464D01*
X135779727Y-87529459D01*
X135904620Y-87357557D01*
X135965015Y-87239028D01*
X136012990Y-87188232D01*
X136080811Y-87171437D01*
X136146946Y-87193974D01*
X136190397Y-87248690D01*
X136199500Y-87295323D01*
X136199500Y-87304269D01*
X136202353Y-87334699D01*
X136202353Y-87334701D01*
X136247206Y-87462880D01*
X136247207Y-87462882D01*
X136327850Y-87572150D01*
X136437118Y-87652793D01*
X136479845Y-87667744D01*
X136565299Y-87697646D01*
X136595730Y-87700500D01*
X136595734Y-87700500D01*
X137904270Y-87700500D01*
X137934699Y-87697646D01*
X137934701Y-87697646D01*
X137998790Y-87675219D01*
X138062882Y-87652793D01*
X138172150Y-87572150D01*
X138252793Y-87462882D01*
X138289648Y-87357557D01*
X138297646Y-87334701D01*
X138297646Y-87334699D01*
X138300500Y-87304269D01*
X138300500Y-87124500D01*
X138320185Y-87057461D01*
X138372989Y-87011706D01*
X138424500Y-87000500D01*
X139565890Y-87000500D01*
X139565892Y-87000500D01*
X139693186Y-86966392D01*
X139807314Y-86900500D01*
X140400500Y-86307314D01*
X140466392Y-86193186D01*
X140500500Y-86065892D01*
X140500500Y-85934107D01*
X140500500Y-85608543D01*
X141389499Y-85608543D01*
X141427947Y-85801829D01*
X141427950Y-85801839D01*
X141503364Y-85983907D01*
X141503371Y-85983920D01*
X141612860Y-86147781D01*
X141612863Y-86147785D01*
X141752214Y-86287136D01*
X141752218Y-86287139D01*
X141916079Y-86396628D01*
X141916092Y-86396635D01*
X142098160Y-86472049D01*
X142098165Y-86472051D01*
X142098169Y-86472051D01*
X142098170Y-86472052D01*
X142291456Y-86510500D01*
X142291459Y-86510500D01*
X142488543Y-86510500D01*
X142618582Y-86484632D01*
X142681835Y-86472051D01*
X142863914Y-86396632D01*
X143027782Y-86287139D01*
X143167139Y-86147782D01*
X143276632Y-85983914D01*
X143352051Y-85801835D01*
X143390500Y-85608543D01*
X156629499Y-85608543D01*
X156667947Y-85801829D01*
X156667950Y-85801839D01*
X156743364Y-85983907D01*
X156743371Y-85983920D01*
X156852860Y-86147781D01*
X156852863Y-86147785D01*
X156992214Y-86287136D01*
X156992218Y-86287139D01*
X157156079Y-86396628D01*
X157156092Y-86396635D01*
X157338160Y-86472049D01*
X157338165Y-86472051D01*
X157338169Y-86472051D01*
X157338170Y-86472052D01*
X157531456Y-86510500D01*
X157531459Y-86510500D01*
X157728543Y-86510500D01*
X157858582Y-86484632D01*
X157921835Y-86472051D01*
X158103914Y-86396632D01*
X158267782Y-86287139D01*
X158407139Y-86147782D01*
X158516632Y-85983914D01*
X158592051Y-85801835D01*
X158630500Y-85608541D01*
X158630500Y-85543753D01*
X161150000Y-85543753D01*
X161150000Y-85550000D01*
X162066988Y-85550000D01*
X162034075Y-85607007D01*
X162000000Y-85734174D01*
X162000000Y-85865826D01*
X162034075Y-85992993D01*
X162066988Y-86050000D01*
X161150000Y-86050000D01*
X161150000Y-86056246D01*
X161183242Y-86266127D01*
X161183242Y-86266130D01*
X161248904Y-86468217D01*
X161345379Y-86657557D01*
X161470272Y-86829459D01*
X161470276Y-86829464D01*
X161620535Y-86979723D01*
X161620540Y-86979727D01*
X161792442Y-87104620D01*
X161981782Y-87201095D01*
X162183871Y-87266757D01*
X162250000Y-87277231D01*
X162250000Y-86233012D01*
X162307007Y-86265925D01*
X162434174Y-86300000D01*
X162565826Y-86300000D01*
X162692993Y-86265925D01*
X162750000Y-86233012D01*
X162750000Y-87277230D01*
X162816126Y-87266757D01*
X162816129Y-87266757D01*
X163018217Y-87201095D01*
X163207557Y-87104620D01*
X163379459Y-86979727D01*
X163379464Y-86979723D01*
X163529723Y-86829464D01*
X163529727Y-86829459D01*
X163654620Y-86657557D01*
X163715015Y-86539028D01*
X163762990Y-86488232D01*
X163830811Y-86471437D01*
X163896946Y-86493974D01*
X163940397Y-86548690D01*
X163949500Y-86595323D01*
X163949500Y-86604269D01*
X163952353Y-86634699D01*
X163952353Y-86634701D01*
X163992699Y-86750000D01*
X163997207Y-86762882D01*
X164077850Y-86872150D01*
X164187118Y-86952793D01*
X164224647Y-86965925D01*
X164315299Y-86997646D01*
X164345730Y-87000500D01*
X164345734Y-87000500D01*
X165654270Y-87000500D01*
X165684699Y-86997646D01*
X165684701Y-86997646D01*
X165748790Y-86975219D01*
X165812882Y-86952793D01*
X165922150Y-86872150D01*
X166002793Y-86762882D01*
X166039648Y-86657557D01*
X166047646Y-86634701D01*
X166047646Y-86634699D01*
X166050500Y-86604269D01*
X166050500Y-84995730D01*
X166047646Y-84965300D01*
X166047646Y-84965298D01*
X166002793Y-84837119D01*
X166002792Y-84837117D01*
X165953656Y-84770540D01*
X165922150Y-84727850D01*
X165812882Y-84647207D01*
X165812880Y-84647206D01*
X165684700Y-84602353D01*
X165654270Y-84599500D01*
X165654266Y-84599500D01*
X164345734Y-84599500D01*
X164345730Y-84599500D01*
X164315300Y-84602353D01*
X164315298Y-84602353D01*
X164187119Y-84647206D01*
X164187117Y-84647207D01*
X164077850Y-84727850D01*
X163997207Y-84837117D01*
X163997206Y-84837119D01*
X163952353Y-84965298D01*
X163952353Y-84965300D01*
X163949500Y-84995730D01*
X163949500Y-85004676D01*
X163929815Y-85071715D01*
X163877011Y-85117470D01*
X163807853Y-85127414D01*
X163744297Y-85098389D01*
X163715015Y-85060971D01*
X163654620Y-84942442D01*
X163529727Y-84770540D01*
X163529723Y-84770535D01*
X163379464Y-84620276D01*
X163379459Y-84620272D01*
X163207557Y-84495379D01*
X163018215Y-84398903D01*
X162816124Y-84333241D01*
X162750000Y-84322768D01*
X162750000Y-85366988D01*
X162692993Y-85334075D01*
X162565826Y-85300000D01*
X162434174Y-85300000D01*
X162307007Y-85334075D01*
X162250000Y-85366988D01*
X162250000Y-84322768D01*
X162249999Y-84322768D01*
X162183875Y-84333241D01*
X161981784Y-84398903D01*
X161792442Y-84495379D01*
X161620540Y-84620272D01*
X161620535Y-84620276D01*
X161470276Y-84770535D01*
X161470272Y-84770540D01*
X161345379Y-84942442D01*
X161248904Y-85131782D01*
X161183242Y-85333869D01*
X161183242Y-85333872D01*
X161150000Y-85543753D01*
X158630500Y-85543753D01*
X158630500Y-85411459D01*
X158630500Y-85411456D01*
X158592052Y-85218170D01*
X158592051Y-85218169D01*
X158592051Y-85218165D01*
X158582613Y-85195379D01*
X158516635Y-85036092D01*
X158516628Y-85036079D01*
X158407139Y-84872218D01*
X158407136Y-84872214D01*
X158267785Y-84732863D01*
X158267781Y-84732860D01*
X158103920Y-84623371D01*
X158103907Y-84623364D01*
X157921839Y-84547950D01*
X157921829Y-84547947D01*
X157728543Y-84509500D01*
X157728541Y-84509500D01*
X157531459Y-84509500D01*
X157531457Y-84509500D01*
X157338170Y-84547947D01*
X157338160Y-84547950D01*
X157156092Y-84623364D01*
X157156079Y-84623371D01*
X156992218Y-84732860D01*
X156992214Y-84732863D01*
X156852863Y-84872214D01*
X156852860Y-84872218D01*
X156743371Y-85036079D01*
X156743364Y-85036092D01*
X156667950Y-85218160D01*
X156667947Y-85218170D01*
X156629500Y-85411456D01*
X156629500Y-85411459D01*
X156629500Y-85608541D01*
X156629500Y-85608543D01*
X156629499Y-85608543D01*
X143390500Y-85608543D01*
X143390500Y-85608541D01*
X143390500Y-85411459D01*
X143390500Y-85411456D01*
X143352052Y-85218170D01*
X143352051Y-85218169D01*
X143352051Y-85218165D01*
X143342613Y-85195379D01*
X143276635Y-85036092D01*
X143276628Y-85036079D01*
X143167139Y-84872218D01*
X143167136Y-84872214D01*
X143027785Y-84732863D01*
X143027781Y-84732860D01*
X142863920Y-84623371D01*
X142863907Y-84623364D01*
X142681839Y-84547950D01*
X142681829Y-84547947D01*
X142488543Y-84509500D01*
X142488541Y-84509500D01*
X142291459Y-84509500D01*
X142291457Y-84509500D01*
X142098170Y-84547947D01*
X142098160Y-84547950D01*
X141916092Y-84623364D01*
X141916079Y-84623371D01*
X141752218Y-84732860D01*
X141752214Y-84732863D01*
X141612863Y-84872214D01*
X141612860Y-84872218D01*
X141503371Y-85036079D01*
X141503364Y-85036092D01*
X141427950Y-85218160D01*
X141427947Y-85218170D01*
X141389500Y-85411456D01*
X141389500Y-85411459D01*
X141389500Y-85608541D01*
X141389500Y-85608543D01*
X141389499Y-85608543D01*
X140500500Y-85608543D01*
X140500500Y-83068543D01*
X141389499Y-83068543D01*
X141427947Y-83261829D01*
X141427950Y-83261839D01*
X141503364Y-83443907D01*
X141503371Y-83443920D01*
X141612860Y-83607781D01*
X141612863Y-83607785D01*
X141752214Y-83747136D01*
X141752218Y-83747139D01*
X141916079Y-83856628D01*
X141916092Y-83856635D01*
X142098160Y-83932049D01*
X142098165Y-83932051D01*
X142098169Y-83932051D01*
X142098170Y-83932052D01*
X142291456Y-83970500D01*
X142291459Y-83970500D01*
X142488543Y-83970500D01*
X142618582Y-83944632D01*
X142681835Y-83932051D01*
X142863914Y-83856632D01*
X143027782Y-83747139D01*
X143167139Y-83607782D01*
X143276632Y-83443914D01*
X143352051Y-83261835D01*
X143390500Y-83068541D01*
X143390500Y-82871459D01*
X143390500Y-82871456D01*
X143352052Y-82678170D01*
X143352051Y-82678169D01*
X143352051Y-82678165D01*
X143352049Y-82678160D01*
X143276635Y-82496092D01*
X143276628Y-82496079D01*
X143167139Y-82332218D01*
X143167136Y-82332214D01*
X143027785Y-82192863D01*
X143027781Y-82192860D01*
X142863920Y-82083371D01*
X142863907Y-82083364D01*
X142681839Y-82007950D01*
X142681829Y-82007947D01*
X142488543Y-81969500D01*
X142488541Y-81969500D01*
X142291459Y-81969500D01*
X142291457Y-81969500D01*
X142098170Y-82007947D01*
X142098160Y-82007950D01*
X141916092Y-82083364D01*
X141916079Y-82083371D01*
X141752218Y-82192860D01*
X141752214Y-82192863D01*
X141612863Y-82332214D01*
X141612860Y-82332218D01*
X141503371Y-82496079D01*
X141503364Y-82496092D01*
X141427950Y-82678160D01*
X141427947Y-82678170D01*
X141389500Y-82871456D01*
X141389500Y-82871459D01*
X141389500Y-83068541D01*
X141389500Y-83068543D01*
X141389499Y-83068543D01*
X140500500Y-83068543D01*
X140500500Y-80528543D01*
X141389499Y-80528543D01*
X141427947Y-80721829D01*
X141427950Y-80721839D01*
X141503364Y-80903907D01*
X141503371Y-80903920D01*
X141612860Y-81067781D01*
X141612863Y-81067785D01*
X141752214Y-81207136D01*
X141752218Y-81207139D01*
X141916079Y-81316628D01*
X141916092Y-81316635D01*
X142098160Y-81392049D01*
X142098165Y-81392051D01*
X142098169Y-81392051D01*
X142098170Y-81392052D01*
X142291456Y-81430500D01*
X142291459Y-81430500D01*
X142488543Y-81430500D01*
X142618582Y-81404632D01*
X142681835Y-81392051D01*
X142863914Y-81316632D01*
X143027782Y-81207139D01*
X143167139Y-81067782D01*
X143276632Y-80903914D01*
X143352051Y-80721835D01*
X143390500Y-80528543D01*
X156629499Y-80528543D01*
X156667947Y-80721829D01*
X156667950Y-80721839D01*
X156743364Y-80903907D01*
X156743371Y-80903920D01*
X156852860Y-81067781D01*
X156852863Y-81067785D01*
X156992214Y-81207136D01*
X156992218Y-81207139D01*
X157156079Y-81316628D01*
X157156092Y-81316635D01*
X157338160Y-81392049D01*
X157338165Y-81392051D01*
X157338169Y-81392051D01*
X157338170Y-81392052D01*
X157531456Y-81430500D01*
X157531459Y-81430500D01*
X157728543Y-81430500D01*
X157858582Y-81404632D01*
X157921835Y-81392051D01*
X158103914Y-81316632D01*
X158267782Y-81207139D01*
X158407139Y-81067782D01*
X158516632Y-80903914D01*
X158592051Y-80721835D01*
X158630500Y-80528541D01*
X158630500Y-80331459D01*
X158630500Y-80331456D01*
X158592052Y-80138170D01*
X158592051Y-80138169D01*
X158592051Y-80138165D01*
X158592049Y-80138160D01*
X158516635Y-79956092D01*
X158516628Y-79956079D01*
X158407139Y-79792218D01*
X158407136Y-79792214D01*
X158267785Y-79652863D01*
X158267781Y-79652860D01*
X158103920Y-79543371D01*
X158103907Y-79543364D01*
X157921839Y-79467950D01*
X157921829Y-79467947D01*
X157728543Y-79429500D01*
X157728541Y-79429500D01*
X157531459Y-79429500D01*
X157531457Y-79429500D01*
X157338170Y-79467947D01*
X157338160Y-79467950D01*
X157156092Y-79543364D01*
X157156079Y-79543371D01*
X156992218Y-79652860D01*
X156992214Y-79652863D01*
X156852863Y-79792214D01*
X156852860Y-79792218D01*
X156743371Y-79956079D01*
X156743364Y-79956092D01*
X156667950Y-80138160D01*
X156667947Y-80138170D01*
X156629500Y-80331456D01*
X156629500Y-80331459D01*
X156629500Y-80528541D01*
X156629500Y-80528543D01*
X156629499Y-80528543D01*
X143390500Y-80528543D01*
X143390500Y-80528541D01*
X143390500Y-80331459D01*
X143390500Y-80331456D01*
X143352052Y-80138170D01*
X143352051Y-80138169D01*
X143352051Y-80138165D01*
X143352049Y-80138160D01*
X143276635Y-79956092D01*
X143276628Y-79956079D01*
X143167139Y-79792218D01*
X143167136Y-79792214D01*
X143027785Y-79652863D01*
X143027781Y-79652860D01*
X142863920Y-79543371D01*
X142863907Y-79543364D01*
X142681839Y-79467950D01*
X142681829Y-79467947D01*
X142488543Y-79429500D01*
X142488541Y-79429500D01*
X142291459Y-79429500D01*
X142291457Y-79429500D01*
X142098170Y-79467947D01*
X142098160Y-79467950D01*
X141916092Y-79543364D01*
X141916079Y-79543371D01*
X141752218Y-79652860D01*
X141752214Y-79652863D01*
X141612863Y-79792214D01*
X141612860Y-79792218D01*
X141503371Y-79956079D01*
X141503364Y-79956092D01*
X141427950Y-80138160D01*
X141427947Y-80138170D01*
X141389500Y-80331456D01*
X141389500Y-80331459D01*
X141389500Y-80528541D01*
X141389500Y-80528543D01*
X141389499Y-80528543D01*
X140500500Y-80528543D01*
X140500500Y-76748615D01*
X140520185Y-76681576D01*
X140572989Y-76635821D01*
X140642147Y-76625877D01*
X140705703Y-76654902D01*
X140731887Y-76686616D01*
X140739530Y-76699855D01*
X140739537Y-76699864D01*
X141430837Y-77391164D01*
X141464322Y-77452487D01*
X141459338Y-77522179D01*
X141457737Y-77526247D01*
X141427949Y-77598165D01*
X141427947Y-77598171D01*
X141389500Y-77791456D01*
X141389500Y-77791459D01*
X141389500Y-77988541D01*
X141389500Y-77988543D01*
X141389499Y-77988543D01*
X141427947Y-78181829D01*
X141427950Y-78181839D01*
X141503364Y-78363907D01*
X141503371Y-78363920D01*
X141612860Y-78527781D01*
X141612863Y-78527785D01*
X141752214Y-78667136D01*
X141752218Y-78667139D01*
X141916079Y-78776628D01*
X141916092Y-78776635D01*
X142098160Y-78852049D01*
X142098165Y-78852051D01*
X142098169Y-78852051D01*
X142098170Y-78852052D01*
X142291456Y-78890500D01*
X142291459Y-78890500D01*
X142488543Y-78890500D01*
X142618582Y-78864632D01*
X142681835Y-78852051D01*
X142863914Y-78776632D01*
X143027782Y-78667139D01*
X143167139Y-78527782D01*
X143276632Y-78363914D01*
X143352051Y-78181835D01*
X143390500Y-77988543D01*
X156629499Y-77988543D01*
X156667947Y-78181829D01*
X156667950Y-78181839D01*
X156743364Y-78363907D01*
X156743371Y-78363920D01*
X156852860Y-78527781D01*
X156852863Y-78527785D01*
X156992214Y-78667136D01*
X156992218Y-78667139D01*
X157156079Y-78776628D01*
X157156092Y-78776635D01*
X157338160Y-78852049D01*
X157338165Y-78852051D01*
X157338169Y-78852051D01*
X157338170Y-78852052D01*
X157531456Y-78890500D01*
X157531459Y-78890500D01*
X157728543Y-78890500D01*
X157858582Y-78864632D01*
X157921835Y-78852051D01*
X158103914Y-78776632D01*
X158267782Y-78667139D01*
X158407139Y-78527782D01*
X158516632Y-78363914D01*
X158592051Y-78181835D01*
X158630500Y-77988541D01*
X158630500Y-77791459D01*
X158630500Y-77791456D01*
X158592052Y-77598170D01*
X158592051Y-77598169D01*
X158592051Y-77598165D01*
X158520968Y-77426553D01*
X158516635Y-77416092D01*
X158516628Y-77416079D01*
X158407139Y-77252218D01*
X158407136Y-77252214D01*
X158267785Y-77112863D01*
X158267781Y-77112860D01*
X158103920Y-77003371D01*
X158103907Y-77003364D01*
X157921839Y-76927950D01*
X157921829Y-76927947D01*
X157728543Y-76889500D01*
X157728541Y-76889500D01*
X157531459Y-76889500D01*
X157531457Y-76889500D01*
X157338170Y-76927947D01*
X157338160Y-76927950D01*
X157156092Y-77003364D01*
X157156079Y-77003371D01*
X156992218Y-77112860D01*
X156992214Y-77112863D01*
X156852863Y-77252214D01*
X156852860Y-77252218D01*
X156743371Y-77416079D01*
X156743364Y-77416092D01*
X156667950Y-77598160D01*
X156667947Y-77598170D01*
X156629500Y-77791456D01*
X156629500Y-77791459D01*
X156629500Y-77988541D01*
X156629500Y-77988543D01*
X156629499Y-77988543D01*
X143390500Y-77988543D01*
X143390500Y-77988541D01*
X143390500Y-77791459D01*
X143390500Y-77791456D01*
X143352052Y-77598170D01*
X143352051Y-77598169D01*
X143352051Y-77598165D01*
X143280968Y-77426553D01*
X143276635Y-77416092D01*
X143276628Y-77416079D01*
X143167139Y-77252218D01*
X143167136Y-77252214D01*
X143027785Y-77112863D01*
X143027781Y-77112860D01*
X142863920Y-77003371D01*
X142863907Y-77003364D01*
X142681839Y-76927950D01*
X142681829Y-76927947D01*
X142488543Y-76889500D01*
X142488541Y-76889500D01*
X142291459Y-76889500D01*
X142291457Y-76889500D01*
X142098171Y-76927947D01*
X142098167Y-76927948D01*
X142098165Y-76927949D01*
X142026293Y-76957718D01*
X141956827Y-76965186D01*
X141894348Y-76933910D01*
X141891164Y-76930837D01*
X141361819Y-76401492D01*
X141328334Y-76340169D01*
X141325500Y-76313811D01*
X141325500Y-75966489D01*
X141345185Y-75899450D01*
X141397989Y-75853695D01*
X141467147Y-75843751D01*
X141530703Y-75872776D01*
X141552602Y-75897599D01*
X141612857Y-75987777D01*
X141612863Y-75987785D01*
X141752214Y-76127136D01*
X141752218Y-76127139D01*
X141916079Y-76236628D01*
X141916092Y-76236635D01*
X142070365Y-76300536D01*
X142098165Y-76312051D01*
X142098169Y-76312051D01*
X142098170Y-76312052D01*
X142291456Y-76350500D01*
X142291459Y-76350500D01*
X142488543Y-76350500D01*
X142618582Y-76324632D01*
X142681835Y-76312051D01*
X142863914Y-76236632D01*
X143027782Y-76127139D01*
X143167139Y-75987782D01*
X143276632Y-75823914D01*
X143352051Y-75641835D01*
X143390500Y-75448543D01*
X156629499Y-75448543D01*
X156667947Y-75641829D01*
X156667950Y-75641839D01*
X156743364Y-75823907D01*
X156743371Y-75823920D01*
X156852860Y-75987781D01*
X156852863Y-75987785D01*
X156992214Y-76127136D01*
X156992218Y-76127139D01*
X157156079Y-76236628D01*
X157156092Y-76236635D01*
X157310365Y-76300536D01*
X157338165Y-76312051D01*
X157338169Y-76312051D01*
X157338170Y-76312052D01*
X157531456Y-76350500D01*
X157531459Y-76350500D01*
X157728543Y-76350500D01*
X157858582Y-76324632D01*
X157921835Y-76312051D01*
X158103914Y-76236632D01*
X158267782Y-76127139D01*
X158407139Y-75987782D01*
X158516632Y-75823914D01*
X158592051Y-75641835D01*
X158630500Y-75448541D01*
X158630500Y-75251459D01*
X158630500Y-75251456D01*
X158592052Y-75058170D01*
X158592051Y-75058169D01*
X158592051Y-75058165D01*
X158556710Y-74972843D01*
X158516635Y-74876092D01*
X158516628Y-74876079D01*
X158407139Y-74712218D01*
X158407136Y-74712214D01*
X158267785Y-74572863D01*
X158267781Y-74572860D01*
X158103920Y-74463371D01*
X158103907Y-74463364D01*
X157921839Y-74387950D01*
X157921829Y-74387947D01*
X157728543Y-74349500D01*
X157728541Y-74349500D01*
X157531459Y-74349500D01*
X157531457Y-74349500D01*
X157338170Y-74387947D01*
X157338160Y-74387950D01*
X157156092Y-74463364D01*
X157156079Y-74463371D01*
X156992218Y-74572860D01*
X156992214Y-74572863D01*
X156852863Y-74712214D01*
X156852860Y-74712218D01*
X156743371Y-74876079D01*
X156743364Y-74876092D01*
X156667950Y-75058160D01*
X156667947Y-75058170D01*
X156629500Y-75251456D01*
X156629500Y-75251459D01*
X156629500Y-75448541D01*
X156629500Y-75448543D01*
X156629499Y-75448543D01*
X143390500Y-75448543D01*
X143390500Y-75448541D01*
X143390500Y-75251459D01*
X143390500Y-75251456D01*
X143352052Y-75058170D01*
X143352051Y-75058169D01*
X143352051Y-75058165D01*
X143316710Y-74972843D01*
X143276635Y-74876092D01*
X143276628Y-74876079D01*
X143167139Y-74712218D01*
X143167136Y-74712214D01*
X143027785Y-74572863D01*
X143027781Y-74572860D01*
X142863920Y-74463371D01*
X142863907Y-74463364D01*
X142681839Y-74387950D01*
X142681829Y-74387947D01*
X142488543Y-74349500D01*
X142488541Y-74349500D01*
X142291459Y-74349500D01*
X142291457Y-74349500D01*
X142098170Y-74387947D01*
X142098160Y-74387950D01*
X141916092Y-74463364D01*
X141916079Y-74463371D01*
X141752218Y-74572860D01*
X141752214Y-74572863D01*
X141612863Y-74712214D01*
X141612860Y-74712218D01*
X141552602Y-74802401D01*
X141498990Y-74847206D01*
X141429665Y-74855913D01*
X141366637Y-74825758D01*
X141329918Y-74766315D01*
X141325500Y-74733510D01*
X141325500Y-73426489D01*
X141345185Y-73359450D01*
X141397989Y-73313695D01*
X141467147Y-73303751D01*
X141530703Y-73332776D01*
X141552602Y-73357599D01*
X141612857Y-73447777D01*
X141612863Y-73447785D01*
X141752214Y-73587136D01*
X141752218Y-73587139D01*
X141916079Y-73696628D01*
X141916092Y-73696635D01*
X142098160Y-73772049D01*
X142098165Y-73772051D01*
X142098169Y-73772051D01*
X142098170Y-73772052D01*
X142291456Y-73810500D01*
X142291459Y-73810500D01*
X142488543Y-73810500D01*
X142618582Y-73784632D01*
X142681835Y-73772051D01*
X142863914Y-73696632D01*
X143027782Y-73587139D01*
X143167139Y-73447782D01*
X143276632Y-73283914D01*
X143352051Y-73101835D01*
X143390500Y-72908543D01*
X156629499Y-72908543D01*
X156667947Y-73101829D01*
X156667950Y-73101839D01*
X156743364Y-73283907D01*
X156743371Y-73283920D01*
X156852860Y-73447781D01*
X156852863Y-73447785D01*
X156992214Y-73587136D01*
X156992218Y-73587139D01*
X157156079Y-73696628D01*
X157156092Y-73696635D01*
X157338160Y-73772049D01*
X157338165Y-73772051D01*
X157338169Y-73772051D01*
X157338170Y-73772052D01*
X157531456Y-73810500D01*
X157531459Y-73810500D01*
X157728543Y-73810500D01*
X157858582Y-73784632D01*
X157921835Y-73772051D01*
X158103914Y-73696632D01*
X158267782Y-73587139D01*
X158407139Y-73447782D01*
X158516632Y-73283914D01*
X158592051Y-73101835D01*
X158630500Y-72908541D01*
X158630500Y-72711459D01*
X158630500Y-72711456D01*
X158592052Y-72518170D01*
X158592051Y-72518169D01*
X158592051Y-72518165D01*
X158560772Y-72442650D01*
X158516635Y-72336092D01*
X158516628Y-72336079D01*
X158407139Y-72172218D01*
X158407136Y-72172214D01*
X158267785Y-72032863D01*
X158267781Y-72032860D01*
X158103920Y-71923371D01*
X158103907Y-71923364D01*
X157921839Y-71847950D01*
X157921829Y-71847947D01*
X157728543Y-71809500D01*
X157728541Y-71809500D01*
X157531459Y-71809500D01*
X157531457Y-71809500D01*
X157338170Y-71847947D01*
X157338160Y-71847950D01*
X157156092Y-71923364D01*
X157156079Y-71923371D01*
X156992218Y-72032860D01*
X156992214Y-72032863D01*
X156852863Y-72172214D01*
X156852860Y-72172218D01*
X156743371Y-72336079D01*
X156743364Y-72336092D01*
X156667950Y-72518160D01*
X156667947Y-72518170D01*
X156629500Y-72711456D01*
X156629500Y-72711459D01*
X156629500Y-72908541D01*
X156629500Y-72908543D01*
X156629499Y-72908543D01*
X143390500Y-72908543D01*
X143390500Y-72908541D01*
X143390500Y-72711459D01*
X143390500Y-72711456D01*
X143352052Y-72518170D01*
X143352051Y-72518169D01*
X143352051Y-72518165D01*
X143320772Y-72442650D01*
X143276635Y-72336092D01*
X143276628Y-72336079D01*
X143167139Y-72172218D01*
X143167136Y-72172214D01*
X143027785Y-72032863D01*
X143027781Y-72032860D01*
X142863920Y-71923371D01*
X142863907Y-71923364D01*
X142681839Y-71847950D01*
X142681829Y-71847947D01*
X142488543Y-71809500D01*
X142488541Y-71809500D01*
X142291459Y-71809500D01*
X142291457Y-71809500D01*
X142098170Y-71847947D01*
X142098160Y-71847950D01*
X141916092Y-71923364D01*
X141916079Y-71923371D01*
X141752218Y-72032860D01*
X141752214Y-72032863D01*
X141612863Y-72172214D01*
X141612860Y-72172218D01*
X141552602Y-72262401D01*
X141498990Y-72307206D01*
X141429665Y-72315913D01*
X141366637Y-72285758D01*
X141329918Y-72226315D01*
X141325500Y-72193510D01*
X141325500Y-70957150D01*
X141325500Y-70957147D01*
X141310054Y-70899500D01*
X141310054Y-70899499D01*
X141310054Y-70899498D01*
X141308876Y-70895103D01*
X141308875Y-70895102D01*
X141303318Y-70874361D01*
X141281891Y-70837250D01*
X141260465Y-70800138D01*
X141199862Y-70739535D01*
X141199861Y-70739534D01*
X141195531Y-70735204D01*
X141195520Y-70735194D01*
X140828870Y-70368543D01*
X141389499Y-70368543D01*
X141427947Y-70561829D01*
X141427950Y-70561839D01*
X141476558Y-70679192D01*
X141476565Y-70679206D01*
X141503368Y-70743914D01*
X141532183Y-70787039D01*
X141532189Y-70787050D01*
X141612860Y-70907781D01*
X141612863Y-70907785D01*
X141752214Y-71047136D01*
X141752218Y-71047139D01*
X141916079Y-71156628D01*
X141916092Y-71156635D01*
X142098160Y-71232049D01*
X142098165Y-71232051D01*
X142098169Y-71232051D01*
X142098170Y-71232052D01*
X142291456Y-71270500D01*
X142291459Y-71270500D01*
X142488543Y-71270500D01*
X142618582Y-71244632D01*
X142681835Y-71232051D01*
X142863914Y-71156632D01*
X143027782Y-71047139D01*
X143167139Y-70907782D01*
X143276632Y-70743914D01*
X143352051Y-70561835D01*
X143381324Y-70414672D01*
X143390500Y-70368543D01*
X156629499Y-70368543D01*
X156667947Y-70561829D01*
X156667950Y-70561839D01*
X156743364Y-70743907D01*
X156743371Y-70743920D01*
X156852860Y-70907781D01*
X156852863Y-70907785D01*
X156992214Y-71047136D01*
X156992218Y-71047139D01*
X157156079Y-71156628D01*
X157156092Y-71156635D01*
X157338160Y-71232049D01*
X157338165Y-71232051D01*
X157338169Y-71232051D01*
X157338170Y-71232052D01*
X157531456Y-71270500D01*
X157531459Y-71270500D01*
X157728543Y-71270500D01*
X157858582Y-71244632D01*
X157921835Y-71232051D01*
X158103914Y-71156632D01*
X158267782Y-71047139D01*
X158407139Y-70907782D01*
X158516632Y-70743914D01*
X158592051Y-70561835D01*
X158621324Y-70414672D01*
X158630500Y-70368543D01*
X158630500Y-70171456D01*
X158592052Y-69978170D01*
X158592051Y-69978169D01*
X158592051Y-69978165D01*
X158574556Y-69935928D01*
X158516635Y-69796092D01*
X158516628Y-69796079D01*
X158407139Y-69632218D01*
X158407136Y-69632214D01*
X158267785Y-69492863D01*
X158267781Y-69492860D01*
X158103920Y-69383371D01*
X158103907Y-69383364D01*
X157921839Y-69307950D01*
X157921829Y-69307947D01*
X157728543Y-69269500D01*
X157728541Y-69269500D01*
X157531459Y-69269500D01*
X157531457Y-69269500D01*
X157338170Y-69307947D01*
X157338160Y-69307950D01*
X157156092Y-69383364D01*
X157156079Y-69383371D01*
X156992218Y-69492860D01*
X156992214Y-69492863D01*
X156852863Y-69632214D01*
X156852860Y-69632218D01*
X156743371Y-69796079D01*
X156743364Y-69796092D01*
X156667950Y-69978160D01*
X156667947Y-69978170D01*
X156629500Y-70171456D01*
X156629500Y-70171459D01*
X156629500Y-70368541D01*
X156629500Y-70368543D01*
X156629499Y-70368543D01*
X143390500Y-70368543D01*
X143390500Y-70171456D01*
X143352052Y-69978170D01*
X143352051Y-69978169D01*
X143352051Y-69978165D01*
X143334556Y-69935928D01*
X143276635Y-69796092D01*
X143276628Y-69796079D01*
X143167139Y-69632218D01*
X143167136Y-69632214D01*
X143027785Y-69492863D01*
X143027781Y-69492860D01*
X142863920Y-69383371D01*
X142863907Y-69383364D01*
X142681839Y-69307950D01*
X142681829Y-69307947D01*
X142488543Y-69269500D01*
X142488541Y-69269500D01*
X142291459Y-69269500D01*
X142291457Y-69269500D01*
X142098170Y-69307947D01*
X142098160Y-69307950D01*
X141916092Y-69383364D01*
X141916079Y-69383371D01*
X141752218Y-69492860D01*
X141752214Y-69492863D01*
X141612863Y-69632214D01*
X141612860Y-69632218D01*
X141503371Y-69796079D01*
X141503364Y-69796092D01*
X141427950Y-69978160D01*
X141427947Y-69978170D01*
X141389500Y-70171456D01*
X141389500Y-70171459D01*
X141389500Y-70368541D01*
X141389500Y-70368543D01*
X141389499Y-70368543D01*
X140828870Y-70368543D01*
X140699864Y-70239537D01*
X140699863Y-70239536D01*
X140699862Y-70239535D01*
X140662750Y-70218108D01*
X140625640Y-70196682D01*
X140584246Y-70185591D01*
X140542853Y-70174500D01*
X135042853Y-70174500D01*
X134957147Y-70174500D01*
X134874359Y-70196682D01*
X134800138Y-70239535D01*
X134800135Y-70239537D01*
X132676301Y-72363370D01*
X132614978Y-72396855D01*
X132587184Y-72398014D01*
X132587184Y-72399500D01*
X132420943Y-72399500D01*
X132268216Y-72440423D01*
X132268215Y-72440423D01*
X132158177Y-72503953D01*
X132090277Y-72520424D01*
X132024250Y-72497572D01*
X131981060Y-72442650D01*
X131972179Y-72397036D01*
X131953533Y-67434108D01*
X132499500Y-67434108D01*
X132499500Y-69565891D01*
X132533608Y-69693187D01*
X132566554Y-69750250D01*
X132599500Y-69807314D01*
X132599502Y-69807316D01*
X132821224Y-70029038D01*
X132854709Y-70090361D01*
X132855160Y-70092527D01*
X132874497Y-70189738D01*
X132874499Y-70189744D01*
X132923533Y-70308124D01*
X132923538Y-70308133D01*
X132994723Y-70414668D01*
X132994726Y-70414672D01*
X133085327Y-70505273D01*
X133085331Y-70505276D01*
X133191866Y-70576461D01*
X133191872Y-70576464D01*
X133191873Y-70576465D01*
X133310256Y-70625501D01*
X133310260Y-70625501D01*
X133310261Y-70625502D01*
X133435928Y-70650500D01*
X133435931Y-70650500D01*
X133564071Y-70650500D01*
X133648615Y-70633682D01*
X133689744Y-70625501D01*
X133808127Y-70576465D01*
X133914669Y-70505276D01*
X134005276Y-70414669D01*
X134076465Y-70308127D01*
X134125501Y-70189744D01*
X134150500Y-70064069D01*
X134150500Y-69935931D01*
X134150500Y-69935928D01*
X134125502Y-69810261D01*
X134125501Y-69810260D01*
X134125501Y-69810256D01*
X134076465Y-69691873D01*
X134076464Y-69691872D01*
X134076461Y-69691866D01*
X134005276Y-69585331D01*
X134005273Y-69585327D01*
X133914672Y-69494726D01*
X133914668Y-69494723D01*
X133808133Y-69423538D01*
X133808124Y-69423533D01*
X133689744Y-69374499D01*
X133689738Y-69374497D01*
X133600308Y-69356708D01*
X133538397Y-69324323D01*
X133503823Y-69263607D01*
X133500500Y-69235091D01*
X133500500Y-67828543D01*
X141389499Y-67828543D01*
X141427947Y-68021829D01*
X141427950Y-68021839D01*
X141503364Y-68203907D01*
X141503371Y-68203920D01*
X141612860Y-68367781D01*
X141612863Y-68367785D01*
X141752214Y-68507136D01*
X141752218Y-68507139D01*
X141916079Y-68616628D01*
X141916092Y-68616635D01*
X142098160Y-68692049D01*
X142098165Y-68692051D01*
X142098169Y-68692051D01*
X142098170Y-68692052D01*
X142291456Y-68730500D01*
X142291459Y-68730500D01*
X142488543Y-68730500D01*
X142618582Y-68704632D01*
X142681835Y-68692051D01*
X142863914Y-68616632D01*
X143027782Y-68507139D01*
X143167139Y-68367782D01*
X143276632Y-68203914D01*
X143352051Y-68021835D01*
X143390500Y-67828543D01*
X156629499Y-67828543D01*
X156667947Y-68021829D01*
X156667950Y-68021839D01*
X156743364Y-68203907D01*
X156743371Y-68203920D01*
X156852860Y-68367781D01*
X156852863Y-68367785D01*
X156992214Y-68507136D01*
X156992218Y-68507139D01*
X157156079Y-68616628D01*
X157156092Y-68616635D01*
X157338160Y-68692049D01*
X157338165Y-68692051D01*
X157338169Y-68692051D01*
X157338170Y-68692052D01*
X157531456Y-68730500D01*
X157531459Y-68730500D01*
X157728543Y-68730500D01*
X157858582Y-68704632D01*
X157921835Y-68692051D01*
X158103914Y-68616632D01*
X158267782Y-68507139D01*
X158407139Y-68367782D01*
X158516632Y-68203914D01*
X158592051Y-68021835D01*
X158630500Y-67828541D01*
X158630500Y-67631459D01*
X158630500Y-67631456D01*
X158592052Y-67438170D01*
X158592051Y-67438169D01*
X158592051Y-67438165D01*
X158537644Y-67306814D01*
X158516635Y-67256092D01*
X158516628Y-67256079D01*
X158407139Y-67092218D01*
X158407136Y-67092214D01*
X158267785Y-66952863D01*
X158267781Y-66952860D01*
X158103920Y-66843371D01*
X158103907Y-66843364D01*
X157921839Y-66767950D01*
X157921829Y-66767947D01*
X157728543Y-66729500D01*
X157728541Y-66729500D01*
X157531459Y-66729500D01*
X157531457Y-66729500D01*
X157338170Y-66767947D01*
X157338160Y-66767950D01*
X157156092Y-66843364D01*
X157156079Y-66843371D01*
X156992218Y-66952860D01*
X156992214Y-66952863D01*
X156852863Y-67092214D01*
X156852860Y-67092218D01*
X156743371Y-67256079D01*
X156743364Y-67256092D01*
X156667950Y-67438160D01*
X156667947Y-67438170D01*
X156629500Y-67631456D01*
X156629500Y-67631459D01*
X156629500Y-67828541D01*
X156629500Y-67828543D01*
X156629499Y-67828543D01*
X143390500Y-67828543D01*
X143390500Y-67828541D01*
X143390500Y-67631459D01*
X143390500Y-67631456D01*
X143352052Y-67438170D01*
X143352051Y-67438169D01*
X143352051Y-67438165D01*
X143297644Y-67306814D01*
X143276635Y-67256092D01*
X143276628Y-67256079D01*
X143167139Y-67092218D01*
X143167136Y-67092214D01*
X143027785Y-66952863D01*
X143027781Y-66952860D01*
X142863920Y-66843371D01*
X142863907Y-66843364D01*
X142681839Y-66767950D01*
X142681829Y-66767947D01*
X142488543Y-66729500D01*
X142488541Y-66729500D01*
X142291459Y-66729500D01*
X142291457Y-66729500D01*
X142098170Y-66767947D01*
X142098160Y-66767950D01*
X141916092Y-66843364D01*
X141916079Y-66843371D01*
X141752218Y-66952860D01*
X141752214Y-66952863D01*
X141612863Y-67092214D01*
X141612860Y-67092218D01*
X141503371Y-67256079D01*
X141503364Y-67256092D01*
X141427950Y-67438160D01*
X141427947Y-67438170D01*
X141389500Y-67631456D01*
X141389500Y-67631459D01*
X141389500Y-67828541D01*
X141389500Y-67828543D01*
X141389499Y-67828543D01*
X133500500Y-67828543D01*
X133500500Y-67758676D01*
X133509144Y-67729235D01*
X133515668Y-67699249D01*
X133519422Y-67694233D01*
X133520185Y-67691637D01*
X133536819Y-67670995D01*
X134170995Y-67036819D01*
X134232318Y-67003334D01*
X134258676Y-67000500D01*
X138065890Y-67000500D01*
X138065892Y-67000500D01*
X138193186Y-66966392D01*
X138307314Y-66900500D01*
X139919271Y-65288543D01*
X141389499Y-65288543D01*
X141427947Y-65481829D01*
X141427950Y-65481839D01*
X141503364Y-65663907D01*
X141503371Y-65663920D01*
X141612860Y-65827781D01*
X141612863Y-65827785D01*
X141752214Y-65967136D01*
X141752218Y-65967139D01*
X141916079Y-66076628D01*
X141916092Y-66076635D01*
X141971299Y-66099502D01*
X142098165Y-66152051D01*
X142098169Y-66152051D01*
X142098170Y-66152052D01*
X142291456Y-66190500D01*
X142291459Y-66190500D01*
X142488543Y-66190500D01*
X142618582Y-66164632D01*
X142681835Y-66152051D01*
X142863914Y-66076632D01*
X143027782Y-65967139D01*
X143167139Y-65827782D01*
X143276632Y-65663914D01*
X143352051Y-65481835D01*
X143390500Y-65288543D01*
X156629499Y-65288543D01*
X156667947Y-65481829D01*
X156667950Y-65481839D01*
X156743364Y-65663907D01*
X156743371Y-65663920D01*
X156852860Y-65827781D01*
X156852863Y-65827785D01*
X156992214Y-65967136D01*
X156992218Y-65967139D01*
X157156079Y-66076628D01*
X157156092Y-66076635D01*
X157211299Y-66099502D01*
X157338165Y-66152051D01*
X157338169Y-66152051D01*
X157338170Y-66152052D01*
X157531456Y-66190500D01*
X157531459Y-66190500D01*
X157728543Y-66190500D01*
X157858582Y-66164632D01*
X157921835Y-66152051D01*
X158103914Y-66076632D01*
X158267782Y-65967139D01*
X158407139Y-65827782D01*
X158516632Y-65663914D01*
X158592051Y-65481835D01*
X158630500Y-65288541D01*
X158630500Y-65091459D01*
X158630500Y-65091456D01*
X158592052Y-64898170D01*
X158592051Y-64898169D01*
X158592051Y-64898165D01*
X158556725Y-64812880D01*
X158516635Y-64716092D01*
X158516628Y-64716079D01*
X158407139Y-64552218D01*
X158407136Y-64552214D01*
X158267785Y-64412863D01*
X158267781Y-64412860D01*
X158103920Y-64303371D01*
X158103907Y-64303364D01*
X157921839Y-64227950D01*
X157921829Y-64227947D01*
X157728543Y-64189500D01*
X157728541Y-64189500D01*
X157531459Y-64189500D01*
X157531457Y-64189500D01*
X157338170Y-64227947D01*
X157338160Y-64227950D01*
X157156092Y-64303364D01*
X157156079Y-64303371D01*
X156992218Y-64412860D01*
X156992214Y-64412863D01*
X156852863Y-64552214D01*
X156852860Y-64552218D01*
X156743371Y-64716079D01*
X156743364Y-64716092D01*
X156667950Y-64898160D01*
X156667947Y-64898170D01*
X156629500Y-65091456D01*
X156629500Y-65091459D01*
X156629500Y-65288541D01*
X156629500Y-65288543D01*
X156629499Y-65288543D01*
X143390500Y-65288543D01*
X143390500Y-65288541D01*
X143390500Y-65091459D01*
X143390500Y-65091456D01*
X143352052Y-64898170D01*
X143352051Y-64898169D01*
X143352051Y-64898165D01*
X143316725Y-64812880D01*
X143276635Y-64716092D01*
X143276628Y-64716079D01*
X143167139Y-64552218D01*
X143167136Y-64552214D01*
X143027785Y-64412863D01*
X143027781Y-64412860D01*
X142863920Y-64303371D01*
X142863907Y-64303364D01*
X142681839Y-64227950D01*
X142681829Y-64227947D01*
X142488543Y-64189500D01*
X142488541Y-64189500D01*
X142291459Y-64189500D01*
X142291457Y-64189500D01*
X142098170Y-64227947D01*
X142098160Y-64227950D01*
X141916092Y-64303364D01*
X141916079Y-64303371D01*
X141752218Y-64412860D01*
X141752214Y-64412863D01*
X141612863Y-64552214D01*
X141612860Y-64552218D01*
X141503371Y-64716079D01*
X141503364Y-64716092D01*
X141427950Y-64898160D01*
X141427947Y-64898170D01*
X141389500Y-65091456D01*
X141389500Y-65091459D01*
X141389500Y-65288541D01*
X141389500Y-65288543D01*
X141389499Y-65288543D01*
X139919271Y-65288543D01*
X140400500Y-64807314D01*
X140466392Y-64693186D01*
X140500500Y-64565893D01*
X140500500Y-64434108D01*
X140500500Y-62748543D01*
X141389499Y-62748543D01*
X141427947Y-62941829D01*
X141427950Y-62941839D01*
X141503364Y-63123907D01*
X141503371Y-63123920D01*
X141612860Y-63287781D01*
X141612863Y-63287785D01*
X141752214Y-63427136D01*
X141752218Y-63427139D01*
X141916079Y-63536628D01*
X141916092Y-63536635D01*
X142098160Y-63612049D01*
X142098165Y-63612051D01*
X142098169Y-63612051D01*
X142098170Y-63612052D01*
X142291456Y-63650500D01*
X142291459Y-63650500D01*
X142488543Y-63650500D01*
X142618582Y-63624632D01*
X142681835Y-63612051D01*
X142863914Y-63536632D01*
X143027782Y-63427139D01*
X143167139Y-63287782D01*
X143276632Y-63123914D01*
X143352051Y-62941835D01*
X143390500Y-62748543D01*
X156629499Y-62748543D01*
X156667947Y-62941829D01*
X156667950Y-62941839D01*
X156743364Y-63123907D01*
X156743371Y-63123920D01*
X156852860Y-63287781D01*
X156852863Y-63287785D01*
X156992214Y-63427136D01*
X156992218Y-63427139D01*
X157156079Y-63536628D01*
X157156092Y-63536635D01*
X157338160Y-63612049D01*
X157338165Y-63612051D01*
X157338169Y-63612051D01*
X157338170Y-63612052D01*
X157531456Y-63650500D01*
X157531459Y-63650500D01*
X157728543Y-63650500D01*
X157858582Y-63624632D01*
X157921835Y-63612051D01*
X158103914Y-63536632D01*
X158267782Y-63427139D01*
X158407139Y-63287782D01*
X158516632Y-63123914D01*
X158592051Y-62941835D01*
X158630500Y-62748541D01*
X158630500Y-62551459D01*
X158630500Y-62551456D01*
X158592052Y-62358170D01*
X158592051Y-62358169D01*
X158592051Y-62358165D01*
X158574576Y-62315977D01*
X158516635Y-62176092D01*
X158516628Y-62176079D01*
X158407139Y-62012218D01*
X158407136Y-62012214D01*
X158267785Y-61872863D01*
X158267781Y-61872860D01*
X158103920Y-61763371D01*
X158103907Y-61763364D01*
X157921839Y-61687950D01*
X157921829Y-61687947D01*
X157728543Y-61649500D01*
X157728541Y-61649500D01*
X157531459Y-61649500D01*
X157531457Y-61649500D01*
X157338170Y-61687947D01*
X157338160Y-61687950D01*
X157156092Y-61763364D01*
X157156079Y-61763371D01*
X156992218Y-61872860D01*
X156992214Y-61872863D01*
X156852863Y-62012214D01*
X156852860Y-62012218D01*
X156743371Y-62176079D01*
X156743364Y-62176092D01*
X156667950Y-62358160D01*
X156667947Y-62358170D01*
X156629500Y-62551456D01*
X156629500Y-62551459D01*
X156629500Y-62748541D01*
X156629500Y-62748543D01*
X156629499Y-62748543D01*
X143390500Y-62748543D01*
X143390500Y-62748541D01*
X143390500Y-62551459D01*
X143390500Y-62551456D01*
X143352052Y-62358170D01*
X143352051Y-62358169D01*
X143352051Y-62358165D01*
X143334576Y-62315977D01*
X143276635Y-62176092D01*
X143276628Y-62176079D01*
X143167139Y-62012218D01*
X143167136Y-62012214D01*
X143027785Y-61872863D01*
X143027781Y-61872860D01*
X142863920Y-61763371D01*
X142863907Y-61763364D01*
X142681839Y-61687950D01*
X142681829Y-61687947D01*
X142488543Y-61649500D01*
X142488541Y-61649500D01*
X142291459Y-61649500D01*
X142291457Y-61649500D01*
X142098170Y-61687947D01*
X142098160Y-61687950D01*
X141916092Y-61763364D01*
X141916079Y-61763371D01*
X141752218Y-61872860D01*
X141752214Y-61872863D01*
X141612863Y-62012214D01*
X141612860Y-62012218D01*
X141503371Y-62176079D01*
X141503364Y-62176092D01*
X141427950Y-62358160D01*
X141427947Y-62358170D01*
X141389500Y-62551456D01*
X141389500Y-62551459D01*
X141389500Y-62748541D01*
X141389500Y-62748543D01*
X141389499Y-62748543D01*
X140500500Y-62748543D01*
X140500500Y-57320000D01*
X141113391Y-57320000D01*
X141956988Y-57320000D01*
X141924075Y-57377007D01*
X141890000Y-57504174D01*
X141890000Y-57635826D01*
X141924075Y-57762993D01*
X141956988Y-57820000D01*
X141113391Y-57820000D01*
X141122009Y-57874413D01*
X141185244Y-58069029D01*
X141278140Y-58251349D01*
X141398417Y-58416894D01*
X141398417Y-58416895D01*
X141543104Y-58561582D01*
X141708650Y-58681859D01*
X141890968Y-58774755D01*
X142085582Y-58837990D01*
X142274268Y-58867875D01*
X142337403Y-58897804D01*
X142374334Y-58957116D01*
X142373336Y-59026978D01*
X142334726Y-59085211D01*
X142279062Y-59111965D01*
X142098170Y-59147947D01*
X142098160Y-59147950D01*
X141916092Y-59223364D01*
X141916079Y-59223371D01*
X141752218Y-59332860D01*
X141752214Y-59332863D01*
X141612863Y-59472214D01*
X141612860Y-59472218D01*
X141503371Y-59636079D01*
X141503364Y-59636092D01*
X141427950Y-59818160D01*
X141427947Y-59818170D01*
X141389500Y-60011456D01*
X141389500Y-60011459D01*
X141389500Y-60208541D01*
X141389500Y-60208543D01*
X141389499Y-60208543D01*
X141427947Y-60401829D01*
X141427950Y-60401839D01*
X141503364Y-60583907D01*
X141503371Y-60583920D01*
X141612860Y-60747781D01*
X141612863Y-60747785D01*
X141752214Y-60887136D01*
X141752218Y-60887139D01*
X141916079Y-60996628D01*
X141916092Y-60996635D01*
X142098160Y-61072049D01*
X142098165Y-61072051D01*
X142098169Y-61072051D01*
X142098170Y-61072052D01*
X142291456Y-61110500D01*
X142291459Y-61110500D01*
X142488543Y-61110500D01*
X142618582Y-61084632D01*
X142681835Y-61072051D01*
X142822655Y-61013721D01*
X142863907Y-60996635D01*
X142863907Y-60996634D01*
X142863914Y-60996632D01*
X143027782Y-60887139D01*
X143167139Y-60747782D01*
X143276632Y-60583914D01*
X143352051Y-60401835D01*
X143390500Y-60208543D01*
X156629499Y-60208543D01*
X156667947Y-60401829D01*
X156667950Y-60401839D01*
X156743364Y-60583907D01*
X156743371Y-60583920D01*
X156852860Y-60747781D01*
X156852863Y-60747785D01*
X156992214Y-60887136D01*
X156992218Y-60887139D01*
X157156079Y-60996628D01*
X157156092Y-60996635D01*
X157338160Y-61072049D01*
X157338165Y-61072051D01*
X157338169Y-61072051D01*
X157338170Y-61072052D01*
X157531456Y-61110500D01*
X157531459Y-61110500D01*
X157728543Y-61110500D01*
X157858582Y-61084632D01*
X157921835Y-61072051D01*
X158062655Y-61013721D01*
X158103907Y-60996635D01*
X158103907Y-60996634D01*
X158103914Y-60996632D01*
X158267782Y-60887139D01*
X158407139Y-60747782D01*
X158516632Y-60583914D01*
X158592051Y-60401835D01*
X158630500Y-60208541D01*
X158630500Y-60011459D01*
X158630500Y-60011456D01*
X158592052Y-59818170D01*
X158592051Y-59818169D01*
X158592051Y-59818165D01*
X158591144Y-59815975D01*
X158516635Y-59636092D01*
X158516628Y-59636079D01*
X158407139Y-59472218D01*
X158407136Y-59472214D01*
X158267785Y-59332863D01*
X158267781Y-59332860D01*
X158103920Y-59223371D01*
X158103907Y-59223364D01*
X157921839Y-59147950D01*
X157921829Y-59147947D01*
X157728543Y-59109500D01*
X157728541Y-59109500D01*
X157531459Y-59109500D01*
X157531457Y-59109500D01*
X157338170Y-59147947D01*
X157338160Y-59147950D01*
X157156092Y-59223364D01*
X157156079Y-59223371D01*
X156992218Y-59332860D01*
X156992214Y-59332863D01*
X156852863Y-59472214D01*
X156852860Y-59472218D01*
X156743371Y-59636079D01*
X156743364Y-59636092D01*
X156667950Y-59818160D01*
X156667947Y-59818170D01*
X156629500Y-60011456D01*
X156629500Y-60011459D01*
X156629500Y-60208541D01*
X156629500Y-60208543D01*
X156629499Y-60208543D01*
X143390500Y-60208543D01*
X143390500Y-60208541D01*
X143390500Y-60011459D01*
X143390500Y-60011456D01*
X143352052Y-59818170D01*
X143352051Y-59818169D01*
X143352051Y-59818165D01*
X143351144Y-59815975D01*
X143276635Y-59636092D01*
X143276628Y-59636079D01*
X143167139Y-59472218D01*
X143167136Y-59472214D01*
X143027785Y-59332863D01*
X143027781Y-59332860D01*
X142863920Y-59223371D01*
X142863907Y-59223364D01*
X142681839Y-59147950D01*
X142681829Y-59147947D01*
X142500937Y-59111965D01*
X142439026Y-59079580D01*
X142404452Y-59018864D01*
X142408192Y-58949095D01*
X142449059Y-58892423D01*
X142505731Y-58867875D01*
X142694417Y-58837990D01*
X142889031Y-58774755D01*
X143071349Y-58681859D01*
X143236894Y-58561582D01*
X143236895Y-58561582D01*
X143381582Y-58416895D01*
X143381582Y-58416894D01*
X143501859Y-58251349D01*
X143594755Y-58069029D01*
X143657990Y-57874413D01*
X143666609Y-57820000D01*
X142823012Y-57820000D01*
X142855925Y-57762993D01*
X142890000Y-57635826D01*
X142890000Y-57504174D01*
X142855925Y-57377007D01*
X142823012Y-57320000D01*
X143666609Y-57320000D01*
X143657990Y-57265586D01*
X143594755Y-57070970D01*
X143501859Y-56888650D01*
X143381582Y-56723105D01*
X143381582Y-56723104D01*
X143236895Y-56578417D01*
X143071349Y-56458140D01*
X142889031Y-56365244D01*
X142694417Y-56302009D01*
X142505731Y-56272124D01*
X142442596Y-56242194D01*
X142405665Y-56182883D01*
X142406663Y-56113020D01*
X142445273Y-56054788D01*
X142500938Y-56028034D01*
X142681835Y-55992051D01*
X142863914Y-55916632D01*
X143027782Y-55807139D01*
X143167139Y-55667782D01*
X143276632Y-55503914D01*
X143352051Y-55321835D01*
X143390500Y-55128541D01*
X143390500Y-54931459D01*
X143390500Y-54931456D01*
X143352052Y-54738170D01*
X143352051Y-54738169D01*
X143352051Y-54738165D01*
X143352049Y-54738160D01*
X143276635Y-54556092D01*
X143276628Y-54556079D01*
X143167139Y-54392218D01*
X143167136Y-54392214D01*
X143027785Y-54252863D01*
X143027781Y-54252860D01*
X142863920Y-54143371D01*
X142863907Y-54143364D01*
X142681839Y-54067950D01*
X142681829Y-54067947D01*
X142488543Y-54029500D01*
X142488541Y-54029500D01*
X142291459Y-54029500D01*
X142291457Y-54029500D01*
X142098170Y-54067947D01*
X142098160Y-54067950D01*
X141916092Y-54143364D01*
X141916079Y-54143371D01*
X141752218Y-54252860D01*
X141752214Y-54252863D01*
X141612863Y-54392214D01*
X141612860Y-54392218D01*
X141503371Y-54556079D01*
X141503364Y-54556092D01*
X141427950Y-54738160D01*
X141427947Y-54738170D01*
X141389500Y-54931456D01*
X141389500Y-54931459D01*
X141389500Y-55128541D01*
X141389500Y-55128543D01*
X141389499Y-55128543D01*
X141427947Y-55321829D01*
X141427950Y-55321839D01*
X141503364Y-55503907D01*
X141503371Y-55503920D01*
X141612860Y-55667781D01*
X141612863Y-55667785D01*
X141752214Y-55807136D01*
X141752218Y-55807139D01*
X141916079Y-55916628D01*
X141916092Y-55916635D01*
X142098160Y-55992049D01*
X142098165Y-55992051D01*
X142230674Y-56018409D01*
X142279061Y-56028034D01*
X142340972Y-56060419D01*
X142375546Y-56121134D01*
X142371807Y-56190904D01*
X142330940Y-56247576D01*
X142274269Y-56272124D01*
X142085581Y-56302010D01*
X141890968Y-56365244D01*
X141708650Y-56458140D01*
X141543105Y-56578417D01*
X141543104Y-56578417D01*
X141398417Y-56723104D01*
X141398417Y-56723105D01*
X141278140Y-56888650D01*
X141185244Y-57070970D01*
X141122009Y-57265586D01*
X141113391Y-57320000D01*
X140500500Y-57320000D01*
X140500500Y-52588543D01*
X141389499Y-52588543D01*
X141427947Y-52781829D01*
X141427950Y-52781839D01*
X141503364Y-52963907D01*
X141503371Y-52963920D01*
X141612860Y-53127781D01*
X141612863Y-53127785D01*
X141752214Y-53267136D01*
X141752218Y-53267139D01*
X141916079Y-53376628D01*
X141916092Y-53376635D01*
X142098160Y-53452049D01*
X142098165Y-53452051D01*
X142098169Y-53452051D01*
X142098170Y-53452052D01*
X142291456Y-53490500D01*
X142291459Y-53490500D01*
X142488543Y-53490500D01*
X142618582Y-53464632D01*
X142681835Y-53452051D01*
X142863914Y-53376632D01*
X143027782Y-53267139D01*
X143167139Y-53127782D01*
X143276632Y-52963914D01*
X143352051Y-52781835D01*
X143390500Y-52588541D01*
X143390500Y-52391459D01*
X143390500Y-52391456D01*
X143352052Y-52198170D01*
X143352051Y-52198169D01*
X143352051Y-52198165D01*
X143343380Y-52177230D01*
X143276635Y-52016092D01*
X143276628Y-52016079D01*
X143167139Y-51852218D01*
X143167136Y-51852214D01*
X143027785Y-51712863D01*
X143027781Y-51712860D01*
X142863920Y-51603371D01*
X142863907Y-51603364D01*
X142681839Y-51527950D01*
X142681829Y-51527947D01*
X142488543Y-51489500D01*
X142488541Y-51489500D01*
X142291459Y-51489500D01*
X142291457Y-51489500D01*
X142098170Y-51527947D01*
X142098160Y-51527950D01*
X141916092Y-51603364D01*
X141916079Y-51603371D01*
X141752218Y-51712860D01*
X141752214Y-51712863D01*
X141612863Y-51852214D01*
X141612860Y-51852218D01*
X141503371Y-52016079D01*
X141503364Y-52016092D01*
X141427950Y-52198160D01*
X141427947Y-52198170D01*
X141389500Y-52391456D01*
X141389500Y-52391459D01*
X141389500Y-52588541D01*
X141389500Y-52588543D01*
X141389499Y-52588543D01*
X140500500Y-52588543D01*
X140500500Y-49130247D01*
X141389500Y-49130247D01*
X141389500Y-50769752D01*
X141401131Y-50828229D01*
X141401132Y-50828230D01*
X141445447Y-50894552D01*
X141511769Y-50938867D01*
X141511770Y-50938868D01*
X141570247Y-50950499D01*
X141570250Y-50950500D01*
X141570252Y-50950500D01*
X143209750Y-50950500D01*
X143209751Y-50950499D01*
X143224568Y-50947552D01*
X143268229Y-50938868D01*
X143268229Y-50938867D01*
X143268231Y-50938867D01*
X143334552Y-50894552D01*
X143378867Y-50828231D01*
X143378867Y-50828229D01*
X143378868Y-50828229D01*
X143390499Y-50769752D01*
X143390500Y-50769750D01*
X143390500Y-50434108D01*
X154999500Y-50434108D01*
X154999500Y-56934108D01*
X154999500Y-57065892D01*
X155007592Y-57096092D01*
X155033608Y-57193187D01*
X155066554Y-57250250D01*
X155099500Y-57307314D01*
X155762686Y-57970500D01*
X155876814Y-58036392D01*
X156004108Y-58070500D01*
X156135893Y-58070500D01*
X156694853Y-58070500D01*
X156761892Y-58090185D01*
X156797954Y-58125608D01*
X156833849Y-58179329D01*
X156852862Y-58207784D01*
X156992214Y-58347136D01*
X156992218Y-58347139D01*
X157156079Y-58456628D01*
X157156092Y-58456635D01*
X157338160Y-58532049D01*
X157338165Y-58532051D01*
X157338169Y-58532051D01*
X157338170Y-58532052D01*
X157531456Y-58570500D01*
X157531459Y-58570500D01*
X157728543Y-58570500D01*
X157858582Y-58544632D01*
X157921835Y-58532051D01*
X158103914Y-58456632D01*
X158267782Y-58347139D01*
X158407139Y-58207782D01*
X158516632Y-58043914D01*
X158592051Y-57861835D01*
X158630500Y-57668541D01*
X158630500Y-57471459D01*
X158630500Y-57471456D01*
X158592052Y-57278170D01*
X158592051Y-57278169D01*
X158592051Y-57278165D01*
X158585767Y-57262993D01*
X158516635Y-57096092D01*
X158516628Y-57096079D01*
X158407139Y-56932218D01*
X158407136Y-56932214D01*
X158267785Y-56792863D01*
X158267781Y-56792860D01*
X158103920Y-56683371D01*
X158103907Y-56683364D01*
X157921839Y-56607950D01*
X157921829Y-56607947D01*
X157728543Y-56569500D01*
X157728541Y-56569500D01*
X157531459Y-56569500D01*
X157531457Y-56569500D01*
X157338170Y-56607947D01*
X157338160Y-56607950D01*
X157156092Y-56683364D01*
X157156079Y-56683371D01*
X156992218Y-56792860D01*
X156992214Y-56792863D01*
X156852862Y-56932215D01*
X156819221Y-56982562D01*
X156797954Y-57014391D01*
X156744343Y-57059196D01*
X156694853Y-57069500D01*
X156328676Y-57069500D01*
X156261637Y-57049815D01*
X156240995Y-57033181D01*
X156036819Y-56829005D01*
X156003334Y-56767682D01*
X156000500Y-56741324D01*
X156000500Y-50758676D01*
X156020185Y-50691637D01*
X156036819Y-50670995D01*
X156220995Y-50486819D01*
X156282318Y-50453334D01*
X156308676Y-50450500D01*
X156694853Y-50450500D01*
X156761892Y-50470185D01*
X156797954Y-50505608D01*
X156798889Y-50507007D01*
X156852862Y-50587784D01*
X156992214Y-50727136D01*
X156992218Y-50727139D01*
X157156079Y-50836628D01*
X157156092Y-50836635D01*
X157295918Y-50894552D01*
X157338165Y-50912051D01*
X157470674Y-50938409D01*
X157519061Y-50948034D01*
X157580972Y-50980419D01*
X157615546Y-51041134D01*
X157611807Y-51110904D01*
X157570940Y-51167576D01*
X157514269Y-51192124D01*
X157325581Y-51222010D01*
X157130968Y-51285244D01*
X156948650Y-51378140D01*
X156783105Y-51498417D01*
X156783104Y-51498417D01*
X156638417Y-51643104D01*
X156638417Y-51643105D01*
X156518140Y-51808650D01*
X156425244Y-51990970D01*
X156362009Y-52185586D01*
X156353391Y-52240000D01*
X157196988Y-52240000D01*
X157164075Y-52297007D01*
X157130000Y-52424174D01*
X157130000Y-52555826D01*
X157164075Y-52682993D01*
X157196988Y-52740000D01*
X156353391Y-52740000D01*
X156362009Y-52794413D01*
X156425244Y-52989029D01*
X156518140Y-53171349D01*
X156638417Y-53336894D01*
X156638417Y-53336895D01*
X156783104Y-53481582D01*
X156948650Y-53601859D01*
X157130968Y-53694755D01*
X157325582Y-53757990D01*
X157514268Y-53787875D01*
X157577403Y-53817804D01*
X157614334Y-53877116D01*
X157613336Y-53946978D01*
X157574726Y-54005211D01*
X157519062Y-54031965D01*
X157338170Y-54067947D01*
X157338160Y-54067950D01*
X157156092Y-54143364D01*
X157156079Y-54143371D01*
X156992218Y-54252860D01*
X156992214Y-54252863D01*
X156852863Y-54392214D01*
X156852860Y-54392218D01*
X156743371Y-54556079D01*
X156743364Y-54556092D01*
X156667950Y-54738160D01*
X156667947Y-54738170D01*
X156629500Y-54931456D01*
X156629500Y-54931459D01*
X156629500Y-55128541D01*
X156629500Y-55128543D01*
X156629499Y-55128543D01*
X156667947Y-55321829D01*
X156667950Y-55321839D01*
X156743364Y-55503907D01*
X156743371Y-55503920D01*
X156852860Y-55667781D01*
X156852863Y-55667785D01*
X156992214Y-55807136D01*
X156992218Y-55807139D01*
X157156079Y-55916628D01*
X157156092Y-55916635D01*
X157338160Y-55992049D01*
X157338165Y-55992051D01*
X157338169Y-55992051D01*
X157338170Y-55992052D01*
X157531456Y-56030500D01*
X157531459Y-56030500D01*
X157728543Y-56030500D01*
X157858582Y-56004632D01*
X157921835Y-55992051D01*
X158103914Y-55916632D01*
X158267782Y-55807139D01*
X158407139Y-55667782D01*
X158516632Y-55503914D01*
X158592051Y-55321835D01*
X158630500Y-55128541D01*
X158630500Y-54931459D01*
X158630500Y-54931456D01*
X158592052Y-54738170D01*
X158592051Y-54738169D01*
X158592051Y-54738165D01*
X158592049Y-54738160D01*
X158516635Y-54556092D01*
X158516628Y-54556079D01*
X158407139Y-54392218D01*
X158407136Y-54392214D01*
X158267785Y-54252863D01*
X158267781Y-54252860D01*
X158103920Y-54143371D01*
X158103907Y-54143364D01*
X157921839Y-54067950D01*
X157921829Y-54067947D01*
X157740937Y-54031965D01*
X157679026Y-53999580D01*
X157644452Y-53938864D01*
X157648192Y-53869095D01*
X157689059Y-53812423D01*
X157745731Y-53787875D01*
X157934417Y-53757990D01*
X158129031Y-53694755D01*
X158311349Y-53601859D01*
X158476894Y-53481582D01*
X158476895Y-53481582D01*
X158621582Y-53336895D01*
X158621582Y-53336894D01*
X158741859Y-53171349D01*
X158834755Y-52989029D01*
X158897990Y-52794413D01*
X158906609Y-52740000D01*
X158063012Y-52740000D01*
X158095925Y-52682993D01*
X158130000Y-52555826D01*
X158130000Y-52424174D01*
X158095925Y-52297007D01*
X158063012Y-52240000D01*
X158906609Y-52240000D01*
X158897990Y-52185586D01*
X158834755Y-51990970D01*
X158741859Y-51808650D01*
X158621582Y-51643105D01*
X158621582Y-51643104D01*
X158476895Y-51498417D01*
X158311349Y-51378140D01*
X158129031Y-51285244D01*
X157934417Y-51222009D01*
X157745731Y-51192124D01*
X157682596Y-51162194D01*
X157645665Y-51102883D01*
X157646663Y-51033020D01*
X157685273Y-50974788D01*
X157740938Y-50948034D01*
X157921835Y-50912051D01*
X158103914Y-50836632D01*
X158267782Y-50727139D01*
X158407139Y-50587782D01*
X158516632Y-50423914D01*
X158592051Y-50241835D01*
X158630500Y-50048541D01*
X158630500Y-49851459D01*
X158630500Y-49851456D01*
X158592052Y-49658170D01*
X158592051Y-49658169D01*
X158592051Y-49658165D01*
X158547042Y-49549502D01*
X158516635Y-49476092D01*
X158516628Y-49476079D01*
X158407139Y-49312218D01*
X158407136Y-49312214D01*
X158267785Y-49172863D01*
X158267781Y-49172860D01*
X158103920Y-49063371D01*
X158103907Y-49063364D01*
X157921839Y-48987950D01*
X157921829Y-48987947D01*
X157728543Y-48949500D01*
X157728541Y-48949500D01*
X157531459Y-48949500D01*
X157531457Y-48949500D01*
X157338170Y-48987947D01*
X157338160Y-48987950D01*
X157156092Y-49063364D01*
X157156079Y-49063371D01*
X156992218Y-49172860D01*
X156992214Y-49172863D01*
X156852862Y-49312215D01*
X156819221Y-49362562D01*
X156797954Y-49394391D01*
X156744343Y-49439196D01*
X156694853Y-49449500D01*
X155984107Y-49449500D01*
X155884886Y-49476086D01*
X155884885Y-49476085D01*
X155856818Y-49483606D01*
X155856811Y-49483609D01*
X155742689Y-49549498D01*
X155742683Y-49549502D01*
X155099502Y-50192683D01*
X155099500Y-50192686D01*
X155033608Y-50306812D01*
X155002233Y-50423907D01*
X154999500Y-50434108D01*
X143390500Y-50434108D01*
X143390500Y-49130249D01*
X143390499Y-49130247D01*
X143378868Y-49071770D01*
X143378867Y-49071769D01*
X143334552Y-49005447D01*
X143268230Y-48961132D01*
X143268229Y-48961131D01*
X143209752Y-48949500D01*
X143209748Y-48949500D01*
X141570252Y-48949500D01*
X141570247Y-48949500D01*
X141511770Y-48961131D01*
X141511769Y-48961132D01*
X141445447Y-49005447D01*
X141401132Y-49071769D01*
X141401131Y-49071770D01*
X141389500Y-49130247D01*
X140500500Y-49130247D01*
X140500500Y-47758675D01*
X140520185Y-47691636D01*
X140536819Y-47670994D01*
X141070994Y-47136819D01*
X141132317Y-47103334D01*
X141158675Y-47100500D01*
X143049509Y-47100500D01*
X143116548Y-47120185D01*
X143162303Y-47172989D01*
X143172247Y-47242147D01*
X143152611Y-47293391D01*
X143113538Y-47351866D01*
X143113533Y-47351875D01*
X143064499Y-47470255D01*
X143064497Y-47470261D01*
X143039500Y-47595928D01*
X143039500Y-47595931D01*
X143039500Y-47724069D01*
X143039500Y-47724071D01*
X143039499Y-47724071D01*
X143064497Y-47849738D01*
X143064499Y-47849744D01*
X143113533Y-47968124D01*
X143113538Y-47968133D01*
X143184723Y-48074668D01*
X143184726Y-48074672D01*
X143275327Y-48165273D01*
X143275331Y-48165276D01*
X143381866Y-48236461D01*
X143381872Y-48236464D01*
X143381873Y-48236465D01*
X143500256Y-48285501D01*
X143500260Y-48285501D01*
X143500261Y-48285502D01*
X143625928Y-48310500D01*
X143625931Y-48310500D01*
X143754071Y-48310500D01*
X143838615Y-48293682D01*
X143879744Y-48285501D01*
X143998127Y-48236465D01*
X144080541Y-48181398D01*
X144147218Y-48160520D01*
X144149432Y-48160500D01*
X160601324Y-48160500D01*
X160668363Y-48180185D01*
X160689005Y-48196819D01*
X160963181Y-48470995D01*
X160996666Y-48532318D01*
X160999500Y-48558676D01*
X160999500Y-81241324D01*
X160979815Y-81308363D01*
X160963181Y-81329005D01*
X159859005Y-82433181D01*
X159797682Y-82466666D01*
X159771324Y-82469500D01*
X158565147Y-82469500D01*
X158498108Y-82449815D01*
X158462045Y-82414391D01*
X158407139Y-82332218D01*
X158407137Y-82332215D01*
X158267785Y-82192863D01*
X158267781Y-82192860D01*
X158103920Y-82083371D01*
X158103907Y-82083364D01*
X157921839Y-82007950D01*
X157921829Y-82007947D01*
X157728543Y-81969500D01*
X157728541Y-81969500D01*
X157531459Y-81969500D01*
X157531457Y-81969500D01*
X157338170Y-82007947D01*
X157338160Y-82007950D01*
X157156092Y-82083364D01*
X157156079Y-82083371D01*
X156992218Y-82192860D01*
X156992214Y-82192863D01*
X156852863Y-82332214D01*
X156852860Y-82332218D01*
X156743371Y-82496079D01*
X156743364Y-82496092D01*
X156667950Y-82678160D01*
X156667947Y-82678170D01*
X156629500Y-82871456D01*
X156629500Y-82871459D01*
X156629500Y-83068541D01*
X156629500Y-83068543D01*
X156629499Y-83068543D01*
X156667947Y-83261829D01*
X156667950Y-83261839D01*
X156743364Y-83443907D01*
X156743371Y-83443920D01*
X156852860Y-83607781D01*
X156852863Y-83607785D01*
X156992214Y-83747136D01*
X156992218Y-83747139D01*
X157156079Y-83856628D01*
X157156092Y-83856635D01*
X157338160Y-83932049D01*
X157338165Y-83932051D01*
X157338169Y-83932051D01*
X157338170Y-83932052D01*
X157531456Y-83970500D01*
X157531459Y-83970500D01*
X157728543Y-83970500D01*
X157858582Y-83944632D01*
X157921835Y-83932051D01*
X158103914Y-83856632D01*
X158267782Y-83747139D01*
X158407139Y-83607782D01*
X158462045Y-83525608D01*
X158515657Y-83480804D01*
X158565147Y-83470500D01*
X160095890Y-83470500D01*
X160095892Y-83470500D01*
X160223186Y-83436392D01*
X160337314Y-83370500D01*
X161900500Y-81807314D01*
X161966392Y-81693186D01*
X162000500Y-81565892D01*
X162000500Y-81434108D01*
X162000500Y-48234108D01*
X161966392Y-48106814D01*
X161900500Y-47992686D01*
X161807314Y-47899500D01*
X161167314Y-47259500D01*
X161110250Y-47226554D01*
X161053187Y-47193608D01*
X160976234Y-47172989D01*
X160925892Y-47159500D01*
X160925891Y-47159500D01*
X160737173Y-47159500D01*
X160670134Y-47139815D01*
X160624379Y-47087011D01*
X160614435Y-47017853D01*
X160634071Y-46966609D01*
X160666461Y-46918133D01*
X160666461Y-46918132D01*
X160666465Y-46918127D01*
X160715501Y-46799744D01*
X160723682Y-46758615D01*
X160740500Y-46674071D01*
X160740500Y-46545928D01*
X160715502Y-46420261D01*
X160715501Y-46420260D01*
X160715501Y-46420256D01*
X160666465Y-46301873D01*
X160666464Y-46301872D01*
X160666461Y-46301866D01*
X160595276Y-46195331D01*
X160595273Y-46195327D01*
X160504672Y-46104726D01*
X160504668Y-46104723D01*
X160398133Y-46033538D01*
X160398124Y-46033533D01*
X160279744Y-45984499D01*
X160279738Y-45984497D01*
X160154071Y-45959500D01*
X160154069Y-45959500D01*
X160025931Y-45959500D01*
X160025929Y-45959500D01*
X159900261Y-45984497D01*
X159900255Y-45984499D01*
X159781870Y-46033535D01*
X159714424Y-46078602D01*
X159647747Y-46099480D01*
X159645534Y-46099500D01*
X140834107Y-46099500D01*
X140722219Y-46129480D01*
X140722218Y-46129479D01*
X140706814Y-46133607D01*
X140592686Y-46199500D01*
X140592683Y-46199502D01*
X140499500Y-46292686D01*
X140499498Y-46292688D01*
X140089549Y-46702637D01*
X139675245Y-47116940D01*
X139675244Y-47116940D01*
X139675245Y-47116941D01*
X139599500Y-47192686D01*
X139533608Y-47306812D01*
X139499500Y-47434108D01*
X139499500Y-64241324D01*
X139479815Y-64308363D01*
X139463181Y-64329005D01*
X137829005Y-65963181D01*
X137767682Y-65996666D01*
X137741324Y-65999500D01*
X133934108Y-65999500D01*
X133806812Y-66033608D01*
X133692686Y-66099500D01*
X133692683Y-66099502D01*
X132599502Y-67192683D01*
X132599500Y-67192686D01*
X132533608Y-67306812D01*
X132499500Y-67434108D01*
X131953533Y-67434108D01*
X131938173Y-63345730D01*
X133324500Y-63345730D01*
X133324500Y-64654269D01*
X133327353Y-64684699D01*
X133327353Y-64684701D01*
X133370259Y-64807316D01*
X133372207Y-64812882D01*
X133452850Y-64922150D01*
X133562118Y-65002793D01*
X133604845Y-65017744D01*
X133690299Y-65047646D01*
X133720730Y-65050500D01*
X133720734Y-65050500D01*
X135279270Y-65050500D01*
X135309699Y-65047646D01*
X135309701Y-65047646D01*
X135373790Y-65025219D01*
X135437882Y-65002793D01*
X135547150Y-64922150D01*
X135627793Y-64812882D01*
X135650219Y-64748790D01*
X135672646Y-64684701D01*
X135672646Y-64684699D01*
X135675500Y-64654269D01*
X135675500Y-63345730D01*
X135672646Y-63315300D01*
X135672646Y-63315298D01*
X135627793Y-63187119D01*
X135627792Y-63187117D01*
X135547150Y-63077850D01*
X135437882Y-62997207D01*
X135437880Y-62997206D01*
X135309700Y-62952353D01*
X135279270Y-62949500D01*
X135279266Y-62949500D01*
X133720734Y-62949500D01*
X133720730Y-62949500D01*
X133690300Y-62952353D01*
X133690298Y-62952353D01*
X133562119Y-62997206D01*
X133562117Y-62997207D01*
X133452850Y-63077850D01*
X133372207Y-63187117D01*
X133372206Y-63187119D01*
X133327353Y-63315298D01*
X133327353Y-63315300D01*
X133324500Y-63345730D01*
X131938173Y-63345730D01*
X131930850Y-61396530D01*
X133324500Y-61396530D01*
X133324500Y-61603469D01*
X133364868Y-61806412D01*
X133364870Y-61806420D01*
X133444058Y-61997596D01*
X133559024Y-62169657D01*
X133705342Y-62315975D01*
X133705345Y-62315977D01*
X133877402Y-62430941D01*
X134068580Y-62510130D01*
X134271530Y-62550499D01*
X134271534Y-62550500D01*
X134271535Y-62550500D01*
X134728466Y-62550500D01*
X134728467Y-62550499D01*
X134931420Y-62510130D01*
X135122598Y-62430941D01*
X135294655Y-62315977D01*
X135440977Y-62169655D01*
X135555941Y-61997598D01*
X135635130Y-61806420D01*
X135675500Y-61603465D01*
X135675500Y-61396535D01*
X135635130Y-61193580D01*
X135555941Y-61002402D01*
X135440977Y-60830345D01*
X135440975Y-60830342D01*
X135294657Y-60684024D01*
X135144830Y-60583914D01*
X135122598Y-60569059D01*
X134931420Y-60489870D01*
X134931412Y-60489868D01*
X134728469Y-60449500D01*
X134728465Y-60449500D01*
X134271535Y-60449500D01*
X134271530Y-60449500D01*
X134068587Y-60489868D01*
X134068579Y-60489870D01*
X133877403Y-60569058D01*
X133705342Y-60684024D01*
X133559024Y-60830342D01*
X133444058Y-61002403D01*
X133364870Y-61193579D01*
X133364868Y-61193587D01*
X133324500Y-61396530D01*
X131930850Y-61396530D01*
X131921458Y-58896530D01*
X133324500Y-58896530D01*
X133324500Y-59103469D01*
X133364868Y-59306412D01*
X133364870Y-59306420D01*
X133444058Y-59497596D01*
X133559024Y-59669657D01*
X133705342Y-59815975D01*
X133705345Y-59815977D01*
X133877402Y-59930941D01*
X134068580Y-60010130D01*
X134271530Y-60050499D01*
X134271534Y-60050500D01*
X134271535Y-60050500D01*
X134728466Y-60050500D01*
X134728467Y-60050499D01*
X134931420Y-60010130D01*
X135122598Y-59930941D01*
X135294655Y-59815977D01*
X135440977Y-59669655D01*
X135555941Y-59497598D01*
X135635130Y-59306420D01*
X135675500Y-59103465D01*
X135675500Y-58896535D01*
X135635130Y-58693580D01*
X135555941Y-58502402D01*
X135440977Y-58330345D01*
X135440975Y-58330342D01*
X135294657Y-58184024D01*
X135207233Y-58125610D01*
X135122598Y-58069059D01*
X135061907Y-58043920D01*
X134931420Y-57989870D01*
X134931412Y-57989868D01*
X134728469Y-57949500D01*
X134728465Y-57949500D01*
X134271535Y-57949500D01*
X134271530Y-57949500D01*
X134068587Y-57989868D01*
X134068579Y-57989870D01*
X133877403Y-58069058D01*
X133705342Y-58184024D01*
X133559024Y-58330342D01*
X133444058Y-58502403D01*
X133364870Y-58693579D01*
X133364868Y-58693587D01*
X133324500Y-58896530D01*
X131921458Y-58896530D01*
X131916401Y-57550499D01*
X131912066Y-56396530D01*
X133324500Y-56396530D01*
X133324500Y-56603469D01*
X133364868Y-56806412D01*
X133364870Y-56806420D01*
X133444058Y-56997596D01*
X133559024Y-57169657D01*
X133705342Y-57315975D01*
X133705345Y-57315977D01*
X133877402Y-57430941D01*
X134068580Y-57510130D01*
X134271530Y-57550499D01*
X134271534Y-57550500D01*
X134271535Y-57550500D01*
X134728466Y-57550500D01*
X134728467Y-57550499D01*
X134931420Y-57510130D01*
X135122598Y-57430941D01*
X135294655Y-57315977D01*
X135440977Y-57169655D01*
X135555941Y-56997598D01*
X135635130Y-56806420D01*
X135675500Y-56603465D01*
X135675500Y-56396535D01*
X135635130Y-56193580D01*
X135555941Y-56002402D01*
X135440977Y-55830345D01*
X135440975Y-55830342D01*
X135294657Y-55684024D01*
X135208626Y-55626541D01*
X135122598Y-55569059D01*
X134965339Y-55503920D01*
X134931420Y-55489870D01*
X134931412Y-55489868D01*
X134728469Y-55449500D01*
X134728465Y-55449500D01*
X134271535Y-55449500D01*
X134271530Y-55449500D01*
X134068587Y-55489868D01*
X134068579Y-55489870D01*
X133877403Y-55569058D01*
X133705342Y-55684024D01*
X133559024Y-55830342D01*
X133444058Y-56002403D01*
X133364870Y-56193579D01*
X133364868Y-56193587D01*
X133324500Y-56396530D01*
X131912066Y-56396530D01*
X131912045Y-56390909D01*
X131887642Y-49895730D01*
X133199500Y-49895730D01*
X133199500Y-51504269D01*
X133202353Y-51534699D01*
X133202353Y-51534701D01*
X133247206Y-51662880D01*
X133247207Y-51662882D01*
X133327850Y-51772150D01*
X133437118Y-51852793D01*
X133479845Y-51867744D01*
X133565299Y-51897646D01*
X133595730Y-51900500D01*
X133595734Y-51900500D01*
X134904270Y-51900500D01*
X134934699Y-51897646D01*
X134934701Y-51897646D01*
X134998790Y-51875219D01*
X135062882Y-51852793D01*
X135172150Y-51772150D01*
X135252793Y-51662882D01*
X135289648Y-51557557D01*
X135297646Y-51534701D01*
X135297646Y-51534699D01*
X135300500Y-51504269D01*
X135300500Y-51495323D01*
X135320185Y-51428284D01*
X135372989Y-51382529D01*
X135442147Y-51372585D01*
X135505703Y-51401610D01*
X135534985Y-51439028D01*
X135595379Y-51557557D01*
X135720272Y-51729459D01*
X135720276Y-51729464D01*
X135870535Y-51879723D01*
X135870540Y-51879727D01*
X136042442Y-52004620D01*
X136231782Y-52101095D01*
X136433871Y-52166757D01*
X136500000Y-52177231D01*
X136500000Y-51133012D01*
X136557007Y-51165925D01*
X136684174Y-51200000D01*
X136815826Y-51200000D01*
X136942993Y-51165925D01*
X137000000Y-51133012D01*
X137000000Y-52177230D01*
X137066126Y-52166757D01*
X137066129Y-52166757D01*
X137268217Y-52101095D01*
X137457557Y-52004620D01*
X137629459Y-51879727D01*
X137629464Y-51879723D01*
X137779723Y-51729464D01*
X137779727Y-51729459D01*
X137904620Y-51557557D01*
X138001095Y-51368217D01*
X138066757Y-51166130D01*
X138066757Y-51166127D01*
X138100000Y-50956246D01*
X138100000Y-50950000D01*
X137183012Y-50950000D01*
X137215925Y-50892993D01*
X137250000Y-50765826D01*
X137250000Y-50634174D01*
X137215925Y-50507007D01*
X137183012Y-50450000D01*
X138100000Y-50450000D01*
X138100000Y-50443753D01*
X138066757Y-50233872D01*
X138066757Y-50233869D01*
X138001095Y-50031782D01*
X137904620Y-49842442D01*
X137779727Y-49670540D01*
X137779723Y-49670535D01*
X137629464Y-49520276D01*
X137629459Y-49520272D01*
X137457557Y-49395379D01*
X137268215Y-49298903D01*
X137066124Y-49233241D01*
X137000000Y-49222768D01*
X137000000Y-50266988D01*
X136942993Y-50234075D01*
X136815826Y-50200000D01*
X136684174Y-50200000D01*
X136557007Y-50234075D01*
X136500000Y-50266988D01*
X136500000Y-49222768D01*
X136499999Y-49222768D01*
X136433875Y-49233241D01*
X136231784Y-49298903D01*
X136042442Y-49395379D01*
X135870540Y-49520272D01*
X135870535Y-49520276D01*
X135720276Y-49670535D01*
X135720272Y-49670540D01*
X135595379Y-49842442D01*
X135534985Y-49960971D01*
X135487010Y-50011767D01*
X135419189Y-50028562D01*
X135353054Y-50006024D01*
X135309603Y-49951309D01*
X135300500Y-49904676D01*
X135300500Y-49895730D01*
X135297646Y-49865300D01*
X135297646Y-49865298D01*
X135252793Y-49737119D01*
X135252792Y-49737117D01*
X135203656Y-49670540D01*
X135172150Y-49627850D01*
X135062882Y-49547207D01*
X135062880Y-49547206D01*
X134934700Y-49502353D01*
X134904270Y-49499500D01*
X134904266Y-49499500D01*
X133595734Y-49499500D01*
X133595730Y-49499500D01*
X133565300Y-49502353D01*
X133565298Y-49502353D01*
X133437119Y-49547206D01*
X133437117Y-49547207D01*
X133327850Y-49627850D01*
X133247207Y-49737117D01*
X133247206Y-49737119D01*
X133202353Y-49865298D01*
X133202353Y-49865300D01*
X133199500Y-49895730D01*
X131887642Y-49895730D01*
X131887633Y-49893301D01*
X131881201Y-48181398D01*
X131878212Y-47385851D01*
X131897644Y-47318740D01*
X131950276Y-47272787D01*
X132019397Y-47262584D01*
X132083061Y-47291370D01*
X132089892Y-47297706D01*
X132213297Y-47421111D01*
X132367076Y-47532838D01*
X132536440Y-47619133D01*
X132717218Y-47677872D01*
X132787620Y-47689022D01*
X132904954Y-47707607D01*
X132904959Y-47707607D01*
X133095046Y-47707607D01*
X133199341Y-47691087D01*
X133282782Y-47677872D01*
X133463560Y-47619133D01*
X133632924Y-47532838D01*
X133786703Y-47421111D01*
X133921111Y-47286703D01*
X134032838Y-47132924D01*
X134119133Y-46963560D01*
X134177872Y-46782782D01*
X134195452Y-46671787D01*
X134207607Y-46595046D01*
X134207607Y-46404953D01*
X134177872Y-46217221D01*
X134177872Y-46217218D01*
X134119133Y-46036440D01*
X134032838Y-45867076D01*
X133921111Y-45713297D01*
X133786703Y-45578889D01*
X133632924Y-45467162D01*
X133552133Y-45425997D01*
X133501337Y-45378022D01*
X133484542Y-45310201D01*
X133507079Y-45244066D01*
X133561795Y-45200615D01*
X133607821Y-45191513D01*
X166556430Y-45030603D01*
X166623564Y-45049960D01*
G37*
%TD.AperFunction*%
%TD*%
%TA.AperFunction,NonConductor*%
G36*
X132446324Y-45216870D02*
G01*
X132492336Y-45269450D01*
X132502618Y-45338559D01*
X132473903Y-45402256D01*
X132436091Y-45431996D01*
X132367077Y-45467160D01*
X132213298Y-45578888D01*
X132083263Y-45708923D01*
X132021940Y-45742407D01*
X131952248Y-45737423D01*
X131896315Y-45695551D01*
X131871898Y-45630087D01*
X131871584Y-45621746D01*
X131870465Y-45323857D01*
X131889898Y-45256747D01*
X131942530Y-45210794D01*
X131993857Y-45199395D01*
X132379190Y-45197513D01*
X132446324Y-45216870D01*
G37*
%TD.AperFunction*%
%TA.AperFunction,NonConductor*%
G36*
X166995082Y-92315244D02*
G01*
X167051016Y-92357115D01*
X167075433Y-92422579D01*
X167075745Y-92430391D01*
X167078961Y-92815569D01*
X167059837Y-92882770D01*
X167007416Y-92928964D01*
X166955567Y-92940603D01*
X166176245Y-92944385D01*
X166109111Y-92925026D01*
X166063100Y-92872444D01*
X166052821Y-92803335D01*
X166081537Y-92739639D01*
X166140131Y-92701580D01*
X166156243Y-92697913D01*
X166211801Y-92689114D01*
X166282777Y-92677873D01*
X166282777Y-92677872D01*
X166282782Y-92677872D01*
X166463560Y-92619133D01*
X166632924Y-92532838D01*
X166786703Y-92421111D01*
X166864071Y-92343742D01*
X166925390Y-92310260D01*
X166995082Y-92315244D01*
G37*
%TD.AperFunction*%
M02*
