%TF.GenerationSoftware,KiCad,Pcbnew,10.0.2*%
%TF.CreationDate,2026-06-20T13:40:25+06:00*%
%TF.ProjectId,ki,6b692e6b-6963-4616-945f-706362585858,rev?*%
%TF.SameCoordinates,Original*%
%TF.FileFunction,Soldermask,Bot*%
%TF.FilePolarity,Negative*%
%FSLAX46Y46*%
G04 Gerber Fmt 4.6, Leading zero omitted, Abs format (unit mm)*
G04 Created by KiCad (PCBNEW 10.0.2) date 2026-06-20 13:40:25*
%MOMM*%
%LPD*%
G01*
G04 APERTURE LIST*
G04 Aperture macros list*
%AMRoundRect*
0 Rectangle with rounded corners*
0 $1 Rounding radius*
0 $2 $3 $4 $5 $6 $7 $8 $9 X,Y pos of 4 corners*
0 Add a 4 corners polygon primitive as box body*
4,1,4,$2,$3,$4,$5,$6,$7,$8,$9,$2,$3,0*
0 Add four circle primitives for the rounded corners*
1,1,$1+$1,$2,$3*
1,1,$1+$1,$4,$5*
1,1,$1+$1,$6,$7*
1,1,$1+$1,$8,$9*
0 Add four rect primitives between the rounded corners*
20,1,$1+$1,$2,$3,$4,$5,0*
20,1,$1+$1,$4,$5,$6,$7,0*
20,1,$1+$1,$6,$7,$8,$9,0*
20,1,$1+$1,$8,$9,$2,$3,0*%
G04 Aperture macros list end*
%ADD10RoundRect,0.250000X0.725000X-0.600000X0.725000X0.600000X-0.725000X0.600000X-0.725000X-0.600000X0*%
%ADD11O,1.950000X1.700000*%
%ADD12RoundRect,0.250000X0.600000X0.750000X-0.600000X0.750000X-0.600000X-0.750000X0.600000X-0.750000X0*%
%ADD13O,1.700000X2.000000*%
%ADD14RoundRect,0.250000X-0.600000X-0.750000X0.600000X-0.750000X0.600000X0.750000X-0.600000X0.750000X0*%
%ADD15C,0.900000*%
%ADD16R,1.600000X1.600000*%
%ADD17O,1.600000X1.600000*%
G04 APERTURE END LIST*
D10*
%TO.C,J4*%
X134500000Y-64000000D03*
D11*
X134500000Y-61500000D03*
X134500000Y-59000000D03*
X134500000Y-56500000D03*
%TD*%
D12*
%TO.C,J1*%
X165000000Y-85800000D03*
D13*
X162500000Y-85800000D03*
%TD*%
D14*
%TO.C,J3*%
X134250000Y-50700000D03*
D13*
X136750000Y-50700000D03*
%TD*%
D12*
%TO.C,J2*%
X137250000Y-86500000D03*
D13*
X134750000Y-86500000D03*
%TD*%
D15*
%TO.C,SW1*%
X166480000Y-77000000D03*
X166480000Y-74000000D03*
%TD*%
D16*
%TO.C,A1*%
X142390000Y-49950000D03*
D17*
X142390000Y-52490000D03*
X142390000Y-55030000D03*
X142390000Y-57570000D03*
X142390000Y-60110000D03*
X142390000Y-62650000D03*
X142390000Y-65190000D03*
X142390000Y-67730000D03*
X142390000Y-70270000D03*
X142390000Y-72810000D03*
X142390000Y-75350000D03*
X142390000Y-77890000D03*
X142390000Y-80430000D03*
X142390000Y-82970000D03*
X142390000Y-85510000D03*
X157630000Y-85510000D03*
X157630000Y-82970000D03*
X157630000Y-80430000D03*
X157630000Y-77890000D03*
X157630000Y-75350000D03*
X157630000Y-72810000D03*
X157630000Y-70270000D03*
X157630000Y-67730000D03*
X157630000Y-65190000D03*
X157630000Y-62650000D03*
X157630000Y-60110000D03*
X157630000Y-57570000D03*
X157630000Y-55030000D03*
X157630000Y-52490000D03*
X157630000Y-49950000D03*
%TD*%
M02*
