%TF.GenerationSoftware,KiCad,Pcbnew,10.0.2*%
%TF.CreationDate,2026-06-20T13:40:25+06:00*%
%TF.ProjectId,ki,6b692e6b-6963-4616-945f-706362585858,rev?*%
%TF.SameCoordinates,Original*%
%TF.FileFunction,Legend,Top*%
%TF.FilePolarity,Positive*%
%FSLAX46Y46*%
G04 Gerber Fmt 4.6, Leading zero omitted, Abs format (unit mm)*
G04 Created by KiCad (PCBNEW 10.0.2) date 2026-06-20 13:40:25*
%MOMM*%
%LPD*%
G01*
G04 APERTURE LIST*
%ADD10C,0.200000*%
%ADD11C,0.150000*%
%ADD12C,0.125000*%
%ADD13C,0.100000*%
%ADD14C,0.120000*%
G04 APERTURE END LIST*
D10*
X133830149Y-90147219D02*
X134020625Y-90147219D01*
X134020625Y-90147219D02*
X134115863Y-90194838D01*
X134115863Y-90194838D02*
X134211101Y-90290076D01*
X134211101Y-90290076D02*
X134258720Y-90480552D01*
X134258720Y-90480552D02*
X134258720Y-90813885D01*
X134258720Y-90813885D02*
X134211101Y-91004361D01*
X134211101Y-91004361D02*
X134115863Y-91099600D01*
X134115863Y-91099600D02*
X134020625Y-91147219D01*
X134020625Y-91147219D02*
X133830149Y-91147219D01*
X133830149Y-91147219D02*
X133734911Y-91099600D01*
X133734911Y-91099600D02*
X133639673Y-91004361D01*
X133639673Y-91004361D02*
X133592054Y-90813885D01*
X133592054Y-90813885D02*
X133592054Y-90480552D01*
X133592054Y-90480552D02*
X133639673Y-90290076D01*
X133639673Y-90290076D02*
X133734911Y-90194838D01*
X133734911Y-90194838D02*
X133830149Y-90147219D01*
X135115863Y-90480552D02*
X135115863Y-91147219D01*
X134687292Y-90480552D02*
X134687292Y-91004361D01*
X134687292Y-91004361D02*
X134734911Y-91099600D01*
X134734911Y-91099600D02*
X134830149Y-91147219D01*
X134830149Y-91147219D02*
X134973006Y-91147219D01*
X134973006Y-91147219D02*
X135068244Y-91099600D01*
X135068244Y-91099600D02*
X135115863Y-91051980D01*
X135449197Y-90480552D02*
X135830149Y-90480552D01*
X135592054Y-90147219D02*
X135592054Y-91004361D01*
X135592054Y-91004361D02*
X135639673Y-91099600D01*
X135639673Y-91099600D02*
X135734911Y-91147219D01*
X135734911Y-91147219D02*
X135830149Y-91147219D01*
X136163483Y-90480552D02*
X136163483Y-91480552D01*
X136163483Y-90528171D02*
X136258721Y-90480552D01*
X136258721Y-90480552D02*
X136449197Y-90480552D01*
X136449197Y-90480552D02*
X136544435Y-90528171D01*
X136544435Y-90528171D02*
X136592054Y-90575790D01*
X136592054Y-90575790D02*
X136639673Y-90671028D01*
X136639673Y-90671028D02*
X136639673Y-90956742D01*
X136639673Y-90956742D02*
X136592054Y-91051980D01*
X136592054Y-91051980D02*
X136544435Y-91099600D01*
X136544435Y-91099600D02*
X136449197Y-91147219D01*
X136449197Y-91147219D02*
X136258721Y-91147219D01*
X136258721Y-91147219D02*
X136163483Y-91099600D01*
X137496816Y-90480552D02*
X137496816Y-91147219D01*
X137068245Y-90480552D02*
X137068245Y-91004361D01*
X137068245Y-91004361D02*
X137115864Y-91099600D01*
X137115864Y-91099600D02*
X137211102Y-91147219D01*
X137211102Y-91147219D02*
X137353959Y-91147219D01*
X137353959Y-91147219D02*
X137449197Y-91099600D01*
X137449197Y-91099600D02*
X137496816Y-91051980D01*
X137830150Y-90480552D02*
X138211102Y-90480552D01*
X137973007Y-90147219D02*
X137973007Y-91004361D01*
X137973007Y-91004361D02*
X138020626Y-91099600D01*
X138020626Y-91099600D02*
X138115864Y-91147219D01*
X138115864Y-91147219D02*
X138211102Y-91147219D01*
X134242054Y-46789600D02*
X134384911Y-46837219D01*
X134384911Y-46837219D02*
X134623006Y-46837219D01*
X134623006Y-46837219D02*
X134718244Y-46789600D01*
X134718244Y-46789600D02*
X134765863Y-46741980D01*
X134765863Y-46741980D02*
X134813482Y-46646742D01*
X134813482Y-46646742D02*
X134813482Y-46551504D01*
X134813482Y-46551504D02*
X134765863Y-46456266D01*
X134765863Y-46456266D02*
X134718244Y-46408647D01*
X134718244Y-46408647D02*
X134623006Y-46361028D01*
X134623006Y-46361028D02*
X134432530Y-46313409D01*
X134432530Y-46313409D02*
X134337292Y-46265790D01*
X134337292Y-46265790D02*
X134289673Y-46218171D01*
X134289673Y-46218171D02*
X134242054Y-46122933D01*
X134242054Y-46122933D02*
X134242054Y-46027695D01*
X134242054Y-46027695D02*
X134289673Y-45932457D01*
X134289673Y-45932457D02*
X134337292Y-45884838D01*
X134337292Y-45884838D02*
X134432530Y-45837219D01*
X134432530Y-45837219D02*
X134670625Y-45837219D01*
X134670625Y-45837219D02*
X134813482Y-45884838D01*
X135623006Y-46789600D02*
X135527768Y-46837219D01*
X135527768Y-46837219D02*
X135337292Y-46837219D01*
X135337292Y-46837219D02*
X135242054Y-46789600D01*
X135242054Y-46789600D02*
X135194435Y-46694361D01*
X135194435Y-46694361D02*
X135194435Y-46313409D01*
X135194435Y-46313409D02*
X135242054Y-46218171D01*
X135242054Y-46218171D02*
X135337292Y-46170552D01*
X135337292Y-46170552D02*
X135527768Y-46170552D01*
X135527768Y-46170552D02*
X135623006Y-46218171D01*
X135623006Y-46218171D02*
X135670625Y-46313409D01*
X135670625Y-46313409D02*
X135670625Y-46408647D01*
X135670625Y-46408647D02*
X135194435Y-46503885D01*
X136099197Y-46170552D02*
X136099197Y-46837219D01*
X136099197Y-46265790D02*
X136146816Y-46218171D01*
X136146816Y-46218171D02*
X136242054Y-46170552D01*
X136242054Y-46170552D02*
X136384911Y-46170552D01*
X136384911Y-46170552D02*
X136480149Y-46218171D01*
X136480149Y-46218171D02*
X136527768Y-46313409D01*
X136527768Y-46313409D02*
X136527768Y-46837219D01*
X136765864Y-46932457D02*
X137527768Y-46932457D01*
X137765864Y-46837219D02*
X137765864Y-45837219D01*
X137765864Y-45837219D02*
X138146816Y-45837219D01*
X138146816Y-45837219D02*
X138242054Y-45884838D01*
X138242054Y-45884838D02*
X138289673Y-45932457D01*
X138289673Y-45932457D02*
X138337292Y-46027695D01*
X138337292Y-46027695D02*
X138337292Y-46170552D01*
X138337292Y-46170552D02*
X138289673Y-46265790D01*
X138289673Y-46265790D02*
X138242054Y-46313409D01*
X138242054Y-46313409D02*
X138146816Y-46361028D01*
X138146816Y-46361028D02*
X137765864Y-46361028D01*
X138908721Y-46837219D02*
X138813483Y-46789600D01*
X138813483Y-46789600D02*
X138765864Y-46741980D01*
X138765864Y-46741980D02*
X138718245Y-46646742D01*
X138718245Y-46646742D02*
X138718245Y-46361028D01*
X138718245Y-46361028D02*
X138765864Y-46265790D01*
X138765864Y-46265790D02*
X138813483Y-46218171D01*
X138813483Y-46218171D02*
X138908721Y-46170552D01*
X138908721Y-46170552D02*
X139051578Y-46170552D01*
X139051578Y-46170552D02*
X139146816Y-46218171D01*
X139146816Y-46218171D02*
X139194435Y-46265790D01*
X139194435Y-46265790D02*
X139242054Y-46361028D01*
X139242054Y-46361028D02*
X139242054Y-46646742D01*
X139242054Y-46646742D02*
X139194435Y-46741980D01*
X139194435Y-46741980D02*
X139146816Y-46789600D01*
X139146816Y-46789600D02*
X139051578Y-46837219D01*
X139051578Y-46837219D02*
X138908721Y-46837219D01*
X139575388Y-46170552D02*
X139765864Y-46837219D01*
X139765864Y-46837219D02*
X139956340Y-46361028D01*
X139956340Y-46361028D02*
X140146816Y-46837219D01*
X140146816Y-46837219D02*
X140337292Y-46170552D01*
X161919673Y-90367219D02*
X161919673Y-89367219D01*
X161919673Y-89367219D02*
X162300625Y-89367219D01*
X162300625Y-89367219D02*
X162395863Y-89414838D01*
X162395863Y-89414838D02*
X162443482Y-89462457D01*
X162443482Y-89462457D02*
X162491101Y-89557695D01*
X162491101Y-89557695D02*
X162491101Y-89700552D01*
X162491101Y-89700552D02*
X162443482Y-89795790D01*
X162443482Y-89795790D02*
X162395863Y-89843409D01*
X162395863Y-89843409D02*
X162300625Y-89891028D01*
X162300625Y-89891028D02*
X161919673Y-89891028D01*
X163062530Y-90367219D02*
X162967292Y-90319600D01*
X162967292Y-90319600D02*
X162919673Y-90271980D01*
X162919673Y-90271980D02*
X162872054Y-90176742D01*
X162872054Y-90176742D02*
X162872054Y-89891028D01*
X162872054Y-89891028D02*
X162919673Y-89795790D01*
X162919673Y-89795790D02*
X162967292Y-89748171D01*
X162967292Y-89748171D02*
X163062530Y-89700552D01*
X163062530Y-89700552D02*
X163205387Y-89700552D01*
X163205387Y-89700552D02*
X163300625Y-89748171D01*
X163300625Y-89748171D02*
X163348244Y-89795790D01*
X163348244Y-89795790D02*
X163395863Y-89891028D01*
X163395863Y-89891028D02*
X163395863Y-90176742D01*
X163395863Y-90176742D02*
X163348244Y-90271980D01*
X163348244Y-90271980D02*
X163300625Y-90319600D01*
X163300625Y-90319600D02*
X163205387Y-90367219D01*
X163205387Y-90367219D02*
X163062530Y-90367219D01*
X163729197Y-89700552D02*
X163919673Y-90367219D01*
X163919673Y-90367219D02*
X164110149Y-89891028D01*
X164110149Y-89891028D02*
X164300625Y-90367219D01*
X164300625Y-90367219D02*
X164491101Y-89700552D01*
X165253006Y-90319600D02*
X165157768Y-90367219D01*
X165157768Y-90367219D02*
X164967292Y-90367219D01*
X164967292Y-90367219D02*
X164872054Y-90319600D01*
X164872054Y-90319600D02*
X164824435Y-90224361D01*
X164824435Y-90224361D02*
X164824435Y-89843409D01*
X164824435Y-89843409D02*
X164872054Y-89748171D01*
X164872054Y-89748171D02*
X164967292Y-89700552D01*
X164967292Y-89700552D02*
X165157768Y-89700552D01*
X165157768Y-89700552D02*
X165253006Y-89748171D01*
X165253006Y-89748171D02*
X165300625Y-89843409D01*
X165300625Y-89843409D02*
X165300625Y-89938647D01*
X165300625Y-89938647D02*
X164824435Y-90033885D01*
X165729197Y-90367219D02*
X165729197Y-89700552D01*
X165729197Y-89891028D02*
X165776816Y-89795790D01*
X165776816Y-89795790D02*
X165824435Y-89748171D01*
X165824435Y-89748171D02*
X165919673Y-89700552D01*
X165919673Y-89700552D02*
X166014911Y-89700552D01*
X131949600Y-65197945D02*
X131997219Y-65102707D01*
X131997219Y-65102707D02*
X131997219Y-64912231D01*
X131997219Y-64912231D02*
X131949600Y-64816993D01*
X131949600Y-64816993D02*
X131854361Y-64769374D01*
X131854361Y-64769374D02*
X131806742Y-64769374D01*
X131806742Y-64769374D02*
X131711504Y-64816993D01*
X131711504Y-64816993D02*
X131663885Y-64912231D01*
X131663885Y-64912231D02*
X131663885Y-65055088D01*
X131663885Y-65055088D02*
X131616266Y-65150326D01*
X131616266Y-65150326D02*
X131521028Y-65197945D01*
X131521028Y-65197945D02*
X131473409Y-65197945D01*
X131473409Y-65197945D02*
X131378171Y-65150326D01*
X131378171Y-65150326D02*
X131330552Y-65055088D01*
X131330552Y-65055088D02*
X131330552Y-64912231D01*
X131330552Y-64912231D02*
X131378171Y-64816993D01*
X131949600Y-63959850D02*
X131997219Y-64055088D01*
X131997219Y-64055088D02*
X131997219Y-64245564D01*
X131997219Y-64245564D02*
X131949600Y-64340802D01*
X131949600Y-64340802D02*
X131854361Y-64388421D01*
X131854361Y-64388421D02*
X131473409Y-64388421D01*
X131473409Y-64388421D02*
X131378171Y-64340802D01*
X131378171Y-64340802D02*
X131330552Y-64245564D01*
X131330552Y-64245564D02*
X131330552Y-64055088D01*
X131330552Y-64055088D02*
X131378171Y-63959850D01*
X131378171Y-63959850D02*
X131473409Y-63912231D01*
X131473409Y-63912231D02*
X131568647Y-63912231D01*
X131568647Y-63912231D02*
X131663885Y-64388421D01*
X131330552Y-63483659D02*
X131997219Y-63483659D01*
X131425790Y-63483659D02*
X131378171Y-63436040D01*
X131378171Y-63436040D02*
X131330552Y-63340802D01*
X131330552Y-63340802D02*
X131330552Y-63197945D01*
X131330552Y-63197945D02*
X131378171Y-63102707D01*
X131378171Y-63102707D02*
X131473409Y-63055088D01*
X131473409Y-63055088D02*
X131997219Y-63055088D01*
X131949600Y-62626516D02*
X131997219Y-62531278D01*
X131997219Y-62531278D02*
X131997219Y-62340802D01*
X131997219Y-62340802D02*
X131949600Y-62245564D01*
X131949600Y-62245564D02*
X131854361Y-62197945D01*
X131854361Y-62197945D02*
X131806742Y-62197945D01*
X131806742Y-62197945D02*
X131711504Y-62245564D01*
X131711504Y-62245564D02*
X131663885Y-62340802D01*
X131663885Y-62340802D02*
X131663885Y-62483659D01*
X131663885Y-62483659D02*
X131616266Y-62578897D01*
X131616266Y-62578897D02*
X131521028Y-62626516D01*
X131521028Y-62626516D02*
X131473409Y-62626516D01*
X131473409Y-62626516D02*
X131378171Y-62578897D01*
X131378171Y-62578897D02*
X131330552Y-62483659D01*
X131330552Y-62483659D02*
X131330552Y-62340802D01*
X131330552Y-62340802D02*
X131378171Y-62245564D01*
X131997219Y-61626516D02*
X131949600Y-61721754D01*
X131949600Y-61721754D02*
X131901980Y-61769373D01*
X131901980Y-61769373D02*
X131806742Y-61816992D01*
X131806742Y-61816992D02*
X131521028Y-61816992D01*
X131521028Y-61816992D02*
X131425790Y-61769373D01*
X131425790Y-61769373D02*
X131378171Y-61721754D01*
X131378171Y-61721754D02*
X131330552Y-61626516D01*
X131330552Y-61626516D02*
X131330552Y-61483659D01*
X131330552Y-61483659D02*
X131378171Y-61388421D01*
X131378171Y-61388421D02*
X131425790Y-61340802D01*
X131425790Y-61340802D02*
X131521028Y-61293183D01*
X131521028Y-61293183D02*
X131806742Y-61293183D01*
X131806742Y-61293183D02*
X131901980Y-61340802D01*
X131901980Y-61340802D02*
X131949600Y-61388421D01*
X131949600Y-61388421D02*
X131997219Y-61483659D01*
X131997219Y-61483659D02*
X131997219Y-61626516D01*
X131997219Y-60864611D02*
X131330552Y-60864611D01*
X131521028Y-60864611D02*
X131425790Y-60816992D01*
X131425790Y-60816992D02*
X131378171Y-60769373D01*
X131378171Y-60769373D02*
X131330552Y-60674135D01*
X131330552Y-60674135D02*
X131330552Y-60578897D01*
X132092457Y-60483659D02*
X132092457Y-59721754D01*
X131949600Y-59531277D02*
X131997219Y-59436039D01*
X131997219Y-59436039D02*
X131997219Y-59245563D01*
X131997219Y-59245563D02*
X131949600Y-59150325D01*
X131949600Y-59150325D02*
X131854361Y-59102706D01*
X131854361Y-59102706D02*
X131806742Y-59102706D01*
X131806742Y-59102706D02*
X131711504Y-59150325D01*
X131711504Y-59150325D02*
X131663885Y-59245563D01*
X131663885Y-59245563D02*
X131663885Y-59388420D01*
X131663885Y-59388420D02*
X131616266Y-59483658D01*
X131616266Y-59483658D02*
X131521028Y-59531277D01*
X131521028Y-59531277D02*
X131473409Y-59531277D01*
X131473409Y-59531277D02*
X131378171Y-59483658D01*
X131378171Y-59483658D02*
X131330552Y-59388420D01*
X131330552Y-59388420D02*
X131330552Y-59245563D01*
X131330552Y-59245563D02*
X131378171Y-59150325D01*
X131997219Y-58674134D02*
X131330552Y-58674134D01*
X130997219Y-58674134D02*
X131044838Y-58721753D01*
X131044838Y-58721753D02*
X131092457Y-58674134D01*
X131092457Y-58674134D02*
X131044838Y-58626515D01*
X131044838Y-58626515D02*
X130997219Y-58674134D01*
X130997219Y-58674134D02*
X131092457Y-58674134D01*
X131330552Y-57769373D02*
X132140076Y-57769373D01*
X132140076Y-57769373D02*
X132235314Y-57816992D01*
X132235314Y-57816992D02*
X132282933Y-57864611D01*
X132282933Y-57864611D02*
X132330552Y-57959849D01*
X132330552Y-57959849D02*
X132330552Y-58102706D01*
X132330552Y-58102706D02*
X132282933Y-58197944D01*
X131949600Y-57769373D02*
X131997219Y-57864611D01*
X131997219Y-57864611D02*
X131997219Y-58055087D01*
X131997219Y-58055087D02*
X131949600Y-58150325D01*
X131949600Y-58150325D02*
X131901980Y-58197944D01*
X131901980Y-58197944D02*
X131806742Y-58245563D01*
X131806742Y-58245563D02*
X131521028Y-58245563D01*
X131521028Y-58245563D02*
X131425790Y-58197944D01*
X131425790Y-58197944D02*
X131378171Y-58150325D01*
X131378171Y-58150325D02*
X131330552Y-58055087D01*
X131330552Y-58055087D02*
X131330552Y-57864611D01*
X131330552Y-57864611D02*
X131378171Y-57769373D01*
X131330552Y-57293182D02*
X131997219Y-57293182D01*
X131425790Y-57293182D02*
X131378171Y-57245563D01*
X131378171Y-57245563D02*
X131330552Y-57150325D01*
X131330552Y-57150325D02*
X131330552Y-57007468D01*
X131330552Y-57007468D02*
X131378171Y-56912230D01*
X131378171Y-56912230D02*
X131473409Y-56864611D01*
X131473409Y-56864611D02*
X131997219Y-56864611D01*
X131997219Y-55959849D02*
X131473409Y-55959849D01*
X131473409Y-55959849D02*
X131378171Y-56007468D01*
X131378171Y-56007468D02*
X131330552Y-56102706D01*
X131330552Y-56102706D02*
X131330552Y-56293182D01*
X131330552Y-56293182D02*
X131378171Y-56388420D01*
X131949600Y-55959849D02*
X131997219Y-56055087D01*
X131997219Y-56055087D02*
X131997219Y-56293182D01*
X131997219Y-56293182D02*
X131949600Y-56388420D01*
X131949600Y-56388420D02*
X131854361Y-56436039D01*
X131854361Y-56436039D02*
X131759123Y-56436039D01*
X131759123Y-56436039D02*
X131663885Y-56388420D01*
X131663885Y-56388420D02*
X131616266Y-56293182D01*
X131616266Y-56293182D02*
X131616266Y-56055087D01*
X131616266Y-56055087D02*
X131568647Y-55959849D01*
X131997219Y-55340801D02*
X131949600Y-55436039D01*
X131949600Y-55436039D02*
X131854361Y-55483658D01*
X131854361Y-55483658D02*
X130997219Y-55483658D01*
D11*
X161132633Y-62610779D02*
X161180253Y-62658398D01*
X161180253Y-62658398D02*
X161227872Y-62801255D01*
X161227872Y-62801255D02*
X161227872Y-62896493D01*
X161227872Y-62896493D02*
X161180253Y-63039350D01*
X161180253Y-63039350D02*
X161085014Y-63134588D01*
X161085014Y-63134588D02*
X160989776Y-63182207D01*
X160989776Y-63182207D02*
X160799300Y-63229826D01*
X160799300Y-63229826D02*
X160656443Y-63229826D01*
X160656443Y-63229826D02*
X160465967Y-63182207D01*
X160465967Y-63182207D02*
X160370729Y-63134588D01*
X160370729Y-63134588D02*
X160275491Y-63039350D01*
X160275491Y-63039350D02*
X160227872Y-62896493D01*
X160227872Y-62896493D02*
X160227872Y-62801255D01*
X160227872Y-62801255D02*
X160275491Y-62658398D01*
X160275491Y-62658398D02*
X160323110Y-62610779D01*
X161227872Y-61658398D02*
X161227872Y-62229826D01*
X161227872Y-61944112D02*
X160227872Y-61944112D01*
X160227872Y-61944112D02*
X160370729Y-62039350D01*
X160370729Y-62039350D02*
X160465967Y-62134588D01*
X160465967Y-62134588D02*
X160513586Y-62229826D01*
X160227872Y-61039350D02*
X160227872Y-60944112D01*
X160227872Y-60944112D02*
X160275491Y-60848874D01*
X160275491Y-60848874D02*
X160323110Y-60801255D01*
X160323110Y-60801255D02*
X160418348Y-60753636D01*
X160418348Y-60753636D02*
X160608824Y-60706017D01*
X160608824Y-60706017D02*
X160846919Y-60706017D01*
X160846919Y-60706017D02*
X161037395Y-60753636D01*
X161037395Y-60753636D02*
X161132633Y-60801255D01*
X161132633Y-60801255D02*
X161180253Y-60848874D01*
X161180253Y-60848874D02*
X161227872Y-60944112D01*
X161227872Y-60944112D02*
X161227872Y-61039350D01*
X161227872Y-61039350D02*
X161180253Y-61134588D01*
X161180253Y-61134588D02*
X161132633Y-61182207D01*
X161132633Y-61182207D02*
X161037395Y-61229826D01*
X161037395Y-61229826D02*
X160846919Y-61277445D01*
X160846919Y-61277445D02*
X160608824Y-61277445D01*
X160608824Y-61277445D02*
X160418348Y-61229826D01*
X160418348Y-61229826D02*
X160323110Y-61182207D01*
X160323110Y-61182207D02*
X160275491Y-61134588D01*
X160275491Y-61134588D02*
X160227872Y-61039350D01*
X137954819Y-59833333D02*
X138669104Y-59833333D01*
X138669104Y-59833333D02*
X138811961Y-59880952D01*
X138811961Y-59880952D02*
X138907200Y-59976190D01*
X138907200Y-59976190D02*
X138954819Y-60119047D01*
X138954819Y-60119047D02*
X138954819Y-60214285D01*
X138288152Y-58928571D02*
X138954819Y-58928571D01*
X137907200Y-59166666D02*
X138621485Y-59404761D01*
X138621485Y-59404761D02*
X138621485Y-58785714D01*
X162916666Y-87954819D02*
X162916666Y-88669104D01*
X162916666Y-88669104D02*
X162869047Y-88811961D01*
X162869047Y-88811961D02*
X162773809Y-88907200D01*
X162773809Y-88907200D02*
X162630952Y-88954819D01*
X162630952Y-88954819D02*
X162535714Y-88954819D01*
X163916666Y-88954819D02*
X163345238Y-88954819D01*
X163630952Y-88954819D02*
X163630952Y-87954819D01*
X163630952Y-87954819D02*
X163535714Y-88097676D01*
X163535714Y-88097676D02*
X163440476Y-88192914D01*
X163440476Y-88192914D02*
X163345238Y-88240533D01*
X165813333Y-64359580D02*
X165765714Y-64407200D01*
X165765714Y-64407200D02*
X165622857Y-64454819D01*
X165622857Y-64454819D02*
X165527619Y-64454819D01*
X165527619Y-64454819D02*
X165384762Y-64407200D01*
X165384762Y-64407200D02*
X165289524Y-64311961D01*
X165289524Y-64311961D02*
X165241905Y-64216723D01*
X165241905Y-64216723D02*
X165194286Y-64026247D01*
X165194286Y-64026247D02*
X165194286Y-63883390D01*
X165194286Y-63883390D02*
X165241905Y-63692914D01*
X165241905Y-63692914D02*
X165289524Y-63597676D01*
X165289524Y-63597676D02*
X165384762Y-63502438D01*
X165384762Y-63502438D02*
X165527619Y-63454819D01*
X165527619Y-63454819D02*
X165622857Y-63454819D01*
X165622857Y-63454819D02*
X165765714Y-63502438D01*
X165765714Y-63502438D02*
X165813333Y-63550057D01*
X166670476Y-63454819D02*
X166480000Y-63454819D01*
X166480000Y-63454819D02*
X166384762Y-63502438D01*
X166384762Y-63502438D02*
X166337143Y-63550057D01*
X166337143Y-63550057D02*
X166241905Y-63692914D01*
X166241905Y-63692914D02*
X166194286Y-63883390D01*
X166194286Y-63883390D02*
X166194286Y-64264342D01*
X166194286Y-64264342D02*
X166241905Y-64359580D01*
X166241905Y-64359580D02*
X166289524Y-64407200D01*
X166289524Y-64407200D02*
X166384762Y-64454819D01*
X166384762Y-64454819D02*
X166575238Y-64454819D01*
X166575238Y-64454819D02*
X166670476Y-64407200D01*
X166670476Y-64407200D02*
X166718095Y-64359580D01*
X166718095Y-64359580D02*
X166765714Y-64264342D01*
X166765714Y-64264342D02*
X166765714Y-64026247D01*
X166765714Y-64026247D02*
X166718095Y-63931009D01*
X166718095Y-63931009D02*
X166670476Y-63883390D01*
X166670476Y-63883390D02*
X166575238Y-63835771D01*
X166575238Y-63835771D02*
X166384762Y-63835771D01*
X166384762Y-63835771D02*
X166289524Y-63883390D01*
X166289524Y-63883390D02*
X166241905Y-63931009D01*
X166241905Y-63931009D02*
X166194286Y-64026247D01*
X135166666Y-47354819D02*
X135166666Y-48069104D01*
X135166666Y-48069104D02*
X135119047Y-48211961D01*
X135119047Y-48211961D02*
X135023809Y-48307200D01*
X135023809Y-48307200D02*
X134880952Y-48354819D01*
X134880952Y-48354819D02*
X134785714Y-48354819D01*
X135547619Y-47354819D02*
X136166666Y-47354819D01*
X136166666Y-47354819D02*
X135833333Y-47735771D01*
X135833333Y-47735771D02*
X135976190Y-47735771D01*
X135976190Y-47735771D02*
X136071428Y-47783390D01*
X136071428Y-47783390D02*
X136119047Y-47831009D01*
X136119047Y-47831009D02*
X136166666Y-47926247D01*
X136166666Y-47926247D02*
X136166666Y-48164342D01*
X136166666Y-48164342D02*
X136119047Y-48259580D01*
X136119047Y-48259580D02*
X136071428Y-48307200D01*
X136071428Y-48307200D02*
X135976190Y-48354819D01*
X135976190Y-48354819D02*
X135690476Y-48354819D01*
X135690476Y-48354819D02*
X135595238Y-48307200D01*
X135595238Y-48307200D02*
X135547619Y-48259580D01*
X135666666Y-88754819D02*
X135666666Y-89469104D01*
X135666666Y-89469104D02*
X135619047Y-89611961D01*
X135619047Y-89611961D02*
X135523809Y-89707200D01*
X135523809Y-89707200D02*
X135380952Y-89754819D01*
X135380952Y-89754819D02*
X135285714Y-89754819D01*
X136095238Y-88850057D02*
X136142857Y-88802438D01*
X136142857Y-88802438D02*
X136238095Y-88754819D01*
X136238095Y-88754819D02*
X136476190Y-88754819D01*
X136476190Y-88754819D02*
X136571428Y-88802438D01*
X136571428Y-88802438D02*
X136619047Y-88850057D01*
X136619047Y-88850057D02*
X136666666Y-88945295D01*
X136666666Y-88945295D02*
X136666666Y-89040533D01*
X136666666Y-89040533D02*
X136619047Y-89183390D01*
X136619047Y-89183390D02*
X136047619Y-89754819D01*
X136047619Y-89754819D02*
X136666666Y-89754819D01*
X164816667Y-81407200D02*
X164959524Y-81454819D01*
X164959524Y-81454819D02*
X165197619Y-81454819D01*
X165197619Y-81454819D02*
X165292857Y-81407200D01*
X165292857Y-81407200D02*
X165340476Y-81359580D01*
X165340476Y-81359580D02*
X165388095Y-81264342D01*
X165388095Y-81264342D02*
X165388095Y-81169104D01*
X165388095Y-81169104D02*
X165340476Y-81073866D01*
X165340476Y-81073866D02*
X165292857Y-81026247D01*
X165292857Y-81026247D02*
X165197619Y-80978628D01*
X165197619Y-80978628D02*
X165007143Y-80931009D01*
X165007143Y-80931009D02*
X164911905Y-80883390D01*
X164911905Y-80883390D02*
X164864286Y-80835771D01*
X164864286Y-80835771D02*
X164816667Y-80740533D01*
X164816667Y-80740533D02*
X164816667Y-80645295D01*
X164816667Y-80645295D02*
X164864286Y-80550057D01*
X164864286Y-80550057D02*
X164911905Y-80502438D01*
X164911905Y-80502438D02*
X165007143Y-80454819D01*
X165007143Y-80454819D02*
X165245238Y-80454819D01*
X165245238Y-80454819D02*
X165388095Y-80502438D01*
X165721429Y-80454819D02*
X165959524Y-81454819D01*
X165959524Y-81454819D02*
X166150000Y-80740533D01*
X166150000Y-80740533D02*
X166340476Y-81454819D01*
X166340476Y-81454819D02*
X166578572Y-80454819D01*
X167483333Y-81454819D02*
X166911905Y-81454819D01*
X167197619Y-81454819D02*
X167197619Y-80454819D01*
X167197619Y-80454819D02*
X167102381Y-80597676D01*
X167102381Y-80597676D02*
X167007143Y-80692914D01*
X167007143Y-80692914D02*
X166911905Y-80740533D01*
X132954819Y-79666666D02*
X132478628Y-79999999D01*
X132954819Y-80238094D02*
X131954819Y-80238094D01*
X131954819Y-80238094D02*
X131954819Y-79857142D01*
X131954819Y-79857142D02*
X132002438Y-79761904D01*
X132002438Y-79761904D02*
X132050057Y-79714285D01*
X132050057Y-79714285D02*
X132145295Y-79666666D01*
X132145295Y-79666666D02*
X132288152Y-79666666D01*
X132288152Y-79666666D02*
X132383390Y-79714285D01*
X132383390Y-79714285D02*
X132431009Y-79761904D01*
X132431009Y-79761904D02*
X132478628Y-79857142D01*
X132478628Y-79857142D02*
X132478628Y-80238094D01*
X132050057Y-79285713D02*
X132002438Y-79238094D01*
X132002438Y-79238094D02*
X131954819Y-79142856D01*
X131954819Y-79142856D02*
X131954819Y-78904761D01*
X131954819Y-78904761D02*
X132002438Y-78809523D01*
X132002438Y-78809523D02*
X132050057Y-78761904D01*
X132050057Y-78761904D02*
X132145295Y-78714285D01*
X132145295Y-78714285D02*
X132240533Y-78714285D01*
X132240533Y-78714285D02*
X132383390Y-78761904D01*
X132383390Y-78761904D02*
X132954819Y-79333332D01*
X132954819Y-79333332D02*
X132954819Y-78714285D01*
X136354761Y-76700057D02*
X136259523Y-76652438D01*
X136259523Y-76652438D02*
X136164285Y-76557200D01*
X136164285Y-76557200D02*
X136021428Y-76414342D01*
X136021428Y-76414342D02*
X135926190Y-76366723D01*
X135926190Y-76366723D02*
X135830952Y-76366723D01*
X135878571Y-76604819D02*
X135783333Y-76557200D01*
X135783333Y-76557200D02*
X135688095Y-76461961D01*
X135688095Y-76461961D02*
X135640476Y-76271485D01*
X135640476Y-76271485D02*
X135640476Y-75938152D01*
X135640476Y-75938152D02*
X135688095Y-75747676D01*
X135688095Y-75747676D02*
X135783333Y-75652438D01*
X135783333Y-75652438D02*
X135878571Y-75604819D01*
X135878571Y-75604819D02*
X136069047Y-75604819D01*
X136069047Y-75604819D02*
X136164285Y-75652438D01*
X136164285Y-75652438D02*
X136259523Y-75747676D01*
X136259523Y-75747676D02*
X136307142Y-75938152D01*
X136307142Y-75938152D02*
X136307142Y-76271485D01*
X136307142Y-76271485D02*
X136259523Y-76461961D01*
X136259523Y-76461961D02*
X136164285Y-76557200D01*
X136164285Y-76557200D02*
X136069047Y-76604819D01*
X136069047Y-76604819D02*
X135878571Y-76604819D01*
X137259523Y-76604819D02*
X136688095Y-76604819D01*
X136973809Y-76604819D02*
X136973809Y-75604819D01*
X136973809Y-75604819D02*
X136878571Y-75747676D01*
X136878571Y-75747676D02*
X136783333Y-75842914D01*
X136783333Y-75842914D02*
X136688095Y-75890533D01*
D12*
X160416666Y-70724809D02*
X160250000Y-70486714D01*
X160130952Y-70724809D02*
X160130952Y-70224809D01*
X160130952Y-70224809D02*
X160321428Y-70224809D01*
X160321428Y-70224809D02*
X160369047Y-70248619D01*
X160369047Y-70248619D02*
X160392857Y-70272428D01*
X160392857Y-70272428D02*
X160416666Y-70320047D01*
X160416666Y-70320047D02*
X160416666Y-70391476D01*
X160416666Y-70391476D02*
X160392857Y-70439095D01*
X160392857Y-70439095D02*
X160369047Y-70462904D01*
X160369047Y-70462904D02*
X160321428Y-70486714D01*
X160321428Y-70486714D02*
X160130952Y-70486714D01*
X160654762Y-70724809D02*
X160750000Y-70724809D01*
X160750000Y-70724809D02*
X160797619Y-70701000D01*
X160797619Y-70701000D02*
X160821428Y-70677190D01*
X160821428Y-70677190D02*
X160869047Y-70605761D01*
X160869047Y-70605761D02*
X160892857Y-70510523D01*
X160892857Y-70510523D02*
X160892857Y-70320047D01*
X160892857Y-70320047D02*
X160869047Y-70272428D01*
X160869047Y-70272428D02*
X160845238Y-70248619D01*
X160845238Y-70248619D02*
X160797619Y-70224809D01*
X160797619Y-70224809D02*
X160702381Y-70224809D01*
X160702381Y-70224809D02*
X160654762Y-70248619D01*
X160654762Y-70248619D02*
X160630952Y-70272428D01*
X160630952Y-70272428D02*
X160607143Y-70320047D01*
X160607143Y-70320047D02*
X160607143Y-70439095D01*
X160607143Y-70439095D02*
X160630952Y-70486714D01*
X160630952Y-70486714D02*
X160654762Y-70510523D01*
X160654762Y-70510523D02*
X160702381Y-70534333D01*
X160702381Y-70534333D02*
X160797619Y-70534333D01*
X160797619Y-70534333D02*
X160845238Y-70510523D01*
X160845238Y-70510523D02*
X160869047Y-70486714D01*
X160869047Y-70486714D02*
X160892857Y-70439095D01*
D11*
X135904761Y-67650057D02*
X135809523Y-67602438D01*
X135809523Y-67602438D02*
X135714285Y-67507200D01*
X135714285Y-67507200D02*
X135571428Y-67364342D01*
X135571428Y-67364342D02*
X135476190Y-67316723D01*
X135476190Y-67316723D02*
X135380952Y-67316723D01*
X135428571Y-67554819D02*
X135333333Y-67507200D01*
X135333333Y-67507200D02*
X135238095Y-67411961D01*
X135238095Y-67411961D02*
X135190476Y-67221485D01*
X135190476Y-67221485D02*
X135190476Y-66888152D01*
X135190476Y-66888152D02*
X135238095Y-66697676D01*
X135238095Y-66697676D02*
X135333333Y-66602438D01*
X135333333Y-66602438D02*
X135428571Y-66554819D01*
X135428571Y-66554819D02*
X135619047Y-66554819D01*
X135619047Y-66554819D02*
X135714285Y-66602438D01*
X135714285Y-66602438D02*
X135809523Y-66697676D01*
X135809523Y-66697676D02*
X135857142Y-66888152D01*
X135857142Y-66888152D02*
X135857142Y-67221485D01*
X135857142Y-67221485D02*
X135809523Y-67411961D01*
X135809523Y-67411961D02*
X135714285Y-67507200D01*
X135714285Y-67507200D02*
X135619047Y-67554819D01*
X135619047Y-67554819D02*
X135428571Y-67554819D01*
X136238095Y-66650057D02*
X136285714Y-66602438D01*
X136285714Y-66602438D02*
X136380952Y-66554819D01*
X136380952Y-66554819D02*
X136619047Y-66554819D01*
X136619047Y-66554819D02*
X136714285Y-66602438D01*
X136714285Y-66602438D02*
X136761904Y-66650057D01*
X136761904Y-66650057D02*
X136809523Y-66745295D01*
X136809523Y-66745295D02*
X136809523Y-66840533D01*
X136809523Y-66840533D02*
X136761904Y-66983390D01*
X136761904Y-66983390D02*
X136190476Y-67554819D01*
X136190476Y-67554819D02*
X136809523Y-67554819D01*
X132833333Y-76954819D02*
X132500000Y-76478628D01*
X132261905Y-76954819D02*
X132261905Y-75954819D01*
X132261905Y-75954819D02*
X132642857Y-75954819D01*
X132642857Y-75954819D02*
X132738095Y-76002438D01*
X132738095Y-76002438D02*
X132785714Y-76050057D01*
X132785714Y-76050057D02*
X132833333Y-76145295D01*
X132833333Y-76145295D02*
X132833333Y-76288152D01*
X132833333Y-76288152D02*
X132785714Y-76383390D01*
X132785714Y-76383390D02*
X132738095Y-76431009D01*
X132738095Y-76431009D02*
X132642857Y-76478628D01*
X132642857Y-76478628D02*
X132261905Y-76478628D01*
X133785714Y-76954819D02*
X133214286Y-76954819D01*
X133500000Y-76954819D02*
X133500000Y-75954819D01*
X133500000Y-75954819D02*
X133404762Y-76097676D01*
X133404762Y-76097676D02*
X133309524Y-76192914D01*
X133309524Y-76192914D02*
X133214286Y-76240533D01*
X139359580Y-64166666D02*
X139407200Y-64214285D01*
X139407200Y-64214285D02*
X139454819Y-64357142D01*
X139454819Y-64357142D02*
X139454819Y-64452380D01*
X139454819Y-64452380D02*
X139407200Y-64595237D01*
X139407200Y-64595237D02*
X139311961Y-64690475D01*
X139311961Y-64690475D02*
X139216723Y-64738094D01*
X139216723Y-64738094D02*
X139026247Y-64785713D01*
X139026247Y-64785713D02*
X138883390Y-64785713D01*
X138883390Y-64785713D02*
X138692914Y-64738094D01*
X138692914Y-64738094D02*
X138597676Y-64690475D01*
X138597676Y-64690475D02*
X138502438Y-64595237D01*
X138502438Y-64595237D02*
X138454819Y-64452380D01*
X138454819Y-64452380D02*
X138454819Y-64357142D01*
X138454819Y-64357142D02*
X138502438Y-64214285D01*
X138502438Y-64214285D02*
X138550057Y-64166666D01*
X139454819Y-63214285D02*
X139454819Y-63785713D01*
X139454819Y-63499999D02*
X138454819Y-63499999D01*
X138454819Y-63499999D02*
X138597676Y-63595237D01*
X138597676Y-63595237D02*
X138692914Y-63690475D01*
X138692914Y-63690475D02*
X138740533Y-63785713D01*
X165833333Y-65889580D02*
X165785714Y-65937200D01*
X165785714Y-65937200D02*
X165642857Y-65984819D01*
X165642857Y-65984819D02*
X165547619Y-65984819D01*
X165547619Y-65984819D02*
X165404762Y-65937200D01*
X165404762Y-65937200D02*
X165309524Y-65841961D01*
X165309524Y-65841961D02*
X165261905Y-65746723D01*
X165261905Y-65746723D02*
X165214286Y-65556247D01*
X165214286Y-65556247D02*
X165214286Y-65413390D01*
X165214286Y-65413390D02*
X165261905Y-65222914D01*
X165261905Y-65222914D02*
X165309524Y-65127676D01*
X165309524Y-65127676D02*
X165404762Y-65032438D01*
X165404762Y-65032438D02*
X165547619Y-64984819D01*
X165547619Y-64984819D02*
X165642857Y-64984819D01*
X165642857Y-64984819D02*
X165785714Y-65032438D01*
X165785714Y-65032438D02*
X165833333Y-65080057D01*
X166166667Y-64984819D02*
X166833333Y-64984819D01*
X166833333Y-64984819D02*
X166404762Y-65984819D01*
X162284819Y-73238094D02*
X161284819Y-73238094D01*
X161284819Y-73238094D02*
X161284819Y-72999999D01*
X161284819Y-72999999D02*
X161332438Y-72857142D01*
X161332438Y-72857142D02*
X161427676Y-72761904D01*
X161427676Y-72761904D02*
X161522914Y-72714285D01*
X161522914Y-72714285D02*
X161713390Y-72666666D01*
X161713390Y-72666666D02*
X161856247Y-72666666D01*
X161856247Y-72666666D02*
X162046723Y-72714285D01*
X162046723Y-72714285D02*
X162141961Y-72761904D01*
X162141961Y-72761904D02*
X162237200Y-72857142D01*
X162237200Y-72857142D02*
X162284819Y-72999999D01*
X162284819Y-72999999D02*
X162284819Y-73238094D01*
X162284819Y-71714285D02*
X162284819Y-72285713D01*
X162284819Y-71999999D02*
X161284819Y-71999999D01*
X161284819Y-71999999D02*
X161427676Y-72095237D01*
X161427676Y-72095237D02*
X161522914Y-72190475D01*
X161522914Y-72190475D02*
X161570533Y-72285713D01*
X139454819Y-74166666D02*
X138978628Y-74499999D01*
X139454819Y-74738094D02*
X138454819Y-74738094D01*
X138454819Y-74738094D02*
X138454819Y-74357142D01*
X138454819Y-74357142D02*
X138502438Y-74261904D01*
X138502438Y-74261904D02*
X138550057Y-74214285D01*
X138550057Y-74214285D02*
X138645295Y-74166666D01*
X138645295Y-74166666D02*
X138788152Y-74166666D01*
X138788152Y-74166666D02*
X138883390Y-74214285D01*
X138883390Y-74214285D02*
X138931009Y-74261904D01*
X138931009Y-74261904D02*
X138978628Y-74357142D01*
X138978628Y-74357142D02*
X138978628Y-74738094D01*
X138454819Y-73833332D02*
X138454819Y-73214285D01*
X138454819Y-73214285D02*
X138835771Y-73547618D01*
X138835771Y-73547618D02*
X138835771Y-73404761D01*
X138835771Y-73404761D02*
X138883390Y-73309523D01*
X138883390Y-73309523D02*
X138931009Y-73261904D01*
X138931009Y-73261904D02*
X139026247Y-73214285D01*
X139026247Y-73214285D02*
X139264342Y-73214285D01*
X139264342Y-73214285D02*
X139359580Y-73261904D01*
X139359580Y-73261904D02*
X139407200Y-73309523D01*
X139407200Y-73309523D02*
X139454819Y-73404761D01*
X139454819Y-73404761D02*
X139454819Y-73690475D01*
X139454819Y-73690475D02*
X139407200Y-73785713D01*
X139407200Y-73785713D02*
X139359580Y-73833332D01*
X165813333Y-62859580D02*
X165765714Y-62907200D01*
X165765714Y-62907200D02*
X165622857Y-62954819D01*
X165622857Y-62954819D02*
X165527619Y-62954819D01*
X165527619Y-62954819D02*
X165384762Y-62907200D01*
X165384762Y-62907200D02*
X165289524Y-62811961D01*
X165289524Y-62811961D02*
X165241905Y-62716723D01*
X165241905Y-62716723D02*
X165194286Y-62526247D01*
X165194286Y-62526247D02*
X165194286Y-62383390D01*
X165194286Y-62383390D02*
X165241905Y-62192914D01*
X165241905Y-62192914D02*
X165289524Y-62097676D01*
X165289524Y-62097676D02*
X165384762Y-62002438D01*
X165384762Y-62002438D02*
X165527619Y-61954819D01*
X165527619Y-61954819D02*
X165622857Y-61954819D01*
X165622857Y-61954819D02*
X165765714Y-62002438D01*
X165765714Y-62002438D02*
X165813333Y-62050057D01*
X166670476Y-62288152D02*
X166670476Y-62954819D01*
X166432381Y-61907200D02*
X166194286Y-62621485D01*
X166194286Y-62621485D02*
X166813333Y-62621485D01*
X165813333Y-61359580D02*
X165765714Y-61407200D01*
X165765714Y-61407200D02*
X165622857Y-61454819D01*
X165622857Y-61454819D02*
X165527619Y-61454819D01*
X165527619Y-61454819D02*
X165384762Y-61407200D01*
X165384762Y-61407200D02*
X165289524Y-61311961D01*
X165289524Y-61311961D02*
X165241905Y-61216723D01*
X165241905Y-61216723D02*
X165194286Y-61026247D01*
X165194286Y-61026247D02*
X165194286Y-60883390D01*
X165194286Y-60883390D02*
X165241905Y-60692914D01*
X165241905Y-60692914D02*
X165289524Y-60597676D01*
X165289524Y-60597676D02*
X165384762Y-60502438D01*
X165384762Y-60502438D02*
X165527619Y-60454819D01*
X165527619Y-60454819D02*
X165622857Y-60454819D01*
X165622857Y-60454819D02*
X165765714Y-60502438D01*
X165765714Y-60502438D02*
X165813333Y-60550057D01*
X166718095Y-60454819D02*
X166241905Y-60454819D01*
X166241905Y-60454819D02*
X166194286Y-60931009D01*
X166194286Y-60931009D02*
X166241905Y-60883390D01*
X166241905Y-60883390D02*
X166337143Y-60835771D01*
X166337143Y-60835771D02*
X166575238Y-60835771D01*
X166575238Y-60835771D02*
X166670476Y-60883390D01*
X166670476Y-60883390D02*
X166718095Y-60931009D01*
X166718095Y-60931009D02*
X166765714Y-61026247D01*
X166765714Y-61026247D02*
X166765714Y-61264342D01*
X166765714Y-61264342D02*
X166718095Y-61359580D01*
X166718095Y-61359580D02*
X166670476Y-61407200D01*
X166670476Y-61407200D02*
X166575238Y-61454819D01*
X166575238Y-61454819D02*
X166337143Y-61454819D01*
X166337143Y-61454819D02*
X166241905Y-61407200D01*
X166241905Y-61407200D02*
X166194286Y-61359580D01*
X149295714Y-45039104D02*
X149771904Y-45039104D01*
X149200476Y-45324819D02*
X149533809Y-44324819D01*
X149533809Y-44324819D02*
X149867142Y-45324819D01*
X150724285Y-45324819D02*
X150152857Y-45324819D01*
X150438571Y-45324819D02*
X150438571Y-44324819D01*
X150438571Y-44324819D02*
X150343333Y-44467676D01*
X150343333Y-44467676D02*
X150248095Y-44562914D01*
X150248095Y-44562914D02*
X150152857Y-44610533D01*
X148748095Y-84964819D02*
X148748095Y-85774342D01*
X148748095Y-85774342D02*
X148795714Y-85869580D01*
X148795714Y-85869580D02*
X148843333Y-85917200D01*
X148843333Y-85917200D02*
X148938571Y-85964819D01*
X148938571Y-85964819D02*
X149129047Y-85964819D01*
X149129047Y-85964819D02*
X149224285Y-85917200D01*
X149224285Y-85917200D02*
X149271904Y-85869580D01*
X149271904Y-85869580D02*
X149319523Y-85774342D01*
X149319523Y-85774342D02*
X149319523Y-84964819D01*
X149748095Y-85917200D02*
X149890952Y-85964819D01*
X149890952Y-85964819D02*
X150129047Y-85964819D01*
X150129047Y-85964819D02*
X150224285Y-85917200D01*
X150224285Y-85917200D02*
X150271904Y-85869580D01*
X150271904Y-85869580D02*
X150319523Y-85774342D01*
X150319523Y-85774342D02*
X150319523Y-85679104D01*
X150319523Y-85679104D02*
X150271904Y-85583866D01*
X150271904Y-85583866D02*
X150224285Y-85536247D01*
X150224285Y-85536247D02*
X150129047Y-85488628D01*
X150129047Y-85488628D02*
X149938571Y-85441009D01*
X149938571Y-85441009D02*
X149843333Y-85393390D01*
X149843333Y-85393390D02*
X149795714Y-85345771D01*
X149795714Y-85345771D02*
X149748095Y-85250533D01*
X149748095Y-85250533D02*
X149748095Y-85155295D01*
X149748095Y-85155295D02*
X149795714Y-85060057D01*
X149795714Y-85060057D02*
X149843333Y-85012438D01*
X149843333Y-85012438D02*
X149938571Y-84964819D01*
X149938571Y-84964819D02*
X150176666Y-84964819D01*
X150176666Y-84964819D02*
X150319523Y-85012438D01*
X151081428Y-85441009D02*
X151224285Y-85488628D01*
X151224285Y-85488628D02*
X151271904Y-85536247D01*
X151271904Y-85536247D02*
X151319523Y-85631485D01*
X151319523Y-85631485D02*
X151319523Y-85774342D01*
X151319523Y-85774342D02*
X151271904Y-85869580D01*
X151271904Y-85869580D02*
X151224285Y-85917200D01*
X151224285Y-85917200D02*
X151129047Y-85964819D01*
X151129047Y-85964819D02*
X150748095Y-85964819D01*
X150748095Y-85964819D02*
X150748095Y-84964819D01*
X150748095Y-84964819D02*
X151081428Y-84964819D01*
X151081428Y-84964819D02*
X151176666Y-85012438D01*
X151176666Y-85012438D02*
X151224285Y-85060057D01*
X151224285Y-85060057D02*
X151271904Y-85155295D01*
X151271904Y-85155295D02*
X151271904Y-85250533D01*
X151271904Y-85250533D02*
X151224285Y-85345771D01*
X151224285Y-85345771D02*
X151176666Y-85393390D01*
X151176666Y-85393390D02*
X151081428Y-85441009D01*
X151081428Y-85441009D02*
X150748095Y-85441009D01*
D12*
X165396666Y-67177190D02*
X165372857Y-67201000D01*
X165372857Y-67201000D02*
X165301428Y-67224809D01*
X165301428Y-67224809D02*
X165253809Y-67224809D01*
X165253809Y-67224809D02*
X165182381Y-67201000D01*
X165182381Y-67201000D02*
X165134762Y-67153380D01*
X165134762Y-67153380D02*
X165110952Y-67105761D01*
X165110952Y-67105761D02*
X165087143Y-67010523D01*
X165087143Y-67010523D02*
X165087143Y-66939095D01*
X165087143Y-66939095D02*
X165110952Y-66843857D01*
X165110952Y-66843857D02*
X165134762Y-66796238D01*
X165134762Y-66796238D02*
X165182381Y-66748619D01*
X165182381Y-66748619D02*
X165253809Y-66724809D01*
X165253809Y-66724809D02*
X165301428Y-66724809D01*
X165301428Y-66724809D02*
X165372857Y-66748619D01*
X165372857Y-66748619D02*
X165396666Y-66772428D01*
X165682381Y-66939095D02*
X165634762Y-66915285D01*
X165634762Y-66915285D02*
X165610952Y-66891476D01*
X165610952Y-66891476D02*
X165587143Y-66843857D01*
X165587143Y-66843857D02*
X165587143Y-66820047D01*
X165587143Y-66820047D02*
X165610952Y-66772428D01*
X165610952Y-66772428D02*
X165634762Y-66748619D01*
X165634762Y-66748619D02*
X165682381Y-66724809D01*
X165682381Y-66724809D02*
X165777619Y-66724809D01*
X165777619Y-66724809D02*
X165825238Y-66748619D01*
X165825238Y-66748619D02*
X165849047Y-66772428D01*
X165849047Y-66772428D02*
X165872857Y-66820047D01*
X165872857Y-66820047D02*
X165872857Y-66843857D01*
X165872857Y-66843857D02*
X165849047Y-66891476D01*
X165849047Y-66891476D02*
X165825238Y-66915285D01*
X165825238Y-66915285D02*
X165777619Y-66939095D01*
X165777619Y-66939095D02*
X165682381Y-66939095D01*
X165682381Y-66939095D02*
X165634762Y-66962904D01*
X165634762Y-66962904D02*
X165610952Y-66986714D01*
X165610952Y-66986714D02*
X165587143Y-67034333D01*
X165587143Y-67034333D02*
X165587143Y-67129571D01*
X165587143Y-67129571D02*
X165610952Y-67177190D01*
X165610952Y-67177190D02*
X165634762Y-67201000D01*
X165634762Y-67201000D02*
X165682381Y-67224809D01*
X165682381Y-67224809D02*
X165777619Y-67224809D01*
X165777619Y-67224809D02*
X165825238Y-67201000D01*
X165825238Y-67201000D02*
X165849047Y-67177190D01*
X165849047Y-67177190D02*
X165872857Y-67129571D01*
X165872857Y-67129571D02*
X165872857Y-67034333D01*
X165872857Y-67034333D02*
X165849047Y-66986714D01*
X165849047Y-66986714D02*
X165825238Y-66962904D01*
X165825238Y-66962904D02*
X165777619Y-66939095D01*
D13*
X159880952Y-76376109D02*
X159880952Y-75876109D01*
X159880952Y-75876109D02*
X160000000Y-75876109D01*
X160000000Y-75876109D02*
X160071428Y-75899919D01*
X160071428Y-75899919D02*
X160119047Y-75947538D01*
X160119047Y-75947538D02*
X160142857Y-75995157D01*
X160142857Y-75995157D02*
X160166666Y-76090395D01*
X160166666Y-76090395D02*
X160166666Y-76161823D01*
X160166666Y-76161823D02*
X160142857Y-76257061D01*
X160142857Y-76257061D02*
X160119047Y-76304680D01*
X160119047Y-76304680D02*
X160071428Y-76352300D01*
X160071428Y-76352300D02*
X160000000Y-76376109D01*
X160000000Y-76376109D02*
X159880952Y-76376109D01*
X160357143Y-75923728D02*
X160380952Y-75899919D01*
X160380952Y-75899919D02*
X160428571Y-75876109D01*
X160428571Y-75876109D02*
X160547619Y-75876109D01*
X160547619Y-75876109D02*
X160595238Y-75899919D01*
X160595238Y-75899919D02*
X160619047Y-75923728D01*
X160619047Y-75923728D02*
X160642857Y-75971347D01*
X160642857Y-75971347D02*
X160642857Y-76018966D01*
X160642857Y-76018966D02*
X160619047Y-76090395D01*
X160619047Y-76090395D02*
X160333333Y-76376109D01*
X160333333Y-76376109D02*
X160642857Y-76376109D01*
D11*
X140124819Y-71166666D02*
X139648628Y-71499999D01*
X140124819Y-71738094D02*
X139124819Y-71738094D01*
X139124819Y-71738094D02*
X139124819Y-71357142D01*
X139124819Y-71357142D02*
X139172438Y-71261904D01*
X139172438Y-71261904D02*
X139220057Y-71214285D01*
X139220057Y-71214285D02*
X139315295Y-71166666D01*
X139315295Y-71166666D02*
X139458152Y-71166666D01*
X139458152Y-71166666D02*
X139553390Y-71214285D01*
X139553390Y-71214285D02*
X139601009Y-71261904D01*
X139601009Y-71261904D02*
X139648628Y-71357142D01*
X139648628Y-71357142D02*
X139648628Y-71738094D01*
X139458152Y-70309523D02*
X140124819Y-70309523D01*
X139077200Y-70547618D02*
X139791485Y-70785713D01*
X139791485Y-70785713D02*
X139791485Y-70166666D01*
X165813333Y-59859580D02*
X165765714Y-59907200D01*
X165765714Y-59907200D02*
X165622857Y-59954819D01*
X165622857Y-59954819D02*
X165527619Y-59954819D01*
X165527619Y-59954819D02*
X165384762Y-59907200D01*
X165384762Y-59907200D02*
X165289524Y-59811961D01*
X165289524Y-59811961D02*
X165241905Y-59716723D01*
X165241905Y-59716723D02*
X165194286Y-59526247D01*
X165194286Y-59526247D02*
X165194286Y-59383390D01*
X165194286Y-59383390D02*
X165241905Y-59192914D01*
X165241905Y-59192914D02*
X165289524Y-59097676D01*
X165289524Y-59097676D02*
X165384762Y-59002438D01*
X165384762Y-59002438D02*
X165527619Y-58954819D01*
X165527619Y-58954819D02*
X165622857Y-58954819D01*
X165622857Y-58954819D02*
X165765714Y-59002438D01*
X165765714Y-59002438D02*
X165813333Y-59050057D01*
X166289524Y-59954819D02*
X166480000Y-59954819D01*
X166480000Y-59954819D02*
X166575238Y-59907200D01*
X166575238Y-59907200D02*
X166622857Y-59859580D01*
X166622857Y-59859580D02*
X166718095Y-59716723D01*
X166718095Y-59716723D02*
X166765714Y-59526247D01*
X166765714Y-59526247D02*
X166765714Y-59145295D01*
X166765714Y-59145295D02*
X166718095Y-59050057D01*
X166718095Y-59050057D02*
X166670476Y-59002438D01*
X166670476Y-59002438D02*
X166575238Y-58954819D01*
X166575238Y-58954819D02*
X166384762Y-58954819D01*
X166384762Y-58954819D02*
X166289524Y-59002438D01*
X166289524Y-59002438D02*
X166241905Y-59050057D01*
X166241905Y-59050057D02*
X166194286Y-59145295D01*
X166194286Y-59145295D02*
X166194286Y-59383390D01*
X166194286Y-59383390D02*
X166241905Y-59478628D01*
X166241905Y-59478628D02*
X166289524Y-59526247D01*
X166289524Y-59526247D02*
X166384762Y-59573866D01*
X166384762Y-59573866D02*
X166575238Y-59573866D01*
X166575238Y-59573866D02*
X166670476Y-59526247D01*
X166670476Y-59526247D02*
X166718095Y-59478628D01*
X166718095Y-59478628D02*
X166765714Y-59383390D01*
X162863810Y-48864819D02*
X162863810Y-47864819D01*
X163911428Y-48769580D02*
X163863809Y-48817200D01*
X163863809Y-48817200D02*
X163720952Y-48864819D01*
X163720952Y-48864819D02*
X163625714Y-48864819D01*
X163625714Y-48864819D02*
X163482857Y-48817200D01*
X163482857Y-48817200D02*
X163387619Y-48721961D01*
X163387619Y-48721961D02*
X163340000Y-48626723D01*
X163340000Y-48626723D02*
X163292381Y-48436247D01*
X163292381Y-48436247D02*
X163292381Y-48293390D01*
X163292381Y-48293390D02*
X163340000Y-48102914D01*
X163340000Y-48102914D02*
X163387619Y-48007676D01*
X163387619Y-48007676D02*
X163482857Y-47912438D01*
X163482857Y-47912438D02*
X163625714Y-47864819D01*
X163625714Y-47864819D02*
X163720952Y-47864819D01*
X163720952Y-47864819D02*
X163863809Y-47912438D01*
X163863809Y-47912438D02*
X163911428Y-47960057D01*
X164863809Y-48864819D02*
X164292381Y-48864819D01*
X164578095Y-48864819D02*
X164578095Y-47864819D01*
X164578095Y-47864819D02*
X164482857Y-48007676D01*
X164482857Y-48007676D02*
X164387619Y-48102914D01*
X164387619Y-48102914D02*
X164292381Y-48150533D01*
%TO.C,C10*%
D14*
X160263053Y-59300086D02*
X160263053Y-59515758D01*
X160983053Y-59300086D02*
X160983053Y-59515758D01*
%TO.C,J4*%
X133290000Y-54390000D02*
X134500000Y-54390000D01*
X133290000Y-66110000D02*
X133290000Y-54390000D01*
X134500000Y-54390000D02*
X134500000Y-53890000D01*
X134500000Y-66110000D02*
X133290000Y-66110000D01*
X134500000Y-66610000D02*
X134500000Y-66110000D01*
X134610000Y-66910000D02*
X137110000Y-66910000D01*
X135310000Y-53890000D02*
X135310000Y-54890000D01*
X135310000Y-54890000D02*
X136810000Y-54890000D01*
X135310000Y-65610000D02*
X136810000Y-65610000D01*
X135310000Y-66610000D02*
X135310000Y-65610000D01*
X137110000Y-66910000D02*
X137110000Y-64410000D01*
X132790000Y-53890000D02*
X136810000Y-53890000D01*
X136810000Y-66610000D01*
X132790000Y-66610000D01*
X132790000Y-53890000D01*
%TO.C,J1*%
X159890000Y-84990000D02*
X160890000Y-84990000D01*
X160390000Y-85800000D02*
X159890000Y-85800000D01*
X160390000Y-87010000D02*
X160390000Y-85800000D01*
X160890000Y-84990000D02*
X160890000Y-83490000D01*
X166610000Y-84990000D02*
X166610000Y-83490000D01*
X167110000Y-85800000D02*
X167110000Y-87010000D01*
X167110000Y-87010000D02*
X160390000Y-87010000D01*
X167610000Y-84990000D02*
X166610000Y-84990000D01*
X167610000Y-85800000D02*
X167110000Y-85800000D01*
X167910000Y-83190000D02*
X165410000Y-83190000D01*
X167910000Y-85690000D02*
X167910000Y-83190000D01*
X159890000Y-83490000D02*
X167610000Y-83490000D01*
X167610000Y-87510000D01*
X159890000Y-87510000D01*
X159890000Y-83490000D01*
%TO.C,C6*%
X163852164Y-63640000D02*
X164067836Y-63640000D01*
X163852164Y-64360000D02*
X164067836Y-64360000D01*
%TO.C,J3*%
X131340000Y-50810000D02*
X131340000Y-53310000D01*
X131340000Y-53310000D02*
X133840000Y-53310000D01*
X131640000Y-50700000D02*
X132140000Y-50700000D01*
X131640000Y-51510000D02*
X132640000Y-51510000D01*
X132140000Y-49490000D02*
X138860000Y-49490000D01*
X132140000Y-50700000D02*
X132140000Y-49490000D01*
X132640000Y-51510000D02*
X132640000Y-53010000D01*
X138360000Y-51510000D02*
X138360000Y-53010000D01*
X138860000Y-49490000D02*
X138860000Y-50700000D01*
X138860000Y-50700000D02*
X139360000Y-50700000D01*
X139360000Y-51510000D02*
X138360000Y-51510000D01*
X131640000Y-48990000D02*
X139360000Y-48990000D01*
X139360000Y-53010000D01*
X131640000Y-53010000D01*
X131640000Y-48990000D01*
%TO.C,J2*%
X132140000Y-85690000D02*
X133140000Y-85690000D01*
X132640000Y-86500000D02*
X132140000Y-86500000D01*
X132640000Y-87710000D02*
X132640000Y-86500000D01*
X133140000Y-85690000D02*
X133140000Y-84190000D01*
X138860000Y-85690000D02*
X138860000Y-84190000D01*
X139360000Y-86500000D02*
X139360000Y-87710000D01*
X139360000Y-87710000D02*
X132640000Y-87710000D01*
X139860000Y-85690000D02*
X138860000Y-85690000D01*
X139860000Y-86500000D02*
X139360000Y-86500000D01*
X140160000Y-83890000D02*
X137660000Y-83890000D01*
X140160000Y-86390000D02*
X140160000Y-83890000D01*
X132140000Y-84190000D02*
X139860000Y-84190000D01*
X139860000Y-88210000D01*
X132140000Y-88210000D01*
X132140000Y-84190000D01*
%TO.C,SW1*%
X165030000Y-74100000D02*
X165030000Y-73900000D01*
X165030000Y-77100000D02*
X165030000Y-75400000D01*
X166080000Y-78950000D02*
X166870000Y-78950000D01*
X166870000Y-72050000D02*
X166080000Y-72050000D01*
X167880000Y-76900000D02*
X169170000Y-76900000D01*
X167880000Y-78350000D02*
X167880000Y-72650000D01*
X169170000Y-75600000D02*
X167880000Y-75600000D01*
X169170000Y-75600000D02*
X169380000Y-75800000D01*
X169170000Y-76900000D02*
X169380000Y-76700000D01*
X169380000Y-76700000D02*
X169380000Y-75800000D01*
%TO.C,R2*%
X133410350Y-79346359D02*
X133410350Y-79653641D01*
X134170350Y-79346359D02*
X134170350Y-79653641D01*
%TO.C,Q1*%
D10*
X134800000Y-76950000D02*
X135800000Y-76950000D01*
X136150000Y-77040000D02*
X136850000Y-77040000D01*
X136150000Y-79960000D02*
X136150000Y-77040000D01*
X136850000Y-77040000D02*
X136850000Y-79960000D01*
X136850000Y-79960000D02*
X136150000Y-79960000D01*
%TO.C,R9*%
D14*
X161846359Y-70120000D02*
X162153641Y-70120000D01*
X161846359Y-70880000D02*
X162153641Y-70880000D01*
%TO.C,Q2*%
X135240000Y-67940000D02*
X136760000Y-67940000D01*
X135240000Y-67990000D02*
X135240000Y-67940000D01*
X135240000Y-69890000D02*
X135240000Y-69110000D01*
X135240000Y-71060000D02*
X135240000Y-71010000D01*
X136760000Y-67940000D02*
X136760000Y-68940000D01*
X136760000Y-70060000D02*
X136760000Y-71060000D01*
X136760000Y-71060000D02*
X135240000Y-71060000D01*
X134700000Y-69120000D02*
X134940000Y-69450000D01*
X134460000Y-69450000D01*
X134700000Y-69120000D01*
G36*
X134940000Y-69450000D02*
G01*
X134460000Y-69450000D01*
X134700000Y-69120000D01*
X134940000Y-69450000D01*
G37*
%TO.C,R1*%
X132772936Y-73765000D02*
X133227064Y-73765000D01*
X132772936Y-75235000D02*
X133227064Y-75235000D01*
%TO.C,C1*%
X138640000Y-66107836D02*
X138640000Y-65892164D01*
X139360000Y-66107836D02*
X139360000Y-65892164D01*
%TO.C,C7*%
X163872164Y-65140000D02*
X164087836Y-65140000D01*
X163872164Y-65860000D02*
X164087836Y-65860000D01*
%TO.C,D1*%
D13*
X163050000Y-73590000D02*
G75*
G02*
X162950000Y-73590000I-50000J0D01*
G01*
X162950000Y-73590000D02*
G75*
G02*
X163050000Y-73590000I50000J0D01*
G01*
%TO.C,R3*%
D14*
X138620000Y-75846359D02*
X138620000Y-76153641D01*
X139380000Y-75846359D02*
X139380000Y-76153641D01*
%TO.C,C4*%
X163872164Y-62140000D02*
X164087836Y-62140000D01*
X163872164Y-62860000D02*
X164087836Y-62860000D01*
%TO.C,C5*%
X163872164Y-60640000D02*
X164087836Y-60640000D01*
X163872164Y-61360000D02*
X164087836Y-61360000D01*
%TO.C,A1*%
X140990000Y-46010000D02*
X140990000Y-48680000D01*
X140990000Y-51220000D02*
X140990000Y-89450000D01*
X140990000Y-89450000D02*
X146070000Y-89450000D01*
X143660000Y-48680000D02*
X140990000Y-48680000D01*
X143660000Y-51220000D02*
X140990000Y-51220000D01*
X143660000Y-51220000D02*
X143660000Y-48680000D01*
X143660000Y-51220000D02*
X143660000Y-86780000D01*
X143660000Y-86780000D02*
X140990000Y-86780000D01*
X146070000Y-81570000D02*
X153950000Y-81570000D01*
X146070000Y-91990000D02*
X146070000Y-81570000D01*
X153950000Y-81570000D02*
X153950000Y-91990000D01*
X153950000Y-91990000D02*
X146070000Y-91990000D01*
X156360000Y-48680000D02*
X156360000Y-86780000D01*
X156360000Y-48680000D02*
X159030000Y-48680000D01*
X156360000Y-86780000D02*
X159030000Y-86780000D01*
X159030000Y-46010000D02*
X140990000Y-46010000D01*
X159030000Y-89450000D02*
X153950000Y-89450000D01*
X159030000Y-89450000D02*
X159030000Y-46010000D01*
%TO.C,C8*%
X163872164Y-66640000D02*
X164087836Y-66640000D01*
X163872164Y-67360000D02*
X164087836Y-67360000D01*
%TO.C,D2*%
X159645000Y-74155000D02*
X159645000Y-75625000D01*
X159645000Y-75625000D02*
X161930000Y-75625000D01*
X161930000Y-74155000D02*
X159645000Y-74155000D01*
%TO.C,R4*%
X138120000Y-70846359D02*
X138120000Y-71153641D01*
X138880000Y-70846359D02*
X138880000Y-71153641D01*
%TO.C,C9*%
X163872164Y-59140000D02*
X164087836Y-59140000D01*
X163872164Y-59860000D02*
X164087836Y-59860000D01*
%TO.C,IC1*%
D10*
X162140000Y-49210000D02*
X165640000Y-49210000D01*
X165640000Y-49210000D02*
X165640000Y-55710000D01*
X165640000Y-55710000D02*
X162140000Y-55710000D01*
X162140000Y-55710000D02*
X162140000Y-49210000D01*
X159865000Y-49335000D02*
X161615000Y-49335000D01*
%TD*%
M02*
