%TF.GenerationSoftware,KiCad,Pcbnew,10.0.2*%
%TF.CreationDate,2026-06-20T13:40:25+06:00*%
%TF.ProjectId,ki,6b692e6b-6963-4616-945f-706362585858,rev?*%
%TF.SameCoordinates,Original*%
%TF.FileFunction,Copper,L1,Top*%
%TF.FilePolarity,Positive*%
%FSLAX46Y46*%
G04 Gerber Fmt 4.6, Leading zero omitted, Abs format (unit mm)*
G04 Created by KiCad (PCBNEW 10.0.2) date 2026-06-20 13:40:25*
%MOMM*%
%LPD*%
G01*
G04 APERTURE LIST*
G04 Aperture macros list*
%AMRoundRect*
0 Rectangle with rounded corners*
0 $1 Rounding radius*
0 $2 $3 $4 $5 $6 $7 $8 $9 X,Y pos of 4 corners*
0 Add a 4 corners polygon primitive as box body*
4,1,4,$2,$3,$4,$5,$6,$7,$8,$9,$2,$3,0*
0 Add four circle primitives for the rounded corners*
1,1,$1+$1,$2,$3*
1,1,$1+$1,$4,$5*
1,1,$1+$1,$6,$7*
1,1,$1+$1,$8,$9*
0 Add four rect primitives between the rounded corners*
20,1,$1+$1,$2,$3,$4,$5,0*
20,1,$1+$1,$4,$5,$6,$7,0*
20,1,$1+$1,$6,$7,$8,$9,0*
20,1,$1+$1,$8,$9,$2,$3,0*%
G04 Aperture macros list end*
%TA.AperFunction,SMDPad,CuDef*%
%ADD10RoundRect,0.140000X-0.170000X0.140000X-0.170000X-0.140000X0.170000X-0.140000X0.170000X0.140000X0*%
%TD*%
%TA.AperFunction,ComponentPad*%
%ADD11RoundRect,0.250000X0.725000X-0.600000X0.725000X0.600000X-0.725000X0.600000X-0.725000X-0.600000X0*%
%TD*%
%TA.AperFunction,ComponentPad*%
%ADD12O,1.950000X1.700000*%
%TD*%
%TA.AperFunction,ComponentPad*%
%ADD13RoundRect,0.250000X0.600000X0.750000X-0.600000X0.750000X-0.600000X-0.750000X0.600000X-0.750000X0*%
%TD*%
%TA.AperFunction,ComponentPad*%
%ADD14O,1.700000X2.000000*%
%TD*%
%TA.AperFunction,SMDPad,CuDef*%
%ADD15RoundRect,0.140000X-0.140000X-0.170000X0.140000X-0.170000X0.140000X0.170000X-0.140000X0.170000X0*%
%TD*%
%TA.AperFunction,ComponentPad*%
%ADD16RoundRect,0.250000X-0.600000X-0.750000X0.600000X-0.750000X0.600000X0.750000X-0.600000X0.750000X0*%
%TD*%
%TA.AperFunction,SMDPad,CuDef*%
%ADD17R,0.800000X1.000000*%
%TD*%
%TA.AperFunction,SMDPad,CuDef*%
%ADD18R,1.500000X0.700000*%
%TD*%
%TA.AperFunction,SMDPad,CuDef*%
%ADD19RoundRect,0.135000X-0.185000X0.135000X-0.185000X-0.135000X0.185000X-0.135000X0.185000X0.135000X0*%
%TD*%
%TA.AperFunction,SMDPad,CuDef*%
%ADD20R,1.000000X0.700000*%
%TD*%
%TA.AperFunction,SMDPad,CuDef*%
%ADD21RoundRect,0.135000X-0.135000X-0.185000X0.135000X-0.185000X0.135000X0.185000X-0.135000X0.185000X0*%
%TD*%
%TA.AperFunction,SMDPad,CuDef*%
%ADD22RoundRect,0.150000X-0.587500X-0.150000X0.587500X-0.150000X0.587500X0.150000X-0.587500X0.150000X0*%
%TD*%
%TA.AperFunction,SMDPad,CuDef*%
%ADD23RoundRect,0.250000X-0.262500X-0.450000X0.262500X-0.450000X0.262500X0.450000X-0.262500X0.450000X0*%
%TD*%
%TA.AperFunction,SMDPad,CuDef*%
%ADD24RoundRect,0.140000X0.170000X-0.140000X0.170000X0.140000X-0.170000X0.140000X-0.170000X-0.140000X0*%
%TD*%
%TA.AperFunction,SMDPad,CuDef*%
%ADD25RoundRect,0.147500X0.172500X-0.147500X0.172500X0.147500X-0.172500X0.147500X-0.172500X-0.147500X0*%
%TD*%
%TA.AperFunction,ComponentPad*%
%ADD26R,1.600000X1.600000*%
%TD*%
%TA.AperFunction,ComponentPad*%
%ADD27O,1.600000X1.600000*%
%TD*%
%TA.AperFunction,SMDPad,CuDef*%
%ADD28RoundRect,0.218750X-0.218750X-0.256250X0.218750X-0.256250X0.218750X0.256250X-0.218750X0.256250X0*%
%TD*%
%TA.AperFunction,SMDPad,CuDef*%
%ADD29R,1.750000X0.950000*%
%TD*%
%TA.AperFunction,SMDPad,CuDef*%
%ADD30R,1.750000X3.200000*%
%TD*%
%TA.AperFunction,ViaPad*%
%ADD31C,0.800000*%
%TD*%
%TA.AperFunction,ViaPad*%
%ADD32C,0.600000*%
%TD*%
%TA.AperFunction,Conductor*%
%ADD33C,0.600000*%
%TD*%
%TA.AperFunction,Conductor*%
%ADD34C,0.200000*%
%TD*%
%TA.AperFunction,Conductor*%
%ADD35C,0.250000*%
%TD*%
G04 APERTURE END LIST*
D10*
%TO.P,C10,2*%
%TO.N,GND*%
X160623053Y-59887922D03*
%TO.P,C10,1*%
%TO.N,V5DD*%
X160623053Y-58927922D03*
%TD*%
D11*
%TO.P,J4,1,Pin_1_1*%
%TO.N,/D4*%
X134500000Y-64000000D03*
D12*
%TO.P,J4,2,Pin_2_2*%
%TO.N,/D2*%
X134500000Y-61500000D03*
%TO.P,J4,3,Pin_3_3*%
%TO.N,/A4*%
X134500000Y-59000000D03*
%TO.P,J4,4,Pin_4_4*%
%TO.N,/A5*%
X134500000Y-56500000D03*
%TD*%
D13*
%TO.P,J1,1,Pin_1_1*%
%TO.N,Net-(J1-Pin_1)*%
X165000000Y-85800000D03*
D14*
%TO.P,J1,2,Pin_2_2*%
%TO.N,GND*%
X162500000Y-85800000D03*
%TD*%
D15*
%TO.P,C6,1*%
%TO.N,VCC11*%
X163480000Y-64000000D03*
%TO.P,C6,2*%
%TO.N,GND*%
X164440000Y-64000000D03*
%TD*%
D16*
%TO.P,J3,1,Pin_1_1*%
%TO.N,3V3*%
X134250000Y-50700000D03*
D14*
%TO.P,J3,2,Pin_2_2*%
%TO.N,GND*%
X136750000Y-50700000D03*
%TD*%
D13*
%TO.P,J2,1,Pin_1_1*%
%TO.N,/VO10*%
X137250000Y-86500000D03*
D14*
%TO.P,J2,2,Pin_2_2*%
%TO.N,GND*%
X134750000Y-86500000D03*
%TD*%
D17*
%TO.P,SW1,*%
%TO.N,*%
X165370000Y-79150000D03*
X167580000Y-79150000D03*
X165370000Y-71850000D03*
X167580000Y-71850000D03*
D18*
%TO.P,SW1,1,A_1*%
%TO.N,Net-(J1-Pin_1)*%
X164720000Y-77750000D03*
%TO.P,SW1,2,B_2*%
%TO.N,Net-(D2-A)*%
X164720000Y-74750000D03*
%TO.P,SW1,3*%
%TO.N,N/C*%
X164720000Y-73250000D03*
%TD*%
D19*
%TO.P,R2,1*%
%TO.N,Net-(Q1-G)*%
X133790350Y-78990000D03*
%TO.P,R2,2*%
%TO.N,GND*%
X133790350Y-80010000D03*
%TD*%
D20*
%TO.P,Q1,1,G_1*%
%TO.N,Net-(Q1-G)*%
X135300000Y-77550000D03*
%TO.P,Q1,2,S_2*%
%TO.N,GND*%
X135300000Y-79450000D03*
%TO.P,Q1,3,D_3*%
%TO.N,Net-(Q1-D)*%
X137700000Y-78500000D03*
%TD*%
D21*
%TO.P,R9,1*%
%TO.N,VCC11*%
X161490000Y-70500000D03*
%TO.P,R9,2*%
%TO.N,Net-(D1-A)*%
X162510000Y-70500000D03*
%TD*%
D22*
%TO.P,Q2,1,G_1*%
%TO.N,Net-(Q1-D)*%
X135062500Y-68550000D03*
%TO.P,Q2,2,S_2*%
%TO.N,VCC11*%
X135062500Y-70450000D03*
%TO.P,Q2,3,D_3*%
%TO.N,/VO10*%
X136937500Y-69500000D03*
%TD*%
D23*
%TO.P,R1,1*%
%TO.N,/D9*%
X132087500Y-74500000D03*
%TO.P,R1,2*%
%TO.N,Net-(Q1-G)*%
X133912500Y-74500000D03*
%TD*%
D24*
%TO.P,C1,1*%
%TO.N,/VO10*%
X139000000Y-66480000D03*
%TO.P,C1,2*%
%TO.N,GND*%
X139000000Y-65520000D03*
%TD*%
D15*
%TO.P,C7,1*%
%TO.N,VCC11*%
X163500000Y-65500000D03*
%TO.P,C7,2*%
%TO.N,GND*%
X164460000Y-65500000D03*
%TD*%
D25*
%TO.P,D1,1,K_1*%
%TO.N,GND*%
X163000000Y-72985000D03*
%TO.P,D1,2,A_2*%
%TO.N,Net-(D1-A)*%
X163000000Y-72015000D03*
%TD*%
D19*
%TO.P,R3,1*%
%TO.N,VCC11*%
X139000000Y-75490000D03*
%TO.P,R3,2*%
%TO.N,Net-(Q1-D)*%
X139000000Y-76510000D03*
%TD*%
D15*
%TO.P,C4,1*%
%TO.N,VCC11*%
X163500000Y-62500000D03*
%TO.P,C4,2*%
%TO.N,GND*%
X164460000Y-62500000D03*
%TD*%
%TO.P,C5,1*%
%TO.N,VCC11*%
X163500000Y-61000000D03*
%TO.P,C5,2*%
%TO.N,GND*%
X164460000Y-61000000D03*
%TD*%
D26*
%TO.P,A1,1,D1/TX_1*%
%TO.N,unconnected-(A1-D1{slash}TX-Pad1)*%
X142390000Y-49950000D03*
D27*
%TO.P,A1,2,D0/RX_2*%
%TO.N,unconnected-(A1-D0{slash}RX-Pad2)*%
X142390000Y-52490000D03*
%TO.P,A1,3,~{RESET}_3*%
%TO.N,unconnected-(A1-~{RESET}-Pad3)*%
X142390000Y-55030000D03*
%TO.P,A1,4,GND_4*%
%TO.N,GND*%
X142390000Y-57570000D03*
%TO.P,A1,5,D2_5*%
%TO.N,/D2*%
X142390000Y-60110000D03*
%TO.P,A1,6,D3_6*%
%TO.N,unconnected-(A1-D3-Pad6)*%
X142390000Y-62650000D03*
%TO.P,A1,7,D4_7*%
%TO.N,/D4*%
X142390000Y-65190000D03*
%TO.P,A1,8,D5_8*%
%TO.N,unconnected-(A1-D5-Pad8)*%
X142390000Y-67730000D03*
%TO.P,A1,9,D6_9*%
%TO.N,unconnected-(A1-D6-Pad9)*%
X142390000Y-70270000D03*
%TO.P,A1,10,D7_10*%
%TO.N,unconnected-(A1-D7-Pad10)*%
X142390000Y-72810000D03*
%TO.P,A1,11,D8_11*%
%TO.N,unconnected-(A1-D8-Pad11)*%
X142390000Y-75350000D03*
%TO.P,A1,12,D9_12*%
%TO.N,/D9*%
X142390000Y-77890000D03*
%TO.P,A1,13,D10/CS_13*%
%TO.N,unconnected-(A1-D10{slash}CS-Pad13)*%
X142390000Y-80430000D03*
%TO.P,A1,14,D11/COPI_14*%
%TO.N,unconnected-(A1-D11{slash}COPI-Pad14)*%
X142390000Y-82970000D03*
%TO.P,A1,15,D12/CIPO_15*%
%TO.N,unconnected-(A1-D12{slash}CIPO-Pad15)*%
X142390000Y-85510000D03*
%TO.P,A1,16,D13/SCK_16*%
%TO.N,unconnected-(A1-D13{slash}SCK-Pad16)*%
X157630000Y-85510000D03*
%TO.P,A1,17,3V3_17*%
%TO.N,3V3*%
X157630000Y-82970000D03*
%TO.P,A1,18,REF_18*%
%TO.N,unconnected-(A1-REF-Pad18)*%
X157630000Y-80430000D03*
%TO.P,A1,19,A0_19*%
%TO.N,unconnected-(A1-A0-Pad19)*%
X157630000Y-77890000D03*
%TO.P,A1,20,A1_20*%
%TO.N,unconnected-(A1-A1-Pad20)*%
X157630000Y-75350000D03*
%TO.P,A1,21,A2_21*%
%TO.N,unconnected-(A1-A2-Pad21)*%
X157630000Y-72810000D03*
%TO.P,A1,22,A3_22*%
%TO.N,unconnected-(A1-A3-Pad22)*%
X157630000Y-70270000D03*
%TO.P,A1,23,SDA/A4_23*%
%TO.N,/A4*%
X157630000Y-67730000D03*
%TO.P,A1,24,SCL/A5_24*%
%TO.N,/A5*%
X157630000Y-65190000D03*
%TO.P,A1,25,A6_25*%
%TO.N,unconnected-(A1-A6-Pad25)*%
X157630000Y-62650000D03*
%TO.P,A1,26,A7_26*%
%TO.N,unconnected-(A1-A7-Pad26)*%
X157630000Y-60110000D03*
%TO.P,A1,27,VUSB/5V_27*%
%TO.N,V5DD*%
X157630000Y-57570000D03*
%TO.P,A1,28,REC_28*%
%TO.N,unconnected-(A1-REC-Pad28)*%
X157630000Y-55030000D03*
%TO.P,A1,29,GND_29*%
%TO.N,GND*%
X157630000Y-52490000D03*
%TO.P,A1,30,VIN_30*%
%TO.N,V5DD*%
X157630000Y-49950000D03*
%TD*%
D15*
%TO.P,C8,1*%
%TO.N,VCC11*%
X163500000Y-67000000D03*
%TO.P,C8,2*%
%TO.N,GND*%
X164460000Y-67000000D03*
%TD*%
D28*
%TO.P,D2,1,K_1*%
%TO.N,VCC11*%
X160342500Y-74890000D03*
%TO.P,D2,2,A_2*%
%TO.N,Net-(D2-A)*%
X161917500Y-74890000D03*
%TD*%
D19*
%TO.P,R4,1*%
%TO.N,/VO10*%
X138500000Y-70490000D03*
%TO.P,R4,2*%
%TO.N,GND*%
X138500000Y-71510000D03*
%TD*%
D15*
%TO.P,C9,1*%
%TO.N,VCC11*%
X163500000Y-59500000D03*
%TO.P,C9,2*%
%TO.N,GND*%
X164460000Y-59500000D03*
%TD*%
D29*
%TO.P,IC1,1,INPUT_1*%
%TO.N,VCC11*%
X160740000Y-50160000D03*
%TO.P,IC1,2,COMMON_1_2*%
%TO.N,GND*%
X160740000Y-52460000D03*
%TO.P,IC1,3,OUTPUT_3*%
%TO.N,V5DD*%
X160740000Y-54760000D03*
D30*
%TO.P,IC1,4,COMMON_2_4*%
%TO.N,GND*%
X167040000Y-52460000D03*
%TD*%
D31*
%TO.N,GND*%
X164850000Y-52340000D03*
X148100000Y-64550000D03*
X167090000Y-57560000D03*
%TO.N,VCC11*%
X160090000Y-46610000D03*
%TO.N,3V3*%
X143690000Y-47660000D03*
%TO.N,VCC11*%
X133500000Y-70000000D03*
%TO.N,GND*%
X148220000Y-75890000D03*
X151360000Y-77080000D03*
X149660000Y-59030000D03*
X149760000Y-80560000D03*
X148220000Y-77080000D03*
X164140000Y-71110000D03*
X151360000Y-74800000D03*
X149760000Y-74800000D03*
X148220000Y-74800000D03*
X151360000Y-80560000D03*
X149660000Y-60120000D03*
X148220000Y-78280000D03*
X151360000Y-79370000D03*
X148220000Y-79370000D03*
X151360000Y-75890000D03*
X149660000Y-61310000D03*
X148220000Y-80560000D03*
X138000000Y-73000000D03*
X151260000Y-60120000D03*
X149760000Y-78280000D03*
X138790000Y-57570000D03*
X149760000Y-79370000D03*
X151260000Y-61310000D03*
X160500000Y-89000000D03*
X149760000Y-75890000D03*
X149760000Y-77080000D03*
X151360000Y-78280000D03*
X148120000Y-59030000D03*
X148120000Y-61310000D03*
X148120000Y-60120000D03*
X151260000Y-59030000D03*
%TO.N,/VO10*%
X140000000Y-71500000D03*
D32*
%TO.N,/D9*%
X132500000Y-73000000D03*
%TD*%
%TO.N,GND*%
D33*
X164970000Y-52460000D02*
X164850000Y-52340000D01*
X167040000Y-52460000D02*
X164970000Y-52460000D01*
X167090000Y-52510000D02*
X167040000Y-52460000D01*
X167090000Y-57560000D02*
X167090000Y-52510000D01*
%TO.N,VCC11*%
X163500000Y-51940000D02*
X161720000Y-50160000D01*
X163500000Y-59510000D02*
X163500000Y-51940000D01*
X163500000Y-59510000D02*
X163500000Y-59500000D01*
X161720000Y-50160000D02*
X160740000Y-50160000D01*
%TO.N,V5DD*%
X158467922Y-58927922D02*
X160623053Y-58927922D01*
X157630000Y-58090000D02*
X158467922Y-58927922D01*
X157630000Y-57570000D02*
X157630000Y-58090000D01*
X159790000Y-57570000D02*
X157630000Y-57570000D01*
X160740000Y-56620000D02*
X159790000Y-57570000D01*
X160740000Y-54760000D02*
X160740000Y-56620000D01*
%TO.N,VCC11*%
X160090000Y-46610000D02*
X160090000Y-49510000D01*
X160090000Y-49510000D02*
X160740000Y-50160000D01*
%TO.N,3V3*%
X143690000Y-47660000D02*
X135980000Y-47660000D01*
X135980000Y-47660000D02*
X134250000Y-49390000D01*
%TO.N,VCC11*%
X163500000Y-65500000D02*
X163500000Y-64020000D01*
X134750000Y-70762500D02*
X135062500Y-70450000D01*
X163500000Y-62500000D02*
X163500000Y-61000000D01*
X163500000Y-67000000D02*
X163500000Y-65500000D01*
X163480000Y-64000000D02*
X163480000Y-62520000D01*
X161490000Y-68510000D02*
X163000000Y-67000000D01*
X134750000Y-72250000D02*
X134750000Y-70762500D01*
X135062500Y-70450000D02*
X133950000Y-70450000D01*
X161490000Y-70500000D02*
X161490000Y-68510000D01*
X163480000Y-62520000D02*
X163500000Y-62500000D01*
X139000000Y-75490000D02*
X137990000Y-75490000D01*
X163500000Y-61000000D02*
X163500000Y-59510000D01*
X163000000Y-67000000D02*
X163500000Y-67000000D01*
X161490000Y-70500000D02*
X161490000Y-73742500D01*
X161490000Y-73742500D02*
X160342500Y-74890000D01*
X133950000Y-70450000D02*
X133500000Y-70000000D01*
X163500000Y-64020000D02*
X163480000Y-64000000D01*
X137990000Y-75490000D02*
X134750000Y-72250000D01*
%TO.N,GND*%
X164460000Y-61000000D02*
X164460000Y-62500000D01*
D34*
X164480000Y-66980000D02*
X164440000Y-66940000D01*
D33*
X164460000Y-62500000D02*
X164460000Y-63980000D01*
X164440000Y-64000000D02*
X164440000Y-65480000D01*
X164440000Y-65480000D02*
X164460000Y-65500000D01*
X164460000Y-59500000D02*
X164460000Y-61000000D01*
X164460000Y-65500000D02*
X164460000Y-67000000D01*
X133790350Y-80010000D02*
X134740000Y-80010000D01*
X134740000Y-80010000D02*
X135300000Y-79450000D01*
X133000000Y-80800350D02*
X133790350Y-80010000D01*
X160500000Y-89000000D02*
X160500000Y-87800000D01*
X138500000Y-71510000D02*
X138500000Y-72500000D01*
X142390000Y-57570000D02*
X138790000Y-57570000D01*
X139000000Y-65520000D02*
X139309999Y-65520000D01*
D35*
X164140000Y-72164999D02*
X164140000Y-71110000D01*
X164460000Y-71559999D02*
X164460000Y-67000000D01*
D33*
X138500000Y-72500000D02*
X138000000Y-73000000D01*
D35*
X163000000Y-72820000D02*
X163199999Y-72820000D01*
X163199999Y-72820000D02*
X164460000Y-71559999D01*
D33*
X160500000Y-87800000D02*
X162500000Y-85800000D01*
D35*
X163319999Y-72985000D02*
X164140000Y-72164999D01*
D33*
X164460000Y-63980000D02*
X164440000Y-64000000D01*
D35*
X163000000Y-72985000D02*
X163319999Y-72985000D01*
%TO.N,/D4*%
X141200000Y-64000000D02*
X142390000Y-65190000D01*
X134500000Y-64000000D02*
X141200000Y-64000000D01*
%TO.N,/D2*%
X134500000Y-61500000D02*
X141000000Y-61500000D01*
X141000000Y-61500000D02*
X142390000Y-60110000D01*
%TO.N,/A4*%
X144400000Y-59670000D02*
X143530000Y-58800000D01*
X143530000Y-58800000D02*
X134700000Y-58800000D01*
X157630000Y-67730000D02*
X145730000Y-67730000D01*
X134700000Y-58800000D02*
X134500000Y-59000000D01*
X145730000Y-67730000D02*
X144400000Y-66400000D01*
X144400000Y-66400000D02*
X144400000Y-59670000D01*
%TO.N,/A5*%
X143945000Y-56445000D02*
X145000000Y-57500000D01*
X134555000Y-56445000D02*
X143945000Y-56445000D01*
X145000000Y-57500000D02*
X145000000Y-65500000D01*
X155820000Y-67000000D02*
X157630000Y-65190000D01*
X134500000Y-56500000D02*
X134555000Y-56445000D01*
X146500000Y-67000000D02*
X155820000Y-67000000D01*
X145000000Y-65500000D02*
X146500000Y-67000000D01*
%TO.N,Net-(J1-Pin_1)*%
D33*
X163920000Y-78550000D02*
X163920000Y-84720000D01*
X163920000Y-84720000D02*
X165000000Y-85800000D01*
X164720000Y-77750000D02*
X163920000Y-78550000D01*
%TO.N,3V3*%
X134250000Y-50700000D02*
X134250000Y-49390000D01*
%TO.N,/VO10*%
X139000000Y-66480000D02*
X139000000Y-69990000D01*
X137510000Y-69500000D02*
X138500000Y-70490000D01*
X139000000Y-69990000D02*
X138500000Y-70490000D01*
X138990000Y-70490000D02*
X138500000Y-70490000D01*
X140000000Y-71500000D02*
X138990000Y-70490000D01*
X136937500Y-69500000D02*
X137510000Y-69500000D01*
%TO.N,Net-(D2-A)*%
X164580000Y-74890000D02*
X164720000Y-74750000D01*
X161917500Y-74890000D02*
X164580000Y-74890000D01*
%TO.N,Net-(Q1-G)*%
X133790350Y-78209650D02*
X134450000Y-77550000D01*
X133790350Y-78990000D02*
X133790350Y-78209650D01*
X135300000Y-75300000D02*
X134500000Y-74500000D01*
X134450000Y-77550000D02*
X135300000Y-77550000D01*
X134500000Y-74500000D02*
X133912500Y-74500000D01*
X135300000Y-77550000D02*
X135300000Y-75300000D01*
%TO.N,Net-(Q1-D)*%
X132500000Y-69500000D02*
X132500000Y-71131370D01*
X132500000Y-71131370D02*
X137878630Y-76510000D01*
X138500000Y-78500000D02*
X139000000Y-78000000D01*
X132500000Y-69500000D02*
X133450000Y-68550000D01*
X137878630Y-76510000D02*
X139000000Y-76510000D01*
X137700000Y-78500000D02*
X138500000Y-78500000D01*
X139000000Y-78000000D02*
X139000000Y-76510000D01*
X133450000Y-68550000D02*
X135062500Y-68550000D01*
%TO.N,Net-(D1-A)*%
X162510000Y-70500000D02*
X162510000Y-71600000D01*
X162510000Y-71600000D02*
X163000000Y-72090000D01*
%TO.N,/D9*%
D35*
X132087500Y-73412500D02*
X132500000Y-73000000D01*
X132087500Y-74500000D02*
X132087500Y-73412500D01*
%TD*%
%TA.AperFunction,Conductor*%
%TO.N,GND*%
G36*
X143825850Y-56790185D02*
G01*
X143846492Y-56806819D01*
X144638181Y-57598508D01*
X144671666Y-57659831D01*
X144674500Y-57686189D01*
X144674500Y-59184811D01*
X144654815Y-59251850D01*
X144602011Y-59297605D01*
X144532853Y-59307549D01*
X144469297Y-59278524D01*
X144462819Y-59272492D01*
X143729864Y-58539537D01*
X143729863Y-58539536D01*
X143729862Y-58539535D01*
X143692750Y-58518108D01*
X143655640Y-58496682D01*
X143614246Y-58485591D01*
X143572853Y-58474500D01*
X143572852Y-58474500D01*
X143566722Y-58473693D01*
X143502826Y-58445425D01*
X143464356Y-58387099D01*
X143463526Y-58317234D01*
X143482593Y-58277867D01*
X143501859Y-58251350D01*
X143594755Y-58069029D01*
X143657990Y-57874413D01*
X143666609Y-57820000D01*
X142823012Y-57820000D01*
X142855925Y-57762993D01*
X142890000Y-57635826D01*
X142890000Y-57504174D01*
X142855925Y-57377007D01*
X142823012Y-57320000D01*
X143666609Y-57320000D01*
X143657990Y-57265586D01*
X143594754Y-57070967D01*
X143533524Y-56950794D01*
X143533016Y-56948089D01*
X143531215Y-56946011D01*
X143526606Y-56913957D01*
X143520628Y-56882125D01*
X143521662Y-56879576D01*
X143521271Y-56876853D01*
X143534727Y-56847387D01*
X143546905Y-56817385D01*
X143549152Y-56815800D01*
X143550296Y-56813297D01*
X143577544Y-56795785D01*
X143604011Y-56777128D01*
X143607467Y-56776555D01*
X143609074Y-56775523D01*
X143644009Y-56770500D01*
X143758811Y-56770500D01*
X143825850Y-56790185D01*
G37*
%TD.AperFunction*%
%TA.AperFunction,Conductor*%
G36*
X166623564Y-45049960D02*
G01*
X166669576Y-45102540D01*
X166681031Y-45153566D01*
X166682161Y-45288865D01*
X166663037Y-45356067D01*
X166610617Y-45402261D01*
X166541544Y-45412782D01*
X166501872Y-45400387D01*
X166463563Y-45380868D01*
X166387234Y-45356067D01*
X166282782Y-45322128D01*
X166282780Y-45322127D01*
X166282778Y-45322127D01*
X166095046Y-45292393D01*
X166095041Y-45292393D01*
X165904959Y-45292393D01*
X165904954Y-45292393D01*
X165717221Y-45322127D01*
X165536437Y-45380868D01*
X165367075Y-45467162D01*
X165321878Y-45500000D01*
X165213297Y-45578889D01*
X165213295Y-45578891D01*
X165213294Y-45578891D01*
X165078891Y-45713294D01*
X165078891Y-45713295D01*
X165078889Y-45713297D01*
X165030906Y-45779339D01*
X164967162Y-45867075D01*
X164880868Y-46036437D01*
X164822127Y-46217221D01*
X164792393Y-46404953D01*
X164792393Y-46595046D01*
X164809434Y-46702637D01*
X164822128Y-46782782D01*
X164880867Y-46963560D01*
X164967162Y-47132924D01*
X165078889Y-47286703D01*
X165213297Y-47421111D01*
X165367076Y-47532838D01*
X165536440Y-47619133D01*
X165717218Y-47677872D01*
X165787620Y-47689022D01*
X165904954Y-47707607D01*
X165904959Y-47707607D01*
X166095046Y-47707607D01*
X166199341Y-47691087D01*
X166282782Y-47677872D01*
X166463560Y-47619133D01*
X166521989Y-47589361D01*
X166590658Y-47576465D01*
X166655399Y-47602741D01*
X166695657Y-47659847D01*
X166702281Y-47698811D01*
X166714588Y-49172860D01*
X166721899Y-50048543D01*
X166723456Y-50234965D01*
X166704332Y-50302166D01*
X166651911Y-50348360D01*
X166599460Y-50360000D01*
X166117155Y-50360000D01*
X166057627Y-50366401D01*
X166057620Y-50366403D01*
X165922913Y-50416645D01*
X165922906Y-50416649D01*
X165807812Y-50502809D01*
X165807809Y-50502812D01*
X165721649Y-50617906D01*
X165721645Y-50617913D01*
X165671403Y-50752620D01*
X165671401Y-50752627D01*
X165665000Y-50812155D01*
X165665000Y-52210000D01*
X166739945Y-52210000D01*
X166744120Y-52710000D01*
X165665000Y-52710000D01*
X165665000Y-54107844D01*
X165671401Y-54167372D01*
X165671403Y-54167379D01*
X165721645Y-54302086D01*
X165721649Y-54302093D01*
X165807809Y-54417187D01*
X165807812Y-54417190D01*
X165922906Y-54503350D01*
X165922913Y-54503354D01*
X166057620Y-54553596D01*
X166057627Y-54553598D01*
X166117155Y-54559999D01*
X166117172Y-54560000D01*
X166636597Y-54560000D01*
X166703636Y-54579685D01*
X166749391Y-54632489D01*
X166760592Y-54682961D01*
X166897832Y-71120805D01*
X166913674Y-73018327D01*
X166894549Y-73085528D01*
X166842129Y-73131722D01*
X166773056Y-73142243D01*
X166748561Y-73135634D01*
X166748489Y-73135873D01*
X166742658Y-73134103D01*
X166568694Y-73099500D01*
X166568691Y-73099500D01*
X166391309Y-73099500D01*
X166391306Y-73099500D01*
X166217341Y-73134103D01*
X166217332Y-73134106D01*
X166053459Y-73201983D01*
X166053446Y-73201990D01*
X165905965Y-73300535D01*
X165905961Y-73300538D01*
X165882181Y-73324319D01*
X165820858Y-73357804D01*
X165751166Y-73352820D01*
X165695233Y-73310948D01*
X165670816Y-73245484D01*
X165670500Y-73236638D01*
X165670500Y-72880249D01*
X165670499Y-72880247D01*
X165658868Y-72821770D01*
X165658867Y-72821769D01*
X165607767Y-72745293D01*
X165610915Y-72743189D01*
X165587801Y-72700858D01*
X165592785Y-72631166D01*
X165634657Y-72575233D01*
X165700121Y-72550816D01*
X165708967Y-72550500D01*
X165789750Y-72550500D01*
X165789751Y-72550499D01*
X165804568Y-72547552D01*
X165848229Y-72538868D01*
X165848229Y-72538867D01*
X165848231Y-72538867D01*
X165914552Y-72494552D01*
X165958867Y-72428231D01*
X165958867Y-72428229D01*
X165958868Y-72428229D01*
X165970499Y-72369752D01*
X165970500Y-72369750D01*
X165970500Y-71330249D01*
X165970499Y-71330247D01*
X165958868Y-71271770D01*
X165958867Y-71271769D01*
X165914552Y-71205447D01*
X165848230Y-71161132D01*
X165848229Y-71161131D01*
X165789752Y-71149500D01*
X165789748Y-71149500D01*
X164950252Y-71149500D01*
X164950247Y-71149500D01*
X164891770Y-71161131D01*
X164891769Y-71161132D01*
X164825447Y-71205447D01*
X164781132Y-71271769D01*
X164781131Y-71271770D01*
X164769500Y-71330247D01*
X164769500Y-72369752D01*
X164781131Y-72428229D01*
X164781132Y-72428230D01*
X164832233Y-72504707D01*
X164829084Y-72506810D01*
X164852199Y-72549142D01*
X164847215Y-72618834D01*
X164805343Y-72674767D01*
X164739879Y-72699184D01*
X164731033Y-72699500D01*
X163950249Y-72699500D01*
X163926058Y-72704311D01*
X163856467Y-72698081D01*
X163801291Y-72655217D01*
X163782794Y-72617287D01*
X163771468Y-72578302D01*
X163688193Y-72437491D01*
X163688187Y-72437483D01*
X163572512Y-72321808D01*
X163566379Y-72317051D01*
X163525471Y-72260409D01*
X163519675Y-72201188D01*
X163520500Y-72195528D01*
X163520500Y-71834472D01*
X163510645Y-71766830D01*
X163459636Y-71662489D01*
X163459634Y-71662487D01*
X163459634Y-71662486D01*
X163377513Y-71580365D01*
X163273171Y-71529355D01*
X163263506Y-71527947D01*
X163205528Y-71519500D01*
X163205522Y-71519500D01*
X163188676Y-71519500D01*
X163159235Y-71510855D01*
X163129249Y-71504332D01*
X163124233Y-71500577D01*
X163121637Y-71499815D01*
X163100995Y-71483181D01*
X163046819Y-71429005D01*
X163013334Y-71367682D01*
X163010500Y-71341324D01*
X163010500Y-70434110D01*
X163010500Y-70434108D01*
X162984725Y-70337913D01*
X162980500Y-70305820D01*
X162980500Y-70275683D01*
X162974068Y-70226828D01*
X162974068Y-70226827D01*
X162924065Y-70119596D01*
X162840404Y-70035935D01*
X162733173Y-69985932D01*
X162733171Y-69985931D01*
X162733172Y-69985931D01*
X162684317Y-69979500D01*
X162684316Y-69979500D01*
X162335684Y-69979500D01*
X162335683Y-69979500D01*
X162286828Y-69985931D01*
X162169764Y-70040520D01*
X162168372Y-70037535D01*
X162119391Y-70054042D01*
X162051628Y-70037018D01*
X162003825Y-69986060D01*
X161990500Y-69930139D01*
X161990500Y-68768676D01*
X162010185Y-68701637D01*
X162026819Y-68680995D01*
X162597012Y-68110802D01*
X163168360Y-67539453D01*
X163229681Y-67505970D01*
X163272222Y-67504197D01*
X163320099Y-67510500D01*
X163679900Y-67510499D01*
X163689534Y-67509230D01*
X163758565Y-67519994D01*
X163804038Y-67560351D01*
X163805502Y-67559217D01*
X163810283Y-67565381D01*
X163924616Y-67679714D01*
X163924625Y-67679721D01*
X164063804Y-67762031D01*
X164210000Y-67804504D01*
X164210000Y-67804503D01*
X164710000Y-67804503D01*
X164856195Y-67762031D01*
X164995374Y-67679721D01*
X164995383Y-67679714D01*
X165109714Y-67565383D01*
X165109721Y-67565374D01*
X165192031Y-67426195D01*
X165192033Y-67426190D01*
X165237144Y-67270918D01*
X165237145Y-67270912D01*
X165238790Y-67250000D01*
X164710000Y-67250000D01*
X164710000Y-67804503D01*
X164210000Y-67804503D01*
X164210000Y-66750000D01*
X164710000Y-66750000D01*
X165238790Y-66750000D01*
X165237145Y-66729089D01*
X165192031Y-66573804D01*
X165109721Y-66434625D01*
X165109714Y-66434616D01*
X165012779Y-66337681D01*
X164979294Y-66276358D01*
X164984278Y-66206666D01*
X165012779Y-66162319D01*
X165109714Y-66065383D01*
X165109721Y-66065374D01*
X165192031Y-65926195D01*
X165192033Y-65926190D01*
X165237144Y-65770918D01*
X165237145Y-65770912D01*
X165238790Y-65750000D01*
X164710000Y-65750000D01*
X164710000Y-66750000D01*
X164210000Y-66750000D01*
X164210000Y-64926433D01*
X164192834Y-64894996D01*
X164190000Y-64868638D01*
X164190000Y-64573566D01*
X164690000Y-64573566D01*
X164707166Y-64605004D01*
X164710000Y-64631362D01*
X164710000Y-65250000D01*
X165238790Y-65250000D01*
X165237145Y-65229089D01*
X165192031Y-65073804D01*
X165109721Y-64934625D01*
X165109714Y-64934616D01*
X165002779Y-64827681D01*
X164969294Y-64766358D01*
X164974278Y-64696666D01*
X165002779Y-64652319D01*
X165089714Y-64565383D01*
X165089721Y-64565374D01*
X165172031Y-64426195D01*
X165172033Y-64426190D01*
X165217144Y-64270918D01*
X165217145Y-64270912D01*
X165218790Y-64250000D01*
X164690000Y-64250000D01*
X164690000Y-64573566D01*
X164190000Y-64573566D01*
X164190000Y-63436067D01*
X164690000Y-63436067D01*
X164690000Y-63750000D01*
X165218790Y-63750000D01*
X165217145Y-63729089D01*
X165172031Y-63573804D01*
X165089721Y-63434625D01*
X165089714Y-63434616D01*
X165002779Y-63347681D01*
X164969294Y-63286358D01*
X164974278Y-63216666D01*
X165002779Y-63172319D01*
X165109714Y-63065383D01*
X165109721Y-63065374D01*
X165192031Y-62926195D01*
X165192033Y-62926190D01*
X165237144Y-62770918D01*
X165237145Y-62770912D01*
X165238790Y-62750000D01*
X164710000Y-62750000D01*
X164710000Y-63368638D01*
X164701355Y-63398078D01*
X164694832Y-63428065D01*
X164691077Y-63433080D01*
X164690315Y-63435677D01*
X164690000Y-63436067D01*
X164190000Y-63436067D01*
X164190000Y-63131362D01*
X164209685Y-63064323D01*
X164210000Y-63063932D01*
X164210000Y-62250000D01*
X164710000Y-62250000D01*
X165238790Y-62250000D01*
X165237145Y-62229089D01*
X165192031Y-62073804D01*
X165109721Y-61934625D01*
X165109714Y-61934616D01*
X165012779Y-61837681D01*
X164979294Y-61776358D01*
X164984278Y-61706666D01*
X165012779Y-61662319D01*
X165109714Y-61565383D01*
X165109721Y-61565374D01*
X165192031Y-61426195D01*
X165192033Y-61426190D01*
X165237144Y-61270918D01*
X165237145Y-61270912D01*
X165238790Y-61250000D01*
X164710000Y-61250000D01*
X164710000Y-62250000D01*
X164210000Y-62250000D01*
X164210000Y-60750000D01*
X164710000Y-60750000D01*
X165238790Y-60750000D01*
X165237145Y-60729089D01*
X165192031Y-60573804D01*
X165109721Y-60434625D01*
X165109714Y-60434616D01*
X165012779Y-60337681D01*
X164979294Y-60276358D01*
X164984278Y-60206666D01*
X165012779Y-60162319D01*
X165109714Y-60065383D01*
X165109721Y-60065374D01*
X165192031Y-59926195D01*
X165192033Y-59926190D01*
X165237144Y-59770918D01*
X165237145Y-59770912D01*
X165238790Y-59750000D01*
X164710000Y-59750000D01*
X164710000Y-60750000D01*
X164210000Y-60750000D01*
X164210000Y-58734986D01*
X164099942Y-58712750D01*
X164094911Y-58710099D01*
X164089225Y-58710083D01*
X164066666Y-58695494D01*
X164710000Y-58695494D01*
X164710000Y-59250000D01*
X165238790Y-59250000D01*
X165237145Y-59229089D01*
X165192031Y-59073804D01*
X165109721Y-58934625D01*
X165109714Y-58934616D01*
X164995383Y-58820285D01*
X164995374Y-58820278D01*
X164856193Y-58737967D01*
X164856190Y-58737965D01*
X164710001Y-58695493D01*
X164710000Y-58695494D01*
X164066666Y-58695494D01*
X164064342Y-58693991D01*
X164038129Y-58680178D01*
X164035329Y-58675228D01*
X164030555Y-58672140D01*
X164018323Y-58645152D01*
X164003738Y-58619359D01*
X164004059Y-58613681D01*
X164001712Y-58608502D01*
X164000500Y-58591206D01*
X164000500Y-51874110D01*
X164000500Y-51874108D01*
X163966392Y-51746814D01*
X163900500Y-51632686D01*
X163807314Y-51539500D01*
X162027314Y-49759500D01*
X161913186Y-49693608D01*
X161889743Y-49687326D01*
X161830084Y-49650960D01*
X161807280Y-49615008D01*
X161803867Y-49606771D01*
X161803867Y-49606769D01*
X161783235Y-49575891D01*
X161759552Y-49540447D01*
X161693230Y-49496132D01*
X161693229Y-49496131D01*
X161634752Y-49484500D01*
X161634748Y-49484500D01*
X160823676Y-49484500D01*
X160794235Y-49475855D01*
X160764249Y-49469332D01*
X160759233Y-49465577D01*
X160756637Y-49464815D01*
X160735995Y-49448181D01*
X160626819Y-49339005D01*
X160593334Y-49277682D01*
X160590500Y-49251324D01*
X160590500Y-47069432D01*
X160610185Y-47002393D01*
X160611398Y-47000541D01*
X160666461Y-46918133D01*
X160666461Y-46918132D01*
X160666465Y-46918127D01*
X160715501Y-46799744D01*
X160723682Y-46758615D01*
X160740500Y-46674071D01*
X160740500Y-46545928D01*
X160715502Y-46420261D01*
X160715501Y-46420260D01*
X160715501Y-46420256D01*
X160666465Y-46301873D01*
X160666464Y-46301872D01*
X160666461Y-46301866D01*
X160595276Y-46195331D01*
X160595273Y-46195327D01*
X160504672Y-46104726D01*
X160504668Y-46104723D01*
X160398133Y-46033538D01*
X160398124Y-46033533D01*
X160279744Y-45984499D01*
X160279738Y-45984497D01*
X160154071Y-45959500D01*
X160154069Y-45959500D01*
X160025931Y-45959500D01*
X160025929Y-45959500D01*
X159900261Y-45984497D01*
X159900255Y-45984499D01*
X159781875Y-46033533D01*
X159781866Y-46033538D01*
X159675331Y-46104723D01*
X159675327Y-46104726D01*
X159584726Y-46195327D01*
X159584723Y-46195331D01*
X159513538Y-46301866D01*
X159513533Y-46301875D01*
X159464499Y-46420255D01*
X159464497Y-46420261D01*
X159439500Y-46545928D01*
X159439500Y-46545931D01*
X159439500Y-46674069D01*
X159439500Y-46674071D01*
X159439499Y-46674071D01*
X159464497Y-46799738D01*
X159464499Y-46799744D01*
X159513533Y-46918124D01*
X159513538Y-46918133D01*
X159568602Y-47000541D01*
X159589480Y-47067218D01*
X159589500Y-47069432D01*
X159589500Y-49444108D01*
X159589500Y-49575892D01*
X159619358Y-49687326D01*
X159623609Y-49703188D01*
X159623610Y-49703191D01*
X159647886Y-49745237D01*
X159664500Y-49807238D01*
X159664500Y-50654752D01*
X159676131Y-50713229D01*
X159676132Y-50713230D01*
X159720447Y-50779552D01*
X159786769Y-50823867D01*
X159786770Y-50823868D01*
X159845247Y-50835499D01*
X159845250Y-50835500D01*
X161636324Y-50835500D01*
X161703363Y-50855185D01*
X161724005Y-50871819D01*
X162963181Y-52110995D01*
X162996666Y-52172318D01*
X162999500Y-52198676D01*
X162999500Y-62363141D01*
X162995275Y-62395233D01*
X162979500Y-62454106D01*
X162979500Y-64065891D01*
X162995275Y-64124765D01*
X162999500Y-64156858D01*
X162999500Y-66386829D01*
X162979815Y-66453868D01*
X162927011Y-66499623D01*
X162907594Y-66506604D01*
X162836555Y-66525639D01*
X162836554Y-66525638D01*
X162806815Y-66533607D01*
X162806814Y-66533607D01*
X162692686Y-66599500D01*
X162692683Y-66599502D01*
X161089502Y-68202683D01*
X161089500Y-68202686D01*
X161023608Y-68316812D01*
X160989500Y-68444108D01*
X160989500Y-73483824D01*
X160969815Y-73550863D01*
X160953181Y-73571505D01*
X160346505Y-74178181D01*
X160285182Y-74211666D01*
X160258824Y-74214500D01*
X160090749Y-74214500D01*
X159992582Y-74230047D01*
X159928566Y-74262666D01*
X159874249Y-74290342D01*
X159874248Y-74290343D01*
X159874243Y-74290346D01*
X159780346Y-74384243D01*
X159780343Y-74384248D01*
X159780342Y-74384249D01*
X159772921Y-74398814D01*
X159720047Y-74502582D01*
X159704500Y-74600748D01*
X159704500Y-75179251D01*
X159720047Y-75277417D01*
X159725882Y-75288868D01*
X159780342Y-75395751D01*
X159780344Y-75395753D01*
X159780346Y-75395756D01*
X159874243Y-75489653D01*
X159874245Y-75489654D01*
X159874249Y-75489658D01*
X159992580Y-75549951D01*
X159992581Y-75549951D01*
X159992583Y-75549952D01*
X159992582Y-75549952D01*
X160090749Y-75565500D01*
X160090754Y-75565500D01*
X160594251Y-75565500D01*
X160692417Y-75549952D01*
X160692418Y-75549951D01*
X160692420Y-75549951D01*
X160810751Y-75489658D01*
X160904658Y-75395751D01*
X160964951Y-75277420D01*
X160964951Y-75277418D01*
X160964952Y-75277417D01*
X160980500Y-75179251D01*
X160980500Y-75011176D01*
X160989144Y-74981735D01*
X160995668Y-74951749D01*
X160999422Y-74946733D01*
X161000185Y-74944137D01*
X161016819Y-74923495D01*
X161067819Y-74872495D01*
X161129142Y-74839010D01*
X161198834Y-74843994D01*
X161254767Y-74885866D01*
X161279184Y-74951330D01*
X161279500Y-74960176D01*
X161279500Y-75179251D01*
X161295047Y-75277417D01*
X161300882Y-75288868D01*
X161355342Y-75395751D01*
X161355344Y-75395753D01*
X161355346Y-75395756D01*
X161449243Y-75489653D01*
X161449245Y-75489654D01*
X161449249Y-75489658D01*
X161567580Y-75549951D01*
X161567581Y-75549951D01*
X161567583Y-75549952D01*
X161567582Y-75549952D01*
X161665749Y-75565500D01*
X161665754Y-75565500D01*
X162169251Y-75565500D01*
X162267417Y-75549952D01*
X162267418Y-75549951D01*
X162267420Y-75549951D01*
X162385751Y-75489658D01*
X162448591Y-75426817D01*
X162509912Y-75393334D01*
X162536271Y-75390500D01*
X164645890Y-75390500D01*
X164645892Y-75390500D01*
X164773186Y-75356392D01*
X164841219Y-75317112D01*
X164903219Y-75300500D01*
X165489750Y-75300500D01*
X165489751Y-75300499D01*
X165504568Y-75297552D01*
X165548229Y-75288868D01*
X165548229Y-75288867D01*
X165548231Y-75288867D01*
X165614552Y-75244552D01*
X165658867Y-75178231D01*
X165658867Y-75178229D01*
X165658868Y-75178229D01*
X165670499Y-75119752D01*
X165670500Y-75119750D01*
X165670500Y-74763362D01*
X165690185Y-74696323D01*
X165742989Y-74650568D01*
X165812147Y-74640624D01*
X165875703Y-74669649D01*
X165882181Y-74675681D01*
X165905961Y-74699461D01*
X165905965Y-74699464D01*
X166053446Y-74798009D01*
X166053459Y-74798016D01*
X166164462Y-74843994D01*
X166217334Y-74865894D01*
X166217336Y-74865894D01*
X166217341Y-74865896D01*
X166391304Y-74900499D01*
X166391307Y-74900500D01*
X166391309Y-74900500D01*
X166568693Y-74900500D01*
X166568694Y-74900499D01*
X166656056Y-74883122D01*
X166742658Y-74865896D01*
X166742661Y-74865894D01*
X166742666Y-74865894D01*
X166758542Y-74859317D01*
X166828010Y-74851848D01*
X166890490Y-74883122D01*
X166926143Y-74943210D01*
X166929991Y-74972843D01*
X166938807Y-76028738D01*
X166919683Y-76095939D01*
X166867262Y-76142133D01*
X166798189Y-76152654D01*
X166767365Y-76144336D01*
X166742666Y-76134106D01*
X166742659Y-76134104D01*
X166742658Y-76134104D01*
X166742658Y-76134103D01*
X166568694Y-76099500D01*
X166568691Y-76099500D01*
X166391309Y-76099500D01*
X166391306Y-76099500D01*
X166217341Y-76134103D01*
X166217332Y-76134106D01*
X166053459Y-76201983D01*
X166053446Y-76201990D01*
X165905965Y-76300535D01*
X165905961Y-76300538D01*
X165780538Y-76425961D01*
X165780535Y-76425965D01*
X165681990Y-76573446D01*
X165681983Y-76573459D01*
X165614106Y-76737332D01*
X165614103Y-76737341D01*
X165579500Y-76911304D01*
X165579500Y-77075500D01*
X165559815Y-77142539D01*
X165507011Y-77188294D01*
X165455500Y-77199500D01*
X163950247Y-77199500D01*
X163891770Y-77211131D01*
X163891769Y-77211132D01*
X163825447Y-77255447D01*
X163781132Y-77321769D01*
X163781131Y-77321770D01*
X163769500Y-77380247D01*
X163769500Y-77941324D01*
X163749815Y-78008363D01*
X163733181Y-78029005D01*
X163519502Y-78242683D01*
X163519500Y-78242686D01*
X163453608Y-78356812D01*
X163419500Y-78484108D01*
X163419500Y-84406000D01*
X163399815Y-84473039D01*
X163347011Y-84518794D01*
X163277853Y-84528738D01*
X163222617Y-84506320D01*
X163207556Y-84495378D01*
X163018215Y-84398903D01*
X162816124Y-84333241D01*
X162750000Y-84322768D01*
X162750000Y-85366988D01*
X162692993Y-85334075D01*
X162565826Y-85300000D01*
X162434174Y-85300000D01*
X162307007Y-85334075D01*
X162250000Y-85366988D01*
X162250000Y-84322768D01*
X162249999Y-84322768D01*
X162183875Y-84333241D01*
X161981784Y-84398903D01*
X161792442Y-84495379D01*
X161620540Y-84620272D01*
X161620535Y-84620276D01*
X161470276Y-84770535D01*
X161470272Y-84770540D01*
X161345379Y-84942442D01*
X161248904Y-85131782D01*
X161183242Y-85333869D01*
X161183242Y-85333872D01*
X161150000Y-85543753D01*
X161150000Y-85550000D01*
X162066988Y-85550000D01*
X162034075Y-85607007D01*
X162000000Y-85734174D01*
X162000000Y-85865826D01*
X162034075Y-85992993D01*
X162066988Y-86050000D01*
X161150000Y-86050000D01*
X161150000Y-86056246D01*
X161183242Y-86266127D01*
X161183242Y-86266130D01*
X161248904Y-86468217D01*
X161345379Y-86657557D01*
X161470272Y-86829459D01*
X161470276Y-86829464D01*
X161620535Y-86979723D01*
X161620540Y-86979727D01*
X161792442Y-87104620D01*
X161981782Y-87201095D01*
X162183871Y-87266757D01*
X162250000Y-87277231D01*
X162250000Y-86233012D01*
X162307007Y-86265925D01*
X162434174Y-86300000D01*
X162565826Y-86300000D01*
X162692993Y-86265925D01*
X162750000Y-86233012D01*
X162750000Y-87277230D01*
X162816126Y-87266757D01*
X162816129Y-87266757D01*
X163018217Y-87201095D01*
X163207557Y-87104620D01*
X163379459Y-86979727D01*
X163379464Y-86979723D01*
X163529723Y-86829464D01*
X163529727Y-86829459D01*
X163654620Y-86657557D01*
X163715015Y-86539028D01*
X163762990Y-86488232D01*
X163830811Y-86471437D01*
X163896946Y-86493974D01*
X163940397Y-86548690D01*
X163949500Y-86595323D01*
X163949500Y-86604269D01*
X163952353Y-86634699D01*
X163952353Y-86634701D01*
X163992699Y-86750000D01*
X163997207Y-86762882D01*
X164077850Y-86872150D01*
X164187118Y-86952793D01*
X164224647Y-86965925D01*
X164315299Y-86997646D01*
X164345730Y-87000500D01*
X164345734Y-87000500D01*
X165654270Y-87000500D01*
X165684699Y-86997646D01*
X165684701Y-86997646D01*
X165748790Y-86975219D01*
X165812882Y-86952793D01*
X165922150Y-86872150D01*
X166002793Y-86762882D01*
X166039648Y-86657557D01*
X166047646Y-86634701D01*
X166047646Y-86634699D01*
X166050500Y-86604269D01*
X166050500Y-84995730D01*
X166047646Y-84965300D01*
X166047646Y-84965298D01*
X166002793Y-84837119D01*
X166002792Y-84837117D01*
X165922150Y-84727850D01*
X165812882Y-84647207D01*
X165812880Y-84647206D01*
X165684700Y-84602353D01*
X165654270Y-84599500D01*
X165654266Y-84599500D01*
X164558676Y-84599500D01*
X164529235Y-84590855D01*
X164499249Y-84584332D01*
X164494233Y-84580577D01*
X164491637Y-84579815D01*
X164470995Y-84563181D01*
X164456819Y-84549005D01*
X164423334Y-84487682D01*
X164420500Y-84461324D01*
X164420500Y-78808676D01*
X164440185Y-78741637D01*
X164456819Y-78720995D01*
X164557819Y-78619995D01*
X164619142Y-78586510D01*
X164688834Y-78591494D01*
X164744767Y-78633366D01*
X164769184Y-78698830D01*
X164769500Y-78707676D01*
X164769500Y-79669752D01*
X164781131Y-79728229D01*
X164781132Y-79728230D01*
X164825447Y-79794552D01*
X164891769Y-79838867D01*
X164891770Y-79838868D01*
X164950247Y-79850499D01*
X164950250Y-79850500D01*
X164950252Y-79850500D01*
X165789750Y-79850500D01*
X165789751Y-79850499D01*
X165804568Y-79847552D01*
X165848229Y-79838868D01*
X165848229Y-79838867D01*
X165848231Y-79838867D01*
X165914552Y-79794552D01*
X165958867Y-79728231D01*
X165958867Y-79728229D01*
X165958868Y-79728229D01*
X165970499Y-79669752D01*
X165970500Y-79669750D01*
X165970500Y-78630249D01*
X165970499Y-78630247D01*
X165958868Y-78571770D01*
X165958867Y-78571769D01*
X165914552Y-78505447D01*
X165848230Y-78461132D01*
X165848229Y-78461131D01*
X165789752Y-78449500D01*
X165789748Y-78449500D01*
X165708967Y-78449500D01*
X165641928Y-78429815D01*
X165596173Y-78377011D01*
X165586229Y-78307853D01*
X165609860Y-78256106D01*
X165607767Y-78254707D01*
X165628735Y-78223324D01*
X165658867Y-78178231D01*
X165658867Y-78178229D01*
X165658868Y-78178229D01*
X165670499Y-78119752D01*
X165670500Y-78119750D01*
X165670500Y-77763362D01*
X165690185Y-77696323D01*
X165742989Y-77650568D01*
X165812147Y-77640624D01*
X165875703Y-77669649D01*
X165882181Y-77675681D01*
X165905961Y-77699461D01*
X165905965Y-77699464D01*
X166053446Y-77798009D01*
X166053459Y-77798016D01*
X166128275Y-77829005D01*
X166217334Y-77865894D01*
X166217336Y-77865894D01*
X166217341Y-77865896D01*
X166391304Y-77900499D01*
X166391307Y-77900500D01*
X166391309Y-77900500D01*
X166568693Y-77900500D01*
X166568694Y-77900499D01*
X166626682Y-77888964D01*
X166742658Y-77865896D01*
X166742660Y-77865895D01*
X166742666Y-77865894D01*
X166783506Y-77848977D01*
X166852972Y-77841509D01*
X166915452Y-77872784D01*
X166951104Y-77932873D01*
X166954952Y-77962504D01*
X167060060Y-90551853D01*
X167040935Y-90619054D01*
X166988515Y-90665248D01*
X166919442Y-90675769D01*
X166855646Y-90647276D01*
X166848383Y-90640569D01*
X166786705Y-90578891D01*
X166786703Y-90578889D01*
X166632924Y-90467162D01*
X166463560Y-90380867D01*
X166282782Y-90322128D01*
X166282780Y-90322127D01*
X166282778Y-90322127D01*
X166095046Y-90292393D01*
X166095041Y-90292393D01*
X165904959Y-90292393D01*
X165904954Y-90292393D01*
X165717221Y-90322127D01*
X165536437Y-90380868D01*
X165367075Y-90467162D01*
X165279339Y-90530906D01*
X165213297Y-90578889D01*
X165213295Y-90578891D01*
X165213294Y-90578891D01*
X165078891Y-90713294D01*
X165078891Y-90713295D01*
X165078889Y-90713297D01*
X165030906Y-90779339D01*
X164967162Y-90867075D01*
X164880868Y-91036437D01*
X164822127Y-91217221D01*
X164792393Y-91404953D01*
X164792393Y-91595046D01*
X164804548Y-91671787D01*
X164822128Y-91782782D01*
X164880867Y-91963560D01*
X164967162Y-92132924D01*
X165078889Y-92286703D01*
X165213297Y-92421111D01*
X165367076Y-92532838D01*
X165536440Y-92619133D01*
X165717218Y-92677872D01*
X165773364Y-92686764D01*
X165854198Y-92699568D01*
X165917333Y-92729497D01*
X165954264Y-92788809D01*
X165953266Y-92858671D01*
X165914656Y-92916904D01*
X165850692Y-92945018D01*
X165835402Y-92946040D01*
X132174134Y-93109397D01*
X132107000Y-93090038D01*
X132060989Y-93037456D01*
X132049533Y-92985866D01*
X132048813Y-92794287D01*
X132068245Y-92727177D01*
X132120877Y-92681224D01*
X132189998Y-92671021D01*
X132211129Y-92675893D01*
X132217218Y-92677872D01*
X132270858Y-92686367D01*
X132404954Y-92707607D01*
X132404959Y-92707607D01*
X132595046Y-92707607D01*
X132699341Y-92691087D01*
X132782782Y-92677872D01*
X132963560Y-92619133D01*
X133132924Y-92532838D01*
X133286703Y-92421111D01*
X133421111Y-92286703D01*
X133532838Y-92132924D01*
X133619133Y-91963560D01*
X133677872Y-91782782D01*
X133695452Y-91671787D01*
X133707607Y-91595046D01*
X133707607Y-91404953D01*
X133677872Y-91217221D01*
X133677872Y-91217218D01*
X133619133Y-91036440D01*
X133532838Y-90867076D01*
X133421111Y-90713297D01*
X133286703Y-90578889D01*
X133132924Y-90467162D01*
X132963560Y-90380867D01*
X132782782Y-90322128D01*
X132782780Y-90322127D01*
X132782778Y-90322127D01*
X132595046Y-90292393D01*
X132595041Y-90292393D01*
X132404959Y-90292393D01*
X132404954Y-90292393D01*
X132217216Y-90322128D01*
X132217208Y-90322130D01*
X132201415Y-90327261D01*
X132131574Y-90329254D01*
X132071742Y-90293172D01*
X132040916Y-90230470D01*
X132039103Y-90209807D01*
X132024202Y-86243753D01*
X133400000Y-86243753D01*
X133400000Y-86250000D01*
X134316988Y-86250000D01*
X134284075Y-86307007D01*
X134250000Y-86434174D01*
X134250000Y-86565826D01*
X134284075Y-86692993D01*
X134316988Y-86750000D01*
X133400000Y-86750000D01*
X133400000Y-86756246D01*
X133433242Y-86966127D01*
X133433242Y-86966130D01*
X133498904Y-87168217D01*
X133595379Y-87357557D01*
X133720272Y-87529459D01*
X133720276Y-87529464D01*
X133870535Y-87679723D01*
X133870540Y-87679727D01*
X134042442Y-87804620D01*
X134231782Y-87901095D01*
X134433871Y-87966757D01*
X134500000Y-87977231D01*
X134500000Y-86933012D01*
X134557007Y-86965925D01*
X134684174Y-87000000D01*
X134815826Y-87000000D01*
X134942993Y-86965925D01*
X135000000Y-86933012D01*
X135000000Y-87977230D01*
X135066126Y-87966757D01*
X135066129Y-87966757D01*
X135268217Y-87901095D01*
X135457557Y-87804620D01*
X135629459Y-87679727D01*
X135629464Y-87679723D01*
X135779723Y-87529464D01*
X135779727Y-87529459D01*
X135904620Y-87357557D01*
X135965015Y-87239028D01*
X136012990Y-87188232D01*
X136080811Y-87171437D01*
X136146946Y-87193974D01*
X136190397Y-87248690D01*
X136199500Y-87295323D01*
X136199500Y-87304269D01*
X136202353Y-87334699D01*
X136202353Y-87334701D01*
X136247206Y-87462880D01*
X136247207Y-87462882D01*
X136327850Y-87572150D01*
X136437118Y-87652793D01*
X136479845Y-87667744D01*
X136565299Y-87697646D01*
X136595730Y-87700500D01*
X136595734Y-87700500D01*
X137904270Y-87700500D01*
X137934699Y-87697646D01*
X137934701Y-87697646D01*
X137998790Y-87675219D01*
X138062882Y-87652793D01*
X138172150Y-87572150D01*
X138252793Y-87462882D01*
X138289648Y-87357557D01*
X138297646Y-87334701D01*
X138297646Y-87334699D01*
X138300500Y-87304269D01*
X138300500Y-85695730D01*
X138297646Y-85665300D01*
X138297646Y-85665298D01*
X138277786Y-85608543D01*
X141389499Y-85608543D01*
X141427947Y-85801829D01*
X141427950Y-85801839D01*
X141503364Y-85983907D01*
X141503371Y-85983920D01*
X141612860Y-86147781D01*
X141612863Y-86147785D01*
X141752214Y-86287136D01*
X141752218Y-86287139D01*
X141916079Y-86396628D01*
X141916092Y-86396635D01*
X142098160Y-86472049D01*
X142098165Y-86472051D01*
X142098169Y-86472051D01*
X142098170Y-86472052D01*
X142291456Y-86510500D01*
X142291459Y-86510500D01*
X142488543Y-86510500D01*
X142618582Y-86484632D01*
X142681835Y-86472051D01*
X142863914Y-86396632D01*
X143027782Y-86287139D01*
X143167139Y-86147782D01*
X143276632Y-85983914D01*
X143352051Y-85801835D01*
X143390500Y-85608543D01*
X156629499Y-85608543D01*
X156667947Y-85801829D01*
X156667950Y-85801839D01*
X156743364Y-85983907D01*
X156743371Y-85983920D01*
X156852860Y-86147781D01*
X156852863Y-86147785D01*
X156992214Y-86287136D01*
X156992218Y-86287139D01*
X157156079Y-86396628D01*
X157156092Y-86396635D01*
X157338160Y-86472049D01*
X157338165Y-86472051D01*
X157338169Y-86472051D01*
X157338170Y-86472052D01*
X157531456Y-86510500D01*
X157531459Y-86510500D01*
X157728543Y-86510500D01*
X157858582Y-86484632D01*
X157921835Y-86472051D01*
X158103914Y-86396632D01*
X158267782Y-86287139D01*
X158407139Y-86147782D01*
X158516632Y-85983914D01*
X158592051Y-85801835D01*
X158630500Y-85608541D01*
X158630500Y-85411459D01*
X158630500Y-85411456D01*
X158592052Y-85218170D01*
X158592051Y-85218169D01*
X158592051Y-85218165D01*
X158582613Y-85195379D01*
X158516635Y-85036092D01*
X158516628Y-85036079D01*
X158407139Y-84872218D01*
X158407136Y-84872214D01*
X158267785Y-84732863D01*
X158267781Y-84732860D01*
X158103920Y-84623371D01*
X158103907Y-84623364D01*
X157921839Y-84547950D01*
X157921829Y-84547947D01*
X157728543Y-84509500D01*
X157728541Y-84509500D01*
X157531459Y-84509500D01*
X157531457Y-84509500D01*
X157338170Y-84547947D01*
X157338160Y-84547950D01*
X157156092Y-84623364D01*
X157156079Y-84623371D01*
X156992218Y-84732860D01*
X156992214Y-84732863D01*
X156852863Y-84872214D01*
X156852860Y-84872218D01*
X156743371Y-85036079D01*
X156743364Y-85036092D01*
X156667950Y-85218160D01*
X156667947Y-85218170D01*
X156629500Y-85411456D01*
X156629500Y-85411459D01*
X156629500Y-85608541D01*
X156629500Y-85608543D01*
X156629499Y-85608543D01*
X143390500Y-85608543D01*
X143390500Y-85608541D01*
X143390500Y-85411459D01*
X143390500Y-85411456D01*
X143352052Y-85218170D01*
X143352051Y-85218169D01*
X143352051Y-85218165D01*
X143342613Y-85195379D01*
X143276635Y-85036092D01*
X143276628Y-85036079D01*
X143167139Y-84872218D01*
X143167136Y-84872214D01*
X143027785Y-84732863D01*
X143027781Y-84732860D01*
X142863920Y-84623371D01*
X142863907Y-84623364D01*
X142681839Y-84547950D01*
X142681829Y-84547947D01*
X142488543Y-84509500D01*
X142488541Y-84509500D01*
X142291459Y-84509500D01*
X142291457Y-84509500D01*
X142098170Y-84547947D01*
X142098160Y-84547950D01*
X141916092Y-84623364D01*
X141916079Y-84623371D01*
X141752218Y-84732860D01*
X141752214Y-84732863D01*
X141612863Y-84872214D01*
X141612860Y-84872218D01*
X141503371Y-85036079D01*
X141503364Y-85036092D01*
X141427950Y-85218160D01*
X141427947Y-85218170D01*
X141389500Y-85411456D01*
X141389500Y-85411459D01*
X141389500Y-85608541D01*
X141389500Y-85608543D01*
X141389499Y-85608543D01*
X138277786Y-85608543D01*
X138264006Y-85569163D01*
X138252793Y-85537118D01*
X138172150Y-85427850D01*
X138062882Y-85347207D01*
X138062880Y-85347206D01*
X137934700Y-85302353D01*
X137904270Y-85299500D01*
X137904266Y-85299500D01*
X136595734Y-85299500D01*
X136595730Y-85299500D01*
X136565300Y-85302353D01*
X136565298Y-85302353D01*
X136437119Y-85347206D01*
X136437117Y-85347207D01*
X136327850Y-85427850D01*
X136247207Y-85537117D01*
X136247206Y-85537119D01*
X136202353Y-85665298D01*
X136202353Y-85665300D01*
X136199500Y-85695730D01*
X136199500Y-85704676D01*
X136179815Y-85771715D01*
X136127011Y-85817470D01*
X136057853Y-85827414D01*
X135994297Y-85798389D01*
X135965015Y-85760971D01*
X135904620Y-85642442D01*
X135779727Y-85470540D01*
X135779723Y-85470535D01*
X135629464Y-85320276D01*
X135629459Y-85320272D01*
X135457557Y-85195379D01*
X135268215Y-85098903D01*
X135066124Y-85033241D01*
X135000000Y-85022768D01*
X135000000Y-86066988D01*
X134942993Y-86034075D01*
X134815826Y-86000000D01*
X134684174Y-86000000D01*
X134557007Y-86034075D01*
X134500000Y-86066988D01*
X134500000Y-85022768D01*
X134499999Y-85022768D01*
X134433875Y-85033241D01*
X134231784Y-85098903D01*
X134042442Y-85195379D01*
X133870540Y-85320272D01*
X133870535Y-85320276D01*
X133720276Y-85470535D01*
X133720272Y-85470540D01*
X133595379Y-85642442D01*
X133498904Y-85831782D01*
X133433242Y-86033869D01*
X133433242Y-86033872D01*
X133400000Y-86243753D01*
X132024202Y-86243753D01*
X132012273Y-83068543D01*
X141389499Y-83068543D01*
X141427947Y-83261829D01*
X141427950Y-83261839D01*
X141503364Y-83443907D01*
X141503371Y-83443920D01*
X141612860Y-83607781D01*
X141612863Y-83607785D01*
X141752214Y-83747136D01*
X141752218Y-83747139D01*
X141916079Y-83856628D01*
X141916092Y-83856635D01*
X142098160Y-83932049D01*
X142098165Y-83932051D01*
X142098169Y-83932051D01*
X142098170Y-83932052D01*
X142291456Y-83970500D01*
X142291459Y-83970500D01*
X142488543Y-83970500D01*
X142618582Y-83944632D01*
X142681835Y-83932051D01*
X142863914Y-83856632D01*
X143027782Y-83747139D01*
X143167139Y-83607782D01*
X143276632Y-83443914D01*
X143352051Y-83261835D01*
X143390500Y-83068543D01*
X156629499Y-83068543D01*
X156667947Y-83261829D01*
X156667950Y-83261839D01*
X156743364Y-83443907D01*
X156743371Y-83443920D01*
X156852860Y-83607781D01*
X156852863Y-83607785D01*
X156992214Y-83747136D01*
X156992218Y-83747139D01*
X157156079Y-83856628D01*
X157156092Y-83856635D01*
X157338160Y-83932049D01*
X157338165Y-83932051D01*
X157338169Y-83932051D01*
X157338170Y-83932052D01*
X157531456Y-83970500D01*
X157531459Y-83970500D01*
X157728543Y-83970500D01*
X157858582Y-83944632D01*
X157921835Y-83932051D01*
X158103914Y-83856632D01*
X158267782Y-83747139D01*
X158407139Y-83607782D01*
X158516632Y-83443914D01*
X158592051Y-83261835D01*
X158630500Y-83068541D01*
X158630500Y-82871459D01*
X158630500Y-82871456D01*
X158592052Y-82678170D01*
X158592051Y-82678169D01*
X158592051Y-82678165D01*
X158592049Y-82678160D01*
X158516635Y-82496092D01*
X158516628Y-82496079D01*
X158407139Y-82332218D01*
X158407136Y-82332214D01*
X158267785Y-82192863D01*
X158267781Y-82192860D01*
X158103920Y-82083371D01*
X158103907Y-82083364D01*
X157921839Y-82007950D01*
X157921829Y-82007947D01*
X157728543Y-81969500D01*
X157728541Y-81969500D01*
X157531459Y-81969500D01*
X157531457Y-81969500D01*
X157338170Y-82007947D01*
X157338160Y-82007950D01*
X157156092Y-82083364D01*
X157156079Y-82083371D01*
X156992218Y-82192860D01*
X156992214Y-82192863D01*
X156852863Y-82332214D01*
X156852860Y-82332218D01*
X156743371Y-82496079D01*
X156743364Y-82496092D01*
X156667950Y-82678160D01*
X156667947Y-82678170D01*
X156629500Y-82871456D01*
X156629500Y-82871459D01*
X156629500Y-83068541D01*
X156629500Y-83068543D01*
X156629499Y-83068543D01*
X143390500Y-83068543D01*
X143390500Y-83068541D01*
X143390500Y-82871459D01*
X143390500Y-82871456D01*
X143352052Y-82678170D01*
X143352051Y-82678169D01*
X143352051Y-82678165D01*
X143352049Y-82678160D01*
X143276635Y-82496092D01*
X143276628Y-82496079D01*
X143167139Y-82332218D01*
X143167136Y-82332214D01*
X143027785Y-82192863D01*
X143027781Y-82192860D01*
X142863920Y-82083371D01*
X142863907Y-82083364D01*
X142681839Y-82007950D01*
X142681829Y-82007947D01*
X142488543Y-81969500D01*
X142488541Y-81969500D01*
X142291459Y-81969500D01*
X142291457Y-81969500D01*
X142098170Y-82007947D01*
X142098160Y-82007950D01*
X141916092Y-82083364D01*
X141916079Y-82083371D01*
X141752218Y-82192860D01*
X141752214Y-82192863D01*
X141612863Y-82332214D01*
X141612860Y-82332218D01*
X141503371Y-82496079D01*
X141503364Y-82496092D01*
X141427950Y-82678160D01*
X141427947Y-82678170D01*
X141389500Y-82871456D01*
X141389500Y-82871459D01*
X141389500Y-83068541D01*
X141389500Y-83068543D01*
X141389499Y-83068543D01*
X132012273Y-83068543D01*
X132001721Y-80260000D01*
X132977506Y-80260000D01*
X133017945Y-80399194D01*
X133099611Y-80537285D01*
X133099618Y-80537294D01*
X133213055Y-80650731D01*
X133213064Y-80650738D01*
X133351158Y-80732406D01*
X133351161Y-80732407D01*
X133505221Y-80777166D01*
X133505227Y-80777167D01*
X133540350Y-80779931D01*
X133540350Y-80260000D01*
X132977506Y-80260000D01*
X132001721Y-80260000D01*
X131988471Y-76733171D01*
X131983932Y-75524966D01*
X132003364Y-75457853D01*
X132055996Y-75411900D01*
X132107931Y-75400500D01*
X132404270Y-75400500D01*
X132434699Y-75397646D01*
X132434701Y-75397646D01*
X132507971Y-75372007D01*
X132562882Y-75352793D01*
X132672150Y-75272150D01*
X132752793Y-75162882D01*
X132783217Y-75075935D01*
X132797646Y-75034701D01*
X132797646Y-75034699D01*
X132800500Y-75004269D01*
X132800500Y-73995730D01*
X132797646Y-73965300D01*
X132797646Y-73965298D01*
X132752793Y-73837119D01*
X132752790Y-73837113D01*
X132685123Y-73745427D01*
X132661152Y-73679798D01*
X132676468Y-73611628D01*
X132724878Y-73563871D01*
X132724746Y-73563641D01*
X132725628Y-73563131D01*
X132726208Y-73562560D01*
X132728499Y-73561473D01*
X132731782Y-73559577D01*
X132731784Y-73559577D01*
X132868716Y-73480520D01*
X132980520Y-73368716D01*
X133059577Y-73231784D01*
X133100500Y-73079057D01*
X133100500Y-72920943D01*
X133059577Y-72768216D01*
X133026807Y-72711456D01*
X133025829Y-72709762D01*
X133009356Y-72641861D01*
X133032209Y-72575834D01*
X133087130Y-72532644D01*
X133156684Y-72526003D01*
X133218786Y-72558019D01*
X133220897Y-72560081D01*
X134048635Y-73387819D01*
X134082120Y-73449142D01*
X134077136Y-73518834D01*
X134035264Y-73574767D01*
X133969800Y-73599184D01*
X133960954Y-73599500D01*
X133595730Y-73599500D01*
X133565300Y-73602353D01*
X133565298Y-73602353D01*
X133437119Y-73647206D01*
X133437117Y-73647207D01*
X133327850Y-73727850D01*
X133247207Y-73837117D01*
X133247206Y-73837119D01*
X133202353Y-73965298D01*
X133202353Y-73965300D01*
X133199500Y-73995730D01*
X133199500Y-75004269D01*
X133202353Y-75034699D01*
X133202353Y-75034701D01*
X133246057Y-75159596D01*
X133247207Y-75162882D01*
X133327850Y-75272150D01*
X133437118Y-75352793D01*
X133479845Y-75367744D01*
X133565299Y-75397646D01*
X133595730Y-75400500D01*
X133595734Y-75400500D01*
X134229270Y-75400500D01*
X134259699Y-75397646D01*
X134259701Y-75397646D01*
X134332971Y-75372007D01*
X134387882Y-75352793D01*
X134423844Y-75326252D01*
X134449948Y-75306987D01*
X134482338Y-75295156D01*
X134514735Y-75283073D01*
X134515164Y-75283166D01*
X134515577Y-75283016D01*
X134549236Y-75290578D01*
X134583008Y-75297925D01*
X134583467Y-75298269D01*
X134583747Y-75298332D01*
X134611262Y-75319076D01*
X134763181Y-75470995D01*
X134796666Y-75532318D01*
X134799500Y-75558676D01*
X134799500Y-76896081D01*
X134779815Y-76963120D01*
X134727011Y-77008875D01*
X134722957Y-77010640D01*
X134721774Y-77011129D01*
X134705781Y-77021815D01*
X134695624Y-77028602D01*
X134628948Y-77049480D01*
X134626734Y-77049500D01*
X134384108Y-77049500D01*
X134256812Y-77083608D01*
X134142686Y-77149500D01*
X134142683Y-77149502D01*
X133389852Y-77902333D01*
X133389850Y-77902336D01*
X133323958Y-78016462D01*
X133289850Y-78143758D01*
X133289850Y-78710240D01*
X133278232Y-78762646D01*
X133276282Y-78766826D01*
X133276281Y-78766830D01*
X133269850Y-78815683D01*
X133269850Y-79164316D01*
X133276281Y-79213173D01*
X133278855Y-79222003D01*
X133278713Y-79291873D01*
X133240819Y-79350574D01*
X133222932Y-79363426D01*
X133213058Y-79369265D01*
X133213058Y-79369266D01*
X133099618Y-79482705D01*
X133099611Y-79482714D01*
X133017945Y-79620805D01*
X132977506Y-79760000D01*
X133666350Y-79760000D01*
X133733389Y-79779685D01*
X133779144Y-79832489D01*
X133790350Y-79884000D01*
X133790350Y-80010000D01*
X133916350Y-80010000D01*
X133983389Y-80029685D01*
X134029144Y-80082489D01*
X134040350Y-80134000D01*
X134040350Y-80779930D01*
X134075472Y-80777167D01*
X134075478Y-80777166D01*
X134229538Y-80732407D01*
X134229541Y-80732406D01*
X134367635Y-80650738D01*
X134367644Y-80650731D01*
X134481081Y-80537294D01*
X134481088Y-80537285D01*
X134486258Y-80528543D01*
X141389499Y-80528543D01*
X141427947Y-80721829D01*
X141427950Y-80721839D01*
X141503364Y-80903907D01*
X141503371Y-80903920D01*
X141612860Y-81067781D01*
X141612863Y-81067785D01*
X141752214Y-81207136D01*
X141752218Y-81207139D01*
X141916079Y-81316628D01*
X141916092Y-81316635D01*
X142098160Y-81392049D01*
X142098165Y-81392051D01*
X142098169Y-81392051D01*
X142098170Y-81392052D01*
X142291456Y-81430500D01*
X142291459Y-81430500D01*
X142488543Y-81430500D01*
X142618582Y-81404632D01*
X142681835Y-81392051D01*
X142863914Y-81316632D01*
X143027782Y-81207139D01*
X143167139Y-81067782D01*
X143276632Y-80903914D01*
X143352051Y-80721835D01*
X143390500Y-80528543D01*
X156629499Y-80528543D01*
X156667947Y-80721829D01*
X156667950Y-80721839D01*
X156743364Y-80903907D01*
X156743371Y-80903920D01*
X156852860Y-81067781D01*
X156852863Y-81067785D01*
X156992214Y-81207136D01*
X156992218Y-81207139D01*
X157156079Y-81316628D01*
X157156092Y-81316635D01*
X157338160Y-81392049D01*
X157338165Y-81392051D01*
X157338169Y-81392051D01*
X157338170Y-81392052D01*
X157531456Y-81430500D01*
X157531459Y-81430500D01*
X157728543Y-81430500D01*
X157858582Y-81404632D01*
X157921835Y-81392051D01*
X158103914Y-81316632D01*
X158267782Y-81207139D01*
X158407139Y-81067782D01*
X158516632Y-80903914D01*
X158592051Y-80721835D01*
X158630500Y-80528541D01*
X158630500Y-80331459D01*
X158630500Y-80331456D01*
X158592052Y-80138170D01*
X158592051Y-80138169D01*
X158592051Y-80138165D01*
X158590326Y-80134000D01*
X158516635Y-79956092D01*
X158516628Y-79956079D01*
X158407139Y-79792218D01*
X158407136Y-79792214D01*
X158267785Y-79652863D01*
X158267781Y-79652860D01*
X158103920Y-79543371D01*
X158103907Y-79543364D01*
X157921839Y-79467950D01*
X157921829Y-79467947D01*
X157728543Y-79429500D01*
X157728541Y-79429500D01*
X157531459Y-79429500D01*
X157531457Y-79429500D01*
X157338170Y-79467947D01*
X157338160Y-79467950D01*
X157156092Y-79543364D01*
X157156079Y-79543371D01*
X156992218Y-79652860D01*
X156992214Y-79652863D01*
X156852863Y-79792214D01*
X156852860Y-79792218D01*
X156743371Y-79956079D01*
X156743364Y-79956092D01*
X156667950Y-80138160D01*
X156667947Y-80138170D01*
X156629500Y-80331456D01*
X156629500Y-80331459D01*
X156629500Y-80528541D01*
X156629500Y-80528543D01*
X156629499Y-80528543D01*
X143390500Y-80528543D01*
X143390500Y-80528541D01*
X143390500Y-80331459D01*
X143390500Y-80331456D01*
X143352052Y-80138170D01*
X143352051Y-80138169D01*
X143352051Y-80138165D01*
X143350326Y-80134000D01*
X143276635Y-79956092D01*
X143276628Y-79956079D01*
X143167139Y-79792218D01*
X143167136Y-79792214D01*
X143027785Y-79652863D01*
X143027781Y-79652860D01*
X142863920Y-79543371D01*
X142863907Y-79543364D01*
X142681839Y-79467950D01*
X142681829Y-79467947D01*
X142488543Y-79429500D01*
X142488541Y-79429500D01*
X142291459Y-79429500D01*
X142291457Y-79429500D01*
X142098170Y-79467947D01*
X142098160Y-79467950D01*
X141916092Y-79543364D01*
X141916079Y-79543371D01*
X141752218Y-79652860D01*
X141752214Y-79652863D01*
X141612863Y-79792214D01*
X141612860Y-79792218D01*
X141503371Y-79956079D01*
X141503364Y-79956092D01*
X141427950Y-80138160D01*
X141427947Y-80138170D01*
X141389500Y-80331456D01*
X141389500Y-80331459D01*
X141389500Y-80528541D01*
X141389500Y-80528543D01*
X141389499Y-80528543D01*
X134486258Y-80528543D01*
X134562755Y-80399193D01*
X134567442Y-80383062D01*
X134605049Y-80324176D01*
X134668521Y-80294969D01*
X134699775Y-80294367D01*
X134752155Y-80299999D01*
X134752172Y-80300000D01*
X135050000Y-80300000D01*
X135550000Y-80300000D01*
X135847828Y-80300000D01*
X135847844Y-80299999D01*
X135907372Y-80293598D01*
X135907379Y-80293596D01*
X136042086Y-80243354D01*
X136042088Y-80243352D01*
X136065136Y-80226100D01*
X136065136Y-80226099D01*
X136157190Y-80157187D01*
X136243350Y-80042093D01*
X136243354Y-80042086D01*
X136293596Y-79907379D01*
X136293598Y-79907372D01*
X136299999Y-79847844D01*
X136300000Y-79847827D01*
X136300000Y-79700000D01*
X135550000Y-79700000D01*
X135550000Y-80300000D01*
X135050000Y-80300000D01*
X135050000Y-79200000D01*
X135550000Y-79200000D01*
X136300000Y-79200000D01*
X136300000Y-79052172D01*
X136299999Y-79052155D01*
X136293598Y-78992627D01*
X136293596Y-78992620D01*
X136243354Y-78857913D01*
X136243350Y-78857906D01*
X136157190Y-78742812D01*
X136157187Y-78742809D01*
X136042093Y-78656649D01*
X136042086Y-78656645D01*
X135907379Y-78606403D01*
X135907372Y-78606401D01*
X135847844Y-78600000D01*
X135550000Y-78600000D01*
X135550000Y-79200000D01*
X135050000Y-79200000D01*
X135050000Y-78600000D01*
X134752155Y-78600000D01*
X134692627Y-78606401D01*
X134692620Y-78606403D01*
X134557913Y-78656645D01*
X134557910Y-78656647D01*
X134489161Y-78708113D01*
X134476538Y-78712820D01*
X134466361Y-78721640D01*
X134444444Y-78724791D01*
X134423696Y-78732530D01*
X134410535Y-78729667D01*
X134397203Y-78731584D01*
X134377059Y-78722384D01*
X134355423Y-78717678D01*
X134345899Y-78708154D01*
X134333647Y-78702559D01*
X134321674Y-78683929D01*
X134306018Y-78668273D01*
X134302331Y-78653831D01*
X134295873Y-78643781D01*
X134290850Y-78608846D01*
X134290850Y-78468326D01*
X134310535Y-78401287D01*
X134327169Y-78380645D01*
X134453107Y-78254707D01*
X134590477Y-78117336D01*
X134651798Y-78083853D01*
X134709492Y-78087979D01*
X134709790Y-78086485D01*
X134780247Y-78100499D01*
X134780250Y-78100500D01*
X134780252Y-78100500D01*
X135819750Y-78100500D01*
X135819751Y-78100499D01*
X135834568Y-78097552D01*
X135878229Y-78088868D01*
X135878229Y-78088867D01*
X135878231Y-78088867D01*
X135944552Y-78044552D01*
X135988867Y-77978231D01*
X135988867Y-77978229D01*
X135988868Y-77978229D01*
X136000499Y-77919752D01*
X136000500Y-77919750D01*
X136000500Y-77180249D01*
X136000499Y-77180247D01*
X135988868Y-77121770D01*
X135988867Y-77121769D01*
X135944552Y-77055447D01*
X135878228Y-77011131D01*
X135877043Y-77010640D01*
X135874857Y-77008878D01*
X135868077Y-77004348D01*
X135868482Y-77003741D01*
X135822641Y-76966797D01*
X135800579Y-76900502D01*
X135800500Y-76896081D01*
X135800500Y-75439046D01*
X135820185Y-75372007D01*
X135872989Y-75326252D01*
X135942147Y-75316308D01*
X136005703Y-75345333D01*
X136012181Y-75351365D01*
X137478130Y-76817314D01*
X137571316Y-76910500D01*
X137681419Y-76974068D01*
X137685444Y-76976392D01*
X137812737Y-77010500D01*
X137812738Y-77010500D01*
X138375500Y-77010500D01*
X138442539Y-77030185D01*
X138488294Y-77082989D01*
X138499500Y-77134500D01*
X138499500Y-77741323D01*
X138490855Y-77770762D01*
X138484332Y-77800750D01*
X138480577Y-77805765D01*
X138479815Y-77808362D01*
X138463181Y-77829005D01*
X138369155Y-77923030D01*
X138307831Y-77956514D01*
X138257284Y-77956966D01*
X138219748Y-77949500D01*
X137180252Y-77949500D01*
X137180247Y-77949500D01*
X137121770Y-77961131D01*
X137121769Y-77961132D01*
X137055447Y-78005447D01*
X137011132Y-78071769D01*
X137011131Y-78071770D01*
X136999500Y-78130247D01*
X136999500Y-78869752D01*
X137011131Y-78928229D01*
X137011132Y-78928230D01*
X137055447Y-78994552D01*
X137121769Y-79038867D01*
X137121770Y-79038868D01*
X137180247Y-79050499D01*
X137180250Y-79050500D01*
X137180252Y-79050500D01*
X138219750Y-79050500D01*
X138219751Y-79050499D01*
X138239418Y-79046587D01*
X138278228Y-79038868D01*
X138278228Y-79038867D01*
X138278231Y-79038867D01*
X138304375Y-79021397D01*
X138371052Y-79000520D01*
X138373266Y-79000500D01*
X138565890Y-79000500D01*
X138565892Y-79000500D01*
X138693186Y-78966392D01*
X138807314Y-78900500D01*
X139400500Y-78307314D01*
X139466392Y-78193186D01*
X139500500Y-78065892D01*
X139500500Y-77988543D01*
X141389499Y-77988543D01*
X141427947Y-78181829D01*
X141427950Y-78181839D01*
X141503364Y-78363907D01*
X141503371Y-78363920D01*
X141612860Y-78527781D01*
X141612863Y-78527785D01*
X141752214Y-78667136D01*
X141752218Y-78667139D01*
X141916079Y-78776628D01*
X141916092Y-78776635D01*
X142098160Y-78852049D01*
X142098165Y-78852051D01*
X142098169Y-78852051D01*
X142098170Y-78852052D01*
X142291456Y-78890500D01*
X142291459Y-78890500D01*
X142488543Y-78890500D01*
X142652400Y-78857906D01*
X142681835Y-78852051D01*
X142863914Y-78776632D01*
X143027782Y-78667139D01*
X143167139Y-78527782D01*
X143276632Y-78363914D01*
X143352051Y-78181835D01*
X143368230Y-78100499D01*
X143390500Y-77988543D01*
X156629499Y-77988543D01*
X156667947Y-78181829D01*
X156667950Y-78181839D01*
X156743364Y-78363907D01*
X156743371Y-78363920D01*
X156852860Y-78527781D01*
X156852863Y-78527785D01*
X156992214Y-78667136D01*
X156992218Y-78667139D01*
X157156079Y-78776628D01*
X157156092Y-78776635D01*
X157338160Y-78852049D01*
X157338165Y-78852051D01*
X157338169Y-78852051D01*
X157338170Y-78852052D01*
X157531456Y-78890500D01*
X157531459Y-78890500D01*
X157728543Y-78890500D01*
X157892400Y-78857906D01*
X157921835Y-78852051D01*
X158103914Y-78776632D01*
X158267782Y-78667139D01*
X158407139Y-78527782D01*
X158516632Y-78363914D01*
X158592051Y-78181835D01*
X158608230Y-78100499D01*
X158630500Y-77988543D01*
X158630500Y-77791456D01*
X158592052Y-77598170D01*
X158592051Y-77598169D01*
X158592051Y-77598165D01*
X158582056Y-77574035D01*
X158516635Y-77416092D01*
X158516628Y-77416079D01*
X158407139Y-77252218D01*
X158407136Y-77252214D01*
X158267785Y-77112863D01*
X158267781Y-77112860D01*
X158103920Y-77003371D01*
X158103907Y-77003364D01*
X157921839Y-76927950D01*
X157921829Y-76927947D01*
X157728543Y-76889500D01*
X157728541Y-76889500D01*
X157531459Y-76889500D01*
X157531457Y-76889500D01*
X157338170Y-76927947D01*
X157338160Y-76927950D01*
X157156092Y-77003364D01*
X157156079Y-77003371D01*
X156992218Y-77112860D01*
X156992214Y-77112863D01*
X156852863Y-77252214D01*
X156852860Y-77252218D01*
X156743371Y-77416079D01*
X156743364Y-77416092D01*
X156667950Y-77598160D01*
X156667947Y-77598170D01*
X156629500Y-77791456D01*
X156629500Y-77791459D01*
X156629500Y-77988541D01*
X156629500Y-77988543D01*
X156629499Y-77988543D01*
X143390500Y-77988543D01*
X143390500Y-77791456D01*
X143352052Y-77598170D01*
X143352051Y-77598169D01*
X143352051Y-77598165D01*
X143342056Y-77574035D01*
X143276635Y-77416092D01*
X143276628Y-77416079D01*
X143167139Y-77252218D01*
X143167136Y-77252214D01*
X143027785Y-77112863D01*
X143027781Y-77112860D01*
X142863920Y-77003371D01*
X142863907Y-77003364D01*
X142681839Y-76927950D01*
X142681829Y-76927947D01*
X142488543Y-76889500D01*
X142488541Y-76889500D01*
X142291459Y-76889500D01*
X142291457Y-76889500D01*
X142098170Y-76927947D01*
X142098160Y-76927950D01*
X141916092Y-77003364D01*
X141916079Y-77003371D01*
X141752218Y-77112860D01*
X141752214Y-77112863D01*
X141612863Y-77252214D01*
X141612860Y-77252218D01*
X141503371Y-77416079D01*
X141503364Y-77416092D01*
X141427950Y-77598160D01*
X141427947Y-77598170D01*
X141389500Y-77791456D01*
X141389500Y-77791459D01*
X141389500Y-77988541D01*
X141389500Y-77988543D01*
X141389499Y-77988543D01*
X139500500Y-77988543D01*
X139500500Y-77934107D01*
X139500500Y-76789759D01*
X139512118Y-76737354D01*
X139512124Y-76737341D01*
X139514068Y-76733173D01*
X139520500Y-76684316D01*
X139520500Y-76335684D01*
X139514068Y-76286827D01*
X139464065Y-76179596D01*
X139380404Y-76095935D01*
X139372733Y-76088264D01*
X139375561Y-76085435D01*
X139344843Y-76047023D01*
X139337635Y-75977526D01*
X139369143Y-75915165D01*
X139372903Y-75911906D01*
X139372733Y-75911736D01*
X139380404Y-75904065D01*
X139464065Y-75820404D01*
X139514068Y-75713173D01*
X139520500Y-75664316D01*
X139520500Y-75448543D01*
X141389499Y-75448543D01*
X141427947Y-75641829D01*
X141427950Y-75641839D01*
X141503364Y-75823907D01*
X141503371Y-75823920D01*
X141612860Y-75987781D01*
X141612863Y-75987785D01*
X141752214Y-76127136D01*
X141752218Y-76127139D01*
X141916079Y-76236628D01*
X141916092Y-76236635D01*
X142070365Y-76300536D01*
X142098165Y-76312051D01*
X142098169Y-76312051D01*
X142098170Y-76312052D01*
X142291456Y-76350500D01*
X142291459Y-76350500D01*
X142488543Y-76350500D01*
X142618582Y-76324632D01*
X142681835Y-76312051D01*
X142863914Y-76236632D01*
X143027782Y-76127139D01*
X143167139Y-75987782D01*
X143276632Y-75823914D01*
X143352051Y-75641835D01*
X143378809Y-75507314D01*
X143390500Y-75448543D01*
X156629499Y-75448543D01*
X156667947Y-75641829D01*
X156667950Y-75641839D01*
X156743364Y-75823907D01*
X156743371Y-75823920D01*
X156852860Y-75987781D01*
X156852863Y-75987785D01*
X156992214Y-76127136D01*
X156992218Y-76127139D01*
X157156079Y-76236628D01*
X157156092Y-76236635D01*
X157310365Y-76300536D01*
X157338165Y-76312051D01*
X157338169Y-76312051D01*
X157338170Y-76312052D01*
X157531456Y-76350500D01*
X157531459Y-76350500D01*
X157728543Y-76350500D01*
X157858582Y-76324632D01*
X157921835Y-76312051D01*
X158103914Y-76236632D01*
X158267782Y-76127139D01*
X158407139Y-75987782D01*
X158516632Y-75823914D01*
X158592051Y-75641835D01*
X158618809Y-75507314D01*
X158630500Y-75448543D01*
X158630500Y-75251456D01*
X158592052Y-75058170D01*
X158592051Y-75058169D01*
X158592051Y-75058165D01*
X158569727Y-75004269D01*
X158516635Y-74876092D01*
X158516628Y-74876079D01*
X158407139Y-74712218D01*
X158407136Y-74712214D01*
X158267785Y-74572863D01*
X158267781Y-74572860D01*
X158103920Y-74463371D01*
X158103907Y-74463364D01*
X157921839Y-74387950D01*
X157921829Y-74387947D01*
X157728543Y-74349500D01*
X157728541Y-74349500D01*
X157531459Y-74349500D01*
X157531457Y-74349500D01*
X157338170Y-74387947D01*
X157338160Y-74387950D01*
X157156092Y-74463364D01*
X157156079Y-74463371D01*
X156992218Y-74572860D01*
X156992214Y-74572863D01*
X156852863Y-74712214D01*
X156852860Y-74712218D01*
X156743371Y-74876079D01*
X156743364Y-74876092D01*
X156667950Y-75058160D01*
X156667947Y-75058170D01*
X156629500Y-75251456D01*
X156629500Y-75251459D01*
X156629500Y-75448541D01*
X156629500Y-75448543D01*
X156629499Y-75448543D01*
X143390500Y-75448543D01*
X143390500Y-75251456D01*
X143352052Y-75058170D01*
X143352051Y-75058169D01*
X143352051Y-75058165D01*
X143329727Y-75004269D01*
X143276635Y-74876092D01*
X143276628Y-74876079D01*
X143167139Y-74712218D01*
X143167136Y-74712214D01*
X143027785Y-74572863D01*
X143027781Y-74572860D01*
X142863920Y-74463371D01*
X142863907Y-74463364D01*
X142681839Y-74387950D01*
X142681829Y-74387947D01*
X142488543Y-74349500D01*
X142488541Y-74349500D01*
X142291459Y-74349500D01*
X142291457Y-74349500D01*
X142098170Y-74387947D01*
X142098160Y-74387950D01*
X141916092Y-74463364D01*
X141916079Y-74463371D01*
X141752218Y-74572860D01*
X141752214Y-74572863D01*
X141612863Y-74712214D01*
X141612860Y-74712218D01*
X141503371Y-74876079D01*
X141503364Y-74876092D01*
X141427950Y-75058160D01*
X141427947Y-75058170D01*
X141389500Y-75251456D01*
X141389500Y-75251459D01*
X141389500Y-75448541D01*
X141389500Y-75448543D01*
X141389499Y-75448543D01*
X139520500Y-75448543D01*
X139520500Y-75315684D01*
X139517797Y-75295156D01*
X139516199Y-75283016D01*
X139514068Y-75266827D01*
X139464065Y-75159596D01*
X139380404Y-75075935D01*
X139273173Y-75025932D01*
X139273171Y-75025931D01*
X139273172Y-75025931D01*
X139224317Y-75019500D01*
X139224316Y-75019500D01*
X139194180Y-75019500D01*
X139162087Y-75015275D01*
X139121000Y-75004266D01*
X139065892Y-74989500D01*
X139065891Y-74989500D01*
X138248676Y-74989500D01*
X138181637Y-74969815D01*
X138160995Y-74953181D01*
X136116357Y-72908543D01*
X141389499Y-72908543D01*
X141427947Y-73101829D01*
X141427950Y-73101839D01*
X141503364Y-73283907D01*
X141503371Y-73283920D01*
X141612860Y-73447781D01*
X141612863Y-73447785D01*
X141752214Y-73587136D01*
X141752218Y-73587139D01*
X141916079Y-73696628D01*
X141916092Y-73696635D01*
X142098160Y-73772049D01*
X142098165Y-73772051D01*
X142098169Y-73772051D01*
X142098170Y-73772052D01*
X142291456Y-73810500D01*
X142291459Y-73810500D01*
X142488543Y-73810500D01*
X142646679Y-73779044D01*
X142681835Y-73772051D01*
X142863914Y-73696632D01*
X143027782Y-73587139D01*
X143167139Y-73447782D01*
X143276632Y-73283914D01*
X143352051Y-73101835D01*
X143390500Y-72908543D01*
X156629499Y-72908543D01*
X156667947Y-73101829D01*
X156667950Y-73101839D01*
X156743364Y-73283907D01*
X156743371Y-73283920D01*
X156852860Y-73447781D01*
X156852863Y-73447785D01*
X156992214Y-73587136D01*
X156992218Y-73587139D01*
X157156079Y-73696628D01*
X157156092Y-73696635D01*
X157338160Y-73772049D01*
X157338165Y-73772051D01*
X157338169Y-73772051D01*
X157338170Y-73772052D01*
X157531456Y-73810500D01*
X157531459Y-73810500D01*
X157728543Y-73810500D01*
X157886679Y-73779044D01*
X157921835Y-73772051D01*
X158103914Y-73696632D01*
X158267782Y-73587139D01*
X158407139Y-73447782D01*
X158516632Y-73283914D01*
X158592051Y-73101835D01*
X158630500Y-72908541D01*
X158630500Y-72711459D01*
X158630500Y-72711456D01*
X158592052Y-72518170D01*
X158592051Y-72518169D01*
X158592051Y-72518165D01*
X158575286Y-72477690D01*
X158516635Y-72336092D01*
X158516628Y-72336079D01*
X158407139Y-72172218D01*
X158407136Y-72172214D01*
X158267785Y-72032863D01*
X158267781Y-72032860D01*
X158103920Y-71923371D01*
X158103907Y-71923364D01*
X157921839Y-71847950D01*
X157921829Y-71847947D01*
X157728543Y-71809500D01*
X157728541Y-71809500D01*
X157531459Y-71809500D01*
X157531457Y-71809500D01*
X157338170Y-71847947D01*
X157338160Y-71847950D01*
X157156092Y-71923364D01*
X157156079Y-71923371D01*
X156992218Y-72032860D01*
X156992214Y-72032863D01*
X156852863Y-72172214D01*
X156852860Y-72172218D01*
X156743371Y-72336079D01*
X156743364Y-72336092D01*
X156667950Y-72518160D01*
X156667947Y-72518170D01*
X156629500Y-72711456D01*
X156629500Y-72711459D01*
X156629500Y-72908541D01*
X156629500Y-72908543D01*
X156629499Y-72908543D01*
X143390500Y-72908543D01*
X143390500Y-72908541D01*
X143390500Y-72711459D01*
X143390500Y-72711456D01*
X143352052Y-72518170D01*
X143352051Y-72518169D01*
X143352051Y-72518165D01*
X143335286Y-72477690D01*
X143276635Y-72336092D01*
X143276628Y-72336079D01*
X143167139Y-72172218D01*
X143167136Y-72172214D01*
X143027785Y-72032863D01*
X143027781Y-72032860D01*
X142863920Y-71923371D01*
X142863907Y-71923364D01*
X142681839Y-71847950D01*
X142681829Y-71847947D01*
X142488543Y-71809500D01*
X142488541Y-71809500D01*
X142291459Y-71809500D01*
X142291457Y-71809500D01*
X142098170Y-71847947D01*
X142098160Y-71847950D01*
X141916092Y-71923364D01*
X141916079Y-71923371D01*
X141752218Y-72032860D01*
X141752214Y-72032863D01*
X141612863Y-72172214D01*
X141612860Y-72172218D01*
X141503371Y-72336079D01*
X141503364Y-72336092D01*
X141427950Y-72518160D01*
X141427947Y-72518170D01*
X141389500Y-72711456D01*
X141389500Y-72711459D01*
X141389500Y-72908541D01*
X141389500Y-72908543D01*
X141389499Y-72908543D01*
X136116357Y-72908543D01*
X135286819Y-72079005D01*
X135253334Y-72017682D01*
X135250500Y-71991324D01*
X135250500Y-71760000D01*
X137687156Y-71760000D01*
X137727595Y-71899194D01*
X137809261Y-72037285D01*
X137809268Y-72037294D01*
X137922705Y-72150731D01*
X137922714Y-72150738D01*
X138060808Y-72232406D01*
X138060811Y-72232407D01*
X138214871Y-72277166D01*
X138214877Y-72277167D01*
X138250000Y-72279931D01*
X138250000Y-71760000D01*
X137687156Y-71760000D01*
X135250500Y-71760000D01*
X135250500Y-71074500D01*
X135270185Y-71007461D01*
X135322989Y-70961706D01*
X135374500Y-70950500D01*
X135683261Y-70950500D01*
X135705971Y-70947191D01*
X135751393Y-70940573D01*
X135856483Y-70889198D01*
X135939198Y-70806483D01*
X135990573Y-70701393D01*
X136000500Y-70633260D01*
X136000500Y-70266740D01*
X135998444Y-70252632D01*
X135990573Y-70198608D01*
X135983034Y-70183186D01*
X135939198Y-70093517D01*
X135939196Y-70093515D01*
X135939196Y-70093514D01*
X135856485Y-70010803D01*
X135751391Y-69959426D01*
X135683261Y-69949500D01*
X135683260Y-69949500D01*
X135128392Y-69949500D01*
X134254963Y-69949500D01*
X134187924Y-69929815D01*
X134142169Y-69877011D01*
X134133346Y-69849692D01*
X134125502Y-69810261D01*
X134125501Y-69810260D01*
X134125501Y-69810256D01*
X134076465Y-69691873D01*
X134076464Y-69691872D01*
X134076461Y-69691866D01*
X134005276Y-69585331D01*
X134005273Y-69585327D01*
X133914672Y-69494726D01*
X133914668Y-69494723D01*
X133808128Y-69423535D01*
X133689744Y-69374499D01*
X133689738Y-69374497D01*
X133619979Y-69360621D01*
X133558068Y-69328236D01*
X133551521Y-69316739D01*
X135999500Y-69316739D01*
X135999500Y-69683260D01*
X136009426Y-69751391D01*
X136060803Y-69856485D01*
X136143514Y-69939196D01*
X136143515Y-69939196D01*
X136143517Y-69939198D01*
X136248607Y-69990573D01*
X136282673Y-69995536D01*
X136316739Y-70000500D01*
X136316740Y-70000500D01*
X136871608Y-70000500D01*
X137251324Y-70000500D01*
X137318363Y-70020185D01*
X137339005Y-70036819D01*
X137951706Y-70649520D01*
X137959561Y-70662970D01*
X137969255Y-70671607D01*
X137976642Y-70692215D01*
X137983473Y-70703911D01*
X137985822Y-70712341D01*
X137985932Y-70713173D01*
X137986236Y-70713825D01*
X137988906Y-70723405D01*
X137988434Y-70757607D01*
X137988367Y-70791860D01*
X137987952Y-70792502D01*
X137987942Y-70793268D01*
X137969033Y-70821815D01*
X137950479Y-70850565D01*
X137949549Y-70851232D01*
X137949360Y-70851519D01*
X137948821Y-70851755D01*
X137932585Y-70863423D01*
X137922713Y-70869261D01*
X137922708Y-70869266D01*
X137809268Y-70982705D01*
X137809261Y-70982714D01*
X137727595Y-71120805D01*
X137687156Y-71260000D01*
X138376000Y-71260000D01*
X138443039Y-71279685D01*
X138488794Y-71332489D01*
X138500000Y-71384000D01*
X138500000Y-71510000D01*
X138626000Y-71510000D01*
X138693039Y-71529685D01*
X138738794Y-71582489D01*
X138750000Y-71634000D01*
X138750000Y-72279930D01*
X138785122Y-72277167D01*
X138785128Y-72277166D01*
X138939188Y-72232407D01*
X138939191Y-72232406D01*
X139077285Y-72150738D01*
X139077294Y-72150731D01*
X139190731Y-72037294D01*
X139190740Y-72037282D01*
X139271601Y-71900553D01*
X139322669Y-71852869D01*
X139391411Y-71840365D01*
X139456001Y-71867010D01*
X139481434Y-71894781D01*
X139494721Y-71914665D01*
X139494726Y-71914672D01*
X139585327Y-72005273D01*
X139585331Y-72005276D01*
X139691866Y-72076461D01*
X139691872Y-72076464D01*
X139691873Y-72076465D01*
X139810256Y-72125501D01*
X139810260Y-72125501D01*
X139810261Y-72125502D01*
X139935928Y-72150500D01*
X139935931Y-72150500D01*
X140064071Y-72150500D01*
X140148615Y-72133682D01*
X140189744Y-72125501D01*
X140308127Y-72076465D01*
X140414669Y-72005276D01*
X140505276Y-71914669D01*
X140576465Y-71808127D01*
X140625501Y-71689744D01*
X140633682Y-71648615D01*
X140650500Y-71564071D01*
X140650500Y-71435928D01*
X140625502Y-71310261D01*
X140625501Y-71310260D01*
X140625501Y-71310256D01*
X140576465Y-71191873D01*
X140576464Y-71191872D01*
X140576461Y-71191866D01*
X140505276Y-71085331D01*
X140505273Y-71085327D01*
X140414672Y-70994726D01*
X140414668Y-70994723D01*
X140308133Y-70923538D01*
X140308124Y-70923533D01*
X140189744Y-70874499D01*
X140189738Y-70874497D01*
X140092527Y-70855160D01*
X140030616Y-70822774D01*
X140029038Y-70821224D01*
X139576357Y-70368543D01*
X141389499Y-70368543D01*
X141427947Y-70561829D01*
X141427950Y-70561839D01*
X141503364Y-70743907D01*
X141503371Y-70743920D01*
X141612860Y-70907781D01*
X141612863Y-70907785D01*
X141752214Y-71047136D01*
X141752218Y-71047139D01*
X141916079Y-71156628D01*
X141916092Y-71156635D01*
X142033939Y-71205448D01*
X142098165Y-71232051D01*
X142098169Y-71232051D01*
X142098170Y-71232052D01*
X142291456Y-71270500D01*
X142291459Y-71270500D01*
X142488543Y-71270500D01*
X142618582Y-71244632D01*
X142681835Y-71232051D01*
X142853050Y-71161132D01*
X142863907Y-71156635D01*
X142863907Y-71156634D01*
X142863914Y-71156632D01*
X143027782Y-71047139D01*
X143167139Y-70907782D01*
X143276632Y-70743914D01*
X143352051Y-70561835D01*
X143364632Y-70498582D01*
X143390500Y-70368543D01*
X156629499Y-70368543D01*
X156667947Y-70561829D01*
X156667950Y-70561839D01*
X156743364Y-70743907D01*
X156743371Y-70743920D01*
X156852860Y-70907781D01*
X156852863Y-70907785D01*
X156992214Y-71047136D01*
X156992218Y-71047139D01*
X157156079Y-71156628D01*
X157156092Y-71156635D01*
X157273939Y-71205448D01*
X157338165Y-71232051D01*
X157338169Y-71232051D01*
X157338170Y-71232052D01*
X157531456Y-71270500D01*
X157531459Y-71270500D01*
X157728543Y-71270500D01*
X157858582Y-71244632D01*
X157921835Y-71232051D01*
X158093050Y-71161132D01*
X158103907Y-71156635D01*
X158103907Y-71156634D01*
X158103914Y-71156632D01*
X158267782Y-71047139D01*
X158407139Y-70907782D01*
X158516632Y-70743914D01*
X158592051Y-70561835D01*
X158604632Y-70498582D01*
X158630500Y-70368543D01*
X158630500Y-70171456D01*
X158592052Y-69978170D01*
X158592051Y-69978169D01*
X158592051Y-69978165D01*
X158577355Y-69942686D01*
X158516635Y-69796092D01*
X158516628Y-69796079D01*
X158407139Y-69632218D01*
X158407136Y-69632214D01*
X158267785Y-69492863D01*
X158267781Y-69492860D01*
X158103920Y-69383371D01*
X158103907Y-69383364D01*
X157921839Y-69307950D01*
X157921829Y-69307947D01*
X157728543Y-69269500D01*
X157728541Y-69269500D01*
X157531459Y-69269500D01*
X157531457Y-69269500D01*
X157338170Y-69307947D01*
X157338160Y-69307950D01*
X157156092Y-69383364D01*
X157156079Y-69383371D01*
X156992218Y-69492860D01*
X156992214Y-69492863D01*
X156852863Y-69632214D01*
X156852860Y-69632218D01*
X156743371Y-69796079D01*
X156743364Y-69796092D01*
X156667950Y-69978160D01*
X156667947Y-69978170D01*
X156629500Y-70171456D01*
X156629500Y-70171459D01*
X156629500Y-70368541D01*
X156629500Y-70368543D01*
X156629499Y-70368543D01*
X143390500Y-70368543D01*
X143390500Y-70171456D01*
X143352052Y-69978170D01*
X143352051Y-69978169D01*
X143352051Y-69978165D01*
X143337355Y-69942686D01*
X143276635Y-69796092D01*
X143276628Y-69796079D01*
X143167139Y-69632218D01*
X143167136Y-69632214D01*
X143027785Y-69492863D01*
X143027781Y-69492860D01*
X142863920Y-69383371D01*
X142863907Y-69383364D01*
X142681839Y-69307950D01*
X142681829Y-69307947D01*
X142488543Y-69269500D01*
X142488541Y-69269500D01*
X142291459Y-69269500D01*
X142291457Y-69269500D01*
X142098170Y-69307947D01*
X142098160Y-69307950D01*
X141916092Y-69383364D01*
X141916079Y-69383371D01*
X141752218Y-69492860D01*
X141752214Y-69492863D01*
X141612863Y-69632214D01*
X141612860Y-69632218D01*
X141503371Y-69796079D01*
X141503364Y-69796092D01*
X141427950Y-69978160D01*
X141427947Y-69978170D01*
X141389500Y-70171456D01*
X141389500Y-70171459D01*
X141389500Y-70368541D01*
X141389500Y-70368543D01*
X141389499Y-70368543D01*
X139576357Y-70368543D01*
X139501082Y-70293268D01*
X139495329Y-70282733D01*
X139486072Y-70275090D01*
X139478893Y-70252632D01*
X139467597Y-70231945D01*
X139467921Y-70218309D01*
X139464798Y-70208538D01*
X139468987Y-70173501D01*
X139500500Y-70055892D01*
X139500500Y-69924107D01*
X139500500Y-67828543D01*
X141389499Y-67828543D01*
X141427947Y-68021829D01*
X141427950Y-68021839D01*
X141503364Y-68203907D01*
X141503371Y-68203920D01*
X141612860Y-68367781D01*
X141612863Y-68367785D01*
X141752214Y-68507136D01*
X141752218Y-68507139D01*
X141916079Y-68616628D01*
X141916092Y-68616635D01*
X142071473Y-68680995D01*
X142098165Y-68692051D01*
X142098169Y-68692051D01*
X142098170Y-68692052D01*
X142291456Y-68730500D01*
X142291459Y-68730500D01*
X142488543Y-68730500D01*
X142633643Y-68701637D01*
X142681835Y-68692051D01*
X142863914Y-68616632D01*
X143027782Y-68507139D01*
X143167139Y-68367782D01*
X143276632Y-68203914D01*
X143352051Y-68021835D01*
X143390500Y-67828541D01*
X143390500Y-67631459D01*
X143390500Y-67631456D01*
X143352052Y-67438170D01*
X143352051Y-67438169D01*
X143352051Y-67438165D01*
X143329953Y-67384815D01*
X143276635Y-67256092D01*
X143276628Y-67256079D01*
X143167139Y-67092218D01*
X143167136Y-67092214D01*
X143027785Y-66952863D01*
X143027781Y-66952860D01*
X142863920Y-66843371D01*
X142863907Y-66843364D01*
X142681839Y-66767950D01*
X142681829Y-66767947D01*
X142488543Y-66729500D01*
X142488541Y-66729500D01*
X142291459Y-66729500D01*
X142291457Y-66729500D01*
X142098170Y-66767947D01*
X142098160Y-66767950D01*
X141916092Y-66843364D01*
X141916079Y-66843371D01*
X141752218Y-66952860D01*
X141752214Y-66952863D01*
X141612863Y-67092214D01*
X141612860Y-67092218D01*
X141503371Y-67256079D01*
X141503364Y-67256092D01*
X141427950Y-67438160D01*
X141427947Y-67438170D01*
X141389500Y-67631456D01*
X141389500Y-67631459D01*
X141389500Y-67828541D01*
X141389500Y-67828543D01*
X141389499Y-67828543D01*
X139500500Y-67828543D01*
X139500500Y-66739101D01*
X139503373Y-66718979D01*
X139502734Y-66718895D01*
X139508951Y-66671666D01*
X139510500Y-66659901D01*
X139510499Y-66300100D01*
X139509230Y-66290463D01*
X139519994Y-66221433D01*
X139560350Y-66175962D01*
X139559215Y-66174499D01*
X139565383Y-66169714D01*
X139679714Y-66055383D01*
X139679721Y-66055374D01*
X139762031Y-65916195D01*
X139804504Y-65770000D01*
X138195496Y-65770000D01*
X138237968Y-65916195D01*
X138320278Y-66055374D01*
X138320285Y-66055383D01*
X138434616Y-66169714D01*
X138440785Y-66174499D01*
X138439265Y-66176457D01*
X138478625Y-66218599D01*
X138491139Y-66287339D01*
X138490769Y-66290461D01*
X138489500Y-66300101D01*
X138489500Y-66659894D01*
X138489501Y-66659900D01*
X138496028Y-66709487D01*
X138496028Y-66709488D01*
X138497267Y-66718895D01*
X138496626Y-66718979D01*
X138499500Y-66739101D01*
X138499500Y-69482324D01*
X138479815Y-69549363D01*
X138427011Y-69595118D01*
X138357853Y-69605062D01*
X138294297Y-69576037D01*
X138287819Y-69570005D01*
X137817316Y-69099502D01*
X137817314Y-69099500D01*
X137750287Y-69060802D01*
X137703185Y-69033607D01*
X137654295Y-69020506D01*
X137654295Y-69020507D01*
X137642706Y-69017401D01*
X137626393Y-69009427D01*
X137596909Y-69005130D01*
X137589884Y-69003248D01*
X137589882Y-69003247D01*
X137575898Y-68999501D01*
X137575894Y-68999500D01*
X137575892Y-68999500D01*
X137558260Y-68999500D01*
X136316740Y-68999500D01*
X136316739Y-68999500D01*
X136248608Y-69009426D01*
X136143514Y-69060803D01*
X136060803Y-69143514D01*
X136009426Y-69248608D01*
X135999500Y-69316739D01*
X133551521Y-69316739D01*
X133523494Y-69267520D01*
X133527235Y-69197750D01*
X133556487Y-69151326D01*
X133620996Y-69086816D01*
X133625824Y-69084181D01*
X133628867Y-69079597D01*
X133656160Y-69067616D01*
X133682319Y-69053334D01*
X133690771Y-69052425D01*
X133692845Y-69051515D01*
X133695424Y-69051924D01*
X133708676Y-69050500D01*
X135683261Y-69050500D01*
X135705971Y-69047191D01*
X135751393Y-69040573D01*
X135856483Y-68989198D01*
X135939198Y-68906483D01*
X135990573Y-68801393D01*
X136000500Y-68733260D01*
X136000500Y-68366740D01*
X135990573Y-68298607D01*
X135939198Y-68193517D01*
X135939196Y-68193515D01*
X135939196Y-68193514D01*
X135856485Y-68110803D01*
X135751391Y-68059426D01*
X135683261Y-68049500D01*
X135683260Y-68049500D01*
X135128392Y-68049500D01*
X133515893Y-68049500D01*
X133384108Y-68049500D01*
X133256812Y-68083608D01*
X133142686Y-68149500D01*
X133142683Y-68149502D01*
X132192686Y-69099500D01*
X132192684Y-69099502D01*
X132171221Y-69120964D01*
X132109897Y-69154448D01*
X132040206Y-69149462D01*
X131984273Y-69107589D01*
X131959858Y-69042124D01*
X131959544Y-69033777D01*
X131945403Y-65270000D01*
X138195496Y-65270000D01*
X138750000Y-65270000D01*
X139250000Y-65270000D01*
X139804504Y-65270000D01*
X139762031Y-65123804D01*
X139679721Y-64984625D01*
X139679714Y-64984616D01*
X139565383Y-64870285D01*
X139565374Y-64870278D01*
X139426195Y-64787968D01*
X139426190Y-64787966D01*
X139270918Y-64742855D01*
X139270912Y-64742854D01*
X139250000Y-64741209D01*
X139250000Y-65270000D01*
X138750000Y-65270000D01*
X138750000Y-64741210D01*
X138749999Y-64741209D01*
X138729087Y-64742854D01*
X138729081Y-64742855D01*
X138573809Y-64787966D01*
X138573804Y-64787968D01*
X138434625Y-64870278D01*
X138434616Y-64870285D01*
X138320285Y-64984616D01*
X138320278Y-64984625D01*
X138237968Y-65123804D01*
X138195496Y-65270000D01*
X131945403Y-65270000D01*
X131938174Y-63345730D01*
X133324500Y-63345730D01*
X133324500Y-64654269D01*
X133327353Y-64684699D01*
X133327353Y-64684701D01*
X133363489Y-64787968D01*
X133372207Y-64812882D01*
X133452850Y-64922150D01*
X133562118Y-65002793D01*
X133604845Y-65017744D01*
X133690299Y-65047646D01*
X133720730Y-65050500D01*
X133720734Y-65050500D01*
X135279270Y-65050500D01*
X135309699Y-65047646D01*
X135309701Y-65047646D01*
X135373790Y-65025219D01*
X135437882Y-65002793D01*
X135547150Y-64922150D01*
X135627793Y-64812882D01*
X135652872Y-64741209D01*
X135672646Y-64684701D01*
X135672646Y-64684699D01*
X135675500Y-64654269D01*
X135675500Y-64449500D01*
X135695185Y-64382461D01*
X135747989Y-64336706D01*
X135799500Y-64325500D01*
X141013811Y-64325500D01*
X141080850Y-64345185D01*
X141101492Y-64361819D01*
X141430837Y-64691164D01*
X141464322Y-64752487D01*
X141459338Y-64822179D01*
X141457737Y-64826247D01*
X141427949Y-64898165D01*
X141427947Y-64898171D01*
X141389500Y-65091456D01*
X141389500Y-65091459D01*
X141389500Y-65288541D01*
X141389500Y-65288543D01*
X141389499Y-65288543D01*
X141427947Y-65481829D01*
X141427950Y-65481839D01*
X141503364Y-65663907D01*
X141503371Y-65663920D01*
X141612860Y-65827781D01*
X141612863Y-65827785D01*
X141752214Y-65967136D01*
X141752218Y-65967139D01*
X141916079Y-66076628D01*
X141916092Y-66076635D01*
X142091190Y-66149162D01*
X142098165Y-66152051D01*
X142098169Y-66152051D01*
X142098170Y-66152052D01*
X142291456Y-66190500D01*
X142291459Y-66190500D01*
X142488543Y-66190500D01*
X142630215Y-66162319D01*
X142681835Y-66152051D01*
X142863914Y-66076632D01*
X143027782Y-65967139D01*
X143167139Y-65827782D01*
X143276632Y-65663914D01*
X143352051Y-65481835D01*
X143375257Y-65365173D01*
X143390500Y-65288543D01*
X143390500Y-65091456D01*
X143352052Y-64898170D01*
X143352051Y-64898169D01*
X143352051Y-64898165D01*
X143316725Y-64812880D01*
X143276635Y-64716092D01*
X143276628Y-64716079D01*
X143167139Y-64552218D01*
X143167136Y-64552214D01*
X143027785Y-64412863D01*
X143027781Y-64412860D01*
X142863920Y-64303371D01*
X142863907Y-64303364D01*
X142681839Y-64227950D01*
X142681829Y-64227947D01*
X142488543Y-64189500D01*
X142488541Y-64189500D01*
X142291459Y-64189500D01*
X142291457Y-64189500D01*
X142098171Y-64227947D01*
X142098167Y-64227948D01*
X142098165Y-64227949D01*
X142026293Y-64257718D01*
X141956827Y-64265186D01*
X141894348Y-64233910D01*
X141891164Y-64230837D01*
X141399864Y-63739537D01*
X141399862Y-63739535D01*
X141362750Y-63718108D01*
X141325640Y-63696682D01*
X141284246Y-63685591D01*
X141242853Y-63674500D01*
X141242852Y-63674500D01*
X135799500Y-63674500D01*
X135732461Y-63654815D01*
X135686706Y-63602011D01*
X135675500Y-63550500D01*
X135675500Y-63345730D01*
X135672646Y-63315300D01*
X135672646Y-63315298D01*
X135627793Y-63187119D01*
X135627792Y-63187117D01*
X135586643Y-63131362D01*
X135547150Y-63077850D01*
X135437882Y-62997207D01*
X135437880Y-62997206D01*
X135309700Y-62952353D01*
X135279270Y-62949500D01*
X135279266Y-62949500D01*
X133720734Y-62949500D01*
X133720730Y-62949500D01*
X133690300Y-62952353D01*
X133690298Y-62952353D01*
X133562119Y-62997206D01*
X133562117Y-62997207D01*
X133452850Y-63077850D01*
X133372207Y-63187117D01*
X133372206Y-63187119D01*
X133327353Y-63315298D01*
X133327353Y-63315300D01*
X133324500Y-63345730D01*
X131938174Y-63345730D01*
X131935930Y-62748543D01*
X141389499Y-62748543D01*
X141427947Y-62941829D01*
X141427950Y-62941839D01*
X141503364Y-63123907D01*
X141503371Y-63123920D01*
X141612860Y-63287781D01*
X141612863Y-63287785D01*
X141752214Y-63427136D01*
X141752218Y-63427139D01*
X141916079Y-63536628D01*
X141916092Y-63536635D01*
X142073926Y-63602011D01*
X142098165Y-63612051D01*
X142098169Y-63612051D01*
X142098170Y-63612052D01*
X142291456Y-63650500D01*
X142291459Y-63650500D01*
X142488543Y-63650500D01*
X142618582Y-63624632D01*
X142681835Y-63612051D01*
X142863914Y-63536632D01*
X143027782Y-63427139D01*
X143167139Y-63287782D01*
X143276632Y-63123914D01*
X143352051Y-62941835D01*
X143390500Y-62748541D01*
X143390500Y-62551459D01*
X143390500Y-62551456D01*
X143352052Y-62358170D01*
X143352051Y-62358169D01*
X143352051Y-62358165D01*
X143334576Y-62315977D01*
X143276635Y-62176092D01*
X143276628Y-62176079D01*
X143167139Y-62012218D01*
X143167136Y-62012214D01*
X143027785Y-61872863D01*
X143027781Y-61872860D01*
X142863920Y-61763371D01*
X142863907Y-61763364D01*
X142681839Y-61687950D01*
X142681829Y-61687947D01*
X142488543Y-61649500D01*
X142488541Y-61649500D01*
X142291459Y-61649500D01*
X142291457Y-61649500D01*
X142098170Y-61687947D01*
X142098160Y-61687950D01*
X141916092Y-61763364D01*
X141916079Y-61763371D01*
X141752218Y-61872860D01*
X141752214Y-61872863D01*
X141612863Y-62012214D01*
X141612860Y-62012218D01*
X141503371Y-62176079D01*
X141503364Y-62176092D01*
X141427950Y-62358160D01*
X141427947Y-62358170D01*
X141389500Y-62551456D01*
X141389500Y-62551459D01*
X141389500Y-62748541D01*
X141389500Y-62748543D01*
X141389499Y-62748543D01*
X131935930Y-62748543D01*
X131912066Y-56396530D01*
X133324500Y-56396530D01*
X133324500Y-56603469D01*
X133364868Y-56806412D01*
X133364870Y-56806420D01*
X133423551Y-56948089D01*
X133444059Y-56997598D01*
X133492102Y-57069500D01*
X133559024Y-57169657D01*
X133705342Y-57315975D01*
X133705345Y-57315977D01*
X133877402Y-57430941D01*
X134068580Y-57510130D01*
X134271530Y-57550499D01*
X134271534Y-57550500D01*
X134271535Y-57550500D01*
X134728466Y-57550500D01*
X134728467Y-57550499D01*
X134931420Y-57510130D01*
X135122598Y-57430941D01*
X135294655Y-57315977D01*
X135440977Y-57169655D01*
X135555941Y-56997598D01*
X135575328Y-56950794D01*
X135618302Y-56847047D01*
X135662143Y-56792644D01*
X135728438Y-56770579D01*
X135732863Y-56770500D01*
X141135991Y-56770500D01*
X141203030Y-56790185D01*
X141248785Y-56842989D01*
X141258729Y-56912147D01*
X141246476Y-56950794D01*
X141185245Y-57070967D01*
X141122009Y-57265586D01*
X141113391Y-57320000D01*
X141956988Y-57320000D01*
X141924075Y-57377007D01*
X141890000Y-57504174D01*
X141890000Y-57635826D01*
X141924075Y-57762993D01*
X141956988Y-57820000D01*
X141113391Y-57820000D01*
X141122009Y-57874413D01*
X141185244Y-58069029D01*
X141278140Y-58251349D01*
X141297223Y-58277614D01*
X141320703Y-58343420D01*
X141304878Y-58411474D01*
X141254773Y-58460169D01*
X141196905Y-58474500D01*
X135603578Y-58474500D01*
X135536539Y-58454815D01*
X135500476Y-58419391D01*
X135440977Y-58330345D01*
X135440974Y-58330341D01*
X135294657Y-58184024D01*
X135161770Y-58095233D01*
X135122598Y-58069059D01*
X135061907Y-58043920D01*
X134931420Y-57989870D01*
X134931412Y-57989868D01*
X134728469Y-57949500D01*
X134728465Y-57949500D01*
X134271535Y-57949500D01*
X134271530Y-57949500D01*
X134068587Y-57989868D01*
X134068579Y-57989870D01*
X133877403Y-58069058D01*
X133705342Y-58184024D01*
X133559024Y-58330342D01*
X133444058Y-58502403D01*
X133364870Y-58693579D01*
X133364868Y-58693587D01*
X133324500Y-58896530D01*
X133324500Y-59103469D01*
X133364868Y-59306412D01*
X133364870Y-59306420D01*
X133444058Y-59497596D01*
X133559024Y-59669657D01*
X133705342Y-59815975D01*
X133705345Y-59815977D01*
X133877402Y-59930941D01*
X134068580Y-60010130D01*
X134271530Y-60050499D01*
X134271534Y-60050500D01*
X134271535Y-60050500D01*
X134728466Y-60050500D01*
X134728467Y-60050499D01*
X134931420Y-60010130D01*
X135122598Y-59930941D01*
X135294655Y-59815977D01*
X135440977Y-59669655D01*
X135555941Y-59497598D01*
X135635130Y-59306420D01*
X135651264Y-59225306D01*
X135683648Y-59163398D01*
X135744364Y-59128824D01*
X135772881Y-59125500D01*
X141660216Y-59125500D01*
X141727255Y-59145185D01*
X141773010Y-59197989D01*
X141782954Y-59267147D01*
X141753929Y-59330703D01*
X141747897Y-59337181D01*
X141612863Y-59472214D01*
X141612860Y-59472218D01*
X141503371Y-59636079D01*
X141503364Y-59636092D01*
X141427950Y-59818160D01*
X141427947Y-59818170D01*
X141389500Y-60011456D01*
X141389500Y-60011459D01*
X141389500Y-60208541D01*
X141389500Y-60208543D01*
X141389499Y-60208543D01*
X141427947Y-60401828D01*
X141427948Y-60401831D01*
X141427949Y-60401835D01*
X141436842Y-60423305D01*
X141457717Y-60473703D01*
X141465184Y-60543173D01*
X141433909Y-60605651D01*
X141430836Y-60608835D01*
X140901492Y-61138181D01*
X140840169Y-61171666D01*
X140813811Y-61174500D01*
X135710081Y-61174500D01*
X135643042Y-61154815D01*
X135597287Y-61102011D01*
X135595520Y-61097953D01*
X135555942Y-61002403D01*
X135440975Y-60830342D01*
X135294657Y-60684024D01*
X135144830Y-60583914D01*
X135122598Y-60569059D01*
X134931420Y-60489870D01*
X134931412Y-60489868D01*
X134728469Y-60449500D01*
X134728465Y-60449500D01*
X134271535Y-60449500D01*
X134271530Y-60449500D01*
X134068587Y-60489868D01*
X134068579Y-60489870D01*
X133877403Y-60569058D01*
X133705342Y-60684024D01*
X133559024Y-60830342D01*
X133444058Y-61002403D01*
X133364870Y-61193579D01*
X133364868Y-61193587D01*
X133324500Y-61396530D01*
X133324500Y-61603469D01*
X133364868Y-61806412D01*
X133364870Y-61806420D01*
X133444058Y-61997596D01*
X133559024Y-62169657D01*
X133705342Y-62315975D01*
X133705345Y-62315977D01*
X133877402Y-62430941D01*
X134068580Y-62510130D01*
X134271530Y-62550499D01*
X134271534Y-62550500D01*
X134271535Y-62550500D01*
X134728466Y-62550500D01*
X134728467Y-62550499D01*
X134931420Y-62510130D01*
X135122598Y-62430941D01*
X135294655Y-62315977D01*
X135440977Y-62169655D01*
X135555941Y-61997598D01*
X135595520Y-61902047D01*
X135639361Y-61847644D01*
X135705655Y-61825579D01*
X135710081Y-61825500D01*
X141042851Y-61825500D01*
X141042853Y-61825500D01*
X141125639Y-61803318D01*
X141199862Y-61760465D01*
X141891165Y-61069160D01*
X141952486Y-61035677D01*
X142022177Y-61040661D01*
X142026270Y-61042271D01*
X142098165Y-61072051D01*
X142098169Y-61072051D01*
X142098170Y-61072052D01*
X142291456Y-61110500D01*
X142291459Y-61110500D01*
X142488543Y-61110500D01*
X142618582Y-61084632D01*
X142681835Y-61072051D01*
X142830250Y-61010576D01*
X142863907Y-60996635D01*
X142863907Y-60996634D01*
X142863914Y-60996632D01*
X143027782Y-60887139D01*
X143167139Y-60747782D01*
X143276632Y-60583914D01*
X143352051Y-60401835D01*
X143390500Y-60208541D01*
X143390500Y-60011459D01*
X143390500Y-60011456D01*
X143352052Y-59818170D01*
X143352051Y-59818169D01*
X143352051Y-59818165D01*
X143332481Y-59770918D01*
X143276635Y-59636092D01*
X143276628Y-59636079D01*
X143167139Y-59472218D01*
X143167136Y-59472214D01*
X143032103Y-59337181D01*
X143021490Y-59317744D01*
X143006990Y-59301011D01*
X143005073Y-59287679D01*
X142998618Y-59275858D01*
X143000197Y-59253771D01*
X142997046Y-59231853D01*
X143002641Y-59219601D01*
X143003602Y-59206166D01*
X143016872Y-59188439D01*
X143026071Y-59168297D01*
X143037402Y-59161014D01*
X143045474Y-59150233D01*
X143066219Y-59142495D01*
X143084849Y-59130523D01*
X143106767Y-59127371D01*
X143110938Y-59125816D01*
X143119784Y-59125500D01*
X143343811Y-59125500D01*
X143410850Y-59145185D01*
X143431492Y-59161819D01*
X144038181Y-59768507D01*
X144071666Y-59829830D01*
X144074500Y-59856188D01*
X144074500Y-66357147D01*
X144074500Y-66442853D01*
X144077452Y-66453868D01*
X144096682Y-66525638D01*
X144096681Y-66525638D01*
X144096682Y-66525639D01*
X144139535Y-66599862D01*
X145530138Y-67990465D01*
X145604361Y-68033318D01*
X145687147Y-68055500D01*
X145772853Y-68055500D01*
X156599039Y-68055500D01*
X156666078Y-68075185D01*
X156711833Y-68127989D01*
X156713600Y-68132048D01*
X156743364Y-68203907D01*
X156743371Y-68203920D01*
X156852860Y-68367781D01*
X156852863Y-68367785D01*
X156992214Y-68507136D01*
X156992218Y-68507139D01*
X157156079Y-68616628D01*
X157156092Y-68616635D01*
X157311473Y-68680995D01*
X157338165Y-68692051D01*
X157338169Y-68692051D01*
X157338170Y-68692052D01*
X157531456Y-68730500D01*
X157531459Y-68730500D01*
X157728543Y-68730500D01*
X157873643Y-68701637D01*
X157921835Y-68692051D01*
X158103914Y-68616632D01*
X158267782Y-68507139D01*
X158407139Y-68367782D01*
X158516632Y-68203914D01*
X158592051Y-68021835D01*
X158630500Y-67828541D01*
X158630500Y-67631459D01*
X158630500Y-67631456D01*
X158592052Y-67438170D01*
X158592051Y-67438169D01*
X158592051Y-67438165D01*
X158569953Y-67384815D01*
X158516635Y-67256092D01*
X158516628Y-67256079D01*
X158407139Y-67092218D01*
X158407136Y-67092214D01*
X158267785Y-66952863D01*
X158267781Y-66952860D01*
X158103920Y-66843371D01*
X158103907Y-66843364D01*
X157921839Y-66767950D01*
X157921829Y-66767947D01*
X157728543Y-66729500D01*
X157728541Y-66729500D01*
X157531459Y-66729500D01*
X157531457Y-66729500D01*
X157338170Y-66767947D01*
X157338160Y-66767950D01*
X157156092Y-66843364D01*
X157156079Y-66843371D01*
X156992218Y-66952860D01*
X156992214Y-66952863D01*
X156852863Y-67092214D01*
X156852860Y-67092218D01*
X156743371Y-67256079D01*
X156743364Y-67256092D01*
X156713600Y-67327952D01*
X156669760Y-67382356D01*
X156603466Y-67404421D01*
X156599039Y-67404500D01*
X156175189Y-67404500D01*
X156108150Y-67384815D01*
X156062395Y-67332011D01*
X156052451Y-67262853D01*
X156081476Y-67199297D01*
X156087508Y-67192819D01*
X156327467Y-66952860D01*
X157131165Y-66149160D01*
X157192486Y-66115677D01*
X157262177Y-66120661D01*
X157266270Y-66122271D01*
X157338165Y-66152051D01*
X157338169Y-66152051D01*
X157338170Y-66152052D01*
X157531456Y-66190500D01*
X157531459Y-66190500D01*
X157728543Y-66190500D01*
X157870215Y-66162319D01*
X157921835Y-66152051D01*
X158103914Y-66076632D01*
X158267782Y-65967139D01*
X158407139Y-65827782D01*
X158516632Y-65663914D01*
X158592051Y-65481835D01*
X158615257Y-65365173D01*
X158630500Y-65288543D01*
X158630500Y-65091456D01*
X158592052Y-64898170D01*
X158592051Y-64898169D01*
X158592051Y-64898165D01*
X158556725Y-64812880D01*
X158516635Y-64716092D01*
X158516628Y-64716079D01*
X158407139Y-64552218D01*
X158407136Y-64552214D01*
X158267785Y-64412863D01*
X158267781Y-64412860D01*
X158103920Y-64303371D01*
X158103907Y-64303364D01*
X157921839Y-64227950D01*
X157921829Y-64227947D01*
X157728543Y-64189500D01*
X157728541Y-64189500D01*
X157531459Y-64189500D01*
X157531457Y-64189500D01*
X157338170Y-64227947D01*
X157338160Y-64227950D01*
X157156092Y-64303364D01*
X157156079Y-64303371D01*
X156992218Y-64412860D01*
X156992214Y-64412863D01*
X156852863Y-64552214D01*
X156852860Y-64552218D01*
X156743371Y-64716079D01*
X156743364Y-64716092D01*
X156667950Y-64898160D01*
X156667947Y-64898170D01*
X156629500Y-65091456D01*
X156629500Y-65091459D01*
X156629500Y-65288541D01*
X156629500Y-65288543D01*
X156629499Y-65288543D01*
X156667947Y-65481828D01*
X156667948Y-65481831D01*
X156667949Y-65481835D01*
X156667951Y-65481839D01*
X156697717Y-65553703D01*
X156705184Y-65623173D01*
X156673909Y-65685651D01*
X156670836Y-65688835D01*
X155721492Y-66638181D01*
X155660169Y-66671666D01*
X155633811Y-66674500D01*
X146686189Y-66674500D01*
X146619150Y-66654815D01*
X146598508Y-66638181D01*
X145361819Y-65401492D01*
X145328334Y-65340169D01*
X145325500Y-65313811D01*
X145325500Y-62748543D01*
X156629499Y-62748543D01*
X156667947Y-62941829D01*
X156667950Y-62941839D01*
X156743364Y-63123907D01*
X156743371Y-63123920D01*
X156852860Y-63287781D01*
X156852863Y-63287785D01*
X156992214Y-63427136D01*
X156992218Y-63427139D01*
X157156079Y-63536628D01*
X157156092Y-63536635D01*
X157313926Y-63602011D01*
X157338165Y-63612051D01*
X157338169Y-63612051D01*
X157338170Y-63612052D01*
X157531456Y-63650500D01*
X157531459Y-63650500D01*
X157728543Y-63650500D01*
X157858582Y-63624632D01*
X157921835Y-63612051D01*
X158103914Y-63536632D01*
X158267782Y-63427139D01*
X158407139Y-63287782D01*
X158516632Y-63123914D01*
X158592051Y-62941835D01*
X158630500Y-62748541D01*
X158630500Y-62551459D01*
X158630500Y-62551456D01*
X158592052Y-62358170D01*
X158592051Y-62358169D01*
X158592051Y-62358165D01*
X158574576Y-62315977D01*
X158516635Y-62176092D01*
X158516628Y-62176079D01*
X158407139Y-62012218D01*
X158407136Y-62012214D01*
X158267785Y-61872863D01*
X158267781Y-61872860D01*
X158103920Y-61763371D01*
X158103907Y-61763364D01*
X157921839Y-61687950D01*
X157921829Y-61687947D01*
X157728543Y-61649500D01*
X157728541Y-61649500D01*
X157531459Y-61649500D01*
X157531457Y-61649500D01*
X157338170Y-61687947D01*
X157338160Y-61687950D01*
X157156092Y-61763364D01*
X157156079Y-61763371D01*
X156992218Y-61872860D01*
X156992214Y-61872863D01*
X156852863Y-62012214D01*
X156852860Y-62012218D01*
X156743371Y-62176079D01*
X156743364Y-62176092D01*
X156667950Y-62358160D01*
X156667947Y-62358170D01*
X156629500Y-62551456D01*
X156629500Y-62551459D01*
X156629500Y-62748541D01*
X156629500Y-62748543D01*
X156629499Y-62748543D01*
X145325500Y-62748543D01*
X145325500Y-57668543D01*
X156629499Y-57668543D01*
X156667947Y-57861829D01*
X156667950Y-57861839D01*
X156743364Y-58043907D01*
X156743371Y-58043920D01*
X156852860Y-58207781D01*
X156852863Y-58207785D01*
X156992214Y-58347136D01*
X156992218Y-58347139D01*
X157156079Y-58456628D01*
X157156088Y-58456633D01*
X157338165Y-58532051D01*
X157343987Y-58533817D01*
X157343281Y-58536142D01*
X157395706Y-58563549D01*
X157397308Y-58565122D01*
X157730005Y-58897819D01*
X157763490Y-58959142D01*
X157758506Y-59028834D01*
X157716634Y-59084767D01*
X157651170Y-59109184D01*
X157642324Y-59109500D01*
X157531457Y-59109500D01*
X157338170Y-59147947D01*
X157338160Y-59147950D01*
X157156092Y-59223364D01*
X157156079Y-59223371D01*
X156992218Y-59332860D01*
X156992214Y-59332863D01*
X156852863Y-59472214D01*
X156852860Y-59472218D01*
X156743371Y-59636079D01*
X156743364Y-59636092D01*
X156667950Y-59818160D01*
X156667947Y-59818170D01*
X156629500Y-60011456D01*
X156629500Y-60011459D01*
X156629500Y-60208541D01*
X156629500Y-60208543D01*
X156629499Y-60208543D01*
X156667947Y-60401829D01*
X156667950Y-60401839D01*
X156743364Y-60583907D01*
X156743371Y-60583920D01*
X156852860Y-60747781D01*
X156852863Y-60747785D01*
X156992214Y-60887136D01*
X156992218Y-60887139D01*
X157156079Y-60996628D01*
X157156092Y-60996635D01*
X157331190Y-61069162D01*
X157338165Y-61072051D01*
X157338169Y-61072051D01*
X157338170Y-61072052D01*
X157531456Y-61110500D01*
X157531459Y-61110500D01*
X157728543Y-61110500D01*
X157858582Y-61084632D01*
X157921835Y-61072051D01*
X158070250Y-61010576D01*
X158103907Y-60996635D01*
X158103907Y-60996634D01*
X158103914Y-60996632D01*
X158267782Y-60887139D01*
X158407139Y-60747782D01*
X158516632Y-60583914D01*
X158592051Y-60401835D01*
X158630500Y-60208541D01*
X158630500Y-60137922D01*
X159818549Y-60137922D01*
X159861021Y-60284117D01*
X159943331Y-60423296D01*
X159943338Y-60423305D01*
X160057669Y-60537636D01*
X160057678Y-60537643D01*
X160196857Y-60619953D01*
X160352142Y-60665067D01*
X160373053Y-60666711D01*
X160873053Y-60666711D01*
X160893963Y-60665067D01*
X161049248Y-60619953D01*
X161188427Y-60537643D01*
X161188436Y-60537636D01*
X161302767Y-60423305D01*
X161302774Y-60423296D01*
X161385084Y-60284117D01*
X161427557Y-60137922D01*
X160873053Y-60137922D01*
X160873053Y-60666711D01*
X160373053Y-60666711D01*
X160373053Y-60137922D01*
X159818549Y-60137922D01*
X158630500Y-60137922D01*
X158630500Y-60011459D01*
X158630500Y-60011456D01*
X158592052Y-59818170D01*
X158592051Y-59818169D01*
X158592051Y-59818165D01*
X158572481Y-59770918D01*
X158516635Y-59636092D01*
X158516629Y-59636081D01*
X158506761Y-59621312D01*
X158485884Y-59554634D01*
X158504369Y-59487254D01*
X158556349Y-59440564D01*
X158609864Y-59428422D01*
X159714261Y-59428422D01*
X159781300Y-59448107D01*
X159827055Y-59500911D01*
X159836999Y-59570069D01*
X159833338Y-59587016D01*
X159818549Y-59637922D01*
X161427557Y-59637922D01*
X161385084Y-59491726D01*
X161302774Y-59352547D01*
X161302767Y-59352538D01*
X161188434Y-59238205D01*
X161182270Y-59233424D01*
X161183786Y-59231469D01*
X161144416Y-59189300D01*
X161131915Y-59120557D01*
X161132279Y-59117498D01*
X161133553Y-59107823D01*
X161133552Y-58748022D01*
X161127025Y-58698435D01*
X161076277Y-58589606D01*
X160991369Y-58504698D01*
X160882540Y-58453950D01*
X160882538Y-58453949D01*
X160882539Y-58453949D01*
X160832955Y-58447422D01*
X160832954Y-58447422D01*
X160779912Y-58447422D01*
X160747820Y-58443197D01*
X160688946Y-58427422D01*
X160688945Y-58427422D01*
X158726598Y-58427422D01*
X158697157Y-58418777D01*
X158667171Y-58412254D01*
X158662155Y-58408499D01*
X158659559Y-58407737D01*
X158638917Y-58391103D01*
X158529995Y-58282181D01*
X158496510Y-58220858D01*
X158501494Y-58151166D01*
X158543366Y-58095233D01*
X158608830Y-58070816D01*
X158617676Y-58070500D01*
X159855890Y-58070500D01*
X159855892Y-58070500D01*
X159983186Y-58036392D01*
X160097314Y-57970500D01*
X161140500Y-56927314D01*
X161206392Y-56813186D01*
X161240500Y-56685892D01*
X161240500Y-56554107D01*
X161240500Y-55559500D01*
X161260185Y-55492461D01*
X161312989Y-55446706D01*
X161364500Y-55435500D01*
X161634750Y-55435500D01*
X161634751Y-55435499D01*
X161649568Y-55432552D01*
X161693229Y-55423868D01*
X161693229Y-55423867D01*
X161693231Y-55423867D01*
X161759552Y-55379552D01*
X161803867Y-55313231D01*
X161803867Y-55313229D01*
X161803868Y-55313229D01*
X161815499Y-55254752D01*
X161815500Y-55254750D01*
X161815500Y-54265249D01*
X161815499Y-54265247D01*
X161803868Y-54206770D01*
X161803867Y-54206769D01*
X161759552Y-54140447D01*
X161693230Y-54096132D01*
X161693229Y-54096131D01*
X161634752Y-54084500D01*
X161634748Y-54084500D01*
X159845252Y-54084500D01*
X159845247Y-54084500D01*
X159786770Y-54096131D01*
X159786769Y-54096132D01*
X159720447Y-54140447D01*
X159676132Y-54206769D01*
X159676131Y-54206770D01*
X159664500Y-54265247D01*
X159664500Y-55254752D01*
X159676131Y-55313229D01*
X159676132Y-55313230D01*
X159720447Y-55379552D01*
X159786769Y-55423867D01*
X159786770Y-55423868D01*
X159845247Y-55435499D01*
X159845250Y-55435500D01*
X159845252Y-55435500D01*
X160115500Y-55435500D01*
X160182539Y-55455185D01*
X160228294Y-55507989D01*
X160239500Y-55559500D01*
X160239500Y-56361324D01*
X160219815Y-56428363D01*
X160203181Y-56449005D01*
X159619005Y-57033181D01*
X159557682Y-57066666D01*
X159531324Y-57069500D01*
X158565147Y-57069500D01*
X158498108Y-57049815D01*
X158462045Y-57014391D01*
X158407139Y-56932218D01*
X158407137Y-56932215D01*
X158267785Y-56792863D01*
X158267781Y-56792860D01*
X158103920Y-56683371D01*
X158103907Y-56683364D01*
X157921839Y-56607950D01*
X157921829Y-56607947D01*
X157728543Y-56569500D01*
X157728541Y-56569500D01*
X157531459Y-56569500D01*
X157531457Y-56569500D01*
X157338170Y-56607947D01*
X157338160Y-56607950D01*
X157156092Y-56683364D01*
X157156079Y-56683371D01*
X156992218Y-56792860D01*
X156992214Y-56792863D01*
X156852863Y-56932214D01*
X156852860Y-56932218D01*
X156743371Y-57096079D01*
X156743364Y-57096092D01*
X156667950Y-57278160D01*
X156667947Y-57278170D01*
X156629500Y-57471456D01*
X156629500Y-57471459D01*
X156629500Y-57668541D01*
X156629500Y-57668543D01*
X156629499Y-57668543D01*
X145325500Y-57668543D01*
X145325500Y-57457149D01*
X145325500Y-57457147D01*
X145303318Y-57374362D01*
X145303314Y-57374355D01*
X145260469Y-57300144D01*
X145260463Y-57300136D01*
X144144864Y-56184537D01*
X144144862Y-56184535D01*
X144107750Y-56163108D01*
X144070640Y-56141682D01*
X144029246Y-56130591D01*
X143987853Y-56119500D01*
X143987852Y-56119500D01*
X142969075Y-56119500D01*
X142902036Y-56099815D01*
X142856281Y-56047011D01*
X142846337Y-55977853D01*
X142875362Y-55914297D01*
X142900184Y-55892398D01*
X142970403Y-55845478D01*
X143027782Y-55807139D01*
X143167139Y-55667782D01*
X143276632Y-55503914D01*
X143352051Y-55321835D01*
X143390500Y-55128541D01*
X143390500Y-54931459D01*
X143390500Y-54931456D01*
X143352052Y-54738170D01*
X143352051Y-54738169D01*
X143352051Y-54738165D01*
X143286407Y-54579685D01*
X143276635Y-54556092D01*
X143276628Y-54556079D01*
X143167139Y-54392218D01*
X143167136Y-54392214D01*
X143027785Y-54252863D01*
X143027781Y-54252860D01*
X142863920Y-54143371D01*
X142863907Y-54143364D01*
X142681839Y-54067950D01*
X142681829Y-54067947D01*
X142488543Y-54029500D01*
X142488541Y-54029500D01*
X142291459Y-54029500D01*
X142291457Y-54029500D01*
X142098170Y-54067947D01*
X142098160Y-54067950D01*
X141916092Y-54143364D01*
X141916079Y-54143371D01*
X141752218Y-54252860D01*
X141752214Y-54252863D01*
X141612863Y-54392214D01*
X141612860Y-54392218D01*
X141503371Y-54556079D01*
X141503364Y-54556092D01*
X141427950Y-54738160D01*
X141427947Y-54738170D01*
X141389500Y-54931456D01*
X141389500Y-54931459D01*
X141389500Y-55128541D01*
X141389500Y-55128543D01*
X141389499Y-55128543D01*
X141427947Y-55321829D01*
X141427950Y-55321839D01*
X141503364Y-55503907D01*
X141503371Y-55503920D01*
X141612860Y-55667781D01*
X141612863Y-55667785D01*
X141752214Y-55807136D01*
X141752218Y-55807139D01*
X141879816Y-55892398D01*
X141924621Y-55946010D01*
X141933328Y-56015335D01*
X141903173Y-56078363D01*
X141843730Y-56115082D01*
X141810925Y-56119500D01*
X135687299Y-56119500D01*
X135620260Y-56099815D01*
X135574505Y-56047011D01*
X135572738Y-56042953D01*
X135555941Y-56002403D01*
X135555941Y-56002402D01*
X135440977Y-55830345D01*
X135440975Y-55830342D01*
X135294657Y-55684024D01*
X135208626Y-55626541D01*
X135122598Y-55569059D01*
X134965339Y-55503920D01*
X134931420Y-55489870D01*
X134931412Y-55489868D01*
X134728469Y-55449500D01*
X134728465Y-55449500D01*
X134271535Y-55449500D01*
X134271530Y-55449500D01*
X134068587Y-55489868D01*
X134068579Y-55489870D01*
X133877403Y-55569058D01*
X133705342Y-55684024D01*
X133559024Y-55830342D01*
X133444058Y-56002403D01*
X133364870Y-56193579D01*
X133364868Y-56193587D01*
X133324500Y-56396530D01*
X131912066Y-56396530D01*
X131897759Y-52588543D01*
X141389499Y-52588543D01*
X141427947Y-52781829D01*
X141427950Y-52781839D01*
X141503364Y-52963907D01*
X141503371Y-52963920D01*
X141612860Y-53127781D01*
X141612863Y-53127785D01*
X141752214Y-53267136D01*
X141752218Y-53267139D01*
X141916079Y-53376628D01*
X141916092Y-53376635D01*
X142057000Y-53435000D01*
X142098165Y-53452051D01*
X142098169Y-53452051D01*
X142098170Y-53452052D01*
X142291456Y-53490500D01*
X142291459Y-53490500D01*
X142488543Y-53490500D01*
X142618582Y-53464632D01*
X142681835Y-53452051D01*
X142859757Y-53378354D01*
X142863907Y-53376635D01*
X142863907Y-53376634D01*
X142863914Y-53376632D01*
X143027782Y-53267139D01*
X143167139Y-53127782D01*
X143276632Y-52963914D01*
X143352051Y-52781835D01*
X143360373Y-52740000D01*
X143372558Y-52678745D01*
X143372558Y-52678744D01*
X143390499Y-52588545D01*
X143390500Y-52588543D01*
X143390500Y-52391456D01*
X143390499Y-52391454D01*
X143372558Y-52301254D01*
X143360373Y-52240000D01*
X156353391Y-52240000D01*
X157196988Y-52240000D01*
X157164075Y-52297007D01*
X157130000Y-52424174D01*
X157130000Y-52555826D01*
X157164075Y-52682993D01*
X157196988Y-52740000D01*
X156353391Y-52740000D01*
X156362009Y-52794413D01*
X156425244Y-52989029D01*
X156518140Y-53171349D01*
X156638417Y-53336894D01*
X156638417Y-53336895D01*
X156783104Y-53481582D01*
X156948650Y-53601859D01*
X157130968Y-53694755D01*
X157325582Y-53757990D01*
X157514268Y-53787875D01*
X157577403Y-53817804D01*
X157614334Y-53877116D01*
X157613336Y-53946978D01*
X157574726Y-54005211D01*
X157519062Y-54031965D01*
X157338170Y-54067947D01*
X157338160Y-54067950D01*
X157156092Y-54143364D01*
X157156079Y-54143371D01*
X156992218Y-54252860D01*
X156992214Y-54252863D01*
X156852863Y-54392214D01*
X156852860Y-54392218D01*
X156743371Y-54556079D01*
X156743364Y-54556092D01*
X156667950Y-54738160D01*
X156667947Y-54738170D01*
X156629500Y-54931456D01*
X156629500Y-54931459D01*
X156629500Y-55128541D01*
X156629500Y-55128543D01*
X156629499Y-55128543D01*
X156667947Y-55321829D01*
X156667950Y-55321839D01*
X156743364Y-55503907D01*
X156743371Y-55503920D01*
X156852860Y-55667781D01*
X156852863Y-55667785D01*
X156992214Y-55807136D01*
X156992218Y-55807139D01*
X157156079Y-55916628D01*
X157156092Y-55916635D01*
X157338160Y-55992049D01*
X157338165Y-55992051D01*
X157338169Y-55992051D01*
X157338170Y-55992052D01*
X157531456Y-56030500D01*
X157531459Y-56030500D01*
X157728543Y-56030500D01*
X157858582Y-56004632D01*
X157921835Y-55992051D01*
X158103914Y-55916632D01*
X158267782Y-55807139D01*
X158407139Y-55667782D01*
X158516632Y-55503914D01*
X158592051Y-55321835D01*
X158630500Y-55128541D01*
X158630500Y-54931459D01*
X158630500Y-54931456D01*
X158592052Y-54738170D01*
X158592051Y-54738169D01*
X158592051Y-54738165D01*
X158526407Y-54579685D01*
X158516635Y-54556092D01*
X158516628Y-54556079D01*
X158407139Y-54392218D01*
X158407136Y-54392214D01*
X158267785Y-54252863D01*
X158267781Y-54252860D01*
X158103920Y-54143371D01*
X158103907Y-54143364D01*
X157921839Y-54067950D01*
X157921829Y-54067947D01*
X157740937Y-54031965D01*
X157679026Y-53999580D01*
X157644452Y-53938864D01*
X157648192Y-53869095D01*
X157689059Y-53812423D01*
X157745731Y-53787875D01*
X157934417Y-53757990D01*
X158129031Y-53694755D01*
X158311349Y-53601859D01*
X158476894Y-53481582D01*
X158476895Y-53481582D01*
X158621582Y-53336895D01*
X158621582Y-53336894D01*
X158741859Y-53171349D01*
X158834755Y-52989029D01*
X158836765Y-52982844D01*
X159365000Y-52982844D01*
X159371401Y-53042372D01*
X159371403Y-53042379D01*
X159421645Y-53177086D01*
X159421649Y-53177093D01*
X159507809Y-53292187D01*
X159507812Y-53292190D01*
X159622906Y-53378350D01*
X159622913Y-53378354D01*
X159757620Y-53428596D01*
X159757627Y-53428598D01*
X159817155Y-53434999D01*
X159817172Y-53435000D01*
X160490000Y-53435000D01*
X160990000Y-53435000D01*
X161662828Y-53435000D01*
X161662844Y-53434999D01*
X161722372Y-53428598D01*
X161722379Y-53428596D01*
X161857086Y-53378354D01*
X161857093Y-53378350D01*
X161972187Y-53292190D01*
X161972190Y-53292187D01*
X162058350Y-53177093D01*
X162058354Y-53177086D01*
X162108596Y-53042379D01*
X162108598Y-53042372D01*
X162114999Y-52982844D01*
X162115000Y-52982827D01*
X162115000Y-52710000D01*
X160990000Y-52710000D01*
X160990000Y-53435000D01*
X160490000Y-53435000D01*
X160490000Y-52710000D01*
X159365000Y-52710000D01*
X159365000Y-52982844D01*
X158836765Y-52982844D01*
X158897990Y-52794413D01*
X158906609Y-52740000D01*
X158063012Y-52740000D01*
X158095925Y-52682993D01*
X158130000Y-52555826D01*
X158130000Y-52424174D01*
X158095925Y-52297007D01*
X158063012Y-52240000D01*
X158906609Y-52240000D01*
X158897990Y-52185586D01*
X158834755Y-51990969D01*
X158834334Y-51990142D01*
X158807336Y-51937155D01*
X159365000Y-51937155D01*
X159365000Y-52210000D01*
X160490000Y-52210000D01*
X160990000Y-52210000D01*
X162115000Y-52210000D01*
X162115000Y-51937172D01*
X162114999Y-51937155D01*
X162108598Y-51877627D01*
X162108596Y-51877620D01*
X162058354Y-51742913D01*
X162058350Y-51742906D01*
X161972190Y-51627812D01*
X161972187Y-51627809D01*
X161857093Y-51541649D01*
X161857086Y-51541645D01*
X161722379Y-51491403D01*
X161722372Y-51491401D01*
X161662844Y-51485000D01*
X160990000Y-51485000D01*
X160990000Y-52210000D01*
X160490000Y-52210000D01*
X160490000Y-51485000D01*
X159817155Y-51485000D01*
X159757627Y-51491401D01*
X159757620Y-51491403D01*
X159622913Y-51541645D01*
X159622906Y-51541649D01*
X159507812Y-51627809D01*
X159507809Y-51627812D01*
X159421649Y-51742906D01*
X159421645Y-51742913D01*
X159371403Y-51877620D01*
X159371401Y-51877627D01*
X159365000Y-51937155D01*
X158807336Y-51937155D01*
X158741859Y-51808650D01*
X158621582Y-51643105D01*
X158621582Y-51643104D01*
X158476895Y-51498417D01*
X158311349Y-51378140D01*
X158129031Y-51285244D01*
X157934417Y-51222009D01*
X157745731Y-51192124D01*
X157682596Y-51162194D01*
X157645665Y-51102883D01*
X157646663Y-51033020D01*
X157685273Y-50974788D01*
X157740938Y-50948034D01*
X157921835Y-50912051D01*
X158103914Y-50836632D01*
X158267782Y-50727139D01*
X158407139Y-50587782D01*
X158516632Y-50423914D01*
X158592051Y-50241835D01*
X158630500Y-50048541D01*
X158630500Y-49851459D01*
X158630500Y-49851456D01*
X158592052Y-49658170D01*
X158592051Y-49658169D01*
X158592051Y-49658165D01*
X158557973Y-49575892D01*
X158516635Y-49476092D01*
X158516628Y-49476079D01*
X158407139Y-49312218D01*
X158407136Y-49312214D01*
X158267785Y-49172863D01*
X158267781Y-49172860D01*
X158103920Y-49063371D01*
X158103907Y-49063364D01*
X157921839Y-48987950D01*
X157921829Y-48987947D01*
X157728543Y-48949500D01*
X157728541Y-48949500D01*
X157531459Y-48949500D01*
X157531457Y-48949500D01*
X157338170Y-48987947D01*
X157338160Y-48987950D01*
X157156092Y-49063364D01*
X157156079Y-49063371D01*
X156992218Y-49172860D01*
X156992214Y-49172863D01*
X156852863Y-49312214D01*
X156852860Y-49312218D01*
X156743371Y-49476079D01*
X156743364Y-49476092D01*
X156667950Y-49658160D01*
X156667947Y-49658170D01*
X156629500Y-49851456D01*
X156629500Y-49851459D01*
X156629500Y-50048541D01*
X156629500Y-50048543D01*
X156629499Y-50048543D01*
X156667947Y-50241829D01*
X156667950Y-50241839D01*
X156743364Y-50423907D01*
X156743371Y-50423920D01*
X156852860Y-50587781D01*
X156852863Y-50587785D01*
X156992214Y-50727136D01*
X156992218Y-50727139D01*
X157156079Y-50836628D01*
X157156092Y-50836635D01*
X157295918Y-50894552D01*
X157338165Y-50912051D01*
X157470674Y-50938409D01*
X157519061Y-50948034D01*
X157580972Y-50980419D01*
X157615546Y-51041134D01*
X157611807Y-51110904D01*
X157570940Y-51167576D01*
X157514269Y-51192124D01*
X157325581Y-51222010D01*
X157130968Y-51285244D01*
X156948650Y-51378140D01*
X156783105Y-51498417D01*
X156783104Y-51498417D01*
X156638417Y-51643104D01*
X156638417Y-51643105D01*
X156518140Y-51808650D01*
X156425244Y-51990970D01*
X156362009Y-52185586D01*
X156353391Y-52240000D01*
X143360373Y-52240000D01*
X143352052Y-52198170D01*
X143352051Y-52198169D01*
X143352051Y-52198165D01*
X143341345Y-52172318D01*
X143276635Y-52016092D01*
X143276628Y-52016079D01*
X143167139Y-51852218D01*
X143167136Y-51852214D01*
X143027785Y-51712863D01*
X143027781Y-51712860D01*
X142863920Y-51603371D01*
X142863907Y-51603364D01*
X142681839Y-51527950D01*
X142681829Y-51527947D01*
X142488543Y-51489500D01*
X142488541Y-51489500D01*
X142291459Y-51489500D01*
X142291457Y-51489500D01*
X142098170Y-51527947D01*
X142098160Y-51527950D01*
X141916092Y-51603364D01*
X141916079Y-51603371D01*
X141752218Y-51712860D01*
X141752214Y-51712863D01*
X141612863Y-51852214D01*
X141612860Y-51852218D01*
X141503371Y-52016079D01*
X141503364Y-52016092D01*
X141427950Y-52198160D01*
X141427947Y-52198170D01*
X141389500Y-52391456D01*
X141389500Y-52391459D01*
X141389500Y-52588541D01*
X141389500Y-52588543D01*
X141389499Y-52588543D01*
X131897759Y-52588543D01*
X131887642Y-49895730D01*
X133199500Y-49895730D01*
X133199500Y-51504269D01*
X133202353Y-51534699D01*
X133202353Y-51534701D01*
X133247206Y-51662880D01*
X133247207Y-51662882D01*
X133327850Y-51772150D01*
X133437118Y-51852793D01*
X133479845Y-51867744D01*
X133565299Y-51897646D01*
X133595730Y-51900500D01*
X133595734Y-51900500D01*
X134904270Y-51900500D01*
X134934699Y-51897646D01*
X134934701Y-51897646D01*
X135001967Y-51874108D01*
X135062882Y-51852793D01*
X135172150Y-51772150D01*
X135252793Y-51662882D01*
X135289648Y-51557557D01*
X135297646Y-51534701D01*
X135297646Y-51534699D01*
X135300500Y-51504269D01*
X135300500Y-51495323D01*
X135320185Y-51428284D01*
X135372989Y-51382529D01*
X135442147Y-51372585D01*
X135505703Y-51401610D01*
X135534985Y-51439028D01*
X135595379Y-51557557D01*
X135720272Y-51729459D01*
X135720276Y-51729464D01*
X135870535Y-51879723D01*
X135870540Y-51879727D01*
X136042442Y-52004620D01*
X136231782Y-52101095D01*
X136433871Y-52166757D01*
X136500000Y-52177231D01*
X136500000Y-51133012D01*
X136557007Y-51165925D01*
X136684174Y-51200000D01*
X136815826Y-51200000D01*
X136942993Y-51165925D01*
X137000000Y-51133012D01*
X137000000Y-52177230D01*
X137066126Y-52166757D01*
X137066129Y-52166757D01*
X137268217Y-52101095D01*
X137457557Y-52004620D01*
X137629459Y-51879727D01*
X137629464Y-51879723D01*
X137779723Y-51729464D01*
X137779727Y-51729459D01*
X137904620Y-51557557D01*
X138001095Y-51368217D01*
X138066757Y-51166130D01*
X138066757Y-51166127D01*
X138100000Y-50956246D01*
X138100000Y-50950000D01*
X137183012Y-50950000D01*
X137215925Y-50892993D01*
X137250000Y-50765826D01*
X137250000Y-50634174D01*
X137215925Y-50507007D01*
X137183012Y-50450000D01*
X138100000Y-50450000D01*
X138100000Y-50443753D01*
X138066757Y-50233872D01*
X138066757Y-50233869D01*
X138001095Y-50031782D01*
X137904620Y-49842442D01*
X137779727Y-49670540D01*
X137779723Y-49670535D01*
X137629464Y-49520276D01*
X137629459Y-49520272D01*
X137457557Y-49395379D01*
X137268215Y-49298903D01*
X137093361Y-49242091D01*
X137066124Y-49233241D01*
X137000000Y-49222768D01*
X137000000Y-50266988D01*
X136942993Y-50234075D01*
X136815826Y-50200000D01*
X136684174Y-50200000D01*
X136557007Y-50234075D01*
X136500000Y-50266988D01*
X136500000Y-49222768D01*
X136499999Y-49222768D01*
X136433875Y-49233241D01*
X136231784Y-49298903D01*
X136042442Y-49395379D01*
X135870540Y-49520272D01*
X135870535Y-49520276D01*
X135720276Y-49670535D01*
X135720272Y-49670540D01*
X135595379Y-49842442D01*
X135534985Y-49960971D01*
X135487010Y-50011767D01*
X135419189Y-50028562D01*
X135353054Y-50006024D01*
X135309603Y-49951309D01*
X135300500Y-49904676D01*
X135300500Y-49895730D01*
X135297646Y-49865300D01*
X135297646Y-49865298D01*
X135252793Y-49737119D01*
X135252792Y-49737117D01*
X135172150Y-49627850D01*
X135062882Y-49547207D01*
X135061710Y-49546797D01*
X135054858Y-49544399D01*
X134998083Y-49503676D01*
X134972338Y-49438722D01*
X134985796Y-49370161D01*
X135008132Y-49339681D01*
X135217566Y-49130247D01*
X141389500Y-49130247D01*
X141389500Y-50769752D01*
X141401131Y-50828229D01*
X141401132Y-50828230D01*
X141445447Y-50894552D01*
X141511769Y-50938867D01*
X141511770Y-50938868D01*
X141570247Y-50950499D01*
X141570250Y-50950500D01*
X141570252Y-50950500D01*
X143209750Y-50950500D01*
X143209751Y-50950499D01*
X143224568Y-50947552D01*
X143268229Y-50938868D01*
X143268229Y-50938867D01*
X143268231Y-50938867D01*
X143334552Y-50894552D01*
X143378867Y-50828231D01*
X143378867Y-50828229D01*
X143378868Y-50828229D01*
X143390499Y-50769752D01*
X143390500Y-50769750D01*
X143390500Y-49130249D01*
X143390499Y-49130247D01*
X143378868Y-49071770D01*
X143378867Y-49071769D01*
X143334552Y-49005447D01*
X143268230Y-48961132D01*
X143268229Y-48961131D01*
X143209752Y-48949500D01*
X143209748Y-48949500D01*
X141570252Y-48949500D01*
X141570247Y-48949500D01*
X141511770Y-48961131D01*
X141511769Y-48961132D01*
X141445447Y-49005447D01*
X141401132Y-49071769D01*
X141401131Y-49071770D01*
X141389500Y-49130247D01*
X135217566Y-49130247D01*
X136150995Y-48196819D01*
X136212318Y-48163334D01*
X136238676Y-48160500D01*
X143230568Y-48160500D01*
X143297607Y-48180185D01*
X143299459Y-48181398D01*
X143381866Y-48236461D01*
X143381872Y-48236464D01*
X143381873Y-48236465D01*
X143500256Y-48285501D01*
X143500260Y-48285501D01*
X143500261Y-48285502D01*
X143625928Y-48310500D01*
X143625931Y-48310500D01*
X143754071Y-48310500D01*
X143838615Y-48293682D01*
X143879744Y-48285501D01*
X143998127Y-48236465D01*
X144104669Y-48165276D01*
X144195276Y-48074669D01*
X144266465Y-47968127D01*
X144315501Y-47849744D01*
X144340500Y-47724069D01*
X144340500Y-47595931D01*
X144340500Y-47595928D01*
X144315502Y-47470261D01*
X144315501Y-47470260D01*
X144315501Y-47470256D01*
X144266465Y-47351873D01*
X144266464Y-47351872D01*
X144266461Y-47351866D01*
X144195276Y-47245331D01*
X144195273Y-47245327D01*
X144104672Y-47154726D01*
X144104668Y-47154723D01*
X143998133Y-47083538D01*
X143998124Y-47083533D01*
X143879744Y-47034499D01*
X143879738Y-47034497D01*
X143754071Y-47009500D01*
X143754069Y-47009500D01*
X143625931Y-47009500D01*
X143625929Y-47009500D01*
X143500261Y-47034497D01*
X143500255Y-47034499D01*
X143381875Y-47083533D01*
X143381866Y-47083538D01*
X143299459Y-47138602D01*
X143232782Y-47159480D01*
X143230568Y-47159500D01*
X135914107Y-47159500D01*
X135839540Y-47179479D01*
X135839541Y-47179480D01*
X135786812Y-47193608D01*
X135786811Y-47193609D01*
X135672689Y-47259498D01*
X135672683Y-47259502D01*
X133849502Y-49082683D01*
X133849500Y-49082686D01*
X133783608Y-49196812D01*
X133749500Y-49324108D01*
X133749500Y-49375500D01*
X133729815Y-49442539D01*
X133677011Y-49488294D01*
X133625500Y-49499500D01*
X133595730Y-49499500D01*
X133565300Y-49502353D01*
X133565298Y-49502353D01*
X133437119Y-49547206D01*
X133437117Y-49547207D01*
X133327850Y-49627850D01*
X133247207Y-49737117D01*
X133247206Y-49737119D01*
X133202353Y-49865298D01*
X133202353Y-49865300D01*
X133199500Y-49895730D01*
X131887642Y-49895730D01*
X131878212Y-47385851D01*
X131897644Y-47318740D01*
X131950276Y-47272787D01*
X132019397Y-47262584D01*
X132083061Y-47291370D01*
X132089892Y-47297706D01*
X132213297Y-47421111D01*
X132367076Y-47532838D01*
X132536440Y-47619133D01*
X132717218Y-47677872D01*
X132787620Y-47689022D01*
X132904954Y-47707607D01*
X132904959Y-47707607D01*
X133095046Y-47707607D01*
X133199341Y-47691087D01*
X133282782Y-47677872D01*
X133463560Y-47619133D01*
X133632924Y-47532838D01*
X133786703Y-47421111D01*
X133921111Y-47286703D01*
X134032838Y-47132924D01*
X134119133Y-46963560D01*
X134177872Y-46782782D01*
X134195452Y-46671787D01*
X134207607Y-46595046D01*
X134207607Y-46404953D01*
X134177872Y-46217221D01*
X134177872Y-46217218D01*
X134119133Y-46036440D01*
X134032838Y-45867076D01*
X133921111Y-45713297D01*
X133786703Y-45578889D01*
X133632924Y-45467162D01*
X133552133Y-45425997D01*
X133501337Y-45378022D01*
X133484542Y-45310201D01*
X133507079Y-45244066D01*
X133561795Y-45200615D01*
X133607821Y-45191513D01*
X166556430Y-45030603D01*
X166623564Y-45049960D01*
G37*
%TD.AperFunction*%
%TA.AperFunction,Conductor*%
G36*
X163193039Y-73004685D02*
G01*
X163238794Y-73057489D01*
X163250000Y-73109000D01*
X163250000Y-73779044D01*
X163250001Y-73779045D01*
X163274592Y-73777112D01*
X163274599Y-73777110D01*
X163431691Y-73731470D01*
X163431697Y-73731468D01*
X163572508Y-73648193D01*
X163572510Y-73648191D01*
X163580002Y-73640700D01*
X163641324Y-73607213D01*
X163711016Y-73612195D01*
X163766951Y-73654064D01*
X163778304Y-73673998D01*
X163825447Y-73744552D01*
X163891769Y-73788867D01*
X163891770Y-73788868D01*
X163950247Y-73800499D01*
X163950250Y-73800500D01*
X165455500Y-73800500D01*
X165464185Y-73803050D01*
X165473147Y-73801762D01*
X165497187Y-73812740D01*
X165522539Y-73820185D01*
X165528466Y-73827025D01*
X165536703Y-73830787D01*
X165550992Y-73853021D01*
X165568294Y-73872989D01*
X165570581Y-73883503D01*
X165574477Y-73889565D01*
X165579500Y-73924500D01*
X165579500Y-74075500D01*
X165559815Y-74142539D01*
X165507011Y-74188294D01*
X165455500Y-74199500D01*
X163950247Y-74199500D01*
X163891770Y-74211131D01*
X163891769Y-74211132D01*
X163825447Y-74255447D01*
X163774348Y-74331923D01*
X163771194Y-74329815D01*
X163740954Y-74367349D01*
X163674662Y-74389421D01*
X163670224Y-74389500D01*
X162536271Y-74389500D01*
X162469232Y-74369815D01*
X162448594Y-74353185D01*
X162385751Y-74290342D01*
X162267420Y-74230049D01*
X162267419Y-74230048D01*
X162267416Y-74230047D01*
X162267417Y-74230047D01*
X162169251Y-74214500D01*
X162169246Y-74214500D01*
X162010193Y-74214500D01*
X161943154Y-74194815D01*
X161897399Y-74142011D01*
X161887455Y-74072853D01*
X161902806Y-74028500D01*
X161956390Y-73935689D01*
X161956392Y-73935686D01*
X161990500Y-73808392D01*
X161990500Y-73676608D01*
X161990500Y-73440412D01*
X162010185Y-73373373D01*
X162062989Y-73327618D01*
X162132147Y-73317674D01*
X162195703Y-73346699D01*
X162224007Y-73385308D01*
X162224560Y-73384982D01*
X162227865Y-73390570D01*
X162228303Y-73391168D01*
X162228533Y-73391701D01*
X162311806Y-73532508D01*
X162311812Y-73532516D01*
X162427483Y-73648187D01*
X162427491Y-73648193D01*
X162568302Y-73731468D01*
X162568307Y-73731470D01*
X162725402Y-73777110D01*
X162750000Y-73779045D01*
X162750000Y-73109000D01*
X162769685Y-73041961D01*
X162822489Y-72996206D01*
X162874000Y-72985000D01*
X163126000Y-72985000D01*
X163193039Y-73004685D01*
G37*
%TD.AperFunction*%
%TD*%
%TA.AperFunction,NonConductor*%
G36*
X132446324Y-45216870D02*
G01*
X132492336Y-45269450D01*
X132502618Y-45338559D01*
X132473903Y-45402256D01*
X132436091Y-45431996D01*
X132367077Y-45467160D01*
X132213298Y-45578888D01*
X132083263Y-45708923D01*
X132021940Y-45742407D01*
X131952248Y-45737423D01*
X131896315Y-45695551D01*
X131871898Y-45630087D01*
X131871584Y-45621746D01*
X131870465Y-45323857D01*
X131889898Y-45256747D01*
X131942530Y-45210794D01*
X131993857Y-45199395D01*
X132379190Y-45197513D01*
X132446324Y-45216870D01*
G37*
%TD.AperFunction*%
%TA.AperFunction,NonConductor*%
G36*
X133153261Y-70562103D02*
G01*
X133161575Y-70562253D01*
X133186246Y-70574062D01*
X133186498Y-70573592D01*
X133191872Y-70576464D01*
X133191873Y-70576465D01*
X133310256Y-70625501D01*
X133372372Y-70637857D01*
X133407471Y-70644839D01*
X133469382Y-70677224D01*
X133470961Y-70678775D01*
X133642686Y-70850500D01*
X133756814Y-70916392D01*
X133884107Y-70950500D01*
X133884108Y-70950500D01*
X134125500Y-70950500D01*
X134192539Y-70970185D01*
X134238294Y-71022989D01*
X134249500Y-71074500D01*
X134249500Y-71873694D01*
X134229815Y-71940733D01*
X134177011Y-71986488D01*
X134107853Y-71996432D01*
X134044297Y-71967407D01*
X134037819Y-71961375D01*
X133036819Y-70960375D01*
X133003334Y-70899052D01*
X133000500Y-70872694D01*
X133000500Y-70680581D01*
X133003366Y-70670819D01*
X133002100Y-70660723D01*
X133013045Y-70637857D01*
X133020185Y-70613542D01*
X133027873Y-70606880D01*
X133032267Y-70597701D01*
X133053836Y-70584382D01*
X133072989Y-70567787D01*
X133083058Y-70566339D01*
X133091717Y-70560993D01*
X133117060Y-70561450D01*
X133142147Y-70557843D01*
X133153261Y-70562103D01*
G37*
%TD.AperFunction*%
%TA.AperFunction,NonConductor*%
G36*
X132174065Y-71513744D02*
G01*
X132180896Y-71520080D01*
X132939918Y-72279102D01*
X132973403Y-72340425D01*
X132968419Y-72410117D01*
X132926547Y-72466050D01*
X132861083Y-72490467D01*
X132792810Y-72475615D01*
X132790238Y-72474171D01*
X132731784Y-72440423D01*
X132720812Y-72437483D01*
X132579057Y-72399500D01*
X132420943Y-72399500D01*
X132268216Y-72440423D01*
X132268215Y-72440423D01*
X132158177Y-72503953D01*
X132090277Y-72520424D01*
X132024250Y-72497572D01*
X131981060Y-72442650D01*
X131972179Y-72397036D01*
X131969216Y-71608225D01*
X131988648Y-71541114D01*
X132041280Y-71495161D01*
X132110401Y-71484958D01*
X132174065Y-71513744D01*
G37*
%TD.AperFunction*%
%TA.AperFunction,NonConductor*%
G36*
X162195703Y-71993963D02*
G01*
X162202181Y-71999995D01*
X162388060Y-72185874D01*
X162421545Y-72247197D01*
X162416561Y-72316889D01*
X162388060Y-72361236D01*
X162311812Y-72437483D01*
X162311806Y-72437491D01*
X162228529Y-72578306D01*
X162228300Y-72578836D01*
X162228009Y-72579184D01*
X162224560Y-72585018D01*
X162223618Y-72584461D01*
X162183609Y-72632543D01*
X162116976Y-72653562D01*
X162049556Y-72635220D01*
X162002757Y-72583340D01*
X161990500Y-72529587D01*
X161990500Y-72087676D01*
X162010185Y-72020637D01*
X162062989Y-71974882D01*
X162132147Y-71964938D01*
X162195703Y-71993963D01*
G37*
%TD.AperFunction*%
%TA.AperFunction,NonConductor*%
G36*
X166995082Y-92315244D02*
G01*
X167051016Y-92357115D01*
X167075433Y-92422579D01*
X167075745Y-92430391D01*
X167078961Y-92815569D01*
X167059837Y-92882770D01*
X167007416Y-92928964D01*
X166955567Y-92940603D01*
X166176245Y-92944385D01*
X166109111Y-92925026D01*
X166063100Y-92872444D01*
X166052821Y-92803335D01*
X166081537Y-92739639D01*
X166140131Y-92701580D01*
X166156243Y-92697913D01*
X166211801Y-92689114D01*
X166282777Y-92677873D01*
X166282777Y-92677872D01*
X166282782Y-92677872D01*
X166463560Y-92619133D01*
X166632924Y-92532838D01*
X166786703Y-92421111D01*
X166864071Y-92343742D01*
X166925390Y-92310260D01*
X166995082Y-92315244D01*
G37*
%TD.AperFunction*%
%TA.AperFunction,NonConductor*%
G36*
X144930703Y-65891476D02*
G01*
X144937181Y-65897508D01*
X146232492Y-67192819D01*
X146243104Y-67212255D01*
X146257605Y-67228989D01*
X146259521Y-67242320D01*
X146265977Y-67254142D01*
X146264397Y-67276228D01*
X146267549Y-67298147D01*
X146261953Y-67310398D01*
X146260993Y-67323834D01*
X146247722Y-67341560D01*
X146238524Y-67361703D01*
X146227192Y-67368985D01*
X146219121Y-67379767D01*
X146198375Y-67387504D01*
X146179746Y-67399477D01*
X146157827Y-67402628D01*
X146153657Y-67404184D01*
X146144811Y-67404500D01*
X145916189Y-67404500D01*
X145849150Y-67384815D01*
X145828508Y-67368181D01*
X144761819Y-66301492D01*
X144728334Y-66240169D01*
X144725500Y-66213811D01*
X144725500Y-65985189D01*
X144745185Y-65918150D01*
X144797989Y-65872395D01*
X144867147Y-65862451D01*
X144930703Y-65891476D01*
G37*
%TD.AperFunction*%
M02*
