%TF.GenerationSoftware,KiCad,Pcbnew,10.0.2*%
%TF.CreationDate,2026-06-20T13:40:25+06:00*%
%TF.ProjectId,ki,6b692e6b-6963-4616-945f-706362585858,rev?*%
%TF.SameCoordinates,Original*%
%TF.FileFunction,Paste,Top*%
%TF.FilePolarity,Positive*%
%FSLAX46Y46*%
G04 Gerber Fmt 4.6, Leading zero omitted, Abs format (unit mm)*
G04 Created by KiCad (PCBNEW 10.0.2) date 2026-06-20 13:40:25*
%MOMM*%
%LPD*%
G01*
G04 APERTURE LIST*
G04 Aperture macros list*
%AMRoundRect*
0 Rectangle with rounded corners*
0 $1 Rounding radius*
0 $2 $3 $4 $5 $6 $7 $8 $9 X,Y pos of 4 corners*
0 Add a 4 corners polygon primitive as box body*
4,1,4,$2,$3,$4,$5,$6,$7,$8,$9,$2,$3,0*
0 Add four circle primitives for the rounded corners*
1,1,$1+$1,$2,$3*
1,1,$1+$1,$4,$5*
1,1,$1+$1,$6,$7*
1,1,$1+$1,$8,$9*
0 Add four rect primitives between the rounded corners*
20,1,$1+$1,$2,$3,$4,$5,0*
20,1,$1+$1,$4,$5,$6,$7,0*
20,1,$1+$1,$6,$7,$8,$9,0*
20,1,$1+$1,$8,$9,$2,$3,0*%
G04 Aperture macros list end*
%ADD10RoundRect,0.140000X-0.170000X0.140000X-0.170000X-0.140000X0.170000X-0.140000X0.170000X0.140000X0*%
%ADD11RoundRect,0.140000X-0.140000X-0.170000X0.140000X-0.170000X0.140000X0.170000X-0.140000X0.170000X0*%
%ADD12R,0.800000X1.000000*%
%ADD13R,1.500000X0.700000*%
%ADD14RoundRect,0.135000X-0.185000X0.135000X-0.185000X-0.135000X0.185000X-0.135000X0.185000X0.135000X0*%
%ADD15R,1.000000X0.700000*%
%ADD16RoundRect,0.135000X-0.135000X-0.185000X0.135000X-0.185000X0.135000X0.185000X-0.135000X0.185000X0*%
%ADD17RoundRect,0.150000X-0.587500X-0.150000X0.587500X-0.150000X0.587500X0.150000X-0.587500X0.150000X0*%
%ADD18RoundRect,0.250000X-0.262500X-0.450000X0.262500X-0.450000X0.262500X0.450000X-0.262500X0.450000X0*%
%ADD19RoundRect,0.140000X0.170000X-0.140000X0.170000X0.140000X-0.170000X0.140000X-0.170000X-0.140000X0*%
%ADD20RoundRect,0.147500X0.172500X-0.147500X0.172500X0.147500X-0.172500X0.147500X-0.172500X-0.147500X0*%
%ADD21RoundRect,0.218750X-0.218750X-0.256250X0.218750X-0.256250X0.218750X0.256250X-0.218750X0.256250X0*%
%ADD22R,1.750000X0.950000*%
%ADD23R,1.750000X3.200000*%
G04 APERTURE END LIST*
D10*
%TO.C,C10*%
X160623053Y-59887922D03*
X160623053Y-58927922D03*
%TD*%
D11*
%TO.C,C6*%
X163480000Y-64000000D03*
X164440000Y-64000000D03*
%TD*%
D12*
%TO.C,SW1*%
X165370000Y-79150000D03*
X167580000Y-79150000D03*
X165370000Y-71850000D03*
X167580000Y-71850000D03*
D13*
X164720000Y-77750000D03*
X164720000Y-74750000D03*
X164720000Y-73250000D03*
%TD*%
D14*
%TO.C,R2*%
X133790350Y-78990000D03*
X133790350Y-80010000D03*
%TD*%
D15*
%TO.C,Q1*%
X135300000Y-77550000D03*
X135300000Y-79450000D03*
X137700000Y-78500000D03*
%TD*%
D16*
%TO.C,R9*%
X161490000Y-70500000D03*
X162510000Y-70500000D03*
%TD*%
D17*
%TO.C,Q2*%
X135062500Y-68550000D03*
X135062500Y-70450000D03*
X136937500Y-69500000D03*
%TD*%
D18*
%TO.C,R1*%
X132087500Y-74500000D03*
X133912500Y-74500000D03*
%TD*%
D19*
%TO.C,C1*%
X139000000Y-66480000D03*
X139000000Y-65520000D03*
%TD*%
D11*
%TO.C,C7*%
X163500000Y-65500000D03*
X164460000Y-65500000D03*
%TD*%
D20*
%TO.C,D1*%
X163000000Y-72985000D03*
X163000000Y-72015000D03*
%TD*%
D14*
%TO.C,R3*%
X139000000Y-75490000D03*
X139000000Y-76510000D03*
%TD*%
D11*
%TO.C,C4*%
X163500000Y-62500000D03*
X164460000Y-62500000D03*
%TD*%
%TO.C,C5*%
X163500000Y-61000000D03*
X164460000Y-61000000D03*
%TD*%
%TO.C,C8*%
X163500000Y-67000000D03*
X164460000Y-67000000D03*
%TD*%
D21*
%TO.C,D2*%
X160342500Y-74890000D03*
X161917500Y-74890000D03*
%TD*%
D14*
%TO.C,R4*%
X138500000Y-70490000D03*
X138500000Y-71510000D03*
%TD*%
D11*
%TO.C,C9*%
X163500000Y-59500000D03*
X164460000Y-59500000D03*
%TD*%
D22*
%TO.C,IC1*%
X160740000Y-50160000D03*
X160740000Y-52460000D03*
X160740000Y-54760000D03*
D23*
X167040000Y-52460000D03*
%TD*%
M02*
