M48
; DRILL file KiCad 10.0.2 date 2026-06-20T13:40:30
; FORMAT={-:-/ absolute / metric / decimal}
; #@! TF.CreationDate,2026-06-20T13:40:30+06:00
; #@! TF.GenerationSoftware,Kicad,Pcbnew,10.0.2
; #@! TF.FileFunction,Plated,1,2,PTH
FMAT,2
METRIC
; #@! TA.AperFunction,Plated,PTH,ViaDrill
T1C0.300
; #@! TA.AperFunction,Plated,PTH,ViaDrill
T2C0.400
; #@! TA.AperFunction,Plated,PTH,ComponentDrill
T3C0.950
; #@! TA.AperFunction,Plated,PTH,ComponentDrill
T4C1.000
%
G90
G05
T1
X132.5Y-73.0
T2
X133.5Y-70.0
X138.0Y-73.0
X138.79Y-57.57
X140.0Y-71.5
X143.69Y-47.66
X148.1Y-64.55
X148.12Y-59.03
X148.12Y-60.12
X148.12Y-61.31
X148.22Y-74.8
X148.22Y-75.89
X148.22Y-77.08
X148.22Y-78.28
X148.22Y-79.37
X148.22Y-80.56
X149.66Y-59.03
X149.66Y-60.12
X149.66Y-61.31
X149.76Y-74.8
X149.76Y-75.89
X149.76Y-77.08
X149.76Y-78.28
X149.76Y-79.37
X149.76Y-80.56
X151.26Y-59.03
X151.26Y-60.12
X151.26Y-61.31
X151.36Y-74.8
X151.36Y-75.89
X151.36Y-77.08
X151.36Y-78.28
X151.36Y-79.37
X151.36Y-80.56
X160.09Y-46.61
X160.5Y-89.0
X164.14Y-71.11
X164.85Y-52.34
X167.09Y-57.56
T3
X134.5Y-56.5
X134.5Y-59.0
X134.5Y-61.5
X134.5Y-64.0
T4
X134.25Y-50.7
X134.75Y-86.5
X136.75Y-50.7
X137.25Y-86.5
X142.39Y-49.95
X142.39Y-52.49
X142.39Y-55.03
X142.39Y-57.57
X142.39Y-60.11
X142.39Y-62.65
X142.39Y-65.19
X142.39Y-67.73
X142.39Y-70.27
X142.39Y-72.81
X142.39Y-75.35
X142.39Y-77.89
X142.39Y-80.43
X142.39Y-82.97
X142.39Y-85.51
X157.63Y-49.95
X157.63Y-52.49
X157.63Y-55.03
X157.63Y-57.57
X157.63Y-60.11
X157.63Y-62.65
X157.63Y-65.19
X157.63Y-67.73
X157.63Y-70.27
X157.63Y-72.81
X157.63Y-75.35
X157.63Y-77.89
X157.63Y-80.43
X157.63Y-82.97
X157.63Y-85.51
X162.5Y-85.8
X165.0Y-85.8
M30
